<svg viewBox="0 0 600 400" xmlns="http://www.w3.org/2000/svg">
<g transform="translate(72, 364)">
<g>
<g>
<circle cx="0" cy="-39.896956089667626" fill="#AA3355" r="1"/>
<circle cx="0.4" cy="-22.420252668193292" fill="#AA3355" r="1"/>
<circle cx="0.8" cy="-32.51773469574978" fill="#AA3355" r="1"/>
<circle cx="1.2" cy="-29.524184259198414" fill="#AA3355" r="1"/>
<circle cx="1.6" cy="-30.028432404262944" fill="#AA3355" r="1"/>
<circle cx="2" cy="-34.03283109544418" fill="#AA3355" r="1"/>
<circle cx="2.4" cy="-36.99452821062838" fill="#AA3355" r="1"/>
<circle cx="2.8" cy="-25.398353136768677" fill="#AA3355" r="1"/>
<circle cx="3.2" cy="-6.928804509459638" fill="#AA3355" r="1"/>
<circle cx="3.6" cy="-32.26124018416684" fill="#AA3355" r="1"/>
<circle cx="4" cy="-32.66102871329963" fill="#AA3355" r="1"/>
<circle cx="4.4" cy="-39.068625102879935" fill="#AA3355" r="1"/>
<circle cx="4.8" cy="-39.44376486443186" fill="#AA3355" r="1"/>
<circle cx="5.2" cy="-37.309110002813455" fill="#AA3355" r="1"/>
<circle cx="5.6" cy="-22.099936648875698" fill="#AA3355" r="1"/>
<circle cx="6" cy="-28.464797696266864" fill="#AA3355" r="1"/>
<circle cx="6.4" cy="-36.7588816025372" fill="#AA3355" r="1"/>
<circle cx="6.8" cy="-38.669369346072386" fill="#AA3355" r="1"/>
<circle cx="7.2" cy="-6.928804509459638" fill="#AA3355" r="1"/>
<circle cx="7.6" cy="-29.75738959798086" fill="#AA3355" r="1"/>
<circle cx="8" cy="-38.020658280266844" fill="#AA3355" r="1"/>
<circle cx="8.4" cy="-43.42393720728843" fill="#AA3355" r="1"/>
<circle cx="8.8" cy="-40.193658672659325" fill="#AA3355" r="1"/>
<circle cx="9.2" cy="-41.81818856376612" fill="#AA3355" r="1"/>
<circle cx="9.6" cy="-25.1961738931249" fill="#AA3355" r="1"/>
<circle cx="10" cy="-31.491353969886372" fill="#AA3355" r="1"/>
<circle cx="10.4" cy="-37.78142968334265" fill="#AA3355" r="1"/>
<circle cx="10.8" cy="-35.54726951154418" fill="#AA3355" r="1"/>
<circle cx="11.2" cy="-43.166784881794484" fill="#AA3355" r="1"/>
<circle cx="11.6" cy="-32.54097983588302" fill="#AA3355" r="1"/>
<circle cx="12" cy="-36.314134179328974" fill="#AA3355" r="1"/>
<circle cx="12.4" cy="-33.039595896436005" fill="#AA3355" r="1"/>
<circle cx="12.8" cy="-35.22121354771745" fill="#AA3355" r="1"/>
<circle cx="13.2" cy="-31.023948500434493" fill="#AA3355" r="1"/>
<circle cx="13.6" cy="-33.75887796109961" fill="#AA3355" r="1"/>
<circle cx="14" cy="-33.991620649974834" fill="#AA3355" r="1"/>
<circle cx="14.4" cy="-22.179886300226386" fill="#AA3355" r="1"/>
<circle cx="14.8" cy="-28.426801592710014" fill="#AA3355" r="1"/>
<circle cx="15.2" cy="-36.60888702588888" fill="#AA3355" r="1"/>
<circle cx="15.6" cy="-36.82925553184518" fill="#AA3355" r="1"/>
<circle cx="16" cy="-32.60983952157698" fill="#AA3355" r="1"/>
<circle cx="16.4" cy="-35.323465240457814" fill="#AA3355" r="1"/>
<circle cx="16.8" cy="-35.53570445573342" fill="#AA3355" r="1"/>
<circle cx="17.2" cy="-33.246648449432605" fill="#AA3355" r="1"/>
<circle cx="17.6" cy="-40.813469064216044" fill="#AA3355" r="1"/>
<circle cx="18" cy="-33.65886681790421" fill="#AA3355" r="1"/>
<circle cx="18.4" cy="-30.339701989979737" fill="#AA3355" r="1"/>
<circle cx="18.8" cy="-24.51956389930448" fill="#AA3355" r="1"/>
<circle cx="19.2" cy="-6.928804509459638" fill="#AA3355" r="1"/>
<circle cx="19.6" cy="-24.91417282604278" fill="#AA3355" r="1"/>
<circle cx="20" cy="-25.108452291948744" fill="#AA3355" r="1"/>
<circle cx="20.4" cy="-34.84322343444752" fill="#AA3355" r="1"/>
<circle cx="20.8" cy="-6.928804509459638" fill="#AA3355" r="1"/>
<circle cx="21.2" cy="-25.679923421138966" fill="#AA3355" r="1"/>
<circle cx="21.6" cy="-35.409237846836845" fill="#AA3355" r="1"/>
<circle cx="22" cy="-32.07258946325531" fill="#AA3355" r="1"/>
<circle cx="22.4" cy="-26.235503271079637" fill="#AA3355" r="1"/>
<circle cx="22.8" cy="-26.417401321136396" fill="#AA3355" r="1"/>
<circle cx="23.2" cy="-38.63892899181579" fill="#AA3355" r="1"/>
<circle cx="23.6" cy="-36.31895552687059" fill="#AA3355" r="1"/>
<circle cx="24" cy="-36.49627210745116" fill="#AA3355" r="1"/>
<circle cx="24.4" cy="-27.129719149415514" fill="#AA3355" r="1"/>
<circle cx="24.8" cy="-6.928804509459638" fill="#AA3355" r="1"/>
<circle cx="25.2" cy="-21.456683411632653" fill="#AA3355" r="1"/>
<circle cx="25.6" cy="-27.64904834860687" fill="#AA3355" r="1"/>
<circle cx="26" cy="-21.798915128553205" fill="#AA3355" r="1"/>
<circle cx="26.4" cy="-35.947516754814366" fill="#AA3355" r="1"/>
<circle cx="26.8" cy="-22.13608501968679" fill="#AA3355" r="1"/>
<circle cx="27.2" cy="-28.32345090933181" fill="#AA3355" r="1"/>
<circle cx="27.6" cy="-6.928804509459638" fill="#AA3355" r="1"/>
<circle cx="28" cy="-22.632893633280418" fill="#AA3355" r="1"/>
<circle cx="28.4" cy="-34.83742645667686" fill="#AA3355" r="1"/>
<circle cx="28.8" cy="-34.99966984433005" fill="#AA3355" r="1"/>
<circle cx="29.2" cy="-32.66207469656219" fill="#AA3355" r="1"/>
<circle cx="29.6" cy="-6.928804509459638" fill="#AA3355" r="1"/>
<circle cx="30" cy="-32.981341371917026" fill="#AA3355" r="1"/>
<circle cx="30.4" cy="-35.63825061269242" fill="#AA3355" r="1"/>
<circle cx="30.8" cy="-29.774816310766354" fill="#AA3355" r="1"/>
<circle cx="31.2" cy="-29.931034848931724" fill="#AA3355" r="1"/>
<circle cx="31.6" cy="-36.10692735454826" fill="#AA3355" r="1"/>
<circle cx="32" cy="-38.19951472106258" fill="#AA3355" r="1"/>
<circle cx="32.4" cy="-33.9160411691153" fill="#AA3355" r="1"/>
<circle cx="32.8" cy="-30.546850968844947" fill="#AA3355" r="1"/>
<circle cx="33.2" cy="-24.678038194663117" fill="#AA3355" r="1"/>
<circle cx="33.6" cy="-24.828995544835593" fill="#AA3355" r="1"/>
<circle cx="34" cy="-6.928804509459638" fill="#AA3355" r="1"/>
<circle cx="34.4" cy="-34.67091549309963" fill="#AA3355" r="1"/>
<circle cx="34.8" cy="-25.27706138018889" fill="#AA3355" r="1"/>
<circle cx="35.2" cy="-31.445469481302165" fill="#AA3355" r="1"/>
<circle cx="35.6" cy="-6.928804509459638" fill="#AA3355" r="1"/>
<circle cx="36" cy="-25.71825929418317" fill="#AA3355" r="1"/>
<circle cx="36.4" cy="-37.905070428080556" fill="#AA3355" r="1"/>
<circle cx="36.8" cy="-35.55120378032292" fill="#AA3355" r="1"/>
<circle cx="37.2" cy="-41.71602241512627" fill="#AA3355" r="1"/>
<circle cx="37.6" cy="-32.31714015648766" fill="#AA3355" r="1"/>
<circle cx="38" cy="-32.46002021453002" fill="#AA3355" r="1"/>
<circle cx="38.4" cy="-40.56105042054817" fill="#AA3355" r="1"/>
<circle cx="38.8" cy="-6.928804509459638" fill="#AA3355" r="1"/>
<circle cx="39.2" cy="-26.864209627932105" fill="#AA3355" r="1"/>
<circle cx="39.6" cy="-33.025162639367096" fill="#AA3355" r="1"/>
<circle cx="40" cy="-30.666138675794983" fill="#AA3355" r="1"/>
<circle cx="40.4" cy="-30.805298267201948" fill="#AA3355" r="1"/>
<circle cx="40.8" cy="-27.422052365026524" fill="#AA3355" r="1"/>
<circle cx="41.2" cy="-21.539462004996963" fill="#AA3355" r="1"/>
<circle cx="41.6" cy="-31.21933724510662" fill="#AA3355" r="1"/>
<circle cx="42" cy="-27.83441286062974" fill="#AA3355" r="1"/>
<circle cx="42.4" cy="-31.492599296612024" fill="#AA3355" r="1"/>
<circle cx="42.8" cy="-36.06540556641736" fill="#AA3355" r="1"/>
<circle cx="43.2" cy="-28.241916022384785" fill="#AA3355" r="1"/>
<circle cx="43.6" cy="-28.376715105546033" fill="#AA3355" r="1"/>
<circle cx="44" cy="-32.03283670515862" fill="#AA3355" r="1"/>
<circle cx="44.4" cy="-34.665413859479415" fill="#AA3355" r="1"/>
<circle cx="44.8" cy="-34.798730747040025" fill="#AA3355" r="1"/>
<circle cx="45.2" cy="-22.89037053506707" fill="#AA3355" r="1"/>
<circle cx="45.6" cy="-32.56516603875106" fill="#AA3355" r="1"/>
<circle cx="46" cy="-29.175249941322647" fill="#AA3355" r="1"/>
<circle cx="46.4" cy="-23.28610548354966" fill="#AA3355" r="1"/>
<circle cx="46.8" cy="-29.437714744830785" fill="#AA3355" r="1"/>
<circle cx="47.2" cy="-6.928804509459638" fill="#AA3355" r="1"/>
<circle cx="47.6" cy="-35.71902426214802" fill="#AA3355" r="1"/>
<circle cx="48" cy="-23.80753889595777" fill="#AA3355" r="1"/>
<circle cx="48.4" cy="-29.957435580422427" fill="#AA3355" r="1"/>
<circle cx="48.8" cy="-6.928804509459638" fill="#AA3355" r="1"/>
<circle cx="49.2" cy="-38.1736029315244" fill="#AA3355" r="1"/>
<circle cx="49.6" cy="-36.363486064196735" fill="#AA3355" r="1"/>
<circle cx="50" cy="-6.928804509459638" fill="#AA3355" r="1"/>
<circle cx="50.4" cy="-41.47924484579317" fill="#AA3355" r="1"/>
<circle cx="50.8" cy="-30.72481053541018" fill="#AA3355" r="1"/>
<circle cx="51.2" cy="-24.83076353922307" fill="#AA3355" r="1"/>
<circle cx="51.6" cy="-24.956948559397283" fill="#AA3355" r="1"/>
<circle cx="52" cy="-39.0621714110042" fill="#AA3355" r="1"/>
<circle cx="52.4" cy="-31.22883727112125" fill="#AA3355" r="1"/>
<circle cx="52.8" cy="-31.353951982835685" fill="#AA3355" r="1"/>
<circle cx="53.2" cy="-31.478720670807974" fill="#AA3355" r="1"/>
<circle cx="53.6" cy="-41.14557361913519" fill="#AA3355" r="1"/>
<circle cx="54" cy="-31.72724062883148" fill="#AA3355" r="1"/>
<circle cx="54.4" cy="-35.3728271456659" fill="#AA3355" r="1"/>
<circle cx="54.8" cy="-35.49626259447599" fill="#AA3355" r="1"/>
<circle cx="55.2" cy="-32.097551759314875" fill="#AA3355" r="1"/>
<circle cx="55.6" cy="-35.74217487269916" fill="#AA3355" r="1"/>
<circle cx="56" cy="-26.322235893640027" fill="#AA3355" r="1"/>
<circle cx="56.4" cy="-32.4650146120004" fill="#AA3355" r="1"/>
<circle cx="56.8" cy="-32.58689052574219" fill="#AA3355" r="1"/>
<circle cx="57.2" cy="-26.687867968231878" fill="#AA3355" r="1"/>
<circle cx="57.6" cy="-26.809151015998438" fill="#AA3355" r="1"/>
<circle cx="58" cy="-6.928804509459638" fill="#AA3355" r="1"/>
<circle cx="58.4" cy="-6.928804509459638" fill="#AA3355" r="1"/>
<circle cx="58.8" cy="-35.13007577679154" fill="#AA3355" r="1"/>
<circle cx="59.2" cy="-30.81324750359585" fill="#AA3355" r="1"/>
<circle cx="59.6" cy="-27.411294803249824" fill="#AA3355" r="1"/>
<circle cx="60" cy="-6.928804509459638" fill="#AA3355" r="1"/>
<circle cx="60.4" cy="-21.629632231058125" fill="#AA3355" r="1"/>
<circle cx="60.8" cy="-21.748704465174136" fill="#AA3355" r="1"/>
<circle cx="61.2" cy="-27.888117125105722" fill="#AA3355" r="1"/>
<circle cx="61.6" cy="-21.986073991743673" fill="#AA3355" r="1"/>
<circle cx="62" cy="-31.64680335639204" fill="#AA3355" r="1"/>
<circle cx="62.4" cy="-31.764858511888892" fill="#AA3355" r="1"/>
<circle cx="62.8" cy="-34.381442618976905" fill="#AA3355" r="1"/>
<circle cx="63.2" cy="-28.4784095749119" fill="#AA3355" r="1"/>
<circle cx="63.6" cy="-32.11756233644959" fill="#AA3355" r="1"/>
<circle cx="64" cy="-22.692228693981953" fill="#AA3355" r="1"/>
<circle cx="64.4" cy="-32.351512216757854" fill="#AA3355" r="1"/>
<circle cx="64.8" cy="-28.946315491355357" fill="#AA3355" r="1"/>
<circle cx="65.2" cy="-32.58454215351264" fill="#AA3355" r="1"/>
<circle cx="65.6" cy="-38.72131951948852" fill="#AA3355" r="1"/>
<circle cx="66" cy="-32.81667592634406" fill="#AA3355" r="1"/>
<circle cx="66.4" cy="-23.389988865896" fill="#AA3355" r="1"/>
<circle cx="66.8" cy="-33.047936506088504" fill="#AA3355" r="1"/>
<circle cx="67.2" cy="-35.6620210466831" fill="#AA3355" r="1"/>
<circle cx="67.6" cy="-29.756520908997608" fill="#AA3355" r="1"/>
<circle cx="68" cy="-29.87141331105608" fill="#AA3355" r="1"/>
<circle cx="68.4" cy="-23.965501041335777" fill="#AA3355" r="1"/>
<circle cx="68.8" cy="-24.079986498119297" fill="#AA3355" r="1"/>
<circle cx="69.2" cy="-30.21487221074061" fill="#AA3355" r="1"/>
<circle cx="69.6" cy="-30.328960840484243" fill="#AA3355" r="1"/>
<circle cx="70" cy="-6.928804509459638" fill="#AA3355" r="1"/>
<circle cx="70.4" cy="-6.928804509459638" fill="#AA3355" r="1"/>
<circle cx="70.8" cy="-34.19189316756171" fill="#AA3355" r="1"/>
<circle cx="71.2" cy="-24.762792103336402" fill="#AA3355" r="1"/>
<circle cx="71.6" cy="-6.928804509459638" fill="#AA3355" r="1"/>
<circle cx="72" cy="-24.98888645160804" fill="#AA3355" r="1"/>
<circle cx="72.4" cy="-34.64408634132855" fill="#AA3355" r="1"/>
<circle cx="72.8" cy="-6.928804509459638" fill="#AA3355" r="1"/>
<circle cx="73.2" cy="-31.347276922054416" fill="#AA3355" r="1"/>
<circle cx="73.6" cy="-34.98134733848662" fill="#AA3355" r="1"/>
<circle cx="74" cy="-35.093420267150144" fill="#AA3355" r="1"/>
<circle cx="74.4" cy="-39.64229793369842" fill="#AA3355" r="1"/>
<circle cx="74.8" cy="-35.31705738166092" fill="#AA3355" r="1"/>
<circle cx="75.2" cy="-35.42862557745526" fill="#AA3355" r="1"/>
<circle cx="75.6" cy="-38.038804219893585" fill="#AA3355" r="1"/>
<circle cx="76" cy="-26.108845947192627" fill="#AA3355" r="1"/>
<circle cx="76.4" cy="-26.21992704446175" fill="#AA3355" r="1"/>
<circle cx="76.8" cy="-26.33084955625229" fill="#AA3355" r="1"/>
<circle cx="77.2" cy="-35.984040419908645" fill="#AA3355" r="1"/>
<circle cx="77.6" cy="-6.928804509459638" fill="#AA3355" r="1"/>
<circle cx="78" cy="-32.683283783984045" fill="#AA3355" r="1"/>
<circle cx="78.4" cy="-32.793590109826525" fill="#AA3355" r="1"/>
<circle cx="78.8" cy="-36.42557197510886" fill="#AA3355" r="1"/>
<circle cx="79.2" cy="-26.993155633238075" fill="#AA3355" r="1"/>
<circle cx="79.6" cy="-35.061818312487176" fill="#AA3355" r="1"/>
<circle cx="80" cy="-27.212736058447398" fill="#AA3355" r="1"/>
<circle cx="80.4" cy="-27.322311027580852" fill="#AA3355" r="1"/>
<circle cx="80.8" cy="-27.43174465886824" fill="#AA3355" r="1"/>
<circle cx="81.2" cy="-21.52043862817088" fill="#AA3355" r="1"/>
<circle cx="81.6" cy="-27.65019424161629" fill="#AA3355" r="1"/>
<circle cx="82" cy="-33.77981321649944" fill="#AA3355" r="1"/>
<circle cx="82.4" cy="-21.847497334810626" fill="#AA3355" r="1"/>
<circle cx="82.8" cy="-27.97684757643097" fill="#AA3355" r="1"/>
<circle cx="83.2" cy="-28.085465767210565" fill="#AA3355" r="1"/>
<circle cx="83.6" cy="-28.193953278544512" fill="#AA3355" r="1"/>
<circle cx="84" cy="-28.30231154806892" fill="#AA3355" r="1"/>
<circle cx="84.4" cy="-34.431141906585445" fill="#AA3355" r="1"/>
<circle cx="84.8" cy="-36.47744618546099" fill="#AA3355" r="1"/>
<circle cx="85.2" cy="-34.647224895849185" fill="#AA3355" r="1"/>
<circle cx="85.6" cy="-28.73448026424562" fill="#AA3355" r="1"/>
<circle cx="86" cy="-32.364038378722384" fill="#AA3355" r="1"/>
<circle cx="86.4" cy="-34.97042501809453" fill="#AA3355" r="1"/>
<circle cx="86.8" cy="-6.928804509459638" fill="#AA3355" r="1"/>
<circle cx="87.2" cy="-23.14409112599357" fill="#AA3355" r="1"/>
<circle cx="87.6" cy="-32.793772802776324" fill="#AA3355" r="1"/>
<circle cx="88" cy="-32.9009134698903" fill="#AA3355" r="1"/>
<circle cx="88.4" cy="-23.465514362136695" fill="#AA3355" r="1"/>
<circle cx="88.8" cy="-29.59302679979988" fill="#AA3355" r="1"/>
<circle cx="89.2" cy="-35.72042697712309" fill="#AA3355" r="1"/>
<circle cx="89.6" cy="-23.78591634015752" fill="#AA3355" r="1"/>
<circle cx="90" cy="-39.45552063310757" fill="#AA3355" r="1"/>
<circle cx="90.4" cy="-33.54139125542993" fill="#AA3355" r="1"/>
<circle cx="90.8" cy="-24.105329086371263" fill="#AA3355" r="1"/>
<circle cx="91.2" cy="-33.754010620259685" fill="#AA3355" r="1"/>
<circle cx="91.6" cy="-24.317736589218164" fill="#AA3355" r="1"/>
<circle cx="92" cy="-36.46498319819319" fill="#AA3355" r="1"/>
<circle cx="92.4" cy="-36.57092678063037" fill="#AA3355" r="1"/>
<circle cx="92.8" cy="-24.635568403469996" fill="#AA3355" r="1"/>
<circle cx="93.2" cy="-34.283733867375936" fill="#AA3355" r="1"/>
<circle cx="93.6" cy="-6.928804509459638" fill="#AA3355" r="1"/>
<circle cx="94" cy="-34.49491551175161" fill="#AA3355" r="1"/>
<circle cx="94.4" cy="-31.078533644859476" fill="#AA3355" r="1"/>
<circle cx="94.8" cy="-31.18387995833842" fill="#AA3355" r="1"/>
<circle cx="95.2" cy="-31.28913025856018" fill="#AA3355" r="1"/>
<circle cx="95.6" cy="-34.916110701615466" fill="#AA3355" r="1"/>
<circle cx="96" cy="-6.928804509459638" fill="#AA3355" r="1"/>
<circle cx="96.4" cy="-31.604314768099258" fill="#AA3355" r="1"/>
<circle cx="96.8" cy="-6.928804509459638" fill="#AA3355" r="1"/>
<circle cx="97.2" cy="-37.834575171514544" fill="#AA3355" r="1"/>
<circle cx="97.6" cy="-25.898069616055324" fill="#AA3355" r="1"/>
<circle cx="98" cy="-6.928804509459638" fill="#AA3355" r="1"/>
<circle cx="98.4" cy="-26.107190730336427" fill="#AA3355" r="1"/>
<circle cx="98.8" cy="-6.928804509459638" fill="#AA3355" r="1"/>
<circle cx="99.2" cy="-40.295361257657305" fill="#AA3355" r="1"/>
<circle cx="99.6" cy="-32.44081697251829" fill="#AA3355" r="1"/>
<circle cx="100" cy="-32.54498777591824" fill="#AA3355" r="1"/>
<circle cx="100.4" cy="-6.928804509459638" fill="#AA3355" r="1"/>
<circle cx="100.8" cy="-36.27490265625319" fill="#AA3355" r="1"/>
<circle cx="101.2" cy="-26.836398105891917" fill="#AA3355" r="1"/>
<circle cx="101.6" cy="-6.928804509459638" fill="#AA3355" r="1"/>
<circle cx="102" cy="-21.023394715593575" fill="#AA3355" r="1"/>
<circle cx="102.4" cy="-30.669497378210764" fill="#AA3355" r="1"/>
<circle cx="102.8" cy="-27.251270346801917" fill="#AA3355" r="1"/>
<circle cx="103.2" cy="-21.334189935770844" fill="#AA3355" r="1"/>
<circle cx="103.6" cy="-33.47883137900766" fill="#AA3355" r="1"/>
<circle cx="104" cy="-37.10402104407077" fill="#AA3355" r="1"/>
<circle cx="104.4" cy="-33.68548395811267" fill="#AA3355" r="1"/>
<circle cx="104.8" cy="-6.928804509459638" fill="#AA3355" r="1"/>
<circle cx="105.2" cy="-6.928804509459638" fill="#AA3355" r="1"/>
<circle cx="105.6" cy="-21.953697392701024" fill="#AA3355" r="1"/>
<circle cx="106" cy="-28.077287111662272" fill="#AA3355" r="1"/>
<circle cx="106.4" cy="-22.159604205812684" fill="#AA3355" r="1"/>
<circle cx="106.8" cy="-34.30364893470198" fill="#AA3355" r="1"/>
<circle cx="107.2" cy="-28.38582250376419" fill="#AA3355" r="1"/>
<circle cx="107.6" cy="-22.467925330025942" fill="#AA3355" r="1"/>
<circle cx="108" cy="-28.591157909423366" fill="#AA3355" r="1"/>
<circle cx="108.4" cy="-22.67312125051582" fill="#AA3355" r="1"/>
<circle cx="108.8" cy="-28.796215660509787" fill="#AA3355" r="1"/>
<circle cx="109.2" cy="-36.85744221961336" fill="#AA3355" r="1"/>
<circle cx="109.6" cy="-22.980401046733867" fill="#AA3355" r="1"/>
<circle cx="110" cy="-29.103293033989992" fill="#AA3355" r="1"/>
<circle cx="110.4" cy="-32.72734407400286" fill="#AA3355" r="1"/>
<circle cx="110.8" cy="-23.287079241149016" fill="#AA3355" r="1"/>
<circle cx="111.2" cy="-35.43037434263418" fill="#AA3355" r="1"/>
<circle cx="111.6" cy="-23.491205408259503" fill="#AA3355" r="1"/>
<circle cx="112" cy="-33.13559760918935" fill="#AA3355" r="1"/>
<circle cx="112.4" cy="-35.73627625265232" fill="#AA3355" r="1"/>
<circle cx="112.8" cy="-6.928804509459638" fill="#AA3355" r="1"/>
<circle cx="113.2" cy="-33.441122086120885" fill="#AA3355" r="1"/>
<circle cx="113.6" cy="-6.928804509459638" fill="#AA3355" r="1"/>
<circle cx="114" cy="-24.102071698192447" fill="#AA3355" r="1"/>
<circle cx="114.4" cy="-30.224268175084216" fill="#AA3355" r="1"/>
<circle cx="114.8" cy="-6.928804509459638" fill="#AA3355" r="1"/>
<circle cx="115.2" cy="-30.427282484052043" fill="#AA3355" r="1"/>
<circle cx="115.6" cy="-30.52870131563537" fill="#AA3355" r="1"/>
<circle cx="116" cy="-36.650661892814576" fill="#AA3355" r="1"/>
<circle cx="116.4" cy="-24.710765090851474" fill="#AA3355" r="1"/>
<circle cx="116.8" cy="-24.812010998773033" fill="#AA3355" r="1"/>
<circle cx="117.2" cy="-34.45562540136699" fill="#AA3355" r="1"/>
<circle cx="117.6" cy="-25.01433352680767" fill="#AA3355" r="1"/>
<circle cx="118" cy="-6.928804509459638" fill="#AA3355" r="1"/>
<circle cx="118.4" cy="-25.21643371923819" fill="#AA3355" r="1"/>
<circle cx="118.8" cy="-34.85982678160067" fill="#AA3355" r="1"/>
<circle cx="119.2" cy="-31.438915470977204" fill="#AA3355" r="1"/>
<circle cx="119.6" cy="-35.06160090954811" fill="#AA3355" r="1"/>
<circle cx="120" cy="-39.59938302557404" fill="#AA3355" r="1"/>
<circle cx="120.4" cy="-31.741337316243797" fill="#AA3355" r="1"/>
<circle cx="120.8" cy="-35.363864771011855" fill="#AA3355" r="1"/>
<circle cx="121.2" cy="-31.94269013725588" fill="#AA3355" r="1"/>
<circle cx="121.6" cy="-26.022689504288188" fill="#AA3355" r="1"/>
<circle cx="122" cy="-32.143837885239535" fill="#AA3355" r="1"/>
<circle cx="122.4" cy="-32.24433598989375" fill="#AA3355" r="1"/>
<circle cx="122.8" cy="-6.928804509459638" fill="#AA3355" r="1"/>
<circle cx="123.2" cy="-35.967008066205395" fill="#AA3355" r="1"/>
<circle cx="123.6" cy="-26.52493263823292" fill="#AA3355" r="1"/>
<circle cx="124" cy="-32.645833606787384" fill="#AA3355" r="1"/>
<circle cx="124.4" cy="-32.74608647752416" fill="#AA3355" r="1"/>
<circle cx="124.8" cy="-26.82569167262173" fill="#AA3355" r="1"/>
<circle cx="125.2" cy="-26.92584943644441" fill="#AA3355" r="1"/>
<circle cx="125.6" cy="-21.005360355919294" fill="#AA3355" r="1"/>
<circle cx="126" cy="-21.105424666827624" fill="#AA3355" r="1"/>
<circle cx="126.4" cy="-27.226042774180215" fill="#AA3355" r="1"/>
<circle cx="126.8" cy="-33.34661516554977" fill="#AA3355" r="1"/>
<circle cx="127.2" cy="-30.947767592235746" fill="#AA3355" r="1"/>
<circle cx="127.6" cy="-27.525824643425523" fill="#AA3355" r="1"/>
<circle cx="128" cy="-37.16808743225698" fill="#AA3355" r="1"/>
<circle cx="128.4" cy="-27.72545587916362" fill="#AA3355" r="1"/>
<circle cx="128.8" cy="-21.804605734864815" fill="#AA3355" r="1"/>
<circle cx="129.2" cy="-21.904312108485833" fill="#AA3355" r="1"/>
<circle cx="129.6" cy="-28.024575373173484" fill="#AA3355" r="1"/>
<circle cx="130" cy="-22.1035961584694" fill="#AA3355" r="1"/>
<circle cx="130.4" cy="-22.203174569873134" fill="#AA3355" r="1"/>
<circle cx="130.8" cy="-28.323310969369935" fill="#AA3355" r="1"/>
<circle cx="131.2" cy="-28.422805888755533" fill="#AA3355" r="1"/>
<circle cx="131.6" cy="-22.5016596827982" fill="#AA3355" r="1"/>
<circle cx="132" cy="-36.580472616002346" fill="#AA3355" r="1"/>
<circle cx="132.4" cy="-32.24286995704439" fill="#AA3355" r="1"/>
<circle cx="132.8" cy="-34.84097685373012" fill="#AA3355" r="1"/>
<circle cx="133.2" cy="-22.899069363688653" fill="#AA3355" r="1"/>
<circle cx="133.6" cy="-22.998322209675308" fill="#AA3355" r="1"/>
<circle cx="134" cy="-32.63996099365851" fill="#AA3355" r="1"/>
<circle cx="134.4" cy="-23.196710763295698" fill="#AA3355" r="1"/>
<circle cx="134.8" cy="-32.83827222373944" fill="#AA3355" r="1"/>
<circle cx="135.2" cy="-23.394945321776675" fill="#AA3355" r="1"/>
<circle cx="135.6" cy="-23.494005661765733" fill="#AA3355" r="1"/>
<circle cx="136" cy="-23.59302846734778" fill="#AA3355" r="1"/>
<circle cx="136.4" cy="-33.23443914784324" fill="#AA3355" r="1"/>
<circle cx="136.8" cy="-23.790962731928786" fill="#AA3355" r="1"/>
<circle cx="137.2" cy="-29.910474724885106" fill="#AA3355" r="1"/>
<circle cx="137.6" cy="-23.98875059830157" fill="#AA3355" r="1"/>
<circle cx="138" cy="-24.087590394873857" fill="#AA3355" r="1"/>
<circle cx="138.4" cy="-33.72881959564175" fill="#AA3355" r="1"/>
<circle cx="138.8" cy="-24.285163214455174" fill="#AA3355" r="1"/>
<circle cx="139.2" cy="-24.383896828660063" fill="#AA3355" r="1"/>
<circle cx="139.6" cy="-36.523795461758546" fill="#AA3355" r="1"/>
<circle cx="140" cy="-30.601859835890544" fill="#AA3355" r="1"/>
<circle cx="140.4" cy="-34.22231507106062" fill="#AA3355" r="1"/>
<circle cx="140.8" cy="-6.928804509459638" fill="#AA3355" r="1"/>
<circle cx="141.2" cy="-24.87704851416467" fill="#AA3355" r="1"/>
<circle cx="141.6" cy="-24.975577555603508" fill="#AA3355" r="1"/>
<circle cx="142" cy="-34.61649857413754" fill="#AA3355" r="1"/>
<circle cx="142.4" cy="-6.928804509459638" fill="#AA3355" r="1"/>
<circle cx="142.8" cy="-37.31216688974364" fill="#AA3355" r="1"/>
<circle cx="143.2" cy="-37.41056508614186" fill="#AA3355" r="1"/>
<circle cx="143.6" cy="-6.928804509459638" fill="#AA3355" r="1"/>
<circle cx="144" cy="-35.108490879896976" fill="#AA3355" r="1"/>
<circle cx="144.4" cy="-25.664368637061088" fill="#AA3355" r="1"/>
<circle cx="144.8" cy="-25.76264022495259" fill="#AA3355" r="1"/>
<circle cx="145.2" cy="-25.860880804106543" fill="#AA3355" r="1"/>
<circle cx="145.6" cy="-31.979690540343913" fill="#AA3355" r="1"/>
<circle cx="146" cy="-35.59969503839987" fill="#AA3355" r="1"/>
<circle cx="146.4" cy="-26.155419002780143" fill="#AA3355" r="1"/>
<circle cx="146.8" cy="-6.928804509459638" fill="#AA3355" r="1"/>
<circle cx="147.2" cy="-26.351627325689506" fill="#AA3355" r="1"/>
<circle cx="147.6" cy="-32.47028698735665" fill="#AA3355" r="1"/>
<circle cx="148" cy="-26.54771753284905" fill="#AA3355" r="1"/>
<circle cx="148.4" cy="-32.66631885183994" fill="#AA3355" r="1"/>
<circle cx="148.8" cy="-26.743691525580928" fill="#AA3355" r="1"/>
<circle cx="149.2" cy="-32.86223543939993" fill="#AA3355" r="1"/>
<circle cx="149.6" cy="-26.93955117025027" fill="#AA3355" r="1"/>
<circle cx="150" cy="-30.55926386704229" fill="#AA3355" r="1"/>
<circle cx="150.4" cy="-30.657123480135656" fill="#AA3355" r="1"/>
<circle cx="150.8" cy="-35.19193040676896" fill="#AA3355" r="1"/>
<circle cx="151.2" cy="-21.310334797319186" fill="#AA3355" r="1"/>
<circle cx="151.6" cy="-6.928804509459638" fill="#AA3355" r="1"/>
<circle cx="152" cy="-21.505862257659842" fill="#AA3355" r="1"/>
<circle cx="152.4" cy="-27.624185587477754" fill="#AA3355" r="1"/>
<circle cx="152.8" cy="-31.243707595073147" fill="#AA3355" r="1"/>
<circle cx="153.2" cy="-31.341378043342978" fill="#AA3355" r="1"/>
<circle cx="153.6" cy="-6.928804509459638" fill="#AA3355" r="1"/>
<circle cx="154" cy="-21.994215548660883" fill="#AA3355" r="1"/>
<circle cx="154.4" cy="-28.112408027560534" fill="#AA3355" r="1"/>
<circle cx="154.8" cy="-22.189375130086795" fill="#AA3355" r="1"/>
<circle cx="155.2" cy="-28.30751671181222" fill="#AA3355" r="1"/>
<circle cx="155.6" cy="-31.92685841464701" fill="#AA3355" r="1"/>
<circle cx="156" cy="-28.502524807365432" fill="#AA3355" r="1"/>
<circle cx="156.4" cy="-22.579391717083404" fill="#AA3355" r="1"/>
<circle cx="156.8" cy="-22.676833984538902" fill="#AA3355" r="1"/>
<circle cx="157.2" cy="-28.794851803280572" fill="#AA3355" r="1"/>
<circle cx="157.6" cy="-6.928804509459638" fill="#AA3355" r="1"/>
<circle cx="158" cy="-28.98961529380898" fill="#AA3355" r="1"/>
<circle cx="158.4" cy="-32.60878643853008" fill="#AA3355" r="1"/>
<circle cx="158.8" cy="-23.163683702868134" fill="#AA3355" r="1"/>
<circle cx="159.2" cy="-29.28158255510141" fill="#AA3355" r="1"/>
<circle cx="159.6" cy="-23.358258344458136" fill="#AA3355" r="1"/>
<circle cx="160" cy="-6.928804509459638" fill="#AA3355" r="1"/>
<circle cx="160.4" cy="-33.095165860925384" fill="#AA3355" r="1"/>
<circle cx="160.8" cy="-33.19237293924562" fill="#AA3355" r="1"/>
<circle cx="161.2" cy="-29.767732317932598" fill="#AA3355" r="1"/>
<circle cx="161.6" cy="-39.40731962912732" fill="#AA3355" r="1"/>
<circle cx="162" cy="-37.920834755958026" fill="#AA3355" r="1"/>
<circle cx="162.4" cy="-6.928804509459638" fill="#AA3355" r="1"/>
<circle cx="162.8" cy="-30.15624885934866" fill="#AA3355" r="1"/>
<circle cx="163.2" cy="-30.253323428801515" fill="#AA3355" r="1"/>
<circle cx="163.6" cy="-24.329776596795902" fill="#AA3355" r="1"/>
<circle cx="164" cy="-24.426808356406298" fill="#AA3355" r="1"/>
<circle cx="164.4" cy="-6.928804509459638" fill="#AA3355" r="1"/>
<circle cx="164.8" cy="-36.66200839602979" fill="#AA3355" r="1"/>
<circle cx="165.2" cy="-6.928804509459638" fill="#AA3355" r="1"/>
<circle cx="165.6" cy="-6.928804509459638" fill="#AA3355" r="1"/>
<circle cx="166" cy="-24.911653056977592" fill="#AA3355" r="1"/>
<circle cx="166.4" cy="-25.0085603033423" fill="#AA3355" r="1"/>
<circle cx="166.8" cy="-31.126047267187893" fill="#AA3355" r="1"/>
<circle cx="167.2" cy="-25.202314364005254" fill="#AA3355" r="1"/>
<circle cx="167.6" cy="-6.928804509459638" fill="#AA3355" r="1"/>
<circle cx="168" cy="-31.41658879072441" fill="#AA3355" r="1"/>
<circle cx="168.4" cy="-31.513396598099735" fill="#AA3355" r="1"/>
<circle cx="168.8" cy="-31.610184973097443" fill="#AA3355" r="1"/>
<circle cx="169.2" cy="-25.686354151219213" fill="#AA3355" r="1"/>
<circle cx="169.6" cy="-31.803704019813956" fill="#AA3355" r="1"/>
<circle cx="170" cy="-6.928804509459638" fill="#AA3355" r="1"/>
<circle cx="170.4" cy="-31.99714710594538" fill="#AA3355" r="1"/>
<circle cx="170.8" cy="-6.928804509459638" fill="#AA3355" r="1"/>
<circle cx="171.2" cy="-35.71234056773637" fill="#AA3355" r="1"/>
<circle cx="171.6" cy="-26.266571917258617" fill="#AA3355" r="1"/>
<circle cx="172" cy="-32.38380999742638" fill="#AA3355" r="1"/>
<circle cx="172.4" cy="-6.928804509459638" fill="#AA3355" r="1"/>
<circle cx="172.8" cy="-36.09885723587993" fill="#AA3355" r="1"/>
<circle cx="173.2" cy="-32.6736162196152" fill="#AA3355" r="1"/>
<circle cx="173.6" cy="-36.29200783736728" fill="#AA3355" r="1"/>
<circle cx="174" cy="-36.388556680119066" fill="#AA3355" r="1"/>
<circle cx="174.4" cy="-30.464488148898425" fill="#AA3355" r="1"/>
<circle cx="174.8" cy="-21.018577107945937" fill="#AA3355" r="1"/>
<circle cx="175.2" cy="-27.135673877014668" fill="#AA3355" r="1"/>
<circle cx="175.6" cy="-30.753978846134554" fill="#AA3355" r="1"/>
<circle cx="176" cy="-27.32861651402626" fill="#AA3355" r="1"/>
<circle cx="176.4" cy="-21.40446263845618" fill="#AA3355" r="1"/>
<circle cx="176.8" cy="-21.5008919915088" fill="#AA3355" r="1"/>
<circle cx="177.2" cy="-31.139729879880452" fill="#AA3355" r="1"/>
<circle cx="177.6" cy="-31.236126239321425" fill="#AA3355" r="1"/>
<circle cx="178" cy="-21.790081193332327" fill="#AA3355" r="1"/>
<circle cx="178.4" cy="-21.88644505317388" fill="#AA3355" r="1"/>
<circle cx="178.8" cy="-21.98279284591088" fill="#AA3355" r="1"/>
<circle cx="179.2" cy="-22.079124691994245" fill="#AA3355" r="1"/>
<circle cx="179.6" cy="-31.717865805271042" fill="#AA3355" r="1"/>
<circle cx="180" cy="-6.928804509459638" fill="#AA3355" r="1"/>
<circle cx="180.4" cy="-22.368025739929855" fill="#AA3355" r="1"/>
<circle cx="180.8" cy="-34.505494810662896" fill="#AA3355" r="1"/>
<circle cx="181.2" cy="-28.581148782385775" fill="#AA3355" r="1"/>
<circle cx="181.6" cy="-28.67738742282338" fill="#AA3355" r="1"/>
<circle cx="182" cy="-28.773610932360327" fill="#AA3355" r="1"/>
<circle cx="182.4" cy="-34.89041933700683" fill="#AA3355" r="1"/>
<circle cx="182.8" cy="-6.928804509459638" fill="#AA3355" r="1"/>
<circle cx="183.2" cy="-23.041591884978736" fill="#AA3355" r="1"/>
<circle cx="183.6" cy="-29.15835590229449" fill="#AA3355" r="1"/>
<circle cx="184" cy="-23.233905516641897" fill="#AA3355" r="1"/>
<circle cx="184.4" cy="-32.87246567044523" fill="#AA3355" r="1"/>
<circle cx="184.8" cy="-32.968586368948074" fill="#AA3355" r="1"/>
<circle cx="185.2" cy="-6.928804509459638" fill="#AA3355" r="1"/>
<circle cx="185.6" cy="-23.618360013714188" fill="#AA3355" r="1"/>
<circle cx="186" cy="-6.928804509459638" fill="#AA3355" r="1"/>
<circle cx="186.4" cy="-29.8311024885351" fill="#AA3355" r="1"/>
<circle cx="186.8" cy="-29.927152961826522" fill="#AA3355" r="1"/>
<circle cx="187.2" cy="-6.928804509459638" fill="#AA3355" r="1"/>
<circle cx="187.6" cy="-6.928804509459638" fill="#AA3355" r="1"/>
<circle cx="188" cy="-30.215222375522792" fill="#AA3355" r="1"/>
<circle cx="188.4" cy="-6.928804509459638" fill="#AA3355" r="1"/>
<circle cx="188.8" cy="-24.38660140292008" fill="#AA3355" r="1"/>
<circle cx="189.2" cy="-24.482570969490496" fill="#AA3355" r="1"/>
<circle cx="189.6" cy="-36.61972722348157" fill="#AA3355" r="1"/>
<circle cx="190" cy="-6.928804509459638" fill="#AA3355" r="1"/>
<circle cx="190.4" cy="-6.928804509459638" fill="#AA3355" r="1"/>
<circle cx="190.8" cy="-30.886918719290755" fill="#AA3355" r="1"/>
<circle cx="191.2" cy="-24.962223634663054" fill="#AA3355" r="1"/>
<circle cx="191.6" cy="-6.928804509459638" fill="#AA3355" r="1"/>
<circle cx="192" cy="-25.15399539247536" fill="#AA3355" r="1"/>
<circle cx="192.4" cy="-34.79228760076911" fill="#AA3355" r="1"/>
<circle cx="192.8" cy="-34.888142326597276" fill="#AA3355" r="1"/>
<circle cx="193.2" cy="-37.482759487055866" fill="#AA3355" r="1"/>
<circle cx="193.6" cy="-25.53738988106918" fill="#AA3355" r="1"/>
<circle cx="194" cy="-25.633207983022146" fill="#AA3355" r="1"/>
<circle cx="194.4" cy="-31.74961396802715" fill="#AA3355" r="1"/>
<circle cx="194.8" cy="-6.928804509459638" fill="#AA3355" r="1"/>
<circle cx="195.2" cy="-31.941190370857697" fill="#AA3355" r="1"/>
<circle cx="195.6" cy="-26.01636096198103" fill="#AA3355" r="1"/>
<circle cx="196" cy="-26.112119782764154" fill="#AA3355" r="1"/>
<circle cx="196.4" cy="-26.20786700487031" fill="#AA3355" r="1"/>
<circle cx="196.8" cy="-26.303602712570857" fill="#AA3355" r="1"/>
<circle cx="197.2" cy="-26.399326989471632" fill="#AA3355" r="1"/>
<circle cx="197.6" cy="-32.51563983179839" fill="#AA3355" r="1"/>
<circle cx="198" cy="-6.928804509459638" fill="#AA3355" r="1"/>
<circle cx="198.4" cy="-32.70703197485325" fill="#AA3355" r="1"/>
<circle cx="198.8" cy="-36.32453653262093" fill="#AA3355" r="1"/>
<circle cx="199.2" cy="-32.89837970561184" fill="#AA3355" r="1"/>
<circle cx="199.6" cy="-6.928804509459638" fill="#AA3355" r="1"/>
<circle cx="200" cy="-27.069083751204097" fill="#AA3355" r="1"/>
<circle cx="200.4" cy="-21.14411960028942" fill="#AA3355" r="1"/>
<circle cx="200.8" cy="-21.239744655310844" fill="#AA3355" r="1"/>
<circle cx="201.2" cy="-33.376558906812974" fill="#AA3355" r="1"/>
<circle cx="201.6" cy="-6.928804509459638" fill="#AA3355" r="1"/>
<circle cx="202" cy="-31.068981440342863" fill="#AA3355" r="1"/>
<circle cx="202.4" cy="-6.928804509459638" fill="#AA3355" r="1"/>
<circle cx="202.8" cy="-27.7383119167936" fill="#AA3355" r="1"/>
<circle cx="203.2" cy="-27.83387432936621" fill="#AA3355" r="1"/>
<circle cx="203.6" cy="-21.908826649671838" fill="#AA3355" r="1"/>
<circle cx="204" cy="-6.928804509459638" fill="#AA3355" r="1"/>
<circle cx="204.4" cy="-31.64232596629262" fill="#AA3355" r="1"/>
<circle cx="204.8" cy="-28.216022918415504" fill="#AA3355" r="1"/>
<circle cx="205.2" cy="-22.290935248583388" fill="#AA3355" r="1"/>
<circle cx="205.6" cy="-6.928804509459638" fill="#AA3355" r="1"/>
<circle cx="206" cy="-22.481930349178043" fill="#AA3355" r="1"/>
<circle cx="206.4" cy="-36.556813433211985" fill="#AA3355" r="1"/>
<circle cx="206.8" cy="-28.693486647637982" fill="#AA3355" r="1"/>
<circle cx="207.2" cy="-6.928804509459638" fill="#AA3355" r="1"/>
<circle cx="207.6" cy="-22.86380495617049" fill="#AA3355" r="1"/>
<circle cx="208" cy="-28.97984983928442" fill="#AA3355" r="1"/>
<circle cx="208.4" cy="-37.03408564489969" fill="#AA3355" r="1"/>
<circle cx="208.8" cy="-29.17071183261772" fill="#AA3355" r="1"/>
<circle cx="209.2" cy="-23.245529075613085" fill="#AA3355" r="1"/>
<circle cx="209.6" cy="-29.361537005908254" fill="#AA3355" r="1"/>
<circle cx="210" cy="-6.928804509459638" fill="#AA3355" r="1"/>
<circle cx="210.4" cy="-29.55232588214468" fill="#AA3355" r="1"/>
<circle cx="210.8" cy="-23.627106956834147" fill="#AA3355" r="1"/>
<circle cx="211.2" cy="-33.26490415744175" fill="#AA3355" r="1"/>
<circle cx="211.6" cy="-29.838442263937175" fill="#AA3355" r="1"/>
<circle cx="212" cy="-6.928804509459638" fill="#AA3355" r="1"/>
<circle cx="212.4" cy="-24.008542720248833" fill="#AA3355" r="1"/>
<circle cx="212.8" cy="-30.124479839413283" fill="#AA3355" r="1"/>
<circle cx="213.2" cy="-6.928804509459638" fill="#AA3355" r="1"/>
<circle cx="213.6" cy="-24.294528686304773" fill="#AA3355" r="1"/>
<circle cx="214" cy="-33.932265456076784" fill="#AA3355" r="1"/>
<circle cx="214.4" cy="-34.02756874161252" fill="#AA3355" r="1"/>
<circle cx="214.8" cy="-24.58043860231367" fill="#AA3355" r="1"/>
<circle cx="215.2" cy="-6.928804509459638" fill="#AA3355" r="1"/>
<circle cx="215.6" cy="-6.928804509459638" fill="#AA3355" r="1"/>
<circle cx="216" cy="-6.928804509459638" fill="#AA3355" r="1"/>
<circle cx="216.4" cy="-24.96153629061091" fill="#AA3355" r="1"/>
<circle cx="216.8" cy="-6.928804509459638" fill="#AA3355" r="1"/>
<circle cx="217.2" cy="-25.152036663771113" fill="#AA3355" r="1"/>
<circle cx="217.6" cy="-6.928804509459638" fill="#AA3355" r="1"/>
<circle cx="218" cy="-39.321905415046956" fill="#AA3355" r="1"/>
<circle cx="218.4" cy="-6.928804509459638" fill="#AA3355" r="1"/>
<circle cx="218.8" cy="-25.53294272978519" fill="#AA3355" r="1"/>
<circle cx="219.2" cy="-25.628149844241932" fill="#AA3355" r="1"/>
<circle cx="219.6" cy="-31.743949220243977" fill="#AA3355" r="1"/>
<circle cx="220" cy="-25.818541171777305" fill="#AA3355" r="1"/>
<circle cx="220.4" cy="-25.913725492101243" fill="#AA3355" r="1"/>
<circle cx="220.8" cy="-26.008902320955407" fill="#AA3355" r="1"/>
<circle cx="221.2" cy="-32.12467162424101" fill="#AA3355" r="1"/>
<circle cx="221.6" cy="-6.928804509459638" fill="#AA3355" r="1"/>
<circle cx="222" cy="-26.29438838294501" fill="#AA3355" r="1"/>
<circle cx="222.4" cy="-26.389535768205974" fill="#AA3355" r="1"/>
<circle cx="222.8" cy="-6.928804509459638" fill="#AA3355" r="1"/>
<circle cx="223.2" cy="-32.600408805862386" fill="#AA3355" r="1"/>
<circle cx="223.6" cy="-6.928804509459638" fill="#AA3355" r="1"/>
<circle cx="224" cy="-6.928804509459638" fill="#AA3355" r="1"/>
<circle cx="224.4" cy="-32.88576513161928" fill="#AA3355" r="1"/>
<circle cx="224.8" cy="-30.482095143751348" fill="#AA3355" r="1"/>
<circle cx="225.2" cy="-27.05536777312897" fill="#AA3355" r="1"/>
<circle cx="225.6" cy="-27.150458698268878" fill="#AA3355" r="1"/>
<circle cx="226" cy="-21.22494287287264" fill="#AA3355" r="1"/>
<circle cx="226.4" cy="-21.32002017123707" fill="#AA3355" r="1"/>
<circle cx="226.8" cy="-21.415090727465405" fill="#AA3355" r="1"/>
<circle cx="227.2" cy="-6.928804509459638" fill="#AA3355" r="1"/>
<circle cx="227.6" cy="-27.625811714569437" fill="#AA3355" r="1"/>
<circle cx="228" cy="-27.720862325184186" fill="#AA3355" r="1"/>
<circle cx="228.4" cy="-31.33773156081954" fill="#AA3355" r="1"/>
<circle cx="228.8" cy="-21.890344010507725" fill="#AA3355" r="1"/>
<circle cx="229.2" cy="-21.9853750894638" fill="#AA3355" r="1"/>
<circle cx="229.6" cy="-22.08039974827468" fill="#AA3355" r="1"/>
<circle cx="230" cy="-22.17541803158813" fill="#AA3355" r="1"/>
<circle cx="230.4" cy="-22.27042998372248" fill="#AA3355" r="1"/>
<circle cx="230.8" cy="-31.907860743062173" fill="#AA3355" r="1"/>
<circle cx="231.2" cy="-22.460435070094533" fill="#AA3355" r="1"/>
<circle cx="231.6" cy="-28.576028204624286" fill="#AA3355" r="1"/>
<circle cx="232" cy="-6.928804509459638" fill="#AA3355" r="1"/>
<circle cx="232.4" cy="-28.765996218386327" fill="#AA3355" r="1"/>
<circle cx="232.8" cy="-22.840371182723942" fill="#AA3355" r="1"/>
<circle cx="233.2" cy="-28.955939943661058" fill="#AA3355" r="1"/>
<circle cx="233.6" cy="-23.03030288985429" fill="#AA3355" r="1"/>
<circle cx="234" cy="-6.928804509459638" fill="#AA3355" r="1"/>
<circle cx="234.4" cy="-6.928804509459638" fill="#AA3355" r="1"/>
<circle cx="234.8" cy="-23.315155952333058" fill="#AA3355" r="1"/>
<circle cx="235.2" cy="-29.430695184004207" fill="#AA3355" r="1"/>
<circle cx="235.6" cy="-6.928804509459638" fill="#AA3355" r="1"/>
<circle cx="236" cy="-6.928804509459638" fill="#AA3355" r="1"/>
<circle cx="236.4" cy="-6.928804509459638" fill="#AA3355" r="1"/>
<circle cx="236.8" cy="-6.928804509459638" fill="#AA3355" r="1"/>
<circle cx="237.2" cy="-23.884705899880778" fill="#AA3355" r="1"/>
<circle cx="237.6" cy="-6.928804509459638" fill="#AA3355" r="1"/>
<circle cx="238" cy="-36.11571059610714" fill="#AA3355" r="1"/>
<circle cx="238.4" cy="-6.928804509459638" fill="#AA3355" r="1"/>
<circle cx="238.8" cy="-30.2848935117812" fill="#AA3355" r="1"/>
<circle cx="239.2" cy="-24.359176842476096" fill="#AA3355" r="1"/>
<circle cx="239.6" cy="-6.928804509459638" fill="#AA3355" r="1"/>
<circle cx="240" cy="-6.928804509459638" fill="#AA3355" r="1"/>
<circle cx="240.4" cy="-24.64379434067194" fill="#AA3355" r="1"/>
<circle cx="240.8" cy="-6.928804509459638" fill="#AA3355" r="1"/>
<circle cx="241.2" cy="-6.928804509459638" fill="#AA3355" r="1"/>
<circle cx="241.6" cy="-24.928364260015563" fill="#AA3355" r="1"/>
<circle cx="242" cy="-31.04381040901604" fill="#AA3355" r="1"/>
<circle cx="242.4" cy="-6.928804509459638" fill="#AA3355" r="1"/>
<circle cx="242.8" cy="-31.233487488145215" fill="#AA3355" r="1"/>
<circle cx="243.2" cy="-6.928804509459638" fill="#AA3355" r="1"/>
<circle cx="243.6" cy="-31.42314427829504" fill="#AA3355" r="1"/>
<circle cx="244" cy="-6.928804509459638" fill="#AA3355" r="1"/>
<circle cx="244.4" cy="-25.592181143568205" fill="#AA3355" r="1"/>
<circle cx="244.8" cy="-6.928804509459638" fill="#AA3355" r="1"/>
<circle cx="245.2" cy="-31.80239809719378" fill="#AA3355" r="1"/>
<circle cx="245.6" cy="-25.876599386617762" fill="#AA3355" r="1"/>
<circle cx="246" cy="-6.928804509459638" fill="#AA3355" r="1"/>
<circle cx="246.4" cy="-32.08678723695968" fill="#AA3355" r="1"/>
<circle cx="246.8" cy="-35.70339921835096" fill="#AA3355" r="1"/>
<circle cx="247.2" cy="-32.27635610223025" fill="#AA3355" r="1"/>
<circle cx="247.6" cy="-35.89295864542194" fill="#AA3355" r="1"/>
<circle cx="248" cy="-32.46590615560862" fill="#AA3355" r="1"/>
<circle cx="248.4" cy="-32.5606742080377" fill="#AA3355" r="1"/>
<circle cx="248.8" cy="-38.67603756655264" fill="#AA3355" r="1"/>
<circle cx="249.2" cy="-26.729596609485178" fill="#AA3355" r="1"/>
<circle cx="249.6" cy="-6.928804509459638" fill="#AA3355" r="1"/>
<circle cx="250" cy="-26.91910074591334" fill="#AA3355" r="1"/>
<circle cx="250.4" cy="-20.993246161350214" fill="#AA3355" r="1"/>
<circle cx="250.8" cy="-21.087987037886613" fill="#AA3355" r="1"/>
<circle cx="251.2" cy="-6.928804509459638" fill="#AA3355" r="1"/>
<circle cx="251.6" cy="-27.298055468842684" fill="#AA3355" r="1"/>
<circle cx="252" cy="-27.392783170013892" fill="#AA3355" r="1"/>
<circle cx="252.4" cy="-27.487506539070665" fill="#AA3355" r="1"/>
<circle cx="252.8" cy="-6.928804509459638" fill="#AA3355" r="1"/>
<circle cx="253.2" cy="-21.656340485280445" fill="#AA3355" r="1"/>
<circle cx="253.6" cy="-21.75105103404846" fill="#AA3355" r="1"/>
<circle cx="254" cy="-31.388182461769247" fill="#AA3355" r="1"/>
<circle cx="254.4" cy="-21.940459513913524" fill="#AA3355" r="1"/>
<circle cx="254.8" cy="-28.05575741538746" fill="#AA3355" r="1"/>
<circle cx="255.2" cy="-6.928804509459638" fill="#AA3355" r="1"/>
<circle cx="255.6" cy="-22.22454111624245" fill="#AA3355" r="1"/>
<circle cx="256" cy="-28.339826711349723" fill="#AA3355" r="1"/>
<circle cx="256.4" cy="-6.928804509459638" fill="#AA3355" r="1"/>
<circle cx="256.8" cy="-32.05101114387148" fill="#AA3355" r="1"/>
<circle cx="257.2" cy="-22.603259673763603" fill="#AA3355" r="1"/>
<circle cx="257.6" cy="-6.928804509459638" fill="#AA3355" r="1"/>
<circle cx="258" cy="-6.928804509459638" fill="#AA3355" r="1"/>
<circle cx="258.4" cy="-28.907856778392294" fill="#AA3355" r="1"/>
<circle cx="258.8" cy="-29.0025147039389" fill="#AA3355" r="1"/>
<circle cx="259.2" cy="-23.076568857748754" fill="#AA3355" r="1"/>
<circle cx="259.6" cy="-29.191819005777333" fill="#AA3355" r="1"/>
<circle cx="260" cy="-23.265865520838176" fill="#AA3355" r="1"/>
<circle cx="260.4" cy="-6.928804509459638" fill="#AA3355" r="1"/>
<circle cx="260.8" cy="-6.928804509459638" fill="#AA3355" r="1"/>
<circle cx="261.2" cy="-6.928804509459638" fill="#AA3355" r="1"/>
<circle cx="261.6" cy="-23.644413682364736" fill="#AA3355" r="1"/>
<circle cx="262" cy="-23.739041461272485" fill="#AA3355" r="1"/>
<circle cx="262.4" cy="-23.833665585561192" fill="#AA3355" r="1"/>
<circle cx="262.8" cy="-23.928286079908077" fill="#AA3355" r="1"/>
<circle cx="263.2" cy="-24.02290296881656" fill="#AA3355" r="1"/>
<circle cx="263.6" cy="-33.65994137101062" fill="#AA3355" r="1"/>
<circle cx="264" cy="-24.212126027470156" fill="#AA3355" r="1"/>
<circle cx="264.4" cy="-24.30673224536438" fill="#AA3355" r="1"/>
<circle cx="264.8" cy="-24.401334954120877" fill="#AA3355" r="1"/>
<circle cx="265.2" cy="-30.516534090672707" fill="#AA3355" r="1"/>
<circle cx="265.6" cy="-6.928804509459638" fill="#AA3355" r="1"/>
<circle cx="266" cy="-24.685122261268155" fill="#AA3355" r="1"/>
<circle cx="266.4" cy="-6.928804509459638" fill="#AA3355" r="1"/>
<circle cx="266.8" cy="-30.89489659619478" fill="#AA3355" r="1"/>
<circle cx="267.2" cy="-24.9688788277928" fill="#AA3355" r="1"/>
<circle cx="267.6" cy="-6.928804509459638" fill="#AA3355" r="1"/>
<circle cx="268" cy="-31.17863301231033" fill="#AA3355" r="1"/>
<circle cx="268.4" cy="-25.25260527026486" fill="#AA3355" r="1"/>
<circle cx="268.8" cy="-31.367774074842956" fill="#AA3355" r="1"/>
<circle cx="269.2" cy="-25.441739794972378" fill="#AA3355" r="1"/>
<circle cx="269.6" cy="-25.536302192383822" fill="#AA3355" r="1"/>
<circle cx="270" cy="-25.630861375536647" fill="#AA3355" r="1"/>
<circle cx="270.4" cy="-31.746017279297508" fill="#AA3355" r="1"/>
<circle cx="270.8" cy="-31.840570098543214" fill="#AA3355" r="1"/>
<circle cx="271.2" cy="-6.928804509459638" fill="#AA3355" r="1"/>
<circle cx="271.6" cy="-32.02966630832577" fill="#AA3355" r="1"/>
<circle cx="272" cy="-32.12420974099096" fill="#AA3355" r="1"/>
<circle cx="272.4" cy="-26.198150173399988" fill="#AA3355" r="1"/>
<circle cx="272.8" cy="-35.835112547204275" fill="#AA3355" r="1"/>
<circle cx="273.2" cy="-32.40782159977858" fill="#AA3355" r="1"/>
<circle cx="273.6" cy="-32.50235280815474" fill="#AA3355" r="1"/>
<circle cx="274" cy="-32.596881011488605" fill="#AA3355" r="1"/>
<circle cx="274.4" cy="-6.928804509459638" fill="#AA3355" r="1"/>
<circle cx="274.8" cy="-32.785928483402174" fill="#AA3355" r="1"/>
<circle cx="275.2" cy="-36.40227297293315" fill="#AA3355" r="1"/>
<circle cx="275.6" cy="-26.95436426159194" fill="#AA3355" r="1"/>
<circle cx="276" cy="-21.028277825573554" fill="#AA3355" r="1"/>
<circle cx="276.4" cy="-21.122788416482337" fill="#AA3355" r="1"/>
<circle cx="276.8" cy="-21.217296140342334" fill="#AA3355" r="1"/>
<circle cx="277.2" cy="-27.33240092960269" fill="#AA3355" r="1"/>
<circle cx="277.6" cy="-21.406303063461074" fill="#AA3355" r="1"/>
<circle cx="278" cy="-27.52140221394079" fill="#AA3355" r="1"/>
<circle cx="278.4" cy="-6.928804509459638" fill="#AA3355" r="1"/>
<circle cx="278.8" cy="-27.710392333491285" fill="#AA3355" r="1"/>
<circle cx="279.2" cy="-21.78428333972022" fill="#AA3355" r="1"/>
<circle cx="279.6" cy="-27.89937143688835" fill="#AA3355" r="1"/>
<circle cx="280" cy="-6.928804509459638" fill="#AA3355" r="1"/>
<circle cx="280.4" cy="-22.067739757435767" fill="#AA3355" r="1"/>
<circle cx="280.8" cy="-6.928804509459638" fill="#AA3355" r="1"/>
<circle cx="281.2" cy="-6.928804509459638" fill="#AA3355" r="1"/>
<circle cx="281.6" cy="-28.371771956698062" fill="#AA3355" r="1"/>
<circle cx="282" cy="-28.466244105919394" fill="#AA3355" r="1"/>
<circle cx="282.4" cy="-6.928804509459638" fill="#AA3355" r="1"/>
<circle cx="282.8" cy="-22.634580677197427" fill="#AA3355" r="1"/>
<circle cx="283.2" cy="-6.928804509459638" fill="#AA3355" r="1"/>
<circle cx="283.6" cy="-6.928804509459638" fill="#AA3355" r="1"/>
<circle cx="284" cy="-22.917966128439424" fill="#AA3355" r="1"/>
<circle cx="284.4" cy="-23.01242287362843" fill="#AA3355" r="1"/>
<circle cx="284.8" cy="-6.928804509459638" fill="#AA3355" r="1"/>
<circle cx="285.2" cy="-23.20132885716255" fill="#AA3355" r="1"/>
<circle cx="285.6" cy="-23.295778128767317" fill="#AA3355" r="1"/>
<circle cx="286" cy="-29.41082485552606" fill="#AA3355" r="1"/>
<circle cx="286.4" cy="-23.484669313945012" fill="#AA3355" r="1"/>
<circle cx="286.8" cy="-23.57911126009604" fill="#AA3355" r="1"/>
<circle cx="287.2" cy="-23.6735507968206" fill="#AA3355" r="1"/>
<circle cx="287.6" cy="-33.3104130345226" fill="#AA3355" r="1"/>
<circle cx="288" cy="-33.404847800316055" fill="#AA3355" r="1"/>
<circle cx="288.4" cy="-23.956855109992325" fill="#AA3355" r="1"/>
<circle cx="288.8" cy="-24.051285168021117" fill="#AA3355" r="1"/>
<circle cx="289.2" cy="-33.68813798997785" fill="#AA3355" r="1"/>
<circle cx="289.6" cy="-6.928804509459638" fill="#AA3355" r="1"/>
<circle cx="290" cy="-33.876986515477334" fill="#AA3355" r="1"/>
<circle cx="290.4" cy="-6.928804509459638" fill="#AA3355" r="1"/>
<circle cx="290.8" cy="-24.52340080897237" fill="#AA3355" r="1"/>
<circle cx="291.2" cy="-24.617817114129785" fill="#AA3355" r="1"/>
<circle cx="291.6" cy="-24.712231180058595" fill="#AA3355" r="1"/>
<circle cx="292" cy="-30.827242934882086" fill="#AA3355" r="1"/>
<circle cx="292.4" cy="-30.921652566783276" fill="#AA3355" r="1"/>
<circle cx="292.8" cy="-6.928804509459638" fill="#AA3355" r="1"/>
<circle cx="293.2" cy="-25.089865346843894" fill="#AA3355" r="1"/>
<circle cx="293.6" cy="-6.928804509459638" fill="#AA3355" r="1"/>
<circle cx="294" cy="-31.299269289293434" fill="#AA3355" r="1"/>
<circle cx="294.4" cy="-6.928804509459638" fill="#AA3355" r="1"/>
<circle cx="294.8" cy="-6.928804509459638" fill="#AA3355" r="1"/>
<circle cx="295.2" cy="-6.928804509459638" fill="#AA3355" r="1"/>
<circle cx="295.6" cy="-35.19867699210543" fill="#AA3355" r="1"/>
<circle cx="296" cy="-25.750642289833223" fill="#AA3355" r="1"/>
<circle cx="296.4" cy="-35.387455708700344" fill="#AA3355" r="1"/>
<circle cx="296.8" cy="-31.960016798085675" fill="#AA3355" r="1"/>
<circle cx="297.2" cy="-38.07500094146839" fill="#AA3355" r="1"/>
<circle cx="297.6" cy="-6.928804509459638" fill="#AA3355" r="1"/>
<circle cx="298" cy="-26.222563507782297" fill="#AA3355" r="1"/>
<circle cx="298.4" cy="-26.316941697250655" fill="#AA3355" r="1"/>
<circle cx="298.8" cy="-26.411317899721283" fill="#AA3355" r="1"/>
<circle cx="299.2" cy="-32.52629204159689" fill="#AA3355" r="1"/>
<circle cx="299.6" cy="-26.60006439607251" fill="#AA3355" r="1"/>
<circle cx="300" cy="-26.69443471593258" fill="#AA3355" r="1"/>
<circle cx="300.4" cy="-32.809403014034295" fill="#AA3355" r="1"/>
<circle cx="300.8" cy="-6.928804509459638" fill="#AA3355" r="1"/>
<circle cx="301.2" cy="-30.49935929739238" fill="#AA3355" r="1"/>
<circle cx="301.6" cy="-21.05129685898156" fill="#AA3355" r="1"/>
<circle cx="302" cy="-21.14565763048848" fill="#AA3355" r="1"/>
<circle cx="302.4" cy="-27.260616443226198" fill="#AA3355" r="1"/>
<circle cx="302.8" cy="-21.3343735696985" fill="#AA3355" r="1"/>
<circle cx="303.2" cy="-27.449328675282665" fill="#AA3355" r="1"/>
<circle cx="303.6" cy="-27.543682032315644" fill="#AA3355" r="1"/>
<circle cx="304" cy="-6.928804509459638" fill="#AA3355" r="1"/>
<circle cx="304.4" cy="-21.711783375578122" fill="#AA3355" r="1"/>
<circle cx="304.8" cy="-6.928804509459638" fill="#AA3355" r="1"/>
<circle cx="305.2" cy="-21.900477435091155" fill="#AA3355" r="1"/>
<circle cx="305.6" cy="-6.928804509459638" fill="#AA3355" r="1"/>
<circle cx="306" cy="-31.631589486442273" fill="#AA3355" r="1"/>
<circle cx="306.4" cy="-22.18350523624398" fill="#AA3355" r="1"/>
<circle cx="306.8" cy="-22.27784433965148" fill="#AA3355" r="1"/>
<circle cx="307.2" cy="-22.372181713725432" fill="#AA3355" r="1"/>
<circle cx="307.6" cy="-6.928804509459638" fill="#AA3355" r="1"/>
<circle cx="308" cy="-22.560851319301136" fill="#AA3355" r="1"/>
<circle cx="308.4" cy="-28.67578348660544" fill="#AA3355" r="1"/>
<circle cx="308.8" cy="-22.7495141430634" fill="#AA3355" r="1"/>
<circle cx="309.2" cy="-28.864442952865943" fill="#AA3355" r="1"/>
<circle cx="309.6" cy="-22.93817027389185" fill="#AA3355" r="1"/>
<circle cx="310" cy="-23.032495856903346" fill="#AA3355" r="1"/>
<circle cx="310.4" cy="-6.928804509459638" fill="#AA3355" r="1"/>
<circle cx="310.8" cy="-29.241742025649096" fill="#AA3355" r="1"/>
<circle cx="311.2" cy="-23.31546280630441" fill="#AA3355" r="1"/>
<circle cx="311.6" cy="-23.409781891906718" fill="#AA3355" r="1"/>
<circle cx="312" cy="-29.524699293016177" fill="#AA3355" r="1"/>
<circle cx="312.4" cy="-6.928804509459638" fill="#AA3355" r="1"/>
<circle cx="312.8" cy="-29.713329517243494" fill="#AA3355" r="1"/>
<circle cx="313.2" cy="-23.78704236112771" fill="#AA3355" r="1"/>
<circle cx="313.6" cy="-23.881353562052965" fill="#AA3355" r="1"/>
<circle cx="314" cy="-6.928804509459638" fill="#AA3355" r="1"/>
<circle cx="314.4" cy="-24.069971335956453" fill="#AA3355" r="1"/>
<circle cx="314.8" cy="-24.164277929147886" fill="#AA3355" r="1"/>
<circle cx="315.2" cy="-6.928804509459638" fill="#AA3355" r="1"/>
<circle cx="315.6" cy="-24.352886578034614" fill="#AA3355" r="1"/>
<circle cx="316" cy="-24.447188653538277" fill="#AA3355" r="1"/>
<circle cx="316.4" cy="-24.541489242843575" fill="#AA3355" r="1"/>
<circle cx="316.8" cy="-30.65638826896865" fill="#AA3355" r="1"/>
<circle cx="317.2" cy="-24.730086001748113" fill="#AA3355" r="1"/>
<circle cx="317.6" cy="-30.84498210390869" fill="#AA3355" r="1"/>
<circle cx="318" cy="-30.939276845155383" fill="#AA3355" r="1"/>
<circle cx="318.4" cy="-25.01297023496811" fill="#AA3355" r="1"/>
<circle cx="318.8" cy="-25.107262109322335" fill="#AA3355" r="1"/>
<circle cx="319.2" cy="-6.928804509459638" fill="#AA3355" r="1"/>
<circle cx="319.6" cy="-6.928804509459638" fill="#AA3355" r="1"/>
<circle cx="320" cy="-6.928804509459638" fill="#AA3355" r="1"/>
<circle cx="320.4" cy="-25.484415505483575" fill="#AA3355" r="1"/>
<circle cx="320.8" cy="-25.5787003751972" fill="#AA3355" r="1"/>
<circle cx="321.2" cy="-25.67298387135999" fill="#AA3355" r="1"/>
<circle cx="321.6" cy="-35.30969109734862" fill="#AA3355" r="1"/>
<circle cx="322" cy="-35.403971873299795" fill="#AA3355" r="1"/>
<circle cx="322.4" cy="-31.976426121356916" fill="#AA3355" r="1"/>
<circle cx="322.8" cy="-32.070704212551604" fill="#AA3355" r="1"/>
<circle cx="323.2" cy="-6.928804509459638" fill="#AA3355" r="1"/>
<circle cx="323.6" cy="-26.238656502656355" fill="#AA3355" r="1"/>
<circle cx="324" cy="-26.33293063216204" fill="#AA3355" r="1"/>
<circle cx="324.4" cy="-26.42720345832423" fill="#AA3355" r="1"/>
<circle cx="324.8" cy="-36.06390008405022" fill="#AA3355" r="1"/>
<circle cx="325.2" cy="-26.615745234617414" fill="#AA3355" r="1"/>
<circle cx="325.6" cy="-6.928804509459638" fill="#AA3355" r="1"/>
<circle cx="326" cy="-6.928804509459638" fill="#AA3355" r="1"/>
<circle cx="326.4" cy="-32.91914824827078" fill="#AA3355" r="1"/>
<circle cx="326.8" cy="-20.972213604630277" fill="#AA3355" r="1"/>
<circle cx="327.2" cy="-6.928804509459638" fill="#AA3355" r="1"/>
<circle cx="327.6" cy="-21.160740243813656" fill="#AA3355" r="1"/>
<circle cx="328" cy="-21.255001716272304" fill="#AA3355" r="1"/>
<circle cx="328.4" cy="-6.928804509459638" fill="#AA3355" r="1"/>
<circle cx="328.8" cy="-21.443521007004342" fill="#AA3355" r="1"/>
<circle cx="329.2" cy="-21.537778841150086" fill="#AA3355" r="1"/>
<circle cx="329.6" cy="-27.652635391588625" fill="#AA3355" r="1"/>
<circle cx="330" cy="-21.72629092628579" fill="#AA3355" r="1"/>
<circle cx="330.4" cy="-27.84114510611257" fill="#AA3355" r="1"/>
<circle cx="330.8" cy="-27.935398198931267" fill="#AA3355" r="1"/>
<circle cx="331.2" cy="-22.00905021239148" fill="#AA3355" r="1"/>
<circle cx="331.6" cy="-22.10330098065139" fill="#AA3355" r="1"/>
<circle cx="332" cy="-22.19755059797958" fill="#AA3355" r="1"/>
<circle cx="332.4" cy="-31.834224166267372" fill="#AA3355" r="1"/>
<circle cx="332.8" cy="-6.928804509459638" fill="#AA3355" r="1"/>
<circle cx="333.2" cy="-22.48029261910581" fill="#AA3355" r="1"/>
<circle cx="333.6" cy="-22.574537707191098" fill="#AA3355" r="1"/>
<circle cx="334" cy="-22.668781681339887" fill="#AA3355" r="1"/>
<circle cx="334.4" cy="-22.76302454880433" fill="#AA3355" r="1"/>
<circle cx="334.8" cy="-6.928804509459638" fill="#AA3355" r="1"/>
<circle cx="335.2" cy="-28.972106905727912" fill="#AA3355" r="1"/>
<circle cx="335.6" cy="-6.928804509459638" fill="#AA3355" r="1"/>
<circle cx="336" cy="-6.928804509459638" fill="#AA3355" r="1"/>
<circle cx="336.4" cy="-23.234222536333284" fill="#AA3355" r="1"/>
<circle cx="336.8" cy="-23.328458913312353" fill="#AA3355" r="1"/>
<circle cx="337.2" cy="-29.4432941463214" fill="#AA3355" r="1"/>
<circle cx="337.6" cy="-29.537528415676917" fill="#AA3355" r="1"/>
<circle cx="338" cy="-6.928804509459638" fill="#AA3355" r="1"/>
<circle cx="338.4" cy="-29.72599383054245" fill="#AA3355" r="1"/>
<circle cx="338.8" cy="-6.928804509459638" fill="#AA3355" r="1"/>
<circle cx="339.2" cy="-29.914455125289443" fill="#AA3355" r="1"/>
<circle cx="339.6" cy="-30.008684244329338" fill="#AA3355" r="1"/>
<circle cx="340" cy="-30.102912353304063" fill="#AA3355" r="1"/>
<circle cx="340.4" cy="-33.718964639890494" fill="#AA3355" r="1"/>
<circle cx="340.8" cy="-30.291365567267547" fill="#AA3355" r="1"/>
<circle cx="341.2" cy="-30.385590685252556" fill="#AA3355" r="1"/>
<circle cx="341.6" cy="-6.928804509459638" fill="#AA3355" r="1"/>
<circle cx="342" cy="-24.553438062118325" fill="#AA3355" r="1"/>
<circle cx="342.4" cy="-24.647660247018734" fill="#AA3355" r="1"/>
<circle cx="342.8" cy="-6.928804509459638" fill="#AA3355" r="1"/>
<circle cx="343.2" cy="-30.856701641289032" fill="#AA3355" r="1"/>
<circle cx="343.6" cy="-24.930321036588516" fill="#AA3355" r="1"/>
<circle cx="344" cy="-25.024539398813985" fill="#AA3355" r="1"/>
<circle cx="344.4" cy="-6.928804509459638" fill="#AA3355" r="1"/>
<circle cx="344.8" cy="-6.928804509459638" fill="#AA3355" r="1"/>
<circle cx="345.2" cy="-31.327788781862264" fill="#AA3355" r="1"/>
<circle cx="345.6" cy="-25.401403506405913" fill="#AA3355" r="1"/>
<circle cx="346" cy="-25.495617228180976" fill="#AA3355" r="1"/>
<circle cx="346.4" cy="-6.928804509459638" fill="#AA3355" r="1"/>
<circle cx="346.8" cy="-25.68404194731304" fill="#AA3355" r="1"/>
<circle cx="347.2" cy="-31.798852869715226" fill="#AA3355" r="1"/>
<circle cx="347.6" cy="-25.872463073041736" fill="#AA3355" r="1"/>
<circle cx="348" cy="-31.987272216197123" fill="#AA3355" r="1"/>
<circle cx="348.4" cy="-26.06088065181094" fill="#AA3355" r="1"/>
<circle cx="348.8" cy="-26.155088125432293" fill="#AA3355" r="1"/>
<circle cx="349.2" cy="-32.26989464273341" fill="#AA3355" r="1"/>
<circle cx="349.6" cy="-6.928804509459638" fill="#AA3355" r="1"/>
<circle cx="350" cy="-26.437705351200904" fill="#AA3355" r="1"/>
<circle cx="350.4" cy="-26.531909380085352" fill="#AA3355" r="1"/>
<circle cx="350.8" cy="-6.928804509459638" fill="#AA3355" r="1"/>
<circle cx="351.2" cy="-6.928804509459638" fill="#AA3355" r="1"/>
<circle cx="351.6" cy="-6.928804509459638" fill="#AA3355" r="1"/>
<circle cx="352" cy="-26.908717077509046" fill="#AA3355" r="1"/>
<circle cx="352.4" cy="-6.928804509459638" fill="#AA3355" r="1"/>
<circle cx="352.8" cy="-27.09711595130301" fill="#AA3355" r="1"/>
<circle cx="353.2" cy="-27.191314163208915" fill="#AA3355" r="1"/>
<circle cx="353.6" cy="-21.264911652219034" fill="#AA3355" r="1"/>
<circle cx="354" cy="-27.379708163412353" fill="#AA3355" r="1"/>
<circle cx="354.4" cy="-6.928804509459638" fill="#AA3355" r="1"/>
<circle cx="354.8" cy="-6.928804509459638" fill="#AA3355" r="1"/>
<circle cx="355.2" cy="-6.928804509459638" fill="#AA3355" r="1"/>
<circle cx="355.6" cy="-27.756486614904077" fill="#AA3355" r="1"/>
<circle cx="356" cy="-21.830079355059127" fill="#AA3355" r="1"/>
<circle cx="356.4" cy="-21.924271234841868" fill="#AA3355" r="1"/>
<circle cx="356.8" cy="-6.928804509459638" fill="#AA3355" r="1"/>
<circle cx="357.2" cy="-22.112652693432793" fill="#AA3355" r="1"/>
<circle cx="357.6" cy="-22.206842282149672" fill="#AA3355" r="1"/>
<circle cx="358" cy="-6.928804509459638" fill="#AA3355" r="1"/>
<circle cx="358.4" cy="-28.415819116233756" fill="#AA3355" r="1"/>
<circle cx="358.8" cy="-22.4894065447565" fill="#AA3355" r="1"/>
<circle cx="359.2" cy="-22.583593147248884" fill="#AA3355" r="1"/>
<circle cx="359.6" cy="-22.67777901520926" fill="#AA3355" r="1"/>
<circle cx="360" cy="-22.77196415338434" fill="#AA3355" r="1"/>
<circle cx="360.4" cy="-22.866148566489564" fill="#AA3355" r="1"/>
<circle cx="360.8" cy="-6.928804509459638" fill="#AA3355" r="1"/>
<circle cx="361.2" cy="-23.054515236197908" fill="#AA3355" r="1"/>
<circle cx="361.6" cy="-6.928804509459638" fill="#AA3355" r="1"/>
<circle cx="362" cy="-23.242879061443205" fill="#AA3355" r="1"/>
<circle cx="362.4" cy="-32.87948501324912" fill="#AA3355" r="1"/>
<circle cx="362.8" cy="-6.928804509459638" fill="#AA3355" r="1"/>
<circle cx="363.2" cy="-6.928804509459638" fill="#AA3355" r="1"/>
<circle cx="363.6" cy="-29.640198237840423" fill="#AA3355" r="1"/>
<circle cx="364" cy="-29.734376332476984" fill="#AA3355" r="1"/>
<circle cx="364.4" cy="-29.82855374753086" fill="#AA3355" r="1"/>
<circle cx="364.8" cy="-6.928804509459638" fill="#AA3355" r="1"/>
<circle cx="365.2" cy="-6.928804509459638" fill="#AA3355" r="1"/>
<circle cx="365.6" cy="-6.928804509459638" fill="#AA3355" r="1"/>
<circle cx="366" cy="-24.184656785936873" fill="#AA3355" r="1"/>
<circle cx="366.4" cy="-6.928804509459638" fill="#AA3355" r="1"/>
<circle cx="366.8" cy="-6.928804509459638" fill="#AA3355" r="1"/>
<circle cx="367.2" cy="-6.928804509459638" fill="#AA3355" r="1"/>
<circle cx="367.6" cy="-30.581949123363263" fill="#AA3355" r="1"/>
<circle cx="368" cy="-6.928804509459638" fill="#AA3355" r="1"/>
<circle cx="368.4" cy="-24.749691558672424" fill="#AA3355" r="1"/>
<circle cx="368.8" cy="-24.843861781591166" fill="#AA3355" r="1"/>
<circle cx="369.2" cy="-24.93803137570925" fill="#AA3355" r="1"/>
<circle cx="369.6" cy="-25.032200345080966" fill="#AA3355" r="1"/>
<circle cx="370" cy="-25.126368693733774" fill="#AA3355" r="1"/>
<circle cx="370.4" cy="-6.928804509459638" fill="#AA3355" r="1"/>
<circle cx="370.8" cy="-6.928804509459638" fill="#AA3355" r="1"/>
<circle cx="371.2" cy="-25.408870055260593" fill="#AA3355" r="1"/>
<circle cx="371.6" cy="-6.928804509459638" fill="#AA3355" r="1"/>
<circle cx="372" cy="-25.597201265346285" fill="#AA3355" r="1"/>
<circle cx="372.4" cy="-25.691365972802664" fill="#AA3355" r="1"/>
<circle cx="372.8" cy="-6.928804509459638" fill="#AA3355" r="1"/>
<circle cx="373.2" cy="-25.87969361177759" fill="#AA3355" r="1"/>
<circle cx="373.6" cy="-25.97385655091479" fill="#AA3355" r="1"/>
<circle cx="374" cy="-32.08861882146916" fill="#AA3355" r="1"/>
<circle cx="374.4" cy="-6.928804509459638" fill="#AA3355" r="1"/>
<circle cx="374.8" cy="-26.2563418921172" fill="#AA3355" r="1"/>
<circle cx="375.2" cy="-6.928804509459638" fill="#AA3355" r="1"/>
<circle cx="375.6" cy="-6.928804509459638" fill="#AA3355" r="1"/>
<circle cx="376" cy="-26.538822096935597" fill="#AA3355" r="1"/>
<circle cx="376.4" cy="-26.632981040882342" fill="#AA3355" r="1"/>
<circle cx="376.8" cy="-32.74773934197068" fill="#AA3355" r="1"/>
<circle cx="377.2" cy="-26.82129726394141" fill="#AA3355" r="1"/>
<circle cx="377.6" cy="-26.91545455018975" fill="#AA3355" r="1"/>
<circle cx="378" cy="-6.928804509459638" fill="#AA3355" r="1"/>
<circle cx="378.4" cy="-21.08316757651039" fill="#AA3355" r="1"/>
<circle cx="378.8" cy="-21.1773232368596" fill="#AA3355" r="1"/>
<circle cx="379.2" cy="-27.29207827548155" fill="#AA3355" r="1"/>
<circle cx="379.6" cy="-21.3656329559792" fill="#AA3355" r="1"/>
<circle cx="380" cy="-6.928804509459638" fill="#AA3355" r="1"/>
<circle cx="380.4" cy="-27.574540475774256" fill="#AA3355" r="1"/>
<circle cx="380.8" cy="-6.928804509459638" fill="#AA3355" r="1"/>
<circle cx="381.2" cy="-27.76284599677556" fill="#AA3355" r="1"/>
<circle cx="381.6" cy="-6.928804509459638" fill="#AA3355" r="1"/>
<circle cx="382" cy="-6.928804509459638" fill="#AA3355" r="1"/>
<circle cx="382.4" cy="-22.02470051305376" fill="#AA3355" r="1"/>
<circle cx="382.8" cy="-22.118850975562125" fill="#AA3355" r="1"/>
<circle cx="383.2" cy="-22.213000936491802" fill="#AA3355" r="1"/>
<circle cx="383.6" cy="-22.307150399067233" fill="#AA3355" r="1"/>
<circle cx="384" cy="-28.421899279771345" fill="#AA3355" r="1"/>
<circle cx="384.4" cy="-6.928804509459638" fill="#AA3355" r="1"/>
<circle cx="384.8" cy="-6.928804509459638" fill="#AA3355" r="1"/>
<circle cx="385.2" cy="-22.683743329581247" fill="#AA3355" r="1"/>
<circle cx="385.6" cy="-22.777890348020833" fill="#AA3355" r="1"/>
<circle cx="386" cy="-22.872036887016485" fill="#AA3355" r="1"/>
<circle cx="386.4" cy="-22.966182949648584" fill="#AA3355" r="1"/>
<circle cx="386.8" cy="-23.060328538977544" fill="#AA3355" r="1"/>
<circle cx="387.2" cy="-6.928804509459638" fill="#AA3355" r="1"/>
<circle cx="387.6" cy="-6.928804509459638" fill="#AA3355" r="1"/>
<circle cx="388" cy="-23.342762497451304" fill="#AA3355" r="1"/>
<circle cx="388.4" cy="-6.928804509459638" fill="#AA3355" r="1"/>
<circle cx="388.8" cy="-23.531049491802385" fill="#AA3355" r="1"/>
<circle cx="389.2" cy="-29.645792217754945" fill="#AA3355" r="1"/>
<circle cx="389.6" cy="-29.739934577997786" fill="#AA3355" r="1"/>
<circle cx="390" cy="-29.83407648871534" fill="#AA3355" r="1"/>
<circle cx="390.4" cy="-6.928804509459638" fill="#AA3355" r="1"/>
<circle cx="390.8" cy="-6.928804509459638" fill="#AA3355" r="1"/>
<circle cx="391.2" cy="-30.11649955248327" fill="#AA3355" r="1"/>
<circle cx="391.6" cy="-24.190039780493784" fill="#AA3355" r="1"/>
<circle cx="392" cy="-6.928804509459638" fill="#AA3355" r="1"/>
<circle cx="392.4" cy="-6.928804509459638" fill="#AA3355" r="1"/>
<circle cx="392.8" cy="-30.493057517112874" fill="#AA3355" r="1"/>
<circle cx="393.2" cy="-24.566596020687825" fill="#AA3355" r="1"/>
<circle cx="393.6" cy="-24.660734013327215" fill="#AA3355" r="1"/>
<circle cx="394" cy="-6.928804509459638" fill="#AA3355" r="1"/>
<circle cx="394.4" cy="-30.869608650110006" fill="#AA3355" r="1"/>
<circle cx="394.8" cy="-24.943145473084876" fill="#AA3355" r="1"/>
<circle cx="395.2" cy="-25.03728179590606" fill="#AA3355" r="1"/>
<circle cx="395.6" cy="-25.1314177079459" fill="#AA3355" r="1"/>
<circle cx="396" cy="-6.928804509459638" fill="#AA3355" r="1"/>
<circle cx="396.4" cy="-25.31968831020297" fill="#AA3355" r="1"/>
<circle cx="396.8" cy="-25.41382300563864" fill="#AA3355" r="1"/>
<circle cx="397.2" cy="-25.507957300729736" fill="#AA3355" r="1"/>
<circle cx="397.6" cy="-25.602091198043304" fill="#AA3355" r="1"/>
<circle cx="398" cy="-25.696224700129875" fill="#AA3355" r="1"/>
<circle cx="398.4" cy="-25.79035780952335" fill="#AA3355" r="1"/>
<circle cx="398.8" cy="-25.884490528741217" fill="#AA3355" r="1"/>
<circle cx="399.2" cy="-31.999222773564284" fill="#AA3355" r="1"/>
<circle cx="399.6" cy="-26.072754806638763" fill="#AA3355" r="1"/>
<circle cx="400" cy="-26.16688637027245" fill="#AA3355" r="1"/>
<circle cx="400.4" cy="-26.26101755363866" fill="#AA3355" r="1"/>
<circle cx="400.8" cy="-26.355148359174443" fill="#AA3355" r="1"/>
<circle cx="401.2" cy="-26.449278789301047" fill="#AA3355" r="1"/>
<circle cx="401.6" cy="-6.928804509459638" fill="#AA3355" r="1"/>
<circle cx="402" cy="-32.65813844621338" fill="#AA3355" r="1"/>
<circle cx="402.4" cy="-26.73166785120454" fill="#AA3355" r="1"/>
<circle cx="402.8" cy="-32.84639671687522" fill="#AA3355" r="1"/>
<circle cx="403.2" cy="-36.46235048684428" fill="#AA3355" r="1"/>
<circle cx="403.6" cy="-20.993453706819878" fill="#AA3355" r="1"/>
<circle cx="404" cy="-30.630006669968424" fill="#AA3355" r="1"/>
<circle cx="404.4" cy="-21.181709087736138" fill="#AA3355" r="1"/>
<circle cx="404.8" cy="-21.275836245586603" fill="#AA3355" r="1"/>
<circle cx="405.2" cy="-27.390562964675347" fill="#AA3355" r="1"/>
<circle cx="405.6" cy="-21.46408950741794" fill="#AA3355" r="1"/>
<circle cx="406" cy="-27.57881552917283" fill="#AA3355" r="1"/>
<circle cx="406.4" cy="-31.194766473440122" fill="#AA3355" r="1"/>
<circle cx="406.8" cy="-21.746466799090065" fill="#AA3355" r="1"/>
<circle cx="407.2" cy="-27.86119179149903" fill="#AA3355" r="1"/>
<circle cx="407.6" cy="-21.93471661861757" fill="#AA3355" r="1"/>
<circle cx="408" cy="-22.02884102245296" fill="#AA3355" r="1"/>
<circle cx="408.4" cy="-28.14356500515956" fill="#AA3355" r="1"/>
<circle cx="408.8" cy="-6.928804509459638" fill="#AA3355" r="1"/>
<circle cx="409.2" cy="-22.311212236057152" fill="#AA3355" r="1"/>
<circle cx="409.6" cy="-6.928804509459638" fill="#AA3355" r="1"/>
<circle cx="410" cy="-28.52005798138766" fill="#AA3355" r="1"/>
<circle cx="410.4" cy="-22.593580497325902" fill="#AA3355" r="1"/>
<circle cx="410.8" cy="-22.687702604772895" fill="#AA3355" r="1"/>
<circle cx="411.2" cy="-22.781824392508057" fill="#AA3355" r="1"/>
<circle cx="411.6" cy="-28.896545775856524" fill="#AA3355" r="1"/>
<circle cx="412" cy="-22.97006701701182" fill="#AA3355" r="1"/>
<circle cx="412.4" cy="-29.084787771111777" fill="#AA3355" r="1"/>
<circle cx="412.8" cy="-32.70073348143743" fill="#AA3355" r="1"/>
<circle cx="413.2" cy="-23.252428606641118" fill="#AA3355" r="1"/>
<circle cx="413.6" cy="-29.36714843188316" fill="#AA3355" r="1"/>
<circle cx="414" cy="-29.461268038178723" fill="#AA3355" r="1"/>
<circle cx="414.4" cy="-6.928804509459638" fill="#AA3355" r="1"/>
<circle cx="414.8" cy="-6.928804509459638" fill="#AA3355" r="1"/>
<circle cx="415.2" cy="-6.928804509459638" fill="#AA3355" r="1"/>
<circle cx="415.6" cy="-23.817143532323186" fill="#AA3355" r="1"/>
<circle cx="416" cy="-23.91126163935798" fill="#AA3355" r="1"/>
<circle cx="416.4" cy="-30.02597936554789" fill="#AA3355" r="1"/>
<circle cx="416.8" cy="-6.928804509459638" fill="#AA3355" r="1"/>
<circle cx="417.2" cy="-24.193614203225167" fill="#AA3355" r="1"/>
<circle cx="417.6" cy="-24.287731144996627" fill="#AA3355" r="1"/>
<circle cx="418" cy="-24.381847800093297" fill="#AA3355" r="1"/>
<circle cx="418.4" cy="-24.475964170347666" fill="#AA3355" r="1"/>
<circle cx="418.8" cy="-6.928804509459638" fill="#AA3355" r="1"/>
<circle cx="419.2" cy="-24.664196063600663" fill="#AA3355" r="1"/>
<circle cx="419.6" cy="-34.30073668459883" fill="#AA3355" r="1"/>
<circle cx="420" cy="-6.928804509459638" fill="#AA3355" r="1"/>
<circle cx="420.4" cy="-24.946541812300858" fill="#AA3355" r="1"/>
<circle cx="420.8" cy="-25.040656511328336" fill="#AA3355" r="1"/>
<circle cx="421.2" cy="-25.134770938014697" fill="#AA3355" r="1"/>
<circle cx="421.6" cy="-25.228885094100164" fill="#AA3355" r="1"/>
<circle cx="422" cy="-31.343598894593256" fill="#AA3355" r="1"/>
<circle cx="422.4" cy="-6.928804509459638" fill="#AA3355" r="1"/>
<circle cx="422.8" cy="-25.511225955984962" fill="#AA3355" r="1"/>
<circle cx="423.2" cy="-31.625938960124888" fill="#AA3355" r="1"/>
<circle cx="423.6" cy="-31.720051788918475" fill="#AA3355" r="1"/>
<circle cx="424" cy="-6.928804509459638" fill="#AA3355" r="1"/>
<circle cx="424.4" cy="-25.88767675371095" fill="#AA3355" r="1"/>
<circle cx="424.8" cy="-6.928804509459638" fill="#AA3355" r="1"/>
<circle cx="425.2" cy="-6.928804509459638" fill="#AA3355" r="1"/>
<circle cx="425.6" cy="-26.170012146819737" fill="#AA3355" r="1"/>
<circle cx="426" cy="-26.264123437992133" fill="#AA3355" r="1"/>
<circle cx="426.4" cy="-26.358234478591918" fill="#AA3355" r="1"/>
<circle cx="426.8" cy="-6.928804509459638" fill="#AA3355" r="1"/>
<circle cx="427.2" cy="-26.5464558144636" fill="#AA3355" r="1"/>
<circle cx="427.6" cy="-26.640566112904764" fill="#AA3355" r="1"/>
<circle cx="428" cy="-6.928804509459638" fill="#AA3355" r="1"/>
<circle cx="428.4" cy="-6.928804509459638" fill="#AA3355" r="1"/>
<circle cx="428.8" cy="-6.928804509459638" fill="#AA3355" r="1"/>
<circle cx="429.2" cy="-6.928804509459638" fill="#AA3355" r="1"/>
<circle cx="429.6" cy="-27.11111397263643" fill="#AA3355" r="1"/>
<circle cx="430" cy="-21.184622915583624" fill="#AA3355" r="1"/>
<circle cx="430.4" cy="-27.29933145006246" fill="#AA3355" r="1"/>
<circle cx="430.8" cy="-6.928804509459638" fill="#AA3355" r="1"/>
<circle cx="431.2" cy="-6.928804509459638" fill="#AA3355" r="1"/>
<circle cx="431.6" cy="-21.561056005167778" fill="#AA3355" r="1"/>
<circle cx="432" cy="-6.928804509459638" fill="#AA3355" r="1"/>
<circle cx="432.4" cy="-21.74927116953196" fill="#AA3355" r="1"/>
<circle cx="432.8" cy="-21.84337841173189" fill="#AA3355" r="1"/>
<circle cx="433.2" cy="-6.928804509459638" fill="#AA3355" r="1"/>
<circle cx="433.6" cy="-22.031592223383427" fill="#AA3355" r="1"/>
<circle cx="434" cy="-6.928804509459638" fill="#AA3355" r="1"/>
<circle cx="434.4" cy="-28.240405060829623" fill="#AA3355" r="1"/>
<circle cx="434.8" cy="-22.313911280359555" fill="#AA3355" r="1"/>
<circle cx="435.2" cy="-22.408017195519427" fill="#AA3355" r="1"/>
<circle cx="435.6" cy="-6.928804509459638" fill="#AA3355" r="1"/>
<circle cx="436" cy="-28.616828291714427" fill="#AA3355" r="1"/>
<circle cx="436.4" cy="-22.690333648940353" fill="#AA3355" r="1"/>
<circle cx="436.8" cy="-6.928804509459638" fill="#AA3355" r="1"/>
<circle cx="437.2" cy="-6.928804509459638" fill="#AA3355" r="1"/>
<circle cx="437.6" cy="-6.928804509459638" fill="#AA3355" r="1"/>
<circle cx="438" cy="-23.066752622956166" fill="#AA3355" r="1"/>
<circle cx="438.4" cy="-23.160856846158886" fill="#AA3355" r="1"/>
<circle cx="438.8" cy="-6.928804509459638" fill="#AA3355" r="1"/>
<circle cx="439.2" cy="-29.3696645907432" fill="#AA3355" r="1"/>
<circle cx="439.6" cy="-23.443168288177496" fill="#AA3355" r="1"/>
<circle cx="440" cy="-6.928804509459638" fill="#AA3355" r="1"/>
<circle cx="440.4" cy="-23.631374906195433" fill="#AA3355" r="1"/>
<circle cx="440.8" cy="-29.746077829341218" fill="#AA3355" r="1"/>
<circle cx="441.2" cy="-6.928804509459638" fill="#AA3355" r="1"/>
<circle cx="441.6" cy="-23.913683343851595" fill="#AA3355" r="1"/>
<circle cx="442" cy="-24.007785764288414" fill="#AA3355" r="1"/>
<circle cx="442.4" cy="-6.928804509459638" fill="#AA3355" r="1"/>
<circle cx="442.8" cy="-30.216589937747745" fill="#AA3355" r="1"/>
<circle cx="443.2" cy="-24.29009186667585" fill="#AA3355" r="1"/>
<circle cx="443.6" cy="-6.928804509459638" fill="#AA3355" r="1"/>
<circle cx="444" cy="-24.47829498143026" fill="#AA3355" r="1"/>
<circle cx="444.4" cy="-6.928804509459638" fill="#AA3355" r="1"/>
<circle cx="444.8" cy="-24.666497344683194" fill="#AA3355" r="1"/>
<circle cx="445.2" cy="-24.76059824748507" fill="#AA3355" r="1"/>
<circle cx="445.6" cy="-24.854698965982394" fill="#AA3355" r="1"/>
<circle cx="446" cy="-24.948799501349548" fill="#AA3355" r="1"/>
<circle cx="446.4" cy="-31.063499768033118" fill="#AA3355" r="1"/>
<circle cx="446.8" cy="-25.13700002735355" fill="#AA3355" r="1"/>
<circle cx="447.2" cy="-25.231100020301795" fill="#AA3355" r="1"/>
<circle cx="447.6" cy="-25.325199834742662" fill="#AA3355" r="1"/>
<circle cx="448" cy="-25.419299471813517" fill="#AA3355" r="1"/>
<circle cx="448.4" cy="-31.53399884592389" fill="#AA3355" r="1"/>
<circle cx="448.8" cy="-25.60749821835767" fill="#AA3355" r="1"/>
<circle cx="449.2" cy="-25.701597330069212" fill="#AA3355" r="1"/>
<circle cx="449.6" cy="-6.928804509459638" fill="#AA3355" r="1"/>
<circle cx="450" cy="-6.928804509459638" fill="#AA3355" r="1"/>
<circle cx="450.4" cy="-25.983893632241184" fill="#AA3355" r="1"/>
<circle cx="450.8" cy="-32.09859197223793" fill="#AA3355" r="1"/>
<circle cx="451.2" cy="-32.19269023042454" fill="#AA3355" r="1"/>
<circle cx="451.6" cy="-32.28678832115399" fill="#AA3355" r="1"/>
<circle cx="452" cy="-26.360286332213114" fill="#AA3355" r="1"/>
<circle cx="452.4" cy="-6.928804509459638" fill="#AA3355" r="1"/>
<circle cx="452.8" cy="-26.54848168594995" fill="#AA3355" r="1"/>
<circle cx="453.2" cy="-26.642579117446985" fill="#AA3355" r="1"/>
<circle cx="453.6" cy="-26.73667638675127" fill="#AA3355" r="1"/>
<circle cx="454" cy="-26.83077349489544" fill="#AA3355" r="1"/>
<circle cx="454.4" cy="-26.924870442905693" fill="#AA3355" r="1"/>
<circle cx="454.8" cy="-6.928804509459638" fill="#AA3355" r="1"/>
<circle cx="455.2" cy="-27.113063862595865" fill="#AA3355" r="1"/>
<circle cx="455.6" cy="-6.928804509459638" fill="#AA3355" r="1"/>
<circle cx="456" cy="-27.301256653900374" fill="#AA3355" r="1"/>
<circle cx="456.4" cy="-21.374752903124552" fill="#AA3355" r="1"/>
<circle cx="456.8" cy="-31.011274005907875" fill="#AA3355" r="1"/>
<circle cx="457.2" cy="-27.58354468005166" fill="#AA3355" r="1"/>
<circle cx="457.6" cy="-21.657040469871447" fill="#AA3355" r="1"/>
<circle cx="458" cy="-21.7511360217814" fill="#AA3355" r="1"/>
<circle cx="458.4" cy="-27.865831336743874" fill="#AA3355" r="1"/>
<circle cx="458.8" cy="-6.928804509459638" fill="#AA3355" r="1"/>
<circle cx="459.2" cy="-28.054021693246405" fill="#AA3355" r="1"/>
<circle cx="459.6" cy="-6.928804509459638" fill="#AA3355" r="1"/>
<circle cx="460" cy="-22.22161154695513" fill="#AA3355" r="1"/>
<circle cx="460.4" cy="-6.928804509459638" fill="#AA3355" r="1"/>
<circle cx="460.8" cy="-22.409800731908618" fill="#AA3355" r="1"/>
<circle cx="461.2" cy="-6.928804509459638" fill="#AA3355" r="1"/>
<circle cx="461.6" cy="-6.928804509459638" fill="#AA3355" r="1"/>
<circle cx="462" cy="-6.928804509459638" fill="#AA3355" r="1"/>
<circle cx="462.4" cy="-6.928804509459638" fill="#AA3355" r="1"/>
<circle cx="462.8" cy="-22.880271196115416" fill="#AA3355" r="1"/>
<circle cx="463.2" cy="-6.928804509459638" fill="#AA3355" r="1"/>
<circle cx="463.6" cy="-23.0684584014805" fill="#AA3355" r="1"/>
<circle cx="464" cy="-23.162551797647595" fill="#AA3355" r="1"/>
<circle cx="464.4" cy="-23.2566450573049" fill="#AA3355" r="1"/>
<circle cx="464.8" cy="-23.350738181320878" fill="#AA3355" r="1"/>
<circle cx="465.2" cy="-23.444831170558373" fill="#AA3355" r="1"/>
<circle cx="465.6" cy="-23.538924025874657" fill="#AA3355" r="1"/>
<circle cx="466" cy="-6.928804509459638" fill="#AA3355" r="1"/>
<circle cx="466.4" cy="-29.747709251425327" fill="#AA3355" r="1"/>
<circle cx="466.8" cy="-23.82120179678786" fill="#AA3355" r="1"/>
<circle cx="467.2" cy="-33.45771921927696" fill="#AA3355" r="1"/>
<circle cx="467.6" cy="-6.928804509459638" fill="#AA3355" r="1"/>
<circle cx="468" cy="-30.124078306032235" fill="#AA3355" r="1"/>
<circle cx="468.4" cy="-33.73999542856346" fill="#AA3355" r="1"/>
<circle cx="468.8" cy="-24.291662148330992" fill="#AA3355" r="1"/>
<circle cx="469.2" cy="-30.40635374932389" fill="#AA3355" r="1"/>
<circle cx="469.6" cy="-24.47984539811401" fill="#AA3355" r="1"/>
<circle cx="470" cy="-24.573936835339296" fill="#AA3355" r="1"/>
<circle cx="470.4" cy="-30.688628061793537" fill="#AA3355" r="1"/>
<circle cx="470.8" cy="-24.762119338426665" fill="#AA3355" r="1"/>
<circle cx="471.2" cy="-6.928804509459638" fill="#AA3355" r="1"/>
<circle cx="471.6" cy="-30.970901264876073" fill="#AA3355" r="1"/>
<circle cx="472" cy="-6.928804509459638" fill="#AA3355" r="1"/>
<circle cx="472.4" cy="-25.13848288105887" fill="#AA3355" r="1"/>
<circle cx="472.8" cy="-25.232573466318726" fill="#AA3355" r="1"/>
<circle cx="473.2" cy="-31.347263846224322" fill="#AA3355" r="1"/>
<circle cx="473.6" cy="-25.42075428169099" fill="#AA3355" r="1"/>
<circle cx="474" cy="-25.51484451330701" fill="#AA3355" r="1"/>
<circle cx="474.4" cy="-6.928804509459638" fill="#AA3355" r="1"/>
<circle cx="474.8" cy="-6.928804509459638" fill="#AA3355" r="1"/>
<circle cx="475.2" cy="-25.797114512795076" fill="#AA3355" r="1"/>
<circle cx="475.6" cy="-31.91180419656778" fill="#AA3355" r="1"/>
<circle cx="476" cy="-25.9852939403266" fill="#AA3355" r="1"/>
<circle cx="476.4" cy="-32.09998339791117" fill="#AA3355" r="1"/>
<circle cx="476.8" cy="-32.19407283019905" fill="#AA3355" r="1"/>
<circle cx="477.2" cy="-26.267562237902204" fill="#AA3355" r="1"/>
<circle cx="477.6" cy="-6.928804509459638" fill="#AA3355" r="1"/>
<circle cx="478" cy="-32.476340462057074" fill="#AA3355" r="1"/>
<circle cx="478.4" cy="-26.549829540071244" fill="#AA3355" r="1"/>
<circle cx="478.8" cy="-26.643918422862534" fill="#AA3355" r="1"/>
<circle cx="479.2" cy="-26.738007197840794" fill="#AA3355" r="1"/>
<circle cx="479.6" cy="-26.832095865691166" fill="#AA3355" r="1"/>
<circle cx="480" cy="-26.92618442709435" fill="#AA3355" r="1"/>
</g>
</g>
<g>
<g>
<line stroke="black" stroke-width="1" x1="0" x2="0" y1="0" y2="10"/>
<line stroke="black" stroke-width="1" x1="102.4" x2="102.4" y1="0" y2="10"/>
<line stroke="black" stroke-width="1" x1="204.8" x2="204.8" y1="0" y2="10"/>
<line stroke="black" stroke-width="1" x1="307.2" x2="307.2" y1="0" y2="10"/>
<line stroke="black" stroke-width="1" x1="409.6" x2="409.6" y1="0" y2="10"/>
</g>
<line stroke="black" stroke-width="1" x1="0" x2="480" y1="0" y2="0"/>
<g>
<text font-size="12" text-anchor="middle" x="0" y="20">
1.25
</text>
<text font-size="12" text-anchor="middle" x="102.4" y="20">
5.25
</text>
<text font-size="12" text-anchor="middle" x="204.8" y="20">
9.25
</text>
<text font-size="12" text-anchor="middle" x="307.2" y="20">
13.25
</text>
<text font-size="12" text-anchor="middle" x="409.6" y="20">
17.25
</text>
</g>
<text font-size="12" text-anchor="middle" x="240" y="30">
x
</text>
</g>
<g>
<g>
<line stroke="black" stroke-width="1" x1="0" x2="-10" y1="-20" y2="-20"/>
<line stroke="black" stroke-width="1" x1="0" x2="-10" y1="-100" y2="-100"/>
<line stroke="black" stroke-width="1" x1="0" x2="-10" y1="-180" y2="-180"/>
<line stroke="black" stroke-width="1" x1="0" x2="-10" y1="-260" y2="-260"/>
<line stroke="black" stroke-width="1" x1="0" x2="-10" y1="-340" y2="-340"/>
</g>
<line stroke="black" stroke-width="1" x1="0" x2="0" y1="0" y2="-340"/>
<g>
<text dominant-baseline="middle" font-size="12" text-anchor="end" x="-15" y="-20">
-16
</text>
<text dominant-baseline="middle" font-size="12" text-anchor="end" x="-15" y="-100">
-12
</text>
<text dominant-baseline="middle" font-size="12" text-anchor="end" x="-15" y="-180">
-8
</text>
<text dominant-baseline="middle" font-size="12" text-anchor="end" x="-15" y="-260">
-4
</text>
<text dominant-baseline="middle" font-size="12" text-anchor="end" x="-15" y="-340">
0
</text>
</g>
<text font-size="12" text-anchor="middle" transform="rotate(-90 -36 -170)" x="-36" y="-182">
Riemann zeta(x)-1 rel.err.
</text>
</g>
</g>
</svg>