<svg viewBox="0 0 600 400" xmlns="http://www.w3.org/2000/svg">
<g transform="translate(72, 364)">
<g>
<g>
<path d="M0,-170 L0,-170 L480,-170" fill="none" stroke="lightgray" stroke-linejoin="round" stroke-width="2"/>
</g>
</g>
<g>
<g>
<path d="M0,-226.66667 L0,-226.66667 L4.848485,-226.66667 L9.69697,-226.66667 L14.545455,-226.66667 L19.39394,-226.66667 L24.242424,-226.66667 L29.09091,-226.66667 L33.939392,-226.66667 L38.78788,-226.66667 L43.636364,-226.66667 L48.484848,-226.66667 L53.333332,-226.66667 L58.18182,-226.66667 L63.030304,-226.66667 L67.878784,-226.66667 L72.72727,-226.66667 L77.57576,-226.66667 L82.42424,-226.66667 L87.27273,-226.66667 L92.121216,-226.66667 L96.969696,-226.66667 L101.818184,-226.66667 L106.666664,-226.66667 L111.51515,-226.66667 L116.36364,-226.66667 L121.21212,-226.66667 L126.06061,-226.66667 L130.90909,-226.66667 L135.75757,-226.66667 L140.60606,-226.66667 L145.45454,-226.66667 L150.30302,-226.66667 L155.15152,-226.66667 L160,-226.66667 L164.84848,-226.66667 L169.69698,-226.66667 L174.54546,-226.66667 L179.39394,-226.66667 L184.24243,-226.66667 L189.09091,-226.66667 L193.93939,-226.66667 L198.78787,-226.66667 L203.63637,-226.66667 L208.48485,-226.66667 L213.33333,-226.66667 L218.18182,-226.66667 L223.0303,-226.66667 L227.87878,-226.66667 L232.72728,-226.66667 L237.57576,-226.66667 L242.42424,-226.66667 L247.27272,-226.66667 L252.12122,-226.66667 L256.9697,-226.66667 L261.81818,-226.66667 L266.66666,-226.66667 L271.51514,-226.66667 L276.36365,-226.66667 L281.21213,-226.66667 L286.0606,-226.66667 L290.9091,-226.66667 L295.75757,-226.66667 L300.60605,-226.66667 L305.45456,-226.66667 L310.30304,-226.66667 L315.15152,-226.66667 L320,-226.66667 L324.84848,-226.66667 L329.69696,-226.66667 L334.54544,-226.66667 L339.39395,-226.66667 L344.24243,-226.66667 L349.0909,-226.66667 L353.9394,-226.66667 L358.78787,-226.66667 L363.63635,-226.66667 L368.48486,-226.66667 L373.33334,-226.66667 L378.18182,-226.66667 L383.0303,-226.66667 L387.87878,-226.66667 L392.72726,-226.66667 L397.57574,-226.66667 L402.42426,-226.66667 L407.27274,-226.66667 L412.12122,-226.66667 L416.9697,-226.66667 L421.81818,-226.66667 L426.66666,-226.66667 L431.51514,-226.66667 L436.36365,-226.66667 L441.21213,-226.66667 L446.0606,-226.66667 L450.9091,-226.66667 L455.75757,-226.66667 L460.60605,-226.66667 L465.45456,-226.66667 L470.30304,-226.66667 L475.15152,-226.66667 L480,-226.66667" fill="none" stroke="black" stroke-linejoin="round" stroke-width="2"/>
</g>
<g>
<circle cx="0" cy="-226.66666666666666" fill="black" r="1"/>
<circle cx="4.848484848484853" cy="-226.66666666666666" fill="black" r="1"/>
<circle cx="9.696969696969706" cy="-226.66666666666666" fill="black" r="1"/>
<circle cx="14.545454545454533" cy="-226.66666666666666" fill="black" r="1"/>
<circle cx="19.393939393939384" cy="-226.66666666666666" fill="black" r="1"/>
<circle cx="24.24242424242424" cy="-226.66666666666666" fill="black" r="1"/>
<circle cx="29.090909090909093" cy="-226.66666666666666" fill="black" r="1"/>
<circle cx="33.939393939393945" cy="-226.66666666666666" fill="black" r="1"/>
<circle cx="38.787878787878796" cy="-226.66666666666666" fill="black" r="1"/>
<circle cx="43.636363636363654" cy="-226.66666666666666" fill="black" r="1"/>
<circle cx="48.48484848484848" cy="-226.66666666666666" fill="black" r="1"/>
<circle cx="53.33333333333333" cy="-226.66666666666666" fill="black" r="1"/>
<circle cx="58.18181818181819" cy="-226.66666666666666" fill="black" r="1"/>
<circle cx="63.03030303030304" cy="-226.66666666666666" fill="black" r="1"/>
<circle cx="67.87878787878789" cy="-226.66666666666666" fill="black" r="1"/>
<circle cx="72.72727272727272" cy="-226.66666666666666" fill="black" r="1"/>
<circle cx="77.57575757575759" cy="-226.66666666666666" fill="black" r="1"/>
<circle cx="82.42424242424242" cy="-226.66666666666666" fill="black" r="1"/>
<circle cx="87.27272727272728" cy="-226.66666666666666" fill="black" r="1"/>
<circle cx="92.12121212121212" cy="-226.66666666666666" fill="black" r="1"/>
<circle cx="96.96969696969698" cy="-226.66666666666666" fill="black" r="1"/>
<circle cx="101.81818181818184" cy="-226.66666666666666" fill="black" r="1"/>
<circle cx="106.66666666666666" cy="-226.66666666666666" fill="black" r="1"/>
<circle cx="111.51515151515154" cy="-226.66666666666666" fill="black" r="1"/>
<circle cx="116.36363636363637" cy="-226.66666666666666" fill="black" r="1"/>
<circle cx="121.21212121212122" cy="-226.66666666666666" fill="black" r="1"/>
<circle cx="126.06060606060608" cy="-226.66666666666666" fill="black" r="1"/>
<circle cx="130.90909090909093" cy="-226.66666666666666" fill="black" r="1"/>
<circle cx="135.75757575757578" cy="-226.66666666666666" fill="black" r="1"/>
<circle cx="140.6060606060606" cy="-226.66666666666666" fill="black" r="1"/>
<circle cx="145.45454545454547" cy="-226.66666666666666" fill="black" r="1"/>
<circle cx="150.3030303030303" cy="-226.66666666666666" fill="black" r="1"/>
<circle cx="155.15151515151516" cy="-226.66666666666666" fill="black" r="1"/>
<circle cx="160.00000000000003" cy="-226.66666666666666" fill="black" r="1"/>
<circle cx="164.84848484848487" cy="-226.66666666666666" fill="black" r="1"/>
<circle cx="169.69696969696972" cy="-226.66666666666666" fill="black" r="1"/>
<circle cx="174.54545454545456" cy="-226.66666666666666" fill="black" r="1"/>
<circle cx="179.3939393939394" cy="-226.66666666666666" fill="black" r="1"/>
<circle cx="184.24242424242425" cy="-226.66666666666666" fill="black" r="1"/>
<circle cx="189.09090909090912" cy="-226.66666666666666" fill="black" r="1"/>
<circle cx="193.93939393939397" cy="-226.66666666666666" fill="black" r="1"/>
<circle cx="198.7878787878788" cy="-226.66666666666666" fill="black" r="1"/>
<circle cx="203.63636363636365" cy="-226.66666666666666" fill="black" r="1"/>
<circle cx="208.4848484848485" cy="-226.66666666666666" fill="black" r="1"/>
<circle cx="213.33333333333334" cy="-226.66666666666666" fill="black" r="1"/>
<circle cx="218.1818181818182" cy="-226.66666666666666" fill="black" r="1"/>
<circle cx="223.03030303030306" cy="-226.66666666666666" fill="black" r="1"/>
<circle cx="227.8787878787879" cy="-226.66666666666666" fill="black" r="1"/>
<circle cx="232.72727272727275" cy="-226.66666666666666" fill="black" r="1"/>
<circle cx="237.5757575757576" cy="-226.66666666666666" fill="black" r="1"/>
<circle cx="242.42424242424244" cy="-226.66666666666666" fill="black" r="1"/>
<circle cx="247.27272727272725" cy="-226.66666666666666" fill="black" r="1"/>
<circle cx="252.1212121212121" cy="-226.66666666666666" fill="black" r="1"/>
<circle cx="256.96969696969694" cy="-226.66666666666666" fill="black" r="1"/>
<circle cx="261.8181818181818" cy="-226.66666666666666" fill="black" r="1"/>
<circle cx="266.6666666666667" cy="-226.66666666666666" fill="black" r="1"/>
<circle cx="271.5151515151515" cy="-226.66666666666666" fill="black" r="1"/>
<circle cx="276.3636363636363" cy="-226.66666666666666" fill="black" r="1"/>
<circle cx="281.2121212121212" cy="-226.66666666666666" fill="black" r="1"/>
<circle cx="286.06060606060606" cy="-226.66666666666666" fill="black" r="1"/>
<circle cx="290.9090909090909" cy="-226.66666666666666" fill="black" r="1"/>
<circle cx="295.75757575757575" cy="-226.66666666666666" fill="black" r="1"/>
<circle cx="300.6060606060606" cy="-226.66666666666666" fill="black" r="1"/>
<circle cx="305.45454545454544" cy="-226.66666666666666" fill="black" r="1"/>
<circle cx="310.30303030303025" cy="-226.66666666666666" fill="black" r="1"/>
<circle cx="315.1515151515151" cy="-226.66666666666666" fill="black" r="1"/>
<circle cx="320" cy="-226.66666666666666" fill="black" r="1"/>
<circle cx="324.8484848484848" cy="-226.66666666666666" fill="black" r="1"/>
<circle cx="329.6969696969697" cy="-226.66666666666666" fill="black" r="1"/>
<circle cx="334.54545454545456" cy="-226.66666666666666" fill="black" r="1"/>
<circle cx="339.3939393939394" cy="-226.66666666666666" fill="black" r="1"/>
<circle cx="344.24242424242425" cy="-226.66666666666666" fill="black" r="1"/>
<circle cx="349.0909090909091" cy="-226.66666666666666" fill="black" r="1"/>
<circle cx="353.93939393939394" cy="-226.66666666666666" fill="black" r="1"/>
<circle cx="358.78787878787875" cy="-226.66666666666666" fill="black" r="1"/>
<circle cx="363.6363636363636" cy="-226.66666666666666" fill="black" r="1"/>
<circle cx="368.48484848484844" cy="-226.66666666666666" fill="black" r="1"/>
<circle cx="373.3333333333333" cy="-226.66666666666666" fill="black" r="1"/>
<circle cx="378.1818181818182" cy="-226.66666666666666" fill="black" r="1"/>
<circle cx="383.03030303030306" cy="-226.66666666666666" fill="black" r="1"/>
<circle cx="387.8787878787879" cy="-226.66666666666666" fill="black" r="1"/>
<circle cx="392.7272727272727" cy="-226.66666666666666" fill="black" r="1"/>
<circle cx="397.57575757575756" cy="-226.66666666666666" fill="black" r="1"/>
<circle cx="402.4242424242424" cy="-226.66666666666666" fill="black" r="1"/>
<circle cx="407.2727272727273" cy="-226.66666666666666" fill="black" r="1"/>
<circle cx="412.1212121212121" cy="-226.66666666666666" fill="black" r="1"/>
<circle cx="416.969696969697" cy="-226.66666666666666" fill="black" r="1"/>
<circle cx="421.8181818181818" cy="-226.66666666666666" fill="black" r="1"/>
<circle cx="426.66666666666663" cy="-226.66666666666666" fill="black" r="1"/>
<circle cx="431.5151515151515" cy="-226.66666666666666" fill="black" r="1"/>
<circle cx="436.3636363636364" cy="-226.66666666666666" fill="black" r="1"/>
<circle cx="441.2121212121212" cy="-226.66666666666666" fill="black" r="1"/>
<circle cx="446.06060606060606" cy="-226.66666666666666" fill="black" r="1"/>
<circle cx="450.90909090909093" cy="-226.66666666666666" fill="black" r="1"/>
<circle cx="455.75757575757575" cy="-226.66666666666666" fill="black" r="1"/>
<circle cx="460.60606060606057" cy="-226.66666666666666" fill="black" r="1"/>
<circle cx="465.4545454545455" cy="-226.66666666666666" fill="black" r="1"/>
<circle cx="470.3030303030303" cy="-226.66666666666666" fill="black" r="1"/>
<circle cx="475.1515151515151" cy="-226.66666666666666" fill="black" r="1"/>
<circle cx="480" cy="-226.66666666666666" fill="black" r="1"/>
</g>
</g>
<g>
<g>
<path d="M0,-56.666668 L0,-56.666668 L4.848485,-58.95623 L9.69697,-61.245792 L14.545455,-63.535355 L19.39394,-65.82491 L24.242424,-68.11448 L29.09091,-70.40404 L33.939392,-72.6936 L38.78788,-74.98316 L43.636364,-77.27273 L48.484848,-79.56229 L53.333332,-81.85185 L58.18182,-84.14141 L63.030304,-86.43098 L67.878784,-88.720535 L72.72727,-91.0101 L77.57576,-93.29966 L82.42424,-95.589226 L87.27273,-97.878784 L92.121216,-100.16835 L96.969696,-102.45792 L101.818184,-104.747475 L106.666664,-107.03704 L111.51515,-109.3266 L116.36364,-111.616165 L121.21212,-113.90572 L126.06061,-116.19529 L130.90909,-118.48485 L135.75757,-120.774414 L140.60606,-123.06397 L145.45454,-125.35354 L150.30302,-127.6431 L155.15152,-129.93266 L160,-132.22223 L164.84848,-134.51178 L169.69698,-136.80135 L174.54546,-139.09091 L179.39394,-141.38048 L184.24243,-143.67003 L189.09091,-145.9596 L193.93939,-148.24916 L198.78787,-150.53873 L203.63637,-152.82828 L208.48485,-155.11784 L213.33333,-157.40741 L218.18182,-159.69698 L223.0303,-161.98653 L227.87878,-164.2761 L232.72728,-166.56566 L237.57576,-168.85522 L242.42424,-171.14478 L247.27272,-173.43434 L252.12122,-175.7239 L256.9697,-178.01347 L261.81818,-180.30302 L266.66666,-182.59259 L271.51514,-184.88216 L276.36365,-187.17172 L281.21213,-189.46127 L286.0606,-191.75084 L290.9091,-194.0404 L295.75757,-196.32997 L300.60605,-198.61952 L305.45456,-200.90909 L310.30304,-203.19865 L315.15152,-205.48822 L320,-207.77777 L324.84848,-210.06734 L329.69696,-212.3569 L334.54544,-214.64647 L339.39395,-216.93602 L344.24243,-219.22559 L349.0909,-221.51515 L353.9394,-223.80472 L358.78787,-226.09427 L363.63635,-228.38383 L368.48486,-230.6734 L373.33334,-232.96297 L378.18182,-235.25252 L383.0303,-237.54208 L387.87878,-239.83165 L392.72726,-242.12122 L397.57574,-244.41078 L402.42426,-246.70033 L407.27274,-248.9899 L412.12122,-251.27946 L416.9697,-253.56903 L421.81818,-255.85858 L426.66666,-258.14816 L431.51514,-260.4377 L436.36365,-262.72726 L441.21213,-265.01685 L446.0606,-267.3064 L450.9091,-269.59595 L455.75757,-271.88553 L460.60605,-274.17508 L465.45456,-276.46466 L470.30304,-278.7542 L475.15152,-281.04376 L480,-283.33334" fill="none" stroke="red" stroke-linejoin="round" stroke-width="2"/>
</g>
<g>
<circle cx="0" cy="-56.666666666666664" fill="red" r="1"/>
<circle cx="4.848484848484853" cy="-58.956228956228955" fill="red" r="1"/>
<circle cx="9.696969696969706" cy="-61.24579124579125" fill="red" r="1"/>
<circle cx="14.545454545454533" cy="-63.53535353535353" fill="red" r="1"/>
<circle cx="19.393939393939384" cy="-65.82491582491582" fill="red" r="1"/>
<circle cx="24.24242424242424" cy="-68.1144781144781" fill="red" r="1"/>
<circle cx="29.090909090909093" cy="-70.4040404040404" fill="red" r="1"/>
<circle cx="33.939393939393945" cy="-72.6936026936027" fill="red" r="1"/>
<circle cx="38.787878787878796" cy="-74.983164983165" fill="red" r="1"/>
<circle cx="43.636363636363654" cy="-77.27272727272728" fill="red" r="1"/>
<circle cx="48.48484848484848" cy="-79.56228956228956" fill="red" r="1"/>
<circle cx="53.33333333333333" cy="-81.85185185185185" fill="red" r="1"/>
<circle cx="58.18181818181819" cy="-84.14141414141415" fill="red" r="1"/>
<circle cx="63.03030303030304" cy="-86.43097643097644" fill="red" r="1"/>
<circle cx="67.87878787878789" cy="-88.72053872053873" fill="red" r="1"/>
<circle cx="72.72727272727272" cy="-91.010101010101" fill="red" r="1"/>
<circle cx="77.57575757575759" cy="-93.29966329966332" fill="red" r="1"/>
<circle cx="82.42424242424242" cy="-95.58922558922559" fill="red" r="1"/>
<circle cx="87.27272727272728" cy="-97.87878787878788" fill="red" r="1"/>
<circle cx="92.12121212121212" cy="-100.16835016835017" fill="red" r="1"/>
<circle cx="96.96969696969698" cy="-102.45791245791247" fill="red" r="1"/>
<circle cx="101.81818181818184" cy="-104.74747474747475" fill="red" r="1"/>
<circle cx="106.66666666666666" cy="-107.03703703703702" fill="red" r="1"/>
<circle cx="111.51515151515154" cy="-109.32659932659935" fill="red" r="1"/>
<circle cx="116.36363636363637" cy="-111.61616161616162" fill="red" r="1"/>
<circle cx="121.21212121212122" cy="-113.90572390572392" fill="red" r="1"/>
<circle cx="126.06060606060608" cy="-116.1952861952862" fill="red" r="1"/>
<circle cx="130.90909090909093" cy="-118.48484848484848" fill="red" r="1"/>
<circle cx="135.75757575757578" cy="-120.77441077441078" fill="red" r="1"/>
<circle cx="140.6060606060606" cy="-123.06397306397305" fill="red" r="1"/>
<circle cx="145.45454545454547" cy="-125.35353535353534" fill="red" r="1"/>
<circle cx="150.3030303030303" cy="-127.64309764309765" fill="red" r="1"/>
<circle cx="155.15151515151516" cy="-129.93265993265996" fill="red" r="1"/>
<circle cx="160.00000000000003" cy="-132.22222222222223" fill="red" r="1"/>
<circle cx="164.84848484848487" cy="-134.5117845117845" fill="red" r="1"/>
<circle cx="169.69696969696972" cy="-136.8013468013468" fill="red" r="1"/>
<circle cx="174.54545454545456" cy="-139.0909090909091" fill="red" r="1"/>
<circle cx="179.3939393939394" cy="-141.38047138047136" fill="red" r="1"/>
<circle cx="184.24242424242425" cy="-143.6700336700337" fill="red" r="1"/>
<circle cx="189.09090909090912" cy="-145.959595959596" fill="red" r="1"/>
<circle cx="193.93939393939397" cy="-148.24915824915826" fill="red" r="1"/>
<circle cx="198.7878787878788" cy="-150.53872053872053" fill="red" r="1"/>
<circle cx="203.63636363636365" cy="-152.82828282828285" fill="red" r="1"/>
<circle cx="208.4848484848485" cy="-155.11784511784512" fill="red" r="1"/>
<circle cx="213.33333333333334" cy="-157.40740740740742" fill="red" r="1"/>
<circle cx="218.1818181818182" cy="-159.69696969696972" fill="red" r="1"/>
<circle cx="223.03030303030306" cy="-161.98653198653201" fill="red" r="1"/>
<circle cx="227.8787878787879" cy="-164.27609427609428" fill="red" r="1"/>
<circle cx="232.72727272727275" cy="-166.56565656565655" fill="red" r="1"/>
<circle cx="237.5757575757576" cy="-168.85521885521888" fill="red" r="1"/>
<circle cx="242.42424242424244" cy="-171.14478114478115" fill="red" r="1"/>
<circle cx="247.27272727272725" cy="-173.43434343434342" fill="red" r="1"/>
<circle cx="252.1212121212121" cy="-175.7239057239057" fill="red" r="1"/>
<circle cx="256.96969696969694" cy="-178.01346801346799" fill="red" r="1"/>
<circle cx="261.8181818181818" cy="-180.30303030303028" fill="red" r="1"/>
<circle cx="266.6666666666667" cy="-182.5925925925926" fill="red" r="1"/>
<circle cx="271.5151515151515" cy="-184.88215488215488" fill="red" r="1"/>
<circle cx="276.3636363636363" cy="-187.17171717171718" fill="red" r="1"/>
<circle cx="281.2121212121212" cy="-189.46127946127945" fill="red" r="1"/>
<circle cx="286.06060606060606" cy="-191.75084175084172" fill="red" r="1"/>
<circle cx="290.9090909090909" cy="-194.040404040404" fill="red" r="1"/>
<circle cx="295.75757575757575" cy="-196.3299663299663" fill="red" r="1"/>
<circle cx="300.6060606060606" cy="-198.61952861952864" fill="red" r="1"/>
<circle cx="305.45454545454544" cy="-200.9090909090909" fill="red" r="1"/>
<circle cx="310.30303030303025" cy="-203.1986531986532" fill="red" r="1"/>
<circle cx="315.1515151515151" cy="-205.48821548821547" fill="red" r="1"/>
<circle cx="320" cy="-207.77777777777774" fill="red" r="1"/>
<circle cx="324.8484848484848" cy="-210.06734006734004" fill="red" r="1"/>
<circle cx="329.6969696969697" cy="-212.35690235690234" fill="red" r="1"/>
<circle cx="334.54545454545456" cy="-214.64646464646466" fill="red" r="1"/>
<circle cx="339.3939393939394" cy="-216.93602693602693" fill="red" r="1"/>
<circle cx="344.24242424242425" cy="-219.22558922558923" fill="red" r="1"/>
<circle cx="349.0909090909091" cy="-221.5151515151515" fill="red" r="1"/>
<circle cx="353.93939393939394" cy="-223.80471380471377" fill="red" r="1"/>
<circle cx="358.78787878787875" cy="-226.09427609427607" fill="red" r="1"/>
<circle cx="363.6363636363636" cy="-228.38383838383837" fill="red" r="1"/>
<circle cx="368.48484848484844" cy="-230.6734006734007" fill="red" r="1"/>
<circle cx="373.3333333333333" cy="-232.96296296296293" fill="red" r="1"/>
<circle cx="378.1818181818182" cy="-235.25252525252526" fill="red" r="1"/>
<circle cx="383.03030303030306" cy="-237.54208754208756" fill="red" r="1"/>
<circle cx="387.8787878787879" cy="-239.8316498316498" fill="red" r="1"/>
<circle cx="392.7272727272727" cy="-242.12121212121212" fill="red" r="1"/>
<circle cx="397.57575757575756" cy="-244.4107744107744" fill="red" r="1"/>
<circle cx="402.4242424242424" cy="-246.7003367003367" fill="red" r="1"/>
<circle cx="407.2727272727273" cy="-248.98989898989905" fill="red" r="1"/>
<circle cx="412.1212121212121" cy="-251.2794612794613" fill="red" r="1"/>
<circle cx="416.969696969697" cy="-253.56902356902359" fill="red" r="1"/>
<circle cx="421.8181818181818" cy="-255.85858585858588" fill="red" r="1"/>
<circle cx="426.66666666666663" cy="-258.14814814814815" fill="red" r="1"/>
<circle cx="431.5151515151515" cy="-260.43771043771045" fill="red" r="1"/>
<circle cx="436.3636363636364" cy="-262.72727272727275" fill="red" r="1"/>
<circle cx="441.2121212121212" cy="-265.016835016835" fill="red" r="1"/>
<circle cx="446.06060606060606" cy="-267.3063973063973" fill="red" r="1"/>
<circle cx="450.90909090909093" cy="-269.59595959595964" fill="red" r="1"/>
<circle cx="455.75757575757575" cy="-271.8855218855219" fill="red" r="1"/>
<circle cx="460.60606060606057" cy="-274.1750841750842" fill="red" r="1"/>
<circle cx="465.4545454545455" cy="-276.4646464646465" fill="red" r="1"/>
<circle cx="470.3030303030303" cy="-278.7542087542087" fill="red" r="1"/>
<circle cx="475.1515151515151" cy="-281.043771043771" fill="red" r="1"/>
<circle cx="480" cy="-283.3333333333333" fill="red" r="1"/>
</g>
</g>
<g>
<g>
<path d="M0,-340 L0,-340 L4.848485,-330.93427 L9.69697,-322.05353 L14.545455,-313.35782 L19.39394,-304.84714 L24.242424,-296.52145 L29.09091,-288.38077 L33.939392,-280.42514 L38.78788,-272.65448 L43.636364,-265.06888 L48.484848,-257.66827 L53.333332,-250.45268 L58.18182,-243.4221 L63.030304,-236.57654 L67.878784,-229.916 L72.72727,-223.44046 L77.57576,-217.14995 L82.42424,-211.04445 L87.27273,-205.12396 L92.121216,-199.3885 L96.969696,-193.83804 L101.818184,-188.47261 L106.666664,-183.29218 L111.51515,-178.29677 L116.36364,-173.48637 L121.21212,-168.86101 L126.06061,-164.42064 L130.90909,-160.16528 L135.75757,-156.09496 L140.60606,-152.20964 L145.45454,-148.50934 L150.30302,-144.99405 L155.15152,-141.66377 L160,-138.51852 L164.84848,-135.55827 L169.69698,-132.78305 L174.54546,-130.19284 L179.39394,-127.78764 L184.24243,-125.56746 L189.09091,-123.532295 L193.93939,-121.682144 L198.78787,-120.017006 L203.63637,-118.53688 L208.48485,-117.241776 L213.33333,-116.13169 L218.18182,-115.20661 L223.0303,-114.46655 L227.87878,-113.91151 L232.72728,-113.54147 L237.57576,-113.35646 L242.42424,-113.35646 L247.27272,-113.54147 L252.12122,-113.91151 L256.9697,-114.46655 L261.81818,-115.20661 L266.66666,-116.13169 L271.51514,-117.241776 L276.36365,-118.53688 L281.21213,-120.017006 L286.0606,-121.682144 L290.9091,-123.532295 L295.75757,-125.56746 L300.60605,-127.78764 L305.45456,-130.19284 L310.30304,-132.78305 L315.15152,-135.55827 L320,-138.51852 L324.84848,-141.66377 L329.69696,-144.99405 L334.54544,-148.50934 L339.39395,-152.20964 L344.24243,-156.09496 L349.0909,-160.16528 L353.9394,-164.42064 L358.78787,-168.86101 L363.63635,-173.48637 L368.48486,-178.29677 L373.33334,-183.29218 L378.18182,-188.47261 L383.0303,-193.83804 L387.87878,-199.3885 L392.72726,-205.12396 L397.57574,-211.04445 L402.42426,-217.14995 L407.27274,-223.44046 L412.12122,-229.916 L416.9697,-236.57654 L421.81818,-243.4221 L426.66666,-250.45268 L431.51514,-257.66827 L436.36365,-265.06888 L441.21213,-272.65448 L446.0606,-280.42514 L450.9091,-288.38077 L455.75757,-296.52145 L460.60605,-304.84714 L465.45456,-313.35782 L470.30304,-322.05353 L475.15152,-330.93427 L480,-340" fill="none" stroke="blue" stroke-linejoin="round" stroke-width="2"/>
</g>
<g>
<circle cx="0" cy="-340" fill="blue" r="1"/>
<circle cx="4.848484848484853" cy="-330.93425840900585" fill="blue" r="1"/>
<circle cx="9.696969696969706" cy="-322.05353195252184" fill="blue" r="1"/>
<circle cx="14.545454545454533" cy="-313.3578206305479" fill="blue" r="1"/>
<circle cx="19.393939393939384" cy="-304.84712444308406" fill="blue" r="1"/>
<circle cx="24.24242424242424" cy="-296.52144339013023" fill="blue" r="1"/>
<circle cx="29.090909090909093" cy="-288.3807774716866" fill="blue" r="1"/>
<circle cx="33.939393939393945" cy="-280.425126687753" fill="blue" r="1"/>
<circle cx="38.787878787878796" cy="-272.65449103832935" fill="blue" r="1"/>
<circle cx="43.636363636363654" cy="-265.0688705234159" fill="blue" r="1"/>
<circle cx="48.48484848484848" cy="-257.6682651430126" fill="blue" r="1"/>
<circle cx="53.33333333333333" cy="-250.45267489711935" fill="blue" r="1"/>
<circle cx="58.18181818181819" cy="-243.42209978573612" fill="blue" r="1"/>
<circle cx="63.03030303030304" cy="-236.576539808863" fill="blue" r="1"/>
<circle cx="67.87878787878789" cy="-229.9159949665" fill="blue" r="1"/>
<circle cx="72.72727272727272" cy="-223.4404652586471" fill="blue" r="1"/>
<circle cx="77.57575757575759" cy="-217.14995068530422" fill="blue" r="1"/>
<circle cx="82.42424242424242" cy="-211.04445124647145" fill="blue" r="1"/>
<circle cx="87.27272727272728" cy="-205.12396694214874" fill="blue" r="1"/>
<circle cx="92.12121212121212" cy="-199.38849777233614" fill="blue" r="1"/>
<circle cx="96.96969696969698" cy="-193.8380437370336" fill="blue" r="1"/>
<circle cx="101.81818181818184" cy="-188.4726048362412" fill="blue" r="1"/>
<circle cx="106.66666666666666" cy="-183.29218106995884" fill="blue" r="1"/>
<circle cx="111.51515151515154" cy="-178.29677243818654" fill="blue" r="1"/>
<circle cx="116.36363636363637" cy="-173.4863789409244" fill="blue" r="1"/>
<circle cx="121.21212121212122" cy="-168.86100057817228" fill="blue" r="1"/>
<circle cx="126.06060606060608" cy="-164.42063734993027" fill="blue" r="1"/>
<circle cx="130.90909090909093" cy="-160.16528925619835" fill="blue" r="1"/>
<circle cx="135.75757575757578" cy="-156.0949562969765" fill="blue" r="1"/>
<circle cx="140.6060606060606" cy="-152.20963847226471" fill="blue" r="1"/>
<circle cx="145.45454545454547" cy="-148.50933578206306" fill="blue" r="1"/>
<circle cx="150.3030303030303" cy="-144.99404822637146" fill="blue" r="1"/>
<circle cx="155.15151515151516" cy="-141.6637758051899" fill="blue" r="1"/>
<circle cx="160.00000000000003" cy="-138.5185185185185" fill="blue" r="1"/>
<circle cx="164.84848484848487" cy="-135.55827636635718" fill="blue" r="1"/>
<circle cx="169.69696969696972" cy="-132.7830493487059" fill="blue" r="1"/>
<circle cx="174.54545454545456" cy="-130.19283746556474" fill="blue" r="1"/>
<circle cx="179.3939393939394" cy="-127.78764071693365" fill="blue" r="1"/>
<circle cx="184.24242424242425" cy="-125.56745910281263" fill="blue" r="1"/>
<circle cx="189.09090909090912" cy="-123.53229262320171" fill="blue" r="1"/>
<circle cx="193.93939393939397" cy="-121.68214127810087" fill="blue" r="1"/>
<circle cx="198.7878787878788" cy="-120.01700506751011" fill="blue" r="1"/>
<circle cx="203.63636363636365" cy="-118.53688399142946" fill="blue" r="1"/>
<circle cx="208.4848484848485" cy="-117.24177804985885" fill="blue" r="1"/>
<circle cx="213.33333333333334" cy="-116.13168724279836" fill="blue" r="1"/>
<circle cx="218.1818181818182" cy="-115.20661157024792" fill="blue" r="1"/>
<circle cx="223.03030303030306" cy="-114.46655103220759" fill="blue" r="1"/>
<circle cx="227.8787878787879" cy="-113.91150562867733" fill="blue" r="1"/>
<circle cx="232.72727272727275" cy="-113.54147535965718" fill="blue" r="1"/>
<circle cx="237.5757575757576" cy="-113.3564602251471" fill="blue" r="1"/>
<circle cx="242.42424242424244" cy="-113.3564602251471" fill="blue" r="1"/>
<circle cx="247.27272727272725" cy="-113.54147535965718" fill="blue" r="1"/>
<circle cx="252.1212121212121" cy="-113.91150562867733" fill="blue" r="1"/>
<circle cx="256.96969696969694" cy="-114.46655103220759" fill="blue" r="1"/>
<circle cx="261.8181818181818" cy="-115.20661157024792" fill="blue" r="1"/>
<circle cx="266.6666666666667" cy="-116.13168724279836" fill="blue" r="1"/>
<circle cx="271.5151515151515" cy="-117.24177804985885" fill="blue" r="1"/>
<circle cx="276.3636363636363" cy="-118.53688399142946" fill="blue" r="1"/>
<circle cx="281.2121212121212" cy="-120.01700506751011" fill="blue" r="1"/>
<circle cx="286.06060606060606" cy="-121.68214127810087" fill="blue" r="1"/>
<circle cx="290.9090909090909" cy="-123.53229262320171" fill="blue" r="1"/>
<circle cx="295.75757575757575" cy="-125.56745910281263" fill="blue" r="1"/>
<circle cx="300.6060606060606" cy="-127.78764071693365" fill="blue" r="1"/>
<circle cx="305.45454545454544" cy="-130.19283746556474" fill="blue" r="1"/>
<circle cx="310.30303030303025" cy="-132.7830493487059" fill="blue" r="1"/>
<circle cx="315.1515151515151" cy="-135.55827636635718" fill="blue" r="1"/>
<circle cx="320" cy="-138.5185185185185" fill="blue" r="1"/>
<circle cx="324.8484848484848" cy="-141.6637758051899" fill="blue" r="1"/>
<circle cx="329.6969696969697" cy="-144.99404822637146" fill="blue" r="1"/>
<circle cx="334.54545454545456" cy="-148.50933578206306" fill="blue" r="1"/>
<circle cx="339.3939393939394" cy="-152.20963847226471" fill="blue" r="1"/>
<circle cx="344.24242424242425" cy="-156.0949562969765" fill="blue" r="1"/>
<circle cx="349.0909090909091" cy="-160.16528925619835" fill="blue" r="1"/>
<circle cx="353.93939393939394" cy="-164.42063734993027" fill="blue" r="1"/>
<circle cx="358.78787878787875" cy="-168.86100057817228" fill="blue" r="1"/>
<circle cx="363.6363636363636" cy="-173.4863789409244" fill="blue" r="1"/>
<circle cx="368.48484848484844" cy="-178.29677243818654" fill="blue" r="1"/>
<circle cx="373.3333333333333" cy="-183.29218106995884" fill="blue" r="1"/>
<circle cx="378.1818181818182" cy="-188.4726048362412" fill="blue" r="1"/>
<circle cx="383.03030303030306" cy="-193.8380437370336" fill="blue" r="1"/>
<circle cx="387.8787878787879" cy="-199.38849777233614" fill="blue" r="1"/>
<circle cx="392.7272727272727" cy="-205.12396694214874" fill="blue" r="1"/>
<circle cx="397.57575757575756" cy="-211.04445124647145" fill="blue" r="1"/>
<circle cx="402.4242424242424" cy="-217.14995068530422" fill="blue" r="1"/>
<circle cx="407.2727272727273" cy="-223.4404652586471" fill="blue" r="1"/>
<circle cx="412.1212121212121" cy="-229.9159949665" fill="blue" r="1"/>
<circle cx="416.969696969697" cy="-236.576539808863" fill="blue" r="1"/>
<circle cx="421.8181818181818" cy="-243.42209978573612" fill="blue" r="1"/>
<circle cx="426.66666666666663" cy="-250.45267489711935" fill="blue" r="1"/>
<circle cx="431.5151515151515" cy="-257.6682651430126" fill="blue" r="1"/>
<circle cx="436.3636363636364" cy="-265.0688705234159" fill="blue" r="1"/>
<circle cx="441.2121212121212" cy="-272.65449103832935" fill="blue" r="1"/>
<circle cx="446.06060606060606" cy="-280.425126687753" fill="blue" r="1"/>
<circle cx="450.90909090909093" cy="-288.3807774716866" fill="blue" r="1"/>
<circle cx="455.75757575757575" cy="-296.52144339013023" fill="blue" r="1"/>
<circle cx="460.60606060606057" cy="-304.84712444308406" fill="blue" r="1"/>
<circle cx="465.4545454545455" cy="-313.3578206305479" fill="blue" r="1"/>
<circle cx="470.3030303030303" cy="-322.05353195252184" fill="blue" r="1"/>
<circle cx="475.1515151515151" cy="-330.93425840900585" fill="blue" r="1"/>
<circle cx="480" cy="-340" fill="blue" r="1"/>
</g>
</g>
<g>
<g>
<path d="M0,56.666668 L0,56.666668 L4.848485,34.322353 L9.69697,13.0657015 L14.545455,-7.125711 L19.39394,-26.27431 L24.242424,-44.402523 L29.09091,-61.532776 L33.939392,-77.68749 L38.78788,-92.8891 L43.636364,-107.16003 L48.484848,-120.522705 L53.333332,-132.99954 L58.18182,-144.61298 L63.030304,-155.38544 L67.878784,-165.33934 L72.72727,-174.49713 L77.57576,-182.88121 L82.42424,-190.51402 L87.27273,-197.41798 L92.121216,-203.61552 L96.969696,-209.12906 L101.818184,-213.98103 L106.666664,-218.19388 L111.51515,-221.79 L116.36364,-224.79181 L121.21212,-227.22177 L126.06061,-229.1023 L130.90909,-230.4558 L135.75757,-231.30472 L140.60606,-231.67148 L145.45454,-231.5785 L150.30302,-231.04822 L155.15152,-230.10306 L160,-228.76543 L164.84848,-227.05779 L169.69698,-225.00252 L174.54546,-222.62209 L179.39394,-219.9389 L184.24243,-216.97539 L189.09091,-213.75398 L193.93939,-210.29709 L198.78787,-206.62715 L203.63637,-202.7666 L208.48485,-198.73785 L213.33333,-194.56332 L218.18182,-190.26546 L223.0303,-185.86668 L227.87878,-181.3894 L232.72728,-176.85608 L237.57576,-172.2891 L242.42424,-167.7109 L247.27272,-163.14392 L252.12122,-158.6106 L256.9697,-154.13332 L261.81818,-149.73454 L266.66666,-145.43668 L271.51514,-141.26215 L276.36365,-137.2334 L281.21213,-133.37285 L286.0606,-129.70291 L290.9091,-126.246025 L295.75757,-123.02461 L300.60605,-120.0611 L305.45456,-117.377914 L310.30304,-114.997475 L315.15152,-112.94222 L320,-111.234566 L324.84848,-109.89694 L329.69696,-108.95178 L334.54544,-108.42149 L339.39395,-108.32852 L344.24243,-108.69528 L349.0909,-109.544205 L353.9394,-110.89771 L358.78787,-112.77823 L363.63635,-115.20819 L368.48486,-118.210014 L373.33334,-121.80613 L378.18182,-126.01896 L383.0303,-130.87094 L387.87878,-136.38448 L392.72726,-142.58202 L397.57574,-149.48598 L402.42426,-157.11879 L407.27274,-165.50287 L412.12122,-174.66066 L416.9697,-184.61456 L421.81818,-195.38702 L426.66666,-207.00046 L431.51514,-219.4773 L436.36365,-232.83997 L441.21213,-247.1109 L446.0606,-262.3125 L450.9091,-278.46722 L455.75757,-295.59747 L460.60605,-313.72568 L465.45456,-332.8743 L470.30304,-353.0657 L475.15152,-374.32236 L480,-396.66666" fill="none" stroke="green" stroke-linejoin="round" stroke-width="2"/>
</g>
<g>
<circle cx="0" cy="56.666666666666664" fill="green" r="1"/>
<circle cx="4.848484848484853" cy="34.32235149508896" fill="green" r="1"/>
<circle cx="9.696969696969706" cy="13.065701053661416" fill="green" r="1"/>
<circle cx="14.545454545454533" cy="-7.125710734526116" fill="green" r="1"/>
<circle cx="19.393939393939384" cy="-26.274309946384147" fill="green" r="1"/>
<circle cx="24.24242424242424" cy="-44.40252265882301" fill="green" r="1"/>
<circle cx="29.090909090909093" cy="-61.53277494875292" fill="green" r="1"/>
<circle cx="33.939393939393945" cy="-77.68749289308418" fill="green" r="1"/>
<circle cx="38.787878787878796" cy="-92.88910256872714" fill="green" r="1"/>
<circle cx="43.636363636363654" cy="-107.16003005259206" fill="green" r="1"/>
<circle cx="48.48484848484848" cy="-120.5227014215893" fill="green" r="1"/>
<circle cx="53.33333333333333" cy="-132.9995427526292" fill="green" r="1"/>
<circle cx="58.18181818181819" cy="-144.61298012262202" fill="green" r="1"/>
<circle cx="63.03030303030304" cy="-155.38543960847807" fill="green" r="1"/>
<circle cx="67.87878787878789" cy="-165.33934728710773" fill="green" r="1"/>
<circle cx="72.72727272727272" cy="-174.49712923542123" fill="green" r="1"/>
<circle cx="77.57575757575759" cy="-182.881211530329" fill="green" r="1"/>
<circle cx="82.42424242424242" cy="-190.5140202487412" fill="green" r="1"/>
<circle cx="87.27272727272728" cy="-197.41798146756824" fill="green" r="1"/>
<circle cx="92.12121212121212" cy="-203.61552126372044" fill="green" r="1"/>
<circle cx="96.96969696969698" cy="-209.12906571410807" fill="green" r="1"/>
<circle cx="101.81818181818184" cy="-213.98104089564148" fill="green" r="1"/>
<circle cx="106.66666666666666" cy="-218.19387288523092" fill="green" r="1"/>
<circle cx="111.51515151515154" cy="-221.78998775978675" fill="green" r="1"/>
<circle cx="116.36363636363637" cy="-224.7918115962193" fill="green" r="1"/>
<circle cx="121.21212121212122" cy="-227.22177047143887" fill="green" r="1"/>
<circle cx="126.06060606060608" cy="-229.10229046235577" fill="green" r="1"/>
<circle cx="130.90909090909093" cy="-230.45579764588032" fill="green" r="1"/>
<circle cx="135.75757575757578" cy="-231.30471809892276" fill="green" r="1"/>
<circle cx="140.6060606060606" cy="-231.67147789839353" fill="green" r="1"/>
<circle cx="145.45454545454547" cy="-231.57850312120283" fill="green" r="1"/>
<circle cx="150.3030303030303" cy="-231.04821984426107" fill="green" r="1"/>
<circle cx="155.15151515151516" cy="-230.1030541444785" fill="green" r="1"/>
<circle cx="160.00000000000003" cy="-228.76543209876544" fill="green" r="1"/>
<circle cx="164.84848484848487" cy="-227.0577797840322" fill="green" r="1"/>
<circle cx="169.69696969696972" cy="-225.0025232771891" fill="green" r="1"/>
<circle cx="174.54545454545456" cy="-222.6220886551465" fill="green" r="1"/>
<circle cx="179.3939393939394" cy="-219.93890199481464" fill="green" r="1"/>
<circle cx="184.24242424242425" cy="-216.9753893731039" fill="green" r="1"/>
<circle cx="189.09090909090912" cy="-213.75397686692452" fill="green" r="1"/>
<circle cx="193.93939393939397" cy="-210.29709055318685" fill="green" r="1"/>
<circle cx="198.7878787878788" cy="-206.62715650880122" fill="green" r="1"/>
<circle cx="203.63636363636365" cy="-202.76660081067794" fill="green" r="1"/>
<circle cx="208.4848484848485" cy="-198.7378495357273" fill="green" r="1"/>
<circle cx="213.33333333333334" cy="-194.5633287608596" fill="green" r="1"/>
<circle cx="218.1818181818182" cy="-190.26546456298522" fill="green" r="1"/>
<circle cx="223.03030303030306" cy="-185.8666830190144" fill="green" r="1"/>
<circle cx="227.8787878787879" cy="-181.3894102058575" fill="green" r="1"/>
<circle cx="232.72727272727275" cy="-176.85607220042482" fill="green" r="1"/>
<circle cx="237.5757575757576" cy="-172.28909507962666" fill="green" r="1"/>
<circle cx="242.42424242424244" cy="-167.7109049203733" fill="green" r="1"/>
<circle cx="247.27272727272725" cy="-163.1439277995752" fill="green" r="1"/>
<circle cx="252.1212121212121" cy="-158.61058979414253" fill="green" r="1"/>
<circle cx="256.96969696969694" cy="-154.1333169809856" fill="green" r="1"/>
<circle cx="261.8181818181818" cy="-149.73453543701478" fill="green" r="1"/>
<circle cx="266.6666666666667" cy="-145.4366712391404" fill="green" r="1"/>
<circle cx="271.5151515151515" cy="-141.2621504642727" fill="green" r="1"/>
<circle cx="276.3636363636363" cy="-137.23339918932206" fill="green" r="1"/>
<circle cx="281.2121212121212" cy="-133.37284349119878" fill="green" r="1"/>
<circle cx="286.06060606060606" cy="-129.70290944681315" fill="green" r="1"/>
<circle cx="290.9090909090909" cy="-126.24602313307548" fill="green" r="1"/>
<circle cx="295.75757575757575" cy="-123.0246106268961" fill="green" r="1"/>
<circle cx="300.6060606060606" cy="-120.06109800518534" fill="green" r="1"/>
<circle cx="305.45454545454544" cy="-117.37791134485349" fill="green" r="1"/>
<circle cx="310.30303030303025" cy="-114.99747672281087" fill="green" r="1"/>
<circle cx="315.1515151515151" cy="-112.9422202159678" fill="green" r="1"/>
<circle cx="320" cy="-111.23456790123457" fill="green" r="1"/>
<circle cx="324.8484848484848" cy="-109.89694585552151" fill="green" r="1"/>
<circle cx="329.6969696969697" cy="-108.95178015573894" fill="green" r="1"/>
<circle cx="334.54545454545456" cy="-108.42149687879714" fill="green" r="1"/>
<circle cx="339.3939393939394" cy="-108.32852210160648" fill="green" r="1"/>
<circle cx="344.24242424242425" cy="-108.69528190107724" fill="green" r="1"/>
<circle cx="349.0909090909091" cy="-109.5442023541197" fill="green" r="1"/>
<circle cx="353.93939393939394" cy="-110.89770953764423" fill="green" r="1"/>
<circle cx="358.78787878787875" cy="-112.77822952856114" fill="green" r="1"/>
<circle cx="363.6363636363636" cy="-115.2081884037807" fill="green" r="1"/>
<circle cx="368.48484848484844" cy="-118.21001224021323" fill="green" r="1"/>
<circle cx="373.3333333333333" cy="-121.8061271147691" fill="green" r="1"/>
<circle cx="378.1818181818182" cy="-126.01895910435854" fill="green" r="1"/>
<circle cx="383.03030303030306" cy="-130.87093428589193" fill="green" r="1"/>
<circle cx="387.8787878787879" cy="-136.3844787362796" fill="green" r="1"/>
<circle cx="392.7272727272727" cy="-142.58201853243176" fill="green" r="1"/>
<circle cx="397.57575757575756" cy="-149.4859797512588" fill="green" r="1"/>
<circle cx="402.4242424242424" cy="-157.118788469671" fill="green" r="1"/>
<circle cx="407.2727272727273" cy="-165.50287076457877" fill="green" r="1"/>
<circle cx="412.1212121212121" cy="-174.66065271289224" fill="green" r="1"/>
<circle cx="416.969696969697" cy="-184.6145603915219" fill="green" r="1"/>
<circle cx="421.8181818181818" cy="-195.38701987737798" fill="green" r="1"/>
<circle cx="426.66666666666663" cy="-207.00045724737083" fill="green" r="1"/>
<circle cx="431.5151515151515" cy="-219.47729857841068" fill="green" r="1"/>
<circle cx="436.3636363636364" cy="-232.83996994740792" fill="green" r="1"/>
<circle cx="441.2121212121212" cy="-247.11089743127286" fill="green" r="1"/>
<circle cx="446.06060606060606" cy="-262.3125071069158" fill="green" r="1"/>
<circle cx="450.90909090909093" cy="-278.4672250512471" fill="green" r="1"/>
<circle cx="455.75757575757575" cy="-295.597477341177" fill="green" r="1"/>
<circle cx="460.60606060606057" cy="-313.72569005361584" fill="green" r="1"/>
<circle cx="465.4545454545455" cy="-332.8742892654739" fill="green" r="1"/>
<circle cx="470.3030303030303" cy="-353.06570105366137" fill="green" r="1"/>
<circle cx="475.1515151515151" cy="-374.3223514950889" fill="green" r="1"/>
<circle cx="480" cy="-396.6666666666667" fill="green" r="1"/>
</g>
</g>
<g>
<g>
<path d="M0,-453.33334 L0,-453.33334 L4.848485,-409.455 L9.69697,-369.28467 L14.545455,-332.6484 L19.39394,-299.37585 L24.242424,-269.3003 L29.09091,-242.25859 L33.939392,-218.0913 L38.78788,-196.64256 L43.636364,-177.76018 L48.484848,-161.2955 L53.333332,-147.10359 L58.18182,-135.04308 L63.030304,-124.97625 L67.878784,-116.76898 L72.72727,-110.29081 L77.57576,-105.41487 L82.42424,-102.017944 L87.27273,-99.98042 L92.121216,-99.18632 L96.969696,-99.52327 L101.818184,-100.88256 L106.666664,-103.15907 L111.51515,-106.25132 L116.36364,-110.061455 L121.21212,-114.495224 L126.06061,-119.462036 L130.90909,-124.87489 L135.75757,-130.65044 L140.60606,-136.70894 L145.45454,-142.97427 L150.30302,-149.37395 L155.15152,-155.83911 L160,-162.30452 L164.84848,-168.70857 L169.69698,-174.99326 L174.54546,-181.1042 L179.39394,-186.99069 L184.24243,-192.60559 L189.09091,-197.90541 L193.93939,-202.8503 L198.78787,-207.40398 L203.63637,-211.53384 L208.48485,-215.2109 L213.33333,-218.40979 L218.18182,-221.10876 L223.0303,-223.28967 L227.87878,-224.93805 L232.72728,-226.043 L237.57576,-226.59729 L242.42424,-226.59729 L247.27272,-226.043 L252.12122,-224.93805 L256.9697,-223.28967 L261.81818,-221.10876 L266.66666,-218.40979 L271.51514,-215.2109 L276.36365,-211.53384 L281.21213,-207.40398 L286.0606,-202.8503 L290.9091,-197.90541 L295.75757,-192.60559 L300.60605,-186.99069 L305.45456,-181.1042 L310.30304,-174.99326 L315.15152,-168.70857 L320,-162.30452 L324.84848,-155.83911 L329.69696,-149.37395 L334.54544,-142.97427 L339.39395,-136.70894 L344.24243,-130.65044 L349.0909,-124.87489 L353.9394,-119.462036 L358.78787,-114.495224 L363.63635,-110.061455 L368.48486,-106.25132 L373.33334,-103.15907 L378.18182,-100.88256 L383.0303,-99.52327 L387.87878,-99.18632 L392.72726,-99.98042 L397.57574,-102.017944 L402.42426,-105.41487 L407.27274,-110.29081 L412.12122,-116.76898 L416.9697,-124.97625 L421.81818,-135.04308 L426.66666,-147.10359 L431.51514,-161.2955 L436.36365,-177.76018 L441.21213,-196.64256 L446.0606,-218.0913 L450.9091,-242.25859 L455.75757,-269.3003 L460.60605,-299.37585 L465.45456,-332.6484 L470.30304,-369.28467 L475.15152,-409.455 L480,-453.33334" fill="none" stroke="purple" stroke-linejoin="round" stroke-width="2"/>
</g>
<g>
<circle cx="0" cy="-453.3333333333333" fill="purple" r="1"/>
<circle cx="4.848484848484853" cy="-409.45499603591594" fill="purple" r="1"/>
<circle cx="9.696969696969706" cy="-369.28468219086875" fill="purple" r="1"/>
<circle cx="14.545454545454533" cy="-332.64841980761514" fill="purple" r="1"/>
<circle cx="19.393939393939384" cy="-299.37586131204813" fill="purple" r="1"/>
<circle cx="24.24242424242424" cy="-269.3002835465314" fill="purple" r="1"/>
<circle cx="29.090909090909093" cy="-242.2585877698992" fill="purple" r="1"/>
<circle cx="33.939393939393945" cy="-218.09129965745603" fill="purple" r="1"/>
<circle cx="38.787878787878796" cy="-196.6425693009766" fill="purple" r="1"/>
<circle cx="43.636363636363654" cy="-177.76017120870608" fill="purple" r="1"/>
<circle cx="48.48484848484848" cy="-161.29550430536003" fill="purple" r="1"/>
<circle cx="53.33333333333333" cy="-147.10359193212417" fill="purple" r="1"/>
<circle cx="58.18181818181819" cy="-135.04308184665473" fill="purple" r="1"/>
<circle cx="63.03030303030304" cy="-124.97624622307836" fill="purple" r="1"/>
<circle cx="67.87878787878789" cy="-116.76898165199192" fill="purple" r="1"/>
<circle cx="72.72727272727272" cy="-110.29080914046273" fill="purple" r="1"/>
<circle cx="77.57575757575759" cy="-105.41487411202826" fill="purple" r="1"/>
<circle cx="82.42424242424242" cy="-102.01794640669668" fill="purple" r="1"/>
<circle cx="87.27272727272728" cy="-99.9804202809462" fill="purple" r="1"/>
<circle cx="92.12121212121212" cy="-99.18631440772555" fill="purple" r="1"/>
<circle cx="96.96969696969698" cy="-99.52327187645373" fill="purple" r="1"/>
<circle cx="101.81818181818184" cy="-100.88256019302018" fill="purple" r="1"/>
<circle cx="106.66666666666666" cy="-103.15907127978458" fill="purple" r="1"/>
<circle cx="111.51515151515154" cy="-106.25132147557711" fill="purple" r="1"/>
<circle cx="116.36363636363637" cy="-110.06145153569814" fill="purple" r="1"/>
<circle cx="121.21212121212122" cy="-114.49522663191853" fill="purple" r="1"/>
<circle cx="126.06060606060608" cy="-119.46203635247944" fill="purple" r="1"/>
<circle cx="130.90909090909093" cy="-124.87489470209232" fill="purple" r="1"/>
<circle cx="135.75757575757578" cy="-130.6504401019391" fill="purple" r="1"/>
<circle cx="140.6060606060606" cy="-136.70893538967192" fill="purple" r="1"/>
<circle cx="145.45454545454547" cy="-142.97426781941348" fill="purple" r="1"/>
<circle cx="150.3030303030303" cy="-149.37394906175663" fill="purple" r="1"/>
<circle cx="155.15151515151516" cy="-155.83911520376466" fill="purple" r="1"/>
<circle cx="160.00000000000003" cy="-162.3045267489712" fill="purple" r="1"/>
<circle cx="164.84848484848487" cy="-168.70856861738025" fill="purple" r="1"/>
<circle cx="169.69696969696972" cy="-174.99325014546616" fill="purple" r="1"/>
<circle cx="174.54545454545456" cy="-181.10420508617355" fill="purple" r="1"/>
<circle cx="179.3939393939394" cy="-186.99069160891756" fill="purple" r="1"/>
<circle cx="184.24242424242425" cy="-192.60559229958355" fill="purple" r="1"/>
<circle cx="189.09090909090912" cy="-197.90541416052733" fill="purple" r="1"/>
<circle cx="193.93939393939397" cy="-202.8502886105749" fill="purple" r="1"/>
<circle cx="198.7878787878788" cy="-207.40397148502282" fill="purple" r="1"/>
<circle cx="203.63636363636365" cy="-211.53384303563783" fill="purple" r="1"/>
<circle cx="208.4848484848485" cy="-215.2109079306572" fill="purple" r="1"/>
<circle cx="213.33333333333334" cy="-218.4097952547884" fill="purple" r="1"/>
<circle cx="218.1818181818182" cy="-221.1087585092093" fill="purple" r="1"/>
<circle cx="223.03030303030306" cy="-223.28967561156813" fill="purple" r="1"/>
<circle cx="227.8787878787879" cy="-224.93804889598354" fill="purple" r="1"/>
<circle cx="232.72727272727275" cy="-226.04300511304436" fill="purple" r="1"/>
<circle cx="237.5757575757576" cy="-226.59729542980995" fill="purple" r="1"/>
<circle cx="242.42424242424244" cy="-226.59729542980995" fill="purple" r="1"/>
<circle cx="247.27272727272725" cy="-226.04300511304436" fill="purple" r="1"/>
<circle cx="252.1212121212121" cy="-224.93804889598354" fill="purple" r="1"/>
<circle cx="256.96969696969694" cy="-223.28967561156813" fill="purple" r="1"/>
<circle cx="261.8181818181818" cy="-221.1087585092093" fill="purple" r="1"/>
<circle cx="266.6666666666667" cy="-218.4097952547884" fill="purple" r="1"/>
<circle cx="271.5151515151515" cy="-215.2109079306572" fill="purple" r="1"/>
<circle cx="276.3636363636363" cy="-211.53384303563783" fill="purple" r="1"/>
<circle cx="281.2121212121212" cy="-207.40397148502282" fill="purple" r="1"/>
<circle cx="286.06060606060606" cy="-202.8502886105749" fill="purple" r="1"/>
<circle cx="290.9090909090909" cy="-197.90541416052733" fill="purple" r="1"/>
<circle cx="295.75757575757575" cy="-192.60559229958355" fill="purple" r="1"/>
<circle cx="300.6060606060606" cy="-186.99069160891756" fill="purple" r="1"/>
<circle cx="305.45454545454544" cy="-181.10420508617355" fill="purple" r="1"/>
<circle cx="310.30303030303025" cy="-174.99325014546616" fill="purple" r="1"/>
<circle cx="315.1515151515151" cy="-168.70856861738025" fill="purple" r="1"/>
<circle cx="320" cy="-162.3045267489712" fill="purple" r="1"/>
<circle cx="324.8484848484848" cy="-155.83911520376466" fill="purple" r="1"/>
<circle cx="329.6969696969697" cy="-149.37394906175663" fill="purple" r="1"/>
<circle cx="334.54545454545456" cy="-142.97426781941348" fill="purple" r="1"/>
<circle cx="339.3939393939394" cy="-136.70893538967192" fill="purple" r="1"/>
<circle cx="344.24242424242425" cy="-130.6504401019391" fill="purple" r="1"/>
<circle cx="349.0909090909091" cy="-124.87489470209232" fill="purple" r="1"/>
<circle cx="353.93939393939394" cy="-119.46203635247944" fill="purple" r="1"/>
<circle cx="358.78787878787875" cy="-114.49522663191853" fill="purple" r="1"/>
<circle cx="363.6363636363636" cy="-110.06145153569814" fill="purple" r="1"/>
<circle cx="368.48484848484844" cy="-106.25132147557711" fill="purple" r="1"/>
<circle cx="373.3333333333333" cy="-103.15907127978458" fill="purple" r="1"/>
<circle cx="378.1818181818182" cy="-100.88256019302018" fill="purple" r="1"/>
<circle cx="383.03030303030306" cy="-99.52327187645373" fill="purple" r="1"/>
<circle cx="387.8787878787879" cy="-99.18631440772555" fill="purple" r="1"/>
<circle cx="392.7272727272727" cy="-99.9804202809462" fill="purple" r="1"/>
<circle cx="397.57575757575756" cy="-102.01794640669668" fill="purple" r="1"/>
<circle cx="402.4242424242424" cy="-105.41487411202826" fill="purple" r="1"/>
<circle cx="407.2727272727273" cy="-110.29080914046273" fill="purple" r="1"/>
<circle cx="412.1212121212121" cy="-116.76898165199192" fill="purple" r="1"/>
<circle cx="416.969696969697" cy="-124.97624622307836" fill="purple" r="1"/>
<circle cx="421.8181818181818" cy="-135.04308184665473" fill="purple" r="1"/>
<circle cx="426.66666666666663" cy="-147.10359193212417" fill="purple" r="1"/>
<circle cx="431.5151515151515" cy="-161.29550430536003" fill="purple" r="1"/>
<circle cx="436.3636363636364" cy="-177.76017120870608" fill="purple" r="1"/>
<circle cx="441.2121212121212" cy="-196.6425693009766" fill="purple" r="1"/>
<circle cx="446.06060606060606" cy="-218.09129965745603" fill="purple" r="1"/>
<circle cx="450.90909090909093" cy="-242.2585877698992" fill="purple" r="1"/>
<circle cx="455.75757575757575" cy="-269.3002835465314" fill="purple" r="1"/>
<circle cx="460.60606060606057" cy="-299.37586131204813" fill="purple" r="1"/>
<circle cx="465.4545454545455" cy="-332.64841980761514" fill="purple" r="1"/>
<circle cx="470.3030303030303" cy="-369.28468219086875" fill="purple" r="1"/>
<circle cx="475.1515151515151" cy="-409.45499603591594" fill="purple" r="1"/>
<circle cx="480" cy="-453.3333333333333" fill="purple" r="1"/>
</g>
</g>
<g>
<g>
<path d="M0,170 L0,170 L4.848485,94.91269 L9.69697,29.39985 L14.545455,-27.29241 L19.39394,-75.883194 L24.242424,-117.05757 L29.09091,-151.46729 L33.939392,-179.73149 L38.78788,-202.4375 L43.636364,-220.14151 L48.484848,-233.36932 L53.333332,-242.6171 L58.18182,-248.35205 L63.030304,-251.01323 L67.878784,-251.0122 L72.72727,-248.73387 L77.57576,-244.53703 L82.42424,-238.75534 L87.27273,-231.69785 L92.121216,-223.64983 L96.969696,-214.8735 L101.818184,-205.60873 L106.666664,-196.07382 L111.51515,-186.46617 L116.36364,-176.96306 L121.21212,-167.72235 L126.06061,-158.88326 L130.90909,-150.56703 L135.75757,-142.87773 L140.60606,-135.90294 L145.45454,-129.7145 L150.30302,-124.36923 L155.15152,-119.90969 L160,-116.36488 L164.84848,-113.75099 L169.69698,-112.072136 L174.54546,-111.321075 L179.39394,-111.47994 L184.24243,-112.521 L189.09091,-114.407364 L193.93939,-117.093704 L198.78787,-120.52704 L203.63637,-124.647385 L208.48485,-129.38858 L213.33333,-134.67894 L218.18182,-140.44203 L223.0303,-146.5974 L227.87878,-153.0613 L232.72728,-159.74738 L237.57576,-166.56752 L242.42424,-173.43248 L247.27272,-180.25262 L252.12122,-186.9387 L256.9697,-193.4026 L261.81818,-199.55797 L266.66666,-205.32106 L271.51514,-210.61142 L276.36365,-215.35262 L281.21213,-219.47296 L286.0606,-222.9063 L290.9091,-225.59264 L295.75757,-227.479 L300.60605,-228.52007 L305.45456,-228.67892 L310.30304,-227.92786 L315.15152,-226.24901 L320,-223.63512 L324.84848,-220.0903 L329.69696,-215.63077 L334.54544,-210.2855 L339.39395,-204.09706 L344.24243,-197.12227 L349.0909,-189.43297 L353.9394,-181.11674 L358.78787,-172.27765 L363.63635,-163.03694 L368.48486,-153.53383 L373.33334,-143.92618 L378.18182,-134.39127 L383.0303,-125.1265 L387.87878,-116.350174 L392.72726,-108.302155 L397.57574,-101.24466 L402.42426,-95.46296 L407.27274,-91.266136 L412.12122,-88.987785 L416.9697,-88.98677 L421.81818,-91.64795 L426.66666,-97.38291 L431.51514,-106.63068 L436.36365,-119.85849 L441.21213,-137.5625 L446.0606,-160.26851 L450.9091,-188.53271 L455.75757,-222.94243 L460.60605,-264.1168 L465.45456,-312.70758 L470.30304,-369.39984 L475.15152,-434.9127 L480,-510" fill="none" stroke="darkblue" stroke-linejoin="round" stroke-width="2"/>
</g>
<g>
<circle cx="0" cy="170" fill="darkblue" r="1"/>
<circle cx="4.848484848484853" cy="94.91269124195843" fill="darkblue" r="1"/>
<circle cx="9.696969696969706" cy="29.39985062578361" fill="darkblue" r="1"/>
<circle cx="14.545454545454533" cy="-27.292409626924197" fill="darkblue" r="1"/>
<circle cx="19.393939393939384" cy="-75.8831975405577" fill="darkblue" r="1"/>
<circle cx="24.24242424242424" cy="-117.05757359084781" fill="darkblue" r="1"/>
<circle cx="29.090909090909093" cy="-151.46728291021208" fill="darkblue" r="1"/>
<circle cx="33.939393939393945" cy="-179.73148749310243" fill="darkblue" r="1"/>
<circle cx="38.787878787878796" cy="-202.43749840135249" fill="darkblue" r="1"/>
<circle cx="43.636363636363654" cy="-220.14150796952524" fill="darkblue" r="1"/>
<circle cx="48.48484848484848" cy="-233.36932201026036" fill="darkblue" r="1"/>
<circle cx="53.33333333333333" cy="-242.61709201962208" fill="darkblue" r="1"/>
<circle cx="58.18181818181819" cy="-248.35204738244656" fill="darkblue" r="1"/>
<circle cx="63.03030303030304" cy="-251.01322757768915" fill="darkblue" r="1"/>
<circle cx="67.87878787878789" cy="-251.0122143837725" fill="darkblue" r="1"/>
<circle cx="72.72727272727272" cy="-248.73386408393375" fill="darkblue" r="1"/>
<circle cx="77.57575757575759" cy="-244.53703967157216" fill="darkblue" r="1"/>
<circle cx="82.42424242424242" cy="-238.75534305559654" fill="darkblue" r="1"/>
<circle cx="87.27272727272728" cy="-231.69784726577294" fill="darkblue" r="1"/>
<circle cx="92.12121212121212" cy="-223.64982865807232" fill="darkblue" r="1"/>
<circle cx="96.96969696969698" cy="-214.87349912001778" fill="darkblue" r="1"/>
<circle cx="101.81818181818184" cy="-205.60873827603226" fill="darkblue" r="1"/>
<circle cx="106.66666666666666" cy="-196.07382569278624" fill="darkblue" r="1"/>
<circle cx="111.51515151515154" cy="-186.4661730845448" fill="darkblue" r="1"/>
<circle cx="116.36363636363637" cy="-176.96305651851594" fill="darkblue" r="1"/>
<circle cx="121.21212121212122" cy="-167.72234862019732" fill="darkblue" r="1"/>
<circle cx="126.06060606060608" cy="-158.88325077872437" fill="darkblue" r="1"/>
<circle cx="130.90909090909093" cy="-150.5670253522176" fill="darkblue" r="1"/>
<circle cx="135.75757575757578" cy="-142.8777278731301" fill="darkblue" r="1"/>
<circle cx="140.6060606060606" cy="-135.90293925359538" fill="darkblue" r="1"/>
<circle cx="145.45454545454547" cy="-129.7144979907744" fill="darkblue" r="1"/>
<circle cx="150.3030303030303" cy="-124.36923237220367" fill="darkblue" r="1"/>
<circle cx="155.15151515151516" cy="-119.90969268114246" fill="darkblue" r="1"/>
<circle cx="160.00000000000003" cy="-116.36488340192041" fill="darkblue" r="1"/>
<circle cx="164.84848484848487" cy="-113.75099542528523" fill="darkblue" r="1"/>
<circle cx="169.69696969696972" cy="-112.07213825374993" fill="darkblue" r="1"/>
<circle cx="174.54545454545456" cy="-111.32107220694066" fill="darkblue" r="1"/>
<circle cx="179.3939393939394" cy="-111.47994062694416" fill="darkblue" r="1"/>
<circle cx="184.24242424242425" cy="-112.52100208365528" fill="darkblue" r="1"/>
<circle cx="189.09090909090912" cy="-114.40736258012453" fill="darkblue" r="1"/>
<circle cx="193.93939393939397" cy="-117.09370775790562" fill="darkblue" r="1"/>
<circle cx="198.7878787878788" cy="-120.52703510240309" fill="darkblue" r="1"/>
<circle cx="203.63636363636365" cy="-124.6473861482197" fill="darkblue" r="1"/>
<circle cx="208.4848484848485" cy="-129.38857868450415" fill="darkblue" r="1"/>
<circle cx="213.33333333333334" cy="-134.67893896029852" fill="darkblue" r="1"/>
<circle cx="218.1818181818182" cy="-140.44203388988583" fill="darkblue" r="1"/>
<circle cx="223.03030303030306" cy="-146.5974032581376" fill="darkblue" r="1"/>
<circle cx="227.8787878787879" cy="-153.06129192586135" fill="darkblue" r="1"/>
<circle cx="232.72727272727275" cy="-159.74738203514826" fill="darkblue" r="1"/>
<circle cx="237.5757575757576" cy="-166.56752521472063" fill="darkblue" r="1"/>
<circle cx="242.42424242424244" cy="-173.4324747852794" fill="darkblue" r="1"/>
<circle cx="247.27272727272725" cy="-180.25261796485177" fill="darkblue" r="1"/>
<circle cx="252.1212121212121" cy="-186.93870807413862" fill="darkblue" r="1"/>
<circle cx="256.96969696969694" cy="-193.40259674186242" fill="darkblue" r="1"/>
<circle cx="261.8181818181818" cy="-199.55796611011417" fill="darkblue" r="1"/>
<circle cx="266.6666666666667" cy="-205.32106103970148" fill="darkblue" r="1"/>
<circle cx="271.5151515151515" cy="-210.61142131549585" fill="darkblue" r="1"/>
<circle cx="276.3636363636363" cy="-215.35261385178032" fill="darkblue" r="1"/>
<circle cx="281.2121212121212" cy="-219.47296489759694" fill="darkblue" r="1"/>
<circle cx="286.06060606060606" cy="-222.9062922420944" fill="darkblue" r="1"/>
<circle cx="290.9090909090909" cy="-225.59263741987547" fill="darkblue" r="1"/>
<circle cx="295.75757575757575" cy="-227.47899791634472" fill="darkblue" r="1"/>
<circle cx="300.6060606060606" cy="-228.5200593730559" fill="darkblue" r="1"/>
<circle cx="305.45454545454544" cy="-228.67892779305933" fill="darkblue" r="1"/>
<circle cx="310.30303030303025" cy="-227.92786174625007" fill="darkblue" r="1"/>
<circle cx="315.1515151515151" cy="-226.24900457471475" fill="darkblue" r="1"/>
<circle cx="320" cy="-223.63511659807958" fill="darkblue" r="1"/>
<circle cx="324.8484848484848" cy="-220.09030731885755" fill="darkblue" r="1"/>
<circle cx="329.6969696969697" cy="-215.63076762779633" fill="darkblue" r="1"/>
<circle cx="334.54545454545456" cy="-210.2855020092256" fill="darkblue" r="1"/>
<circle cx="339.3939393939394" cy="-204.09706074640462" fill="darkblue" r="1"/>
<circle cx="344.24242424242425" cy="-197.1222721268699" fill="darkblue" r="1"/>
<circle cx="349.0909090909091" cy="-189.4329746477824" fill="darkblue" r="1"/>
<circle cx="353.93939393939394" cy="-181.11674922127563" fill="darkblue" r="1"/>
<circle cx="358.78787878787875" cy="-172.27765137980268" fill="darkblue" r="1"/>
<circle cx="363.6363636363636" cy="-163.03694348148406" fill="darkblue" r="1"/>
<circle cx="368.48484848484844" cy="-153.53382691545522" fill="darkblue" r="1"/>
<circle cx="373.3333333333333" cy="-143.92617430721376" fill="darkblue" r="1"/>
<circle cx="378.1818181818182" cy="-134.39126172396774" fill="darkblue" r="1"/>
<circle cx="383.03030303030306" cy="-125.1265008799822" fill="darkblue" r="1"/>
<circle cx="387.8787878787879" cy="-116.35017134192766" fill="darkblue" r="1"/>
<circle cx="392.7272727272727" cy="-108.30215273422705" fill="darkblue" r="1"/>
<circle cx="397.57575757575756" cy="-101.2446569444035" fill="darkblue" r="1"/>
<circle cx="402.4242424242424" cy="-95.46296032842787" fill="darkblue" r="1"/>
<circle cx="407.2727272727273" cy="-91.26613591606622" fill="darkblue" r="1"/>
<circle cx="412.1212121212121" cy="-88.98778561622748" fill="darkblue" r="1"/>
<circle cx="416.969696969697" cy="-88.98677242231084" fill="darkblue" r="1"/>
<circle cx="421.8181818181818" cy="-91.64795261755343" fill="darkblue" r="1"/>
<circle cx="426.66666666666663" cy="-97.38290798037788" fill="darkblue" r="1"/>
<circle cx="431.5151515151515" cy="-106.63067798973962" fill="darkblue" r="1"/>
<circle cx="436.3636363636364" cy="-119.85849203047478" fill="darkblue" r="1"/>
<circle cx="441.2121212121212" cy="-137.56250159864754" fill="darkblue" r="1"/>
<circle cx="446.06060606060606" cy="-160.26851250689757" fill="darkblue" r="1"/>
<circle cx="450.90909090909093" cy="-188.5327170897879" fill="darkblue" r="1"/>
<circle cx="455.75757575757575" cy="-222.9424264091522" fill="darkblue" r="1"/>
<circle cx="460.60606060606057" cy="-264.1168024594423" fill="darkblue" r="1"/>
<circle cx="465.4545454545455" cy="-312.7075903730758" fill="darkblue" r="1"/>
<circle cx="470.3030303030303" cy="-369.3998506257836" fill="darkblue" r="1"/>
<circle cx="475.1515151515151" cy="-434.9126912419584" fill="darkblue" r="1"/>
<circle cx="480" cy="-510" fill="darkblue" r="1"/>
</g>
</g>
<g>
<g>
<path d="M0,-566.6667 L0,-566.6667 L4.848485,-449.66684 L9.69697,-353.4019 L14.545455,-275.46887 L19.39394,-213.64694 L24.242424,-165.88913 L29.09091,-130.31407 L33.939392,-105.19807 L38.78788,-88.967285 L43.636364,-80.19009 L48.484848,-77.56962 L53.333332,-79.936485 L58.18182,-86.24169 L63.030304,-95.5497 L67.878784,-107.03168 L72.72727,-119.958954 L77.57576,-133.69661 L82.42424,-147.69727 L87.27273,-161.49504 L92.121216,-174.69975 L96.969696,-186.99115 L101.818184,-198.11343 L106.666664,-207.87001 L111.51515,-216.11823 L116.36364,-222.7645 L121.21212,-227.75941 L126.06061,-231.09326 L130.90909,-232.79144 L135.75757,-232.91032 L140.60606,-231.53308 L145.45454,-228.76582 L150.30302,-224.7339 L155.15152,-219.57828 L160,-213.45222 L164.84848,-206.51808 L169.69698,-198.94429 L174.54546,-190.90248 L179.39394,-182.5649 L184.24243,-174.10182 L189.09091,-165.67934 L193.93939,-157.45718 L198.78787,-149.58675 L203.63637,-142.20937 L208.48485,-135.45471 L213.33333,-129.43933 L218.18182,-124.26542 L223.0303,-120.01978 L227.87878,-116.772934 L232.72728,-114.57837 L237.57576,-113.472046 L242.42424,-113.472046 L247.27272,-114.57837 L252.12122,-116.772934 L256.9697,-120.01978 L261.81818,-124.26542 L266.66666,-129.43933 L271.51514,-135.45471 L276.36365,-142.20937 L281.21213,-149.58675 L286.0606,-157.45718 L290.9091,-165.67934 L295.75757,-174.10182 L300.60605,-182.5649 L305.45456,-190.90248 L310.30304,-198.94429 L315.15152,-206.51808 L320,-213.45222 L324.84848,-219.57828 L329.69696,-224.7339 L334.54544,-228.76582 L339.39395,-231.53308 L344.24243,-232.91032 L349.0909,-232.79144 L353.9394,-231.09326 L358.78787,-227.75941 L363.63635,-222.7645 L368.48486,-216.11823 L373.33334,-207.87001 L378.18182,-198.11343 L383.0303,-186.99115 L387.87878,-174.69975 L392.72726,-161.49504 L397.57574,-147.69727 L402.42426,-133.69661 L407.27274,-119.958954 L412.12122,-107.03168 L416.9697,-95.5497 L421.81818,-86.24169 L426.66666,-79.936485 L431.51514,-77.56962 L436.36365,-80.19009 L441.21213,-88.967285 L446.0606,-105.19807 L450.9091,-130.31407 L455.75757,-165.88913 L460.60605,-213.64694 L465.45456,-275.46887 L470.30304,-353.4019 L475.15152,-449.66684 L480,-566.6667" fill="none" stroke="mediumorchid" stroke-linejoin="round" stroke-width="2"/>
</g>
<g>
<circle cx="0" cy="-566.6666666666666" fill="mediumorchid" r="1"/>
<circle cx="4.848484848484853" cy="-449.6668433675177" fill="mediumorchid" r="1"/>
<circle cx="9.696969696969706" cy="-353.4018998182109" fill="mediumorchid" r="1"/>
<circle cx="14.545454545454533" cy="-275.46887119634545" fill="mediumorchid" r="1"/>
<circle cx="19.393939393939384" cy="-213.6469472497549" fill="mediumorchid" r="1"/>
<circle cx="24.24242424242424" cy="-165.8891295931564" fill="mediumorchid" r="1"/>
<circle cx="29.090909090909093" cy="-130.31406650912194" fill="mediumorchid" r="1"/>
<circle cx="33.939393939393945" cy="-105.19806525337818" fill="mediumorchid" r="1"/>
<circle cx="38.787878787878796" cy="-88.96728186443237" fill="mediumorchid" r="1"/>
<circle cx="43.636363636363654" cy="-80.19008847752536" fill="mediumorchid" r="1"/>
<circle cx="48.48484848484848" cy="-77.5696181429113" fill="mediumorchid" r="1"/>
<circle cx="53.33333333333333" cy="-79.93648714846364" fill="mediumorchid" r="1"/>
<circle cx="58.18181818181819" cy="-86.24169484660803" fill="mediumorchid" r="1"/>
<circle cx="63.03030303030304" cy="-95.54970098558205" fill="mediumorchid" r="1"/>
<circle cx="67.87878787878789" cy="-107.03168054502123" fill="mediumorchid" r="1"/>
<circle cx="72.72727272727272" cy="-119.958956075872" fill="mediumorchid" r="1"/>
<circle cx="77.57575757575759" cy="-133.6966075446317" fill="mediumorchid" r="1"/>
<circle cx="82.42424242424242" cy="-147.69725968191395" fill="mediumorchid" r="1"/>
<circle cx="87.27272727272728" cy="-161.49504683534278" fill="mediumorchid" r="1"/>
<circle cx="92.12121212121212" cy="-174.69975532677117" fill="mediumorchid" r="1"/>
<circle cx="96.96969696969698" cy="-186.99114331382813" fill="mediumorchid" r="1"/>
<circle cx="101.81818181818184" cy="-198.11343815579116" fill="mediumorchid" r="1"/>
<circle cx="106.66666666666666" cy="-207.87001128378628" fill="mediumorchid" r="1"/>
<circle cx="111.51515151515154" cy="-216.11823057531433" fill="mediumorchid" r="1"/>
<circle cx="116.36363636363637" cy="-222.76449023310363" fill="mediumorchid" r="1"/>
<circle cx="121.21212121212122" cy="-227.75941816829015" fill="mediumorchid" r="1"/>
<circle cx="126.06060606060608" cy="-231.09326088792372" fill="mediumorchid" r="1"/>
<circle cx="130.90909090909093" cy="-232.7914458868008" fill="mediumorchid" r="1"/>
<circle cx="135.75757575757578" cy="-232.9103215436246" fill="mediumorchid" r="1"/>
<circle cx="140.6060606060606" cy="-231.53307452149147" fill="mediumorchid" r="1"/>
<circle cx="145.45454545454547" cy="-228.76582467270364" fill="mediumorchid" r="1"/>
<circle cx="150.3030303030303" cy="-224.7338974479093" fill="mediumorchid" r="1"/>
<circle cx="155.15151515151516" cy="-219.57827380956894" fill="mediumorchid" r="1"/>
<circle cx="160.00000000000003" cy="-213.4522176497485" fill="mediumorchid" r="1"/>
<circle cx="164.84848484848487" cy="-206.51808071223908" fill="mediumorchid" r="1"/>
<circle cx="169.69696969696972" cy="-198.9442850190036" fill="mediumorchid" r="1"/>
<circle cx="174.54545454545456" cy="-190.90248280094974" fill="mediumorchid" r="1"/>
<circle cx="179.3939393939394" cy="-182.56489393302982" fill="mediumorchid" r="1"/>
<circle cx="184.24242424242425" cy="-174.10182087366752" fill="mediumorchid" r="1"/>
<circle cx="189.09090909090912" cy="-165.67934110851078" fill="mediumorchid" r="1"/>
<circle cx="193.93939393939397" cy="-157.45717709851183" fill="mediumorchid" r="1"/>
<circle cx="198.7878787878788" cy="-149.5867437323337" fill="mediumorchid" r="1"/>
<circle cx="203.63636363636365" cy="-142.20937328308347" fill="mediumorchid" r="1"/>
<circle cx="208.4848484848485" cy="-135.45471786937202" fill="mediumorchid" r="1"/>
<circle cx="213.33333333333334" cy="-129.43932942070083" fill="mediumorchid" r="1"/>
<circle cx="218.1818181818182" cy="-124.26541714717509" fill="mediumorchid" r="1"/>
<circle cx="223.03030303030306" cy="-120.0197825135437" fill="mediumorchid" r="1"/>
<circle cx="227.8787878787879" cy="-116.77293171756584" fill="mediumorchid" r="1"/>
<circle cx="232.72727272727275" cy="-114.57836567270425" fill="mediumorchid" r="1"/>
<circle cx="237.5757575757576" cy="-113.4720474951452" fill="mediumorchid" r="1"/>
<circle cx="242.42424242424244" cy="-113.4720474951452" fill="mediumorchid" r="1"/>
<circle cx="247.27272727272725" cy="-114.57836567270425" fill="mediumorchid" r="1"/>
<circle cx="252.1212121212121" cy="-116.77293171756584" fill="mediumorchid" r="1"/>
<circle cx="256.96969696969694" cy="-120.0197825135437" fill="mediumorchid" r="1"/>
<circle cx="261.8181818181818" cy="-124.26541714717509" fill="mediumorchid" r="1"/>
<circle cx="266.6666666666667" cy="-129.43932942070083" fill="mediumorchid" r="1"/>
<circle cx="271.5151515151515" cy="-135.45471786937202" fill="mediumorchid" r="1"/>
<circle cx="276.3636363636363" cy="-142.20937328308347" fill="mediumorchid" r="1"/>
<circle cx="281.2121212121212" cy="-149.5867437323337" fill="mediumorchid" r="1"/>
<circle cx="286.06060606060606" cy="-157.45717709851183" fill="mediumorchid" r="1"/>
<circle cx="290.9090909090909" cy="-165.67934110851078" fill="mediumorchid" r="1"/>
<circle cx="295.75757575757575" cy="-174.10182087366752" fill="mediumorchid" r="1"/>
<circle cx="300.6060606060606" cy="-182.56489393302982" fill="mediumorchid" r="1"/>
<circle cx="305.45454545454544" cy="-190.90248280094974" fill="mediumorchid" r="1"/>
<circle cx="310.30303030303025" cy="-198.9442850190036" fill="mediumorchid" r="1"/>
<circle cx="315.1515151515151" cy="-206.51808071223908" fill="mediumorchid" r="1"/>
<circle cx="320" cy="-213.4522176497485" fill="mediumorchid" r="1"/>
<circle cx="324.8484848484848" cy="-219.57827380956894" fill="mediumorchid" r="1"/>
<circle cx="329.6969696969697" cy="-224.7338974479093" fill="mediumorchid" r="1"/>
<circle cx="334.54545454545456" cy="-228.76582467270364" fill="mediumorchid" r="1"/>
<circle cx="339.3939393939394" cy="-231.53307452149147" fill="mediumorchid" r="1"/>
<circle cx="344.24242424242425" cy="-232.9103215436246" fill="mediumorchid" r="1"/>
<circle cx="349.0909090909091" cy="-232.7914458868008" fill="mediumorchid" r="1"/>
<circle cx="353.93939393939394" cy="-231.09326088792372" fill="mediumorchid" r="1"/>
<circle cx="358.78787878787875" cy="-227.75941816829015" fill="mediumorchid" r="1"/>
<circle cx="363.6363636363636" cy="-222.76449023310363" fill="mediumorchid" r="1"/>
<circle cx="368.48484848484844" cy="-216.11823057531433" fill="mediumorchid" r="1"/>
<circle cx="373.3333333333333" cy="-207.87001128378628" fill="mediumorchid" r="1"/>
<circle cx="378.1818181818182" cy="-198.11343815579116" fill="mediumorchid" r="1"/>
<circle cx="383.03030303030306" cy="-186.99114331382813" fill="mediumorchid" r="1"/>
<circle cx="387.8787878787879" cy="-174.69975532677117" fill="mediumorchid" r="1"/>
<circle cx="392.7272727272727" cy="-161.49504683534278" fill="mediumorchid" r="1"/>
<circle cx="397.57575757575756" cy="-147.69725968191395" fill="mediumorchid" r="1"/>
<circle cx="402.4242424242424" cy="-133.6966075446317" fill="mediumorchid" r="1"/>
<circle cx="407.2727272727273" cy="-119.958956075872" fill="mediumorchid" r="1"/>
<circle cx="412.1212121212121" cy="-107.03168054502123" fill="mediumorchid" r="1"/>
<circle cx="416.969696969697" cy="-95.54970098558205" fill="mediumorchid" r="1"/>
<circle cx="421.8181818181818" cy="-86.24169484660803" fill="mediumorchid" r="1"/>
<circle cx="426.66666666666663" cy="-79.93648714846364" fill="mediumorchid" r="1"/>
<circle cx="431.5151515151515" cy="-77.5696181429113" fill="mediumorchid" r="1"/>
<circle cx="436.3636363636364" cy="-80.19008847752536" fill="mediumorchid" r="1"/>
<circle cx="441.2121212121212" cy="-88.96728186443237" fill="mediumorchid" r="1"/>
<circle cx="446.06060606060606" cy="-105.19806525337818" fill="mediumorchid" r="1"/>
<circle cx="450.90909090909093" cy="-130.31406650912194" fill="mediumorchid" r="1"/>
<circle cx="455.75757575757575" cy="-165.8891295931564" fill="mediumorchid" r="1"/>
<circle cx="460.60606060606057" cy="-213.6469472497549" fill="mediumorchid" r="1"/>
<circle cx="465.4545454545455" cy="-275.46887119634545" fill="mediumorchid" r="1"/>
<circle cx="470.3030303030303" cy="-353.4018998182109" fill="mediumorchid" r="1"/>
<circle cx="475.1515151515151" cy="-449.6668433675177" fill="mediumorchid" r="1"/>
<circle cx="480" cy="-566.6666666666666" fill="mediumorchid" r="1"/>
</g>
</g>
<g>
<g>
<line stroke="black" stroke-width="1" x1="0" x2="0" y1="0" y2="10"/>
<line stroke="black" stroke-width="1" x1="120" x2="120" y1="0" y2="10"/>
<line stroke="black" stroke-width="1" x1="240" x2="240" y1="0" y2="10"/>
<line stroke="black" stroke-width="1" x1="360" x2="360" y1="0" y2="10"/>
<line stroke="black" stroke-width="1" x1="480" x2="480" y1="0" y2="10"/>
</g>
<line stroke="black" stroke-width="1" x1="0" x2="480" y1="0" y2="0"/>
<g>
<text font-size="12" text-anchor="middle" x="0" y="20">
-1
</text>
<text font-size="12" text-anchor="middle" x="120" y="20">
-0.5
</text>
<text font-size="12" text-anchor="middle" x="240" y="20">
0
</text>
<text font-size="12" text-anchor="middle" x="360" y="20">
0.5
</text>
<text font-size="12" text-anchor="middle" x="480" y="20">
1
</text>
</g>
<text font-size="12" text-anchor="middle" x="240" y="30">
x
</text>
</g>
<g>
<g>
<line stroke="black" stroke-width="1" x1="0" x2="-10" y1="-56.666666666666664" y2="-56.666666666666664"/>
<line stroke="black" stroke-width="1" x1="0" x2="-10" y1="-170" y2="-170"/>
<line stroke="black" stroke-width="1" x1="0" x2="-10" y1="-283.3333333333333" y2="-283.3333333333333"/>
</g>
<line stroke="black" stroke-width="1" x1="0" x2="0" y1="0" y2="-340"/>
<g>
<text dominant-baseline="middle" font-size="12" text-anchor="end" x="-15" y="-56.666666666666664">
-2
</text>
<text dominant-baseline="middle" font-size="12" text-anchor="end" x="-15" y="-170">
0
</text>
<text dominant-baseline="middle" font-size="12" text-anchor="end" x="-15" y="-283.3333333333333">
2
</text>
</g>
<text font-size="12" text-anchor="middle" transform="rotate(-90 -24 -170)" x="-24" y="-182">
Chebyshev U
</text>
</g>
</g>
</svg>