<svg viewBox="0 0 600 400" xmlns="http://www.w3.org/2000/svg">
<g transform="translate(72, 364)">
<g>
<g>
<path d="M0,-170 L0,-170 L480,-170" fill="none" stroke="lightgray" stroke-linejoin="round" stroke-width="2"/>
</g>
</g>
<g>
<g>
<path d="M0,-324.54544 L0,-324.54544 L4.848485,-324.54544 L9.69697,-324.54544 L14.545455,-324.54544 L19.39394,-324.54544 L24.242424,-324.54544 L29.09091,-324.54544 L33.939392,-324.54544 L38.78788,-324.54544 L43.636364,-324.54544 L48.484848,-324.54544 L53.333332,-324.54544 L58.18182,-324.54544 L63.030304,-324.54544 L67.878784,-324.54544 L72.72727,-324.54544 L77.57576,-324.54544 L82.42424,-324.54544 L87.27273,-324.54544 L92.121216,-324.54544 L96.969696,-324.54544 L101.818184,-324.54544 L106.666664,-324.54544 L111.51515,-324.54544 L116.36364,-324.54544 L121.21212,-324.54544 L126.06061,-324.54544 L130.90909,-324.54544 L135.75757,-324.54544 L140.60606,-324.54544 L145.45454,-324.54544 L150.30302,-324.54544 L155.15152,-324.54544 L160,-324.54544 L164.84848,-324.54544 L169.69698,-324.54544 L174.54546,-324.54544 L179.39394,-324.54544 L184.24243,-324.54544 L189.09091,-324.54544 L193.93939,-324.54544 L198.78787,-324.54544 L203.63637,-324.54544 L208.48485,-324.54544 L213.33333,-324.54544 L218.18182,-324.54544 L223.0303,-324.54544 L227.87878,-324.54544 L232.72728,-324.54544 L237.57576,-324.54544 L242.42424,-324.54544 L247.27272,-324.54544 L252.12122,-324.54544 L256.9697,-324.54544 L261.81818,-324.54544 L266.66666,-324.54544 L271.51514,-324.54544 L276.36365,-324.54544 L281.21213,-324.54544 L286.0606,-324.54544 L290.9091,-324.54544 L295.75757,-324.54544 L300.60605,-324.54544 L305.45456,-324.54544 L310.30304,-324.54544 L315.15152,-324.54544 L320,-324.54544 L324.84848,-324.54544 L329.69696,-324.54544 L334.54544,-324.54544 L339.39395,-324.54544 L344.24243,-324.54544 L349.0909,-324.54544 L353.9394,-324.54544 L358.78787,-324.54544 L363.63635,-324.54544 L368.48486,-324.54544 L373.33334,-324.54544 L378.18182,-324.54544 L383.0303,-324.54544 L387.87878,-324.54544 L392.72726,-324.54544 L397.57574,-324.54544 L402.42426,-324.54544 L407.27274,-324.54544 L412.12122,-324.54544 L416.9697,-324.54544 L421.81818,-324.54544 L426.66666,-324.54544 L431.51514,-324.54544 L436.36365,-324.54544 L441.21213,-324.54544 L446.0606,-324.54544 L450.9091,-324.54544 L455.75757,-324.54544 L460.60605,-324.54544 L465.45456,-324.54544 L470.30304,-324.54544 L475.15152,-324.54544 L480,-324.54544" fill="none" stroke="black" stroke-linejoin="round" stroke-width="2"/>
</g>
<g>
<circle cx="0" cy="-324.5454545454545" fill="black" r="1"/>
<circle cx="4.848484848484853" cy="-324.5454545454545" fill="black" r="1"/>
<circle cx="9.696969696969706" cy="-324.5454545454545" fill="black" r="1"/>
<circle cx="14.545454545454533" cy="-324.5454545454545" fill="black" r="1"/>
<circle cx="19.393939393939384" cy="-324.5454545454545" fill="black" r="1"/>
<circle cx="24.24242424242424" cy="-324.5454545454545" fill="black" r="1"/>
<circle cx="29.090909090909093" cy="-324.5454545454545" fill="black" r="1"/>
<circle cx="33.939393939393945" cy="-324.5454545454545" fill="black" r="1"/>
<circle cx="38.787878787878796" cy="-324.5454545454545" fill="black" r="1"/>
<circle cx="43.636363636363654" cy="-324.5454545454545" fill="black" r="1"/>
<circle cx="48.48484848484848" cy="-324.5454545454545" fill="black" r="1"/>
<circle cx="53.33333333333333" cy="-324.5454545454545" fill="black" r="1"/>
<circle cx="58.18181818181819" cy="-324.5454545454545" fill="black" r="1"/>
<circle cx="63.03030303030304" cy="-324.5454545454545" fill="black" r="1"/>
<circle cx="67.87878787878789" cy="-324.5454545454545" fill="black" r="1"/>
<circle cx="72.72727272727272" cy="-324.5454545454545" fill="black" r="1"/>
<circle cx="77.57575757575759" cy="-324.5454545454545" fill="black" r="1"/>
<circle cx="82.42424242424242" cy="-324.5454545454545" fill="black" r="1"/>
<circle cx="87.27272727272728" cy="-324.5454545454545" fill="black" r="1"/>
<circle cx="92.12121212121212" cy="-324.5454545454545" fill="black" r="1"/>
<circle cx="96.96969696969698" cy="-324.5454545454545" fill="black" r="1"/>
<circle cx="101.81818181818184" cy="-324.5454545454545" fill="black" r="1"/>
<circle cx="106.66666666666666" cy="-324.5454545454545" fill="black" r="1"/>
<circle cx="111.51515151515154" cy="-324.5454545454545" fill="black" r="1"/>
<circle cx="116.36363636363637" cy="-324.5454545454545" fill="black" r="1"/>
<circle cx="121.21212121212122" cy="-324.5454545454545" fill="black" r="1"/>
<circle cx="126.06060606060608" cy="-324.5454545454545" fill="black" r="1"/>
<circle cx="130.90909090909093" cy="-324.5454545454545" fill="black" r="1"/>
<circle cx="135.75757575757578" cy="-324.5454545454545" fill="black" r="1"/>
<circle cx="140.6060606060606" cy="-324.5454545454545" fill="black" r="1"/>
<circle cx="145.45454545454547" cy="-324.5454545454545" fill="black" r="1"/>
<circle cx="150.3030303030303" cy="-324.5454545454545" fill="black" r="1"/>
<circle cx="155.15151515151516" cy="-324.5454545454545" fill="black" r="1"/>
<circle cx="160.00000000000003" cy="-324.5454545454545" fill="black" r="1"/>
<circle cx="164.84848484848487" cy="-324.5454545454545" fill="black" r="1"/>
<circle cx="169.69696969696972" cy="-324.5454545454545" fill="black" r="1"/>
<circle cx="174.54545454545456" cy="-324.5454545454545" fill="black" r="1"/>
<circle cx="179.3939393939394" cy="-324.5454545454545" fill="black" r="1"/>
<circle cx="184.24242424242425" cy="-324.5454545454545" fill="black" r="1"/>
<circle cx="189.09090909090912" cy="-324.5454545454545" fill="black" r="1"/>
<circle cx="193.93939393939397" cy="-324.5454545454545" fill="black" r="1"/>
<circle cx="198.7878787878788" cy="-324.5454545454545" fill="black" r="1"/>
<circle cx="203.63636363636365" cy="-324.5454545454545" fill="black" r="1"/>
<circle cx="208.4848484848485" cy="-324.5454545454545" fill="black" r="1"/>
<circle cx="213.33333333333334" cy="-324.5454545454545" fill="black" r="1"/>
<circle cx="218.1818181818182" cy="-324.5454545454545" fill="black" r="1"/>
<circle cx="223.03030303030306" cy="-324.5454545454545" fill="black" r="1"/>
<circle cx="227.8787878787879" cy="-324.5454545454545" fill="black" r="1"/>
<circle cx="232.72727272727275" cy="-324.5454545454545" fill="black" r="1"/>
<circle cx="237.5757575757576" cy="-324.5454545454545" fill="black" r="1"/>
<circle cx="242.42424242424244" cy="-324.5454545454545" fill="black" r="1"/>
<circle cx="247.27272727272725" cy="-324.5454545454545" fill="black" r="1"/>
<circle cx="252.1212121212121" cy="-324.5454545454545" fill="black" r="1"/>
<circle cx="256.96969696969694" cy="-324.5454545454545" fill="black" r="1"/>
<circle cx="261.8181818181818" cy="-324.5454545454545" fill="black" r="1"/>
<circle cx="266.6666666666667" cy="-324.5454545454545" fill="black" r="1"/>
<circle cx="271.5151515151515" cy="-324.5454545454545" fill="black" r="1"/>
<circle cx="276.3636363636363" cy="-324.5454545454545" fill="black" r="1"/>
<circle cx="281.2121212121212" cy="-324.5454545454545" fill="black" r="1"/>
<circle cx="286.06060606060606" cy="-324.5454545454545" fill="black" r="1"/>
<circle cx="290.9090909090909" cy="-324.5454545454545" fill="black" r="1"/>
<circle cx="295.75757575757575" cy="-324.5454545454545" fill="black" r="1"/>
<circle cx="300.6060606060606" cy="-324.5454545454545" fill="black" r="1"/>
<circle cx="305.45454545454544" cy="-324.5454545454545" fill="black" r="1"/>
<circle cx="310.30303030303025" cy="-324.5454545454545" fill="black" r="1"/>
<circle cx="315.1515151515151" cy="-324.5454545454545" fill="black" r="1"/>
<circle cx="320" cy="-324.5454545454545" fill="black" r="1"/>
<circle cx="324.8484848484848" cy="-324.5454545454545" fill="black" r="1"/>
<circle cx="329.6969696969697" cy="-324.5454545454545" fill="black" r="1"/>
<circle cx="334.54545454545456" cy="-324.5454545454545" fill="black" r="1"/>
<circle cx="339.3939393939394" cy="-324.5454545454545" fill="black" r="1"/>
<circle cx="344.24242424242425" cy="-324.5454545454545" fill="black" r="1"/>
<circle cx="349.0909090909091" cy="-324.5454545454545" fill="black" r="1"/>
<circle cx="353.93939393939394" cy="-324.5454545454545" fill="black" r="1"/>
<circle cx="358.78787878787875" cy="-324.5454545454545" fill="black" r="1"/>
<circle cx="363.6363636363636" cy="-324.5454545454545" fill="black" r="1"/>
<circle cx="368.48484848484844" cy="-324.5454545454545" fill="black" r="1"/>
<circle cx="373.3333333333333" cy="-324.5454545454545" fill="black" r="1"/>
<circle cx="378.1818181818182" cy="-324.5454545454545" fill="black" r="1"/>
<circle cx="383.03030303030306" cy="-324.5454545454545" fill="black" r="1"/>
<circle cx="387.8787878787879" cy="-324.5454545454545" fill="black" r="1"/>
<circle cx="392.7272727272727" cy="-324.5454545454545" fill="black" r="1"/>
<circle cx="397.57575757575756" cy="-324.5454545454545" fill="black" r="1"/>
<circle cx="402.4242424242424" cy="-324.5454545454545" fill="black" r="1"/>
<circle cx="407.2727272727273" cy="-324.5454545454545" fill="black" r="1"/>
<circle cx="412.1212121212121" cy="-324.5454545454545" fill="black" r="1"/>
<circle cx="416.969696969697" cy="-324.5454545454545" fill="black" r="1"/>
<circle cx="421.8181818181818" cy="-324.5454545454545" fill="black" r="1"/>
<circle cx="426.66666666666663" cy="-324.5454545454545" fill="black" r="1"/>
<circle cx="431.5151515151515" cy="-324.5454545454545" fill="black" r="1"/>
<circle cx="436.3636363636364" cy="-324.5454545454545" fill="black" r="1"/>
<circle cx="441.2121212121212" cy="-324.5454545454545" fill="black" r="1"/>
<circle cx="446.06060606060606" cy="-324.5454545454545" fill="black" r="1"/>
<circle cx="450.90909090909093" cy="-324.5454545454545" fill="black" r="1"/>
<circle cx="455.75757575757575" cy="-324.5454545454545" fill="black" r="1"/>
<circle cx="460.60606060606057" cy="-324.5454545454545" fill="black" r="1"/>
<circle cx="465.4545454545455" cy="-324.5454545454545" fill="black" r="1"/>
<circle cx="470.3030303030303" cy="-324.5454545454545" fill="black" r="1"/>
<circle cx="475.1515151515151" cy="-324.5454545454545" fill="black" r="1"/>
<circle cx="480" cy="-324.5454545454545" fill="black" r="1"/>
</g>
</g>
<g>
<g>
<path d="M0,-15.454545 L0,-15.454545 L4.848485,-18.576675 L9.69697,-21.698807 L14.545455,-24.820936 L19.39394,-27.943068 L24.242424,-31.065197 L29.09091,-34.18733 L33.939392,-37.30946 L38.78788,-40.431587 L43.636364,-43.55372 L48.484848,-46.67585 L53.333332,-49.79798 L58.18182,-52.92011 L63.030304,-56.04224 L67.878784,-59.16437 L72.72727,-62.286503 L77.57576,-65.40863 L82.42424,-68.53076 L87.27273,-71.65289 L92.121216,-74.775024 L96.969696,-77.897156 L101.818184,-81.01929 L106.666664,-84.14141 L111.51515,-87.26354 L116.36364,-90.38567 L121.21212,-93.507805 L126.06061,-96.62994 L130.90909,-99.75207 L135.75757,-102.8742 L140.60606,-105.99633 L145.45454,-109.118454 L150.30302,-112.240585 L155.15152,-115.36272 L160,-118.48485 L164.84848,-121.60698 L169.69698,-124.72911 L174.54546,-127.85124 L179.39394,-130.97337 L184.24243,-134.0955 L189.09091,-137.21764 L193.93939,-140.33977 L198.78787,-143.4619 L203.63637,-146.58401 L208.48485,-149.70615 L213.33333,-152.82828 L218.18182,-155.95041 L223.0303,-159.07254 L227.87878,-162.19467 L232.72728,-165.3168 L237.57576,-168.43893 L242.42424,-171.56107 L247.27272,-174.6832 L252.12122,-177.80533 L256.9697,-180.92746 L261.81818,-184.04959 L266.66666,-187.17172 L271.51514,-190.29385 L276.36365,-193.41599 L281.21213,-196.5381 L286.0606,-199.66023 L290.9091,-202.78236 L295.75757,-205.9045 L300.60605,-209.02663 L305.45456,-212.14876 L310.30304,-215.27089 L315.15152,-218.39302 L320,-221.51515 L324.84848,-224.63728 L329.69696,-227.75941 L334.54544,-230.88155 L339.39395,-234.00368 L344.24243,-237.12581 L349.0909,-240.24794 L353.9394,-243.37007 L358.78787,-246.49219 L363.63635,-249.61432 L368.48486,-252.73645 L373.33334,-255.85858 L378.18182,-258.9807 L383.0303,-262.10284 L387.87878,-265.22498 L392.72726,-268.3471 L397.57574,-271.46924 L402.42426,-274.59137 L407.27274,-277.7135 L412.12122,-280.83563 L416.9697,-283.95776 L421.81818,-287.0799 L426.66666,-290.20203 L431.51514,-293.32416 L436.36365,-296.4463 L441.21213,-299.56842 L446.0606,-302.69055 L450.9091,-305.81268 L455.75757,-308.9348 L460.60605,-312.05695 L465.45456,-315.17908 L470.30304,-318.3012 L475.15152,-321.4233 L480,-324.54544" fill="none" stroke="red" stroke-linejoin="round" stroke-width="2"/>
</g>
<g>
<circle cx="0" cy="-15.454545454545466" fill="red" r="1"/>
<circle cx="4.848484848484853" cy="-18.576675849403138" fill="red" r="1"/>
<circle cx="9.696969696969706" cy="-21.69880624426081" fill="red" r="1"/>
<circle cx="14.545454545454533" cy="-24.82093663911846" fill="red" r="1"/>
<circle cx="19.393939393939384" cy="-27.94306703397613" fill="red" r="1"/>
<circle cx="24.24242424242424" cy="-31.0651974288338" fill="red" r="1"/>
<circle cx="29.090909090909093" cy="-34.187327823691476" fill="red" r="1"/>
<circle cx="33.939393939393945" cy="-37.30945821854914" fill="red" r="1"/>
<circle cx="38.787878787878796" cy="-40.43158861340681" fill="red" r="1"/>
<circle cx="43.636363636363654" cy="-43.55371900826448" fill="red" r="1"/>
<circle cx="48.48484848484848" cy="-46.675849403122136" fill="red" r="1"/>
<circle cx="53.33333333333333" cy="-49.79797979797981" fill="red" r="1"/>
<circle cx="58.18181818181819" cy="-52.92011019283747" fill="red" r="1"/>
<circle cx="63.03030303030304" cy="-56.04224058769515" fill="red" r="1"/>
<circle cx="67.87878787878789" cy="-59.16437098255281" fill="red" r="1"/>
<circle cx="72.72727272727272" cy="-62.28650137741047" fill="red" r="1"/>
<circle cx="77.57575757575759" cy="-65.40863177226815" fill="red" r="1"/>
<circle cx="82.42424242424242" cy="-68.53076216712581" fill="red" r="1"/>
<circle cx="87.27272727272728" cy="-71.65289256198349" fill="red" r="1"/>
<circle cx="92.12121212121212" cy="-74.77502295684116" fill="red" r="1"/>
<circle cx="96.96969696969698" cy="-77.89715335169882" fill="red" r="1"/>
<circle cx="101.81818181818184" cy="-81.0192837465565" fill="red" r="1"/>
<circle cx="106.66666666666666" cy="-84.14141414141415" fill="red" r="1"/>
<circle cx="111.51515151515154" cy="-87.26354453627182" fill="red" r="1"/>
<circle cx="116.36363636363637" cy="-90.38567493112949" fill="red" r="1"/>
<circle cx="121.21212121212122" cy="-93.50780532598716" fill="red" r="1"/>
<circle cx="126.06060606060608" cy="-96.62993572084483" fill="red" r="1"/>
<circle cx="130.90909090909093" cy="-99.75206611570249" fill="red" r="1"/>
<circle cx="135.75757575757578" cy="-102.87419651056017" fill="red" r="1"/>
<circle cx="140.6060606060606" cy="-105.99632690541782" fill="red" r="1"/>
<circle cx="145.45454545454547" cy="-109.11845730027548" fill="red" r="1"/>
<circle cx="150.3030303030303" cy="-112.24058769513317" fill="red" r="1"/>
<circle cx="155.15151515151516" cy="-115.36271808999084" fill="red" r="1"/>
<circle cx="160.00000000000003" cy="-118.48484848484851" fill="red" r="1"/>
<circle cx="164.84848484848487" cy="-121.60697887970616" fill="red" r="1"/>
<circle cx="169.69696969696972" cy="-124.72910927456384" fill="red" r="1"/>
<circle cx="174.54545454545456" cy="-127.85123966942149" fill="red" r="1"/>
<circle cx="179.3939393939394" cy="-130.97337006427918" fill="red" r="1"/>
<circle cx="184.24242424242425" cy="-134.09550045913682" fill="red" r="1"/>
<circle cx="189.09090909090912" cy="-137.2176308539945" fill="red" r="1"/>
<circle cx="193.93939393939397" cy="-140.33976124885217" fill="red" r="1"/>
<circle cx="198.7878787878788" cy="-143.46189164370983" fill="red" r="1"/>
<circle cx="203.63636363636365" cy="-146.5840220385675" fill="red" r="1"/>
<circle cx="208.4848484848485" cy="-149.70615243342516" fill="red" r="1"/>
<circle cx="213.33333333333334" cy="-152.82828282828285" fill="red" r="1"/>
<circle cx="218.1818181818182" cy="-155.9504132231405" fill="red" r="1"/>
<circle cx="223.03030303030306" cy="-159.0725436179982" fill="red" r="1"/>
<circle cx="227.8787878787879" cy="-162.19467401285584" fill="red" r="1"/>
<circle cx="232.72727272727275" cy="-165.3168044077135" fill="red" r="1"/>
<circle cx="237.5757575757576" cy="-168.4389348025712" fill="red" r="1"/>
<circle cx="242.42424242424244" cy="-171.56106519742883" fill="red" r="1"/>
<circle cx="247.27272727272725" cy="-174.6831955922865" fill="red" r="1"/>
<circle cx="252.1212121212121" cy="-177.80532598714413" fill="red" r="1"/>
<circle cx="256.96969696969694" cy="-180.9274563820018" fill="red" r="1"/>
<circle cx="261.8181818181818" cy="-184.0495867768595" fill="red" r="1"/>
<circle cx="266.6666666666667" cy="-187.17171717171718" fill="red" r="1"/>
<circle cx="271.5151515151515" cy="-190.29384756657484" fill="red" r="1"/>
<circle cx="276.3636363636363" cy="-193.41597796143247" fill="red" r="1"/>
<circle cx="281.2121212121212" cy="-196.53810835629017" fill="red" r="1"/>
<circle cx="286.06060606060606" cy="-199.66023875114783" fill="red" r="1"/>
<circle cx="290.9090909090909" cy="-202.78236914600546" fill="red" r="1"/>
<circle cx="295.75757575757575" cy="-205.90449954086318" fill="red" r="1"/>
<circle cx="300.6060606060606" cy="-209.02662993572085" fill="red" r="1"/>
<circle cx="305.45454545454544" cy="-212.1487603305785" fill="red" r="1"/>
<circle cx="310.30303030303025" cy="-215.27089072543615" fill="red" r="1"/>
<circle cx="315.1515151515151" cy="-218.39302112029384" fill="red" r="1"/>
<circle cx="320" cy="-221.5151515151515" fill="red" r="1"/>
<circle cx="324.8484848484848" cy="-224.63728191000914" fill="red" r="1"/>
<circle cx="329.6969696969697" cy="-227.75941230486686" fill="red" r="1"/>
<circle cx="334.54545454545456" cy="-230.88154269972452" fill="red" r="1"/>
<circle cx="339.3939393939394" cy="-234.00367309458218" fill="red" r="1"/>
<circle cx="344.24242424242425" cy="-237.12580348943982" fill="red" r="1"/>
<circle cx="349.0909090909091" cy="-240.24793388429754" fill="red" r="1"/>
<circle cx="353.93939393939394" cy="-243.37006427915517" fill="red" r="1"/>
<circle cx="358.78787878787875" cy="-246.49219467401284" fill="red" r="1"/>
<circle cx="363.6363636363636" cy="-249.6143250688705" fill="red" r="1"/>
<circle cx="368.48484848484844" cy="-252.73645546372813" fill="red" r="1"/>
<circle cx="373.3333333333333" cy="-255.85858585858585" fill="red" r="1"/>
<circle cx="378.1818181818182" cy="-258.9807162534435" fill="red" r="1"/>
<circle cx="383.03030303030306" cy="-262.1028466483012" fill="red" r="1"/>
<circle cx="387.8787878787879" cy="-265.22497704315884" fill="red" r="1"/>
<circle cx="392.7272727272727" cy="-268.3471074380165" fill="red" r="1"/>
<circle cx="397.57575757575756" cy="-271.46923783287417" fill="red" r="1"/>
<circle cx="402.4242424242424" cy="-274.59136822773183" fill="red" r="1"/>
<circle cx="407.2727272727273" cy="-277.7134986225895" fill="red" r="1"/>
<circle cx="412.1212121212121" cy="-280.83562901744716" fill="red" r="1"/>
<circle cx="416.969696969697" cy="-283.9577594123049" fill="red" r="1"/>
<circle cx="421.8181818181818" cy="-287.07988980716254" fill="red" r="1"/>
<circle cx="426.66666666666663" cy="-290.2020202020202" fill="red" r="1"/>
<circle cx="431.5151515151515" cy="-293.32415059687787" fill="red" r="1"/>
<circle cx="436.3636363636364" cy="-296.44628099173553" fill="red" r="1"/>
<circle cx="441.2121212121212" cy="-299.5684113865932" fill="red" r="1"/>
<circle cx="446.06060606060606" cy="-302.69054178145086" fill="red" r="1"/>
<circle cx="450.90909090909093" cy="-305.8126721763085" fill="red" r="1"/>
<circle cx="455.75757575757575" cy="-308.9348025711662" fill="red" r="1"/>
<circle cx="460.60606060606057" cy="-312.05693296602385" fill="red" r="1"/>
<circle cx="465.4545454545455" cy="-315.17906336088157" fill="red" r="1"/>
<circle cx="470.3030303030303" cy="-318.30119375573923" fill="red" r="1"/>
<circle cx="475.1515151515151" cy="-321.42332415059684" fill="red" r="1"/>
<circle cx="480" cy="-324.5454545454545" fill="red" r="1"/>
</g>
</g>
<g>
<g>
<path d="M0,-324.54544 L0,-324.54544 L4.848485,-312.18307 L9.69697,-300.073 L14.545455,-288.2152 L19.39394,-276.6097 L24.242424,-265.2565 L29.09091,-254.15561 L33.939392,-243.30699 L38.78788,-232.71066 L43.636364,-222.36664 L48.484848,-212.2749 L53.333332,-202.43547 L58.18182,-192.84831 L63.030304,-183.51346 L67.878784,-174.43091 L72.72727,-165.60063 L77.57576,-157.02266 L82.42424,-148.69698 L87.27273,-140.6236 L92.121216,-132.80249 L96.969696,-125.233696 L101.818184,-117.91719 L106.666664,-110.852974 L111.51515,-104.04105 L116.36364,-97.48142 L121.21212,-91.174095 L126.06061,-85.11905 L130.90909,-79.31631 L135.75757,-73.76585 L140.60606,-68.46769 L145.45454,-63.42182 L150.30302,-58.628246 L155.15152,-54.086967 L160,-49.79798 L164.84848,-45.761288 L169.69698,-41.976887 L174.54546,-38.44478 L179.39394,-35.164963 L184.24243,-32.137444 L189.09091,-29.362217 L193.93939,-26.839283 L198.78787,-24.568644 L203.63637,-22.550297 L208.48485,-20.784243 L213.33333,-19.270483 L218.18182,-18.009016 L223.0303,-16.999842 L227.87878,-16.242962 L232.72728,-15.738376 L237.57576,-15.486082 L242.42424,-15.486082 L247.27272,-15.738376 L252.12122,-16.242962 L256.9697,-16.999842 L261.81818,-18.009016 L266.66666,-19.270483 L271.51514,-20.784243 L276.36365,-22.550297 L281.21213,-24.568644 L286.0606,-26.839283 L290.9091,-29.362217 L295.75757,-32.137444 L300.60605,-35.164963 L305.45456,-38.44478 L310.30304,-41.976887 L315.15152,-45.761288 L320,-49.79798 L324.84848,-54.086967 L329.69696,-58.628246 L334.54544,-63.42182 L339.39395,-68.46769 L344.24243,-73.76585 L349.0909,-79.31631 L353.9394,-85.11905 L358.78787,-91.174095 L363.63635,-97.48142 L368.48486,-104.04105 L373.33334,-110.852974 L378.18182,-117.91719 L383.0303,-125.233696 L387.87878,-132.80249 L392.72726,-140.6236 L397.57574,-148.69698 L402.42426,-157.02266 L407.27274,-165.60063 L412.12122,-174.43091 L416.9697,-183.51346 L421.81818,-192.84831 L426.66666,-202.43547 L431.51514,-212.2749 L436.36365,-222.36664 L441.21213,-232.71066 L446.0606,-243.30699 L450.9091,-254.15561 L455.75757,-265.2565 L460.60605,-276.6097 L465.45456,-288.2152 L470.30304,-300.073 L475.15152,-312.18307 L480,-324.54544" fill="none" stroke="blue" stroke-linejoin="round" stroke-width="2"/>
</g>
<g>
<circle cx="0" cy="-324.5454545454545" fill="blue" r="1"/>
<circle cx="4.848484848484853" cy="-312.18307964864437" fill="blue" r="1"/>
<circle cx="9.696969696969706" cy="-300.07299811707526" fill="blue" r="1"/>
<circle cx="14.545454545454533" cy="-288.2152099507471" fill="blue" r="1"/>
<circle cx="19.393939393939384" cy="-276.6097151496601" fill="blue" r="1"/>
<circle cx="24.24242424242424" cy="-265.256513713814" fill="blue" r="1"/>
<circle cx="29.090909090909093" cy="-254.15560564320896" fill="blue" r="1"/>
<circle cx="33.939393939393945" cy="-243.3069909378449" fill="blue" r="1"/>
<circle cx="38.787878787878796" cy="-232.7106695977219" fill="blue" r="1"/>
<circle cx="43.636363636363654" cy="-222.36664162283995" fill="blue" r="1"/>
<circle cx="48.48484848484848" cy="-212.27490701319903" fill="blue" r="1"/>
<circle cx="53.33333333333333" cy="-202.4354657687991" fill="blue" r="1"/>
<circle cx="58.18181818181819" cy="-192.84831788964019" fill="blue" r="1"/>
<circle cx="63.03030303030304" cy="-183.51346337572235" fill="blue" r="1"/>
<circle cx="67.87878787878789" cy="-174.43090222704546" fill="blue" r="1"/>
<circle cx="72.72727272727272" cy="-165.60063444360966" fill="blue" r="1"/>
<circle cx="77.57575757575759" cy="-157.0226600254148" fill="blue" r="1"/>
<circle cx="82.42424242424242" cy="-148.69697897246107" fill="blue" r="1"/>
<circle cx="87.27272727272728" cy="-140.6235912847483" fill="blue" r="1"/>
<circle cx="92.12121212121212" cy="-132.8024969622766" fill="blue" r="1"/>
<circle cx="96.96969696969698" cy="-125.23369600504586" fill="blue" r="1"/>
<circle cx="101.81818181818184" cy="-117.91718841305618" fill="blue" r="1"/>
<circle cx="106.66666666666666" cy="-110.85297418630753" fill="blue" r="1"/>
<circle cx="111.51515151515154" cy="-104.04105332479985" fill="blue" r="1"/>
<circle cx="116.36363636363637" cy="-97.48142582853328" fill="blue" r="1"/>
<circle cx="121.21212121212122" cy="-91.17409169750768" fill="blue" r="1"/>
<circle cx="126.06060606060608" cy="-85.11905093172308" fill="blue" r="1"/>
<circle cx="130.90909090909093" cy="-79.31630353117954" fill="blue" r="1"/>
<circle cx="135.75757575757578" cy="-73.76584949587703" fill="blue" r="1"/>
<circle cx="140.6060606060606" cy="-68.46768882581556" fill="blue" r="1"/>
<circle cx="145.45454545454547" cy="-63.42182152099508" fill="blue" r="1"/>
<circle cx="150.3030303030303" cy="-58.62824758141562" fill="blue" r="1"/>
<circle cx="155.15151515151516" cy="-54.08696700707719" fill="blue" r="1"/>
<circle cx="160.00000000000003" cy="-49.797979797979785" fill="blue" r="1"/>
<circle cx="164.84848484848487" cy="-45.761285954123416" fill="blue" r="1"/>
<circle cx="169.69696969696972" cy="-41.97688547550805" fill="blue" r="1"/>
<circle cx="174.54545454545456" cy="-38.44477836213373" fill="blue" r="1"/>
<circle cx="179.3939393939394" cy="-35.16496461400043" fill="blue" r="1"/>
<circle cx="184.24242424242425" cy="-32.13744423110814" fill="blue" r="1"/>
<circle cx="189.09090909090912" cy="-29.362217213456873" fill="blue" r="1"/>
<circle cx="193.93939393939397" cy="-26.839283561046656" fill="blue" r="1"/>
<circle cx="198.7878787878788" cy="-24.56864327387743" fill="blue" r="1"/>
<circle cx="203.63636363636365" cy="-22.550296351949253" fill="blue" r="1"/>
<circle cx="208.4848484848485" cy="-20.784242795262088" fill="blue" r="1"/>
<circle cx="213.33333333333334" cy="-19.27048260381595" fill="blue" r="1"/>
<circle cx="218.1818181818182" cy="-18.009015777610824" fill="blue" r="1"/>
<circle cx="223.03030303030306" cy="-16.999842316646724" fill="blue" r="1"/>
<circle cx="227.8787878787879" cy="-16.242962220923655" fill="blue" r="1"/>
<circle cx="232.72727272727275" cy="-15.738375490441618" fill="blue" r="1"/>
<circle cx="237.5757575757576" cy="-15.486082125200587" fill="blue" r="1"/>
<circle cx="242.42424242424244" cy="-15.486082125200587" fill="blue" r="1"/>
<circle cx="247.27272727272725" cy="-15.738375490441618" fill="blue" r="1"/>
<circle cx="252.1212121212121" cy="-16.242962220923655" fill="blue" r="1"/>
<circle cx="256.96969696969694" cy="-16.999842316646724" fill="blue" r="1"/>
<circle cx="261.8181818181818" cy="-18.009015777610824" fill="blue" r="1"/>
<circle cx="266.6666666666667" cy="-19.27048260381595" fill="blue" r="1"/>
<circle cx="271.5151515151515" cy="-20.784242795262088" fill="blue" r="1"/>
<circle cx="276.3636363636363" cy="-22.550296351949253" fill="blue" r="1"/>
<circle cx="281.2121212121212" cy="-24.56864327387743" fill="blue" r="1"/>
<circle cx="286.06060606060606" cy="-26.839283561046656" fill="blue" r="1"/>
<circle cx="290.9090909090909" cy="-29.362217213456873" fill="blue" r="1"/>
<circle cx="295.75757575757575" cy="-32.13744423110814" fill="blue" r="1"/>
<circle cx="300.6060606060606" cy="-35.16496461400043" fill="blue" r="1"/>
<circle cx="305.45454545454544" cy="-38.44477836213373" fill="blue" r="1"/>
<circle cx="310.30303030303025" cy="-41.97688547550805" fill="blue" r="1"/>
<circle cx="315.1515151515151" cy="-45.761285954123416" fill="blue" r="1"/>
<circle cx="320" cy="-49.797979797979785" fill="blue" r="1"/>
<circle cx="324.8484848484848" cy="-54.08696700707719" fill="blue" r="1"/>
<circle cx="329.6969696969697" cy="-58.62824758141562" fill="blue" r="1"/>
<circle cx="334.54545454545456" cy="-63.42182152099508" fill="blue" r="1"/>
<circle cx="339.3939393939394" cy="-68.46768882581556" fill="blue" r="1"/>
<circle cx="344.24242424242425" cy="-73.76584949587703" fill="blue" r="1"/>
<circle cx="349.0909090909091" cy="-79.31630353117954" fill="blue" r="1"/>
<circle cx="353.93939393939394" cy="-85.11905093172308" fill="blue" r="1"/>
<circle cx="358.78787878787875" cy="-91.17409169750768" fill="blue" r="1"/>
<circle cx="363.6363636363636" cy="-97.48142582853328" fill="blue" r="1"/>
<circle cx="368.48484848484844" cy="-104.04105332479985" fill="blue" r="1"/>
<circle cx="373.3333333333333" cy="-110.85297418630753" fill="blue" r="1"/>
<circle cx="378.1818181818182" cy="-117.91718841305618" fill="blue" r="1"/>
<circle cx="383.03030303030306" cy="-125.23369600504586" fill="blue" r="1"/>
<circle cx="387.8787878787879" cy="-132.8024969622766" fill="blue" r="1"/>
<circle cx="392.7272727272727" cy="-140.6235912847483" fill="blue" r="1"/>
<circle cx="397.57575757575756" cy="-148.69697897246107" fill="blue" r="1"/>
<circle cx="402.4242424242424" cy="-157.0226600254148" fill="blue" r="1"/>
<circle cx="407.2727272727273" cy="-165.60063444360966" fill="blue" r="1"/>
<circle cx="412.1212121212121" cy="-174.43090222704546" fill="blue" r="1"/>
<circle cx="416.969696969697" cy="-183.51346337572235" fill="blue" r="1"/>
<circle cx="421.8181818181818" cy="-192.84831788964019" fill="blue" r="1"/>
<circle cx="426.66666666666663" cy="-202.4354657687991" fill="blue" r="1"/>
<circle cx="431.5151515151515" cy="-212.27490701319903" fill="blue" r="1"/>
<circle cx="436.3636363636364" cy="-222.36664162283995" fill="blue" r="1"/>
<circle cx="441.2121212121212" cy="-232.7106695977219" fill="blue" r="1"/>
<circle cx="446.06060606060606" cy="-243.3069909378449" fill="blue" r="1"/>
<circle cx="450.90909090909093" cy="-254.15560564320896" fill="blue" r="1"/>
<circle cx="455.75757575757575" cy="-265.256513713814" fill="blue" r="1"/>
<circle cx="460.60606060606057" cy="-276.6097151496601" fill="blue" r="1"/>
<circle cx="465.4545454545455" cy="-288.2152099507471" fill="blue" r="1"/>
<circle cx="470.3030303030303" cy="-300.07299811707526" fill="blue" r="1"/>
<circle cx="475.1515151515151" cy="-312.18307964864437" fill="blue" r="1"/>
<circle cx="480" cy="-324.5454545454545" fill="blue" r="1"/>
</g>
</g>
<g>
<g>
<path d="M0,-15.454545 L0,-15.454545 L4.848485,-42.801937 L9.69697,-68.666145 L14.545455,-93.07776 L19.39394,-116.06735 L24.242424,-137.66551 L29.09091,-157.90282 L33.939392,-176.80984 L38.78788,-194.41719 L43.636364,-210.75542 L48.484848,-225.8551 L53.333332,-239.74686 L58.18182,-252.46123 L63.030304,-264.0288 L67.878784,-274.4802 L72.72727,-283.84595 L77.57576,-292.15665 L82.42424,-299.4429 L87.27273,-305.73526 L92.121216,-311.06433 L96.969696,-315.46066 L101.818184,-318.95486 L106.666664,-321.5775 L111.51515,-323.35916 L116.36364,-324.33044 L121.21212,-324.52188 L126.06061,-323.9641 L130.90909,-322.68765 L135.75757,-320.72314 L140.60606,-318.10114 L145.45454,-314.85223 L150.30302,-311.007 L155.15152,-306.59598 L160,-301.64984 L164.84848,-296.1991 L169.69698,-290.27432 L174.54546,-283.90616 L179.39394,-277.12512 L184.24243,-269.96185 L189.09091,-262.44687 L193.93939,-254.61081 L198.78787,-246.48424 L203.63637,-238.0977 L208.48485,-229.48183 L213.33333,-220.66716 L218.18182,-211.68431 L223.0303,-202.56384 L227.87878,-193.33633 L232.72728,-184.03238 L237.57576,-174.68256 L242.42424,-165.31744 L247.27272,-155.96762 L252.12122,-146.66367 L256.9697,-137.43616 L261.81818,-128.31569 L266.66666,-119.33283 L271.51514,-110.51817 L276.36365,-101.90229 L281.21213,-93.51577 L286.0606,-85.38918 L290.9091,-77.553116 L295.75757,-70.038155 L300.60605,-62.874866 L305.45456,-56.093845 L310.30304,-49.72567 L315.15152,-43.800915 L320,-38.35017 L324.84848,-33.404007 L329.69696,-28.993015 L334.54544,-25.147772 L339.39395,-21.898857 L344.24243,-19.276854 L349.0909,-17.312342 L353.9394,-16.035904 L358.78787,-15.478118 L363.63635,-15.669568 L368.48486,-16.640835 L373.33334,-18.422497 L378.18182,-21.045137 L383.0303,-24.539337 L387.87878,-28.935677 L392.72726,-34.264736 L397.57574,-40.5571 L402.42426,-47.84334 L407.27274,-56.154053 L412.12122,-65.519806 L416.9697,-75.97118 L421.81818,-87.53877 L426.66666,-100.25315 L431.51514,-114.14489 L436.36365,-129.24458 L441.21213,-145.58281 L446.0606,-163.19016 L450.9091,-182.09718 L455.75757,-202.33449 L460.60605,-223.93265 L465.45456,-246.92224 L470.30304,-271.33386 L475.15152,-297.19806 L480,-324.54544" fill="none" stroke="green" stroke-linejoin="round" stroke-width="2"/>
</g>
<g>
<circle cx="0" cy="-15.454545454545466" fill="green" r="1"/>
<circle cx="4.848484848484853" cy="-42.80193574820285" fill="green" r="1"/>
<circle cx="9.696969696969706" cy="-68.6661468643827" fill="green" r="1"/>
<circle cx="14.545454545454533" cy="-93.07775981705353" fill="green" r="1"/>
<circle cx="19.393939393939384" cy="-116.06735562018412" fill="green" r="1"/>
<circle cx="24.24242424242424" cy="-137.66551528774306" fill="green" r="1"/>
<circle cx="29.090909090909093" cy="-157.90281983369889" fill="green" r="1"/>
<circle cx="33.939393939393945" cy="-176.8098502720202" fill="green" r="1"/>
<circle cx="38.787878787878796" cy="-194.41718761667568" fill="green" r="1"/>
<circle cx="43.636363636363654" cy="-210.75541288163384" fill="green" r="1"/>
<circle cx="48.48484848484848" cy="-225.85510708086326" fill="green" r="1"/>
<circle cx="53.33333333333333" cy="-239.7468512283327" fill="green" r="1"/>
<circle cx="58.18181818181819" cy="-252.46122633801073" fill="green" r="1"/>
<circle cx="63.03030303030304" cy="-264.02881342386587" fill="green" r="1"/>
<circle cx="67.87878787878789" cy="-274.48019349986686" fill="green" r="1"/>
<circle cx="72.72727272727272" cy="-283.8459475799821" fill="green" r="1"/>
<circle cx="77.57575757575759" cy="-292.15665667818047" fill="green" r="1"/>
<circle cx="82.42424242424242" cy="-299.4429018084304" fill="green" r="1"/>
<circle cx="87.27272727272728" cy="-305.7352639847005" fill="green" r="1"/>
<circle cx="92.12121212121212" cy="-311.0643242209594" fill="green" r="1"/>
<circle cx="96.96969696969698" cy="-315.4606635311758" fill="green" r="1"/>
<circle cx="101.81818181818184" cy="-318.9548629293182" fill="green" r="1"/>
<circle cx="106.66666666666666" cy="-321.57750342935526" fill="green" r="1"/>
<circle cx="111.51515151515154" cy="-323.3591660452556" fill="green" r="1"/>
<circle cx="116.36363636363637" cy="-324.33043179098775" fill="green" r="1"/>
<circle cx="121.21212121212122" cy="-324.5218816805203" fill="green" r="1"/>
<circle cx="126.06060606060608" cy="-323.96409672782215" fill="green" r="1"/>
<circle cx="130.90909090909093" cy="-322.6876579468615" fill="green" r="1"/>
<circle cx="135.75757575757578" cy="-320.7231463516072" fill="green" r="1"/>
<circle cx="140.6060606060606" cy="-318.1011429560279" fill="green" r="1"/>
<circle cx="145.45454545454547" cy="-314.852228774092" fill="green" r="1"/>
<circle cx="150.3030303030303" cy="-311.0069848197683" fill="green" r="1"/>
<circle cx="155.15151515151516" cy="-306.5959921070253" fill="green" r="1"/>
<circle cx="160.00000000000003" cy="-301.6498316498316" fill="green" r="1"/>
<circle cx="164.84848484848487" cy="-296.19908446215595" fill="green" r="1"/>
<circle cx="169.69696969696972" cy="-290.2743315579668" fill="green" r="1"/>
<circle cx="174.54545454545456" cy="-283.90615395123285" fill="green" r="1"/>
<circle cx="179.3939393939394" cy="-277.12513265592264" fill="green" r="1"/>
<circle cx="184.24242424242425" cy="-269.9618486860048" fill="green" r="1"/>
<circle cx="189.09090909090912" cy="-262.44688305544804" fill="green" r="1"/>
<circle cx="193.93939393939397" cy="-254.6108167782208" fill="green" r="1"/>
<circle cx="198.7878787878788" cy="-246.48423086829183" fill="green" r="1"/>
<circle cx="203.63636363636365" cy="-238.0977063396297" fill="green" r="1"/>
<circle cx="208.4848484848485" cy="-229.48182420620296" fill="green" r="1"/>
<circle cx="213.33333333333334" cy="-220.66716548198025" fill="green" r="1"/>
<circle cx="218.1818181818182" cy="-211.68431118093022" fill="green" r="1"/>
<circle cx="223.03030303030306" cy="-202.56384231702145" fill="green" r="1"/>
<circle cx="227.8787878787879" cy="-193.3363399042225" fill="green" r="1"/>
<circle cx="232.72727272727275" cy="-184.0323849565021" fill="green" r="1"/>
<circle cx="237.5757575757576" cy="-174.6825584878288" fill="green" r="1"/>
<circle cx="242.42424242424244" cy="-165.31744151217111" fill="green" r="1"/>
<circle cx="247.27272727272725" cy="-155.96761504349786" fill="green" r="1"/>
<circle cx="252.1212121212121" cy="-146.6636600957775" fill="green" r="1"/>
<circle cx="256.96969696969694" cy="-137.43615768297855" fill="green" r="1"/>
<circle cx="261.8181818181818" cy="-128.31568881906978" fill="green" r="1"/>
<circle cx="266.6666666666667" cy="-119.33283451801974" fill="green" r="1"/>
<circle cx="271.5151515151515" cy="-110.51817579379704" fill="green" r="1"/>
<circle cx="276.3636363636363" cy="-101.9022936603703" fill="green" r="1"/>
<circle cx="281.2121212121212" cy="-93.51576913170818" fill="green" r="1"/>
<circle cx="286.06060606060606" cy="-85.3891832217792" fill="green" r="1"/>
<circle cx="290.9090909090909" cy="-77.55311694455199" fill="green" r="1"/>
<circle cx="295.75757575757575" cy="-70.03815131399517" fill="green" r="1"/>
<circle cx="300.6060606060606" cy="-62.87486734407738" fill="green" r="1"/>
<circle cx="305.45454545454544" cy="-56.09384604876717" fill="green" r="1"/>
<circle cx="310.30303030303025" cy="-49.72566844203324" fill="green" r="1"/>
<circle cx="315.1515151515151" cy="-43.80091553784409" fill="green" r="1"/>
<circle cx="320" cy="-38.350168350168374" fill="green" r="1"/>
<circle cx="324.8484848484848" cy="-33.40400789297472" fill="green" r="1"/>
<circle cx="329.6969696969697" cy="-28.993015180231712" fill="green" r="1"/>
<circle cx="334.54545454545456" cy="-25.147771225907977" fill="green" r="1"/>
<circle cx="339.3939393939394" cy="-21.898857043972107" fill="green" r="1"/>
<circle cx="344.24242424242425" cy="-19.276853648392756" fill="green" r="1"/>
<circle cx="349.0909090909091" cy="-17.312342053138458" fill="green" r="1"/>
<circle cx="353.93939393939394" cy="-16.035903272177865" fill="green" r="1"/>
<circle cx="358.78787878787875" cy="-15.478118319479611" fill="green" r="1"/>
<circle cx="363.6363636363636" cy="-15.669568209012253" fill="green" r="1"/>
<circle cx="368.48484848484844" cy="-16.640833954744423" fill="green" r="1"/>
<circle cx="373.3333333333333" cy="-18.422496570644743" fill="green" r="1"/>
<circle cx="378.1818181818182" cy="-21.045137070681776" fill="green" r="1"/>
<circle cx="383.03030303030306" cy="-24.53933646882418" fill="green" r="1"/>
<circle cx="387.8787878787879" cy="-28.935675779040576" fill="green" r="1"/>
<circle cx="392.7272727272727" cy="-34.26473601529951" fill="green" r="1"/>
<circle cx="397.57575757575756" cy="-40.557098191569644" fill="green" r="1"/>
<circle cx="402.4242424242424" cy="-47.84334332181952" fill="green" r="1"/>
<circle cx="407.2727272727273" cy="-56.1540524200179" fill="green" r="1"/>
<circle cx="412.1212121212121" cy="-65.51980650013319" fill="green" r="1"/>
<circle cx="416.969696969697" cy="-75.97118657613413" fill="green" r="1"/>
<circle cx="421.8181818181818" cy="-87.53877366198927" fill="green" r="1"/>
<circle cx="426.66666666666663" cy="-100.2531487716673" fill="green" r="1"/>
<circle cx="431.5151515151515" cy="-114.14489291913674" fill="green" r="1"/>
<circle cx="436.3636363636364" cy="-129.24458711836618" fill="green" r="1"/>
<circle cx="441.2121212121212" cy="-145.58281238332432" fill="green" r="1"/>
<circle cx="446.06060606060606" cy="-163.1901497279798" fill="green" r="1"/>
<circle cx="450.90909090909093" cy="-182.09718016630111" fill="green" r="1"/>
<circle cx="455.75757575757575" cy="-202.33448471225694" fill="green" r="1"/>
<circle cx="460.60606060606057" cy="-223.93264437981588" fill="green" r="1"/>
<circle cx="465.4545454545455" cy="-246.9222401829465" fill="green" r="1"/>
<circle cx="470.3030303030303" cy="-271.3338531356173" fill="green" r="1"/>
<circle cx="475.1515151515151" cy="-297.1980642517972" fill="green" r="1"/>
<circle cx="480" cy="-324.5454545454545" fill="green" r="1"/>
</g>
</g>
<g>
<g>
<path d="M0,-324.54544 L0,-324.54544 L4.848485,-277.07373 L9.69697,-234.40611 L14.545455,-196.30536 L19.39394,-162.53918 L24.242424,-132.88023 L29.09091,-107.1061 L33.939392,-84.99933 L38.78788,-66.34738 L43.636364,-50.942684 L48.484848,-38.5826 L53.333332,-29.069433 L58.18182,-22.21043 L63.030304,-17.817781 L67.878784,-15.708618 L72.72727,-15.705014 L77.57576,-17.633987 L82.42424,-21.327494 L87.27273,-26.622437 L92.121216,-33.36066 L96.969696,-41.388947 L101.818184,-50.55903 L106.666664,-60.727577 L111.51515,-71.7562 L116.36364,-83.51146 L121.21212,-95.86485 L126.06061,-108.69282 L130.90909,-121.87673 L135.75757,-135.30293 L140.60606,-148.86267 L145.45454,-162.45218 L150.30302,-175.9726 L155.15152,-189.33 L160,-202.43547 L164.84848,-215.20494 L169.69698,-227.55937 L174.54546,-239.42459 L179.39394,-250.73143 L184.24243,-261.41565 L189.09091,-271.4179 L193.93939,-280.68384 L198.78787,-289.16403 L203.63637,-296.81403 L208.48485,-303.59427 L213.33333,-309.47015 L218.18182,-314.41202 L223.0303,-318.39517 L227.87878,-321.39984 L232.72728,-323.41116 L237.57576,-324.4193 L242.42424,-324.4193 L247.27272,-323.41116 L252.12122,-321.39984 L256.9697,-318.39517 L261.81818,-314.41202 L266.66666,-309.47015 L271.51514,-303.59427 L276.36365,-296.81403 L281.21213,-289.16403 L286.0606,-280.68384 L290.9091,-271.4179 L295.75757,-261.41565 L300.60605,-250.73143 L305.45456,-239.42459 L310.30304,-227.55937 L315.15152,-215.20494 L320,-202.43547 L324.84848,-189.33 L329.69696,-175.9726 L334.54544,-162.45218 L339.39395,-148.86267 L344.24243,-135.30293 L349.0909,-121.87673 L353.9394,-108.69282 L358.78787,-95.86485 L363.63635,-83.51146 L368.48486,-71.7562 L373.33334,-60.727577 L378.18182,-50.55903 L383.0303,-41.388947 L387.87878,-33.36066 L392.72726,-26.622437 L397.57574,-21.327494 L402.42426,-17.633987 L407.27274,-15.705014 L412.12122,-15.708618 L416.9697,-17.817781 L421.81818,-22.21043 L426.66666,-29.069433 L431.51514,-38.5826 L436.36365,-50.942684 L441.21213,-66.34738 L446.0606,-84.99933 L450.9091,-107.1061 L455.75757,-132.88023 L460.60605,-162.53918 L465.45456,-196.30536 L470.30304,-234.40611 L475.15152,-277.07373 L480,-324.54544" fill="none" stroke="purple" stroke-linejoin="round" stroke-width="2"/>
</g>
<g>
<circle cx="0" cy="-324.5454545454545" fill="purple" r="1"/>
<circle cx="4.848484848484853" cy="-277.0737331276046" fill="purple" r="1"/>
<circle cx="9.696969696969706" cy="-234.40611396138218" fill="purple" r="1"/>
<circle cx="14.545454545454533" cy="-196.3053625141826" fill="purple" r="1"/>
<circle cx="19.393939393939384" cy="-162.5391866394964" fill="purple" r="1"/>
<circle cx="24.24242424242424" cy="-132.88023657691056" fill="purple" r="1"/>
<circle cx="29.090909090909093" cy="-107.10610495210817" fill="purple" r="1"/>
<circle cx="33.939393939393945" cy="-84.99932677686785" fill="purple" r="1"/>
<circle cx="38.787878787878796" cy="-66.34737944906436" fill="purple" r="1"/>
<circle cx="43.636363636363654" cy="-50.94268275266837" fill="purple" r="1"/>
<circle cx="48.48484848484848" cy="-38.582598857746476" fill="purple" r="1"/>
<circle cx="53.33333333333333" cy="-29.069432320461154" fill="purple" r="1"/>
<circle cx="58.18181818181819" cy="-22.21043008307082" fill="purple" r="1"/>
<circle cx="63.03030303030304" cy="-17.817781473930033" fill="purple" r="1"/>
<circle cx="67.87878787878789" cy="-15.708618207489017" fill="purple" r="1"/>
<circle cx="72.72727272727272" cy="-15.70501438429404" fill="purple" r="1"/>
<circle cx="77.57575757575759" cy="-17.633986490987372" fill="purple" r="1"/>
<circle cx="82.42424242424242" cy="-21.32749340030714" fill="purple" r="1"/>
<circle cx="87.27272727272728" cy="-26.62243637108745" fill="purple" r="1"/>
<circle cx="92.12121212121212" cy="-33.360659048258285" fill="purple" r="1"/>
<circle cx="96.96969696969698" cy="-41.388947462845614" fill="purple" r="1"/>
<circle cx="101.81818181818184" cy="-50.55903003197137" fill="purple" r="1"/>
<circle cx="106.66666666666666" cy="-60.72757755885327" fill="purple" r="1"/>
<circle cx="111.51515151515154" cy="-71.7562032328053" fill="purple" r="1"/>
<circle cx="116.36363636363637" cy="-83.51146262923693" fill="purple" r="1"/>
<circle cx="121.21212121212122" cy="-95.86485370965399" fill="purple" r="1"/>
<circle cx="126.06060606060608" cy="-108.69281682165793" fill="purple" r="1"/>
<circle cx="130.90909090909093" cy="-121.87673469894635" fill="purple" r="1"/>
<circle cx="135.75757575757578" cy="-135.30293246131268" fill="purple" r="1"/>
<circle cx="140.6060606060606" cy="-148.8626776146462" fill="purple" r="1"/>
<circle cx="145.45454545454547" cy="-162.4521800509324" fill="purple" r="1"/>
<circle cx="150.3030303030303" cy="-175.97259204825255" fill="purple" r="1"/>
<circle cx="155.15151515151516" cy="-189.33000827078374" fill="purple" r="1"/>
<circle cx="160.00000000000003" cy="-202.43546576879913" fill="purple" r="1"/>
<circle cx="164.84848484848487" cy="-215.20494397866787" fill="purple" r="1"/>
<circle cx="169.69696969696972" cy="-227.55936472285492" fill="purple" r="1"/>
<circle cx="174.54545454545456" cy="-239.42459220992106" fill="purple" r="1"/>
<circle cx="179.3939393939394" cy="-250.73143303452352" fill="purple" r="1"/>
<circle cx="184.24242424242425" cy="-261.41563617741485" fill="purple" r="1"/>
<circle cx="189.09090909090912" cy="-271.417893005444" fill="purple" r="1"/>
<circle cx="193.93939393939397" cy="-280.6838372715555" fill="purple" r="1"/>
<circle cx="198.7878787878788" cy="-289.16404511479004" fill="purple" r="1"/>
<circle cx="203.63636363636365" cy="-296.8140350602842" fill="purple" r="1"/>
<circle cx="208.4848484848485" cy="-303.59426801927043" fill="purple" r="1"/>
<circle cx="213.33333333333334" cy="-309.4701472890774" fill="purple" r="1"/>
<circle cx="218.1818181818182" cy="-314.4120185531291" fill="purple" r="1"/>
<circle cx="223.03030303030306" cy="-318.3951698809462" fill="purple" r="1"/>
<circle cx="227.8787878787879" cy="-321.3998317281448" fill="purple" r="1"/>
<circle cx="232.72727272727275" cy="-323.411176936437" fill="purple" r="1"/>
<circle cx="237.5757575757576" cy="-324.41932073363114" fill="purple" r="1"/>
<circle cx="242.42424242424244" cy="-324.41932073363114" fill="purple" r="1"/>
<circle cx="247.27272727272725" cy="-323.411176936437" fill="purple" r="1"/>
<circle cx="252.1212121212121" cy="-321.3998317281448" fill="purple" r="1"/>
<circle cx="256.96969696969694" cy="-318.3951698809462" fill="purple" r="1"/>
<circle cx="261.8181818181818" cy="-314.4120185531291" fill="purple" r="1"/>
<circle cx="266.6666666666667" cy="-309.4701472890774" fill="purple" r="1"/>
<circle cx="271.5151515151515" cy="-303.59426801927043" fill="purple" r="1"/>
<circle cx="276.3636363636363" cy="-296.8140350602842" fill="purple" r="1"/>
<circle cx="281.2121212121212" cy="-289.16404511479004" fill="purple" r="1"/>
<circle cx="286.06060606060606" cy="-280.6838372715555" fill="purple" r="1"/>
<circle cx="290.9090909090909" cy="-271.417893005444" fill="purple" r="1"/>
<circle cx="295.75757575757575" cy="-261.41563617741485" fill="purple" r="1"/>
<circle cx="300.6060606060606" cy="-250.73143303452352" fill="purple" r="1"/>
<circle cx="305.45454545454544" cy="-239.42459220992106" fill="purple" r="1"/>
<circle cx="310.30303030303025" cy="-227.55936472285492" fill="purple" r="1"/>
<circle cx="315.1515151515151" cy="-215.20494397866787" fill="purple" r="1"/>
<circle cx="320" cy="-202.43546576879913" fill="purple" r="1"/>
<circle cx="324.8484848484848" cy="-189.33000827078374" fill="purple" r="1"/>
<circle cx="329.6969696969697" cy="-175.97259204825255" fill="purple" r="1"/>
<circle cx="334.54545454545456" cy="-162.4521800509324" fill="purple" r="1"/>
<circle cx="339.3939393939394" cy="-148.8626776146462" fill="purple" r="1"/>
<circle cx="344.24242424242425" cy="-135.30293246131268" fill="purple" r="1"/>
<circle cx="349.0909090909091" cy="-121.87673469894635" fill="purple" r="1"/>
<circle cx="353.93939393939394" cy="-108.69281682165793" fill="purple" r="1"/>
<circle cx="358.78787878787875" cy="-95.86485370965399" fill="purple" r="1"/>
<circle cx="363.6363636363636" cy="-83.51146262923693" fill="purple" r="1"/>
<circle cx="368.48484848484844" cy="-71.7562032328053" fill="purple" r="1"/>
<circle cx="373.3333333333333" cy="-60.72757755885327" fill="purple" r="1"/>
<circle cx="378.1818181818182" cy="-50.55903003197137" fill="purple" r="1"/>
<circle cx="383.03030303030306" cy="-41.388947462845614" fill="purple" r="1"/>
<circle cx="387.8787878787879" cy="-33.360659048258285" fill="purple" r="1"/>
<circle cx="392.7272727272727" cy="-26.62243637108745" fill="purple" r="1"/>
<circle cx="397.57575757575756" cy="-21.32749340030714" fill="purple" r="1"/>
<circle cx="402.4242424242424" cy="-17.633986490987372" fill="purple" r="1"/>
<circle cx="407.2727272727273" cy="-15.70501438429404" fill="purple" r="1"/>
<circle cx="412.1212121212121" cy="-15.708618207489017" fill="purple" r="1"/>
<circle cx="416.969696969697" cy="-17.817781473930033" fill="purple" r="1"/>
<circle cx="421.8181818181818" cy="-22.21043008307082" fill="purple" r="1"/>
<circle cx="426.66666666666663" cy="-29.069432320461154" fill="purple" r="1"/>
<circle cx="431.5151515151515" cy="-38.582598857746476" fill="purple" r="1"/>
<circle cx="436.3636363636364" cy="-50.94268275266837" fill="purple" r="1"/>
<circle cx="441.2121212121212" cy="-66.34737944906436" fill="purple" r="1"/>
<circle cx="446.06060606060606" cy="-84.99932677686785" fill="purple" r="1"/>
<circle cx="450.90909090909093" cy="-107.10610495210817" fill="purple" r="1"/>
<circle cx="455.75757575757575" cy="-132.88023657691056" fill="purple" r="1"/>
<circle cx="460.60606060606057" cy="-162.5391866394964" fill="purple" r="1"/>
<circle cx="465.4545454545455" cy="-196.3053625141826" fill="purple" r="1"/>
<circle cx="470.3030303030303" cy="-234.40611396138218" fill="purple" r="1"/>
<circle cx="475.1515151515151" cy="-277.0737331276046" fill="purple" r="1"/>
<circle cx="480" cy="-324.5454545454545" fill="purple" r="1"/>
</g>
</g>
<g>
<g>
<path d="M0,-15.454545 L0,-15.454545 L4.848485,-87.37681 L9.69697,-147.72617 L14.545455,-197.50005 L19.39394,-237.64848 L24.242424,-269.07507 L29.09091,-292.63797 L33.939392,-309.1509 L38.78788,-319.3842 L43.636364,-324.06564 L48.484848,-323.88174 L53.333332,-319.4785 L58.18182,-311.46237 L63.030304,-300.40152 L67.878784,-286.82663 L72.72727,-271.2319 L77.57576,-254.07613 L82.42424,-235.78362 L87.27273,-216.74527 L92.121216,-197.3195 L96.969696,-177.83331 L101.818184,-158.58322 L106.666664,-139.8363 L111.51515,-121.83116 L116.36364,-104.77897 L121.21212,-88.864426 L126.06061,-74.246765 L130.90909,-61.060764 L135.75757,-49.41774 L140.60606,-39.40654 L145.45454,-31.094538 L150.30302,-24.528654 L155.15152,-19.736326 L160,-16.726524 L164.84848,-15.490748 L169.69698,-16.00402 L174.54546,-18.225887 L179.39394,-22.101416 L184.24243,-27.562199 L189.09091,-34.527344 L193.93939,-42.904476 L198.78787,-52.590744 L203.63637,-63.473797 L208.48485,-75.432816 L213.33333,-88.33947 L218.18182,-102.05896 L223.0303,-116.45098 L227.87878,-131.37074 L232.72728,-146.66997 L237.57576,-162.19786 L242.42424,-177.80214 L247.27272,-193.33003 L252.12122,-208.62926 L256.9697,-223.54901 L261.81818,-237.94104 L266.66666,-251.66054 L271.51514,-264.5672 L276.36365,-276.5262 L281.21213,-287.40927 L286.0606,-297.09552 L290.9091,-305.47266 L295.75757,-312.4378 L300.60605,-317.8986 L305.45456,-321.7741 L310.30304,-323.99597 L315.15152,-324.50925 L320,-323.27347 L324.84848,-320.26367 L329.69696,-315.47134 L334.54544,-308.90546 L339.39395,-300.59348 L344.24243,-290.58224 L349.0909,-278.93924 L353.9394,-265.75323 L358.78787,-251.13557 L363.63635,-235.22102 L368.48486,-218.16884 L373.33334,-200.1637 L378.18182,-181.41678 L383.0303,-162.16669 L387.87878,-142.6805 L392.72726,-123.25473 L397.57574,-104.21638 L402.42426,-85.923874 L407.27274,-68.76809 L412.12122,-53.173363 L416.9697,-39.598473 L421.81818,-28.537636 L426.66666,-20.521524 L431.51514,-16.118244 L436.36365,-15.934348 L441.21213,-20.615824 L446.0606,-30.849098 L450.9091,-47.362034 L455.75757,-70.92493 L460.60605,-102.35152 L465.45456,-142.49995 L470.30304,-192.27383 L475.15152,-252.62318 L480,-324.54544" fill="none" stroke="darkblue" stroke-linejoin="round" stroke-width="2"/>
</g>
<g>
<circle cx="0" cy="-15.454545454545466" fill="darkblue" r="1"/>
<circle cx="4.848484848484853" cy="-87.37680943608719" fill="darkblue" r="1"/>
<circle cx="9.696969696969706" cy="-147.72615967437872" fill="darkblue" r="1"/>
<circle cx="14.545454545454533" cy="-197.5000439441792" fill="darkblue" r="1"/>
<circle cx="19.393939393939384" cy="-237.6484830829639" fill="darkblue" r="1"/>
<circle cx="24.24242424242424" cy="-269.07506945276117" fill="darkblue" r="1"/>
<circle cx="29.090909090909093" cy="-292.6379654019898" fill="darkblue" r="1"/>
<circle cx="33.939393939393945" cy="-309.15090172729765" fill="darkblue" r="1"/>
<circle cx="38.787878787878796" cy="-319.38417613539826" fill="darkblue" r="1"/>
<circle cx="43.636363636363654" cy="-324.0656517049088" fill="darkblue" r="1"/>
<circle cx="48.48484848484848" cy="-323.8817553481878" fill="darkblue" r="1"/>
<circle cx="53.33333333333333" cy="-319.47847627317213" fill="darkblue" r="1"/>
<circle cx="58.18181818181819" cy="-311.4623644452153" fill="darkblue" r="1"/>
<circle cx="63.03030303030304" cy="-300.40152904892415" fill="darkblue" r="1"/>
<circle cx="67.87878787878789" cy="-286.8266369499974" fill="darkblue" r="1"/>
<circle cx="72.72727272727272" cy="-271.2319111570626" fill="darkblue" r="1"/>
<circle cx="77.57575757575759" cy="-254.07612928351332" fill="darkblue" r="1"/>
<circle cx="82.42424242424242" cy="-235.78362200934814" fill="darkblue" r="1"/>
<circle cx="87.27272727272728" cy="-216.7452715430064" fill="darkblue" r="1"/>
<circle cx="92.12121212121212" cy="-197.31951008320715" fill="darkblue" r="1"/>
<circle cx="96.96969696969698" cy="-177.83331828078593" fill="darkblue" r="1"/>
<circle cx="101.81818181818184" cy="-158.58322370053293" fill="darkblue" r="1"/>
<circle cx="106.66666666666666" cy="-139.83629928303" fill="darkblue" r="1"/>
<circle cx="111.51515151515154" cy="-121.83116180648823" fill="darkblue" r="1"/>
<circle cx="116.36363636363637" cy="-104.77897034858633" fill="darkblue" r="1"/>
<circle cx="121.21212121212122" cy="-88.86442474830699" fill="darkblue" r="1"/>
<circle cx="126.06060606060608" cy="-74.24676406777537" fill="darkblue" r="1"/>
<circle cx="130.90909090909093" cy="-61.060765054096315" fill="darkblue" r="1"/>
<circle cx="135.75757575757578" cy="-49.417740601191845" fill="darkblue" r="1"/>
<circle cx="140.6060606060606" cy="-39.406538211638896" fill="darkblue" r="1"/>
<circle cx="145.45454545454547" cy="-31.094538458506687" fill="darkblue" r="1"/>
<circle cx="150.3030303030303" cy="-24.528653447194458" fill="darkblue" r="1"/>
<circle cx="155.15151515151516" cy="-19.736325277269053" fill="darkblue" r="1"/>
<circle cx="160.00000000000003" cy="-16.726524504302287" fill="darkblue" r="1"/>
<circle cx="164.84848484848487" cy="-15.49074860170867" fill="darkblue" r="1"/>
<circle cx="169.69696969696972" cy="-16.00402042258291" fill="darkblue" r="1"/>
<circle cx="174.54545454545456" cy="-18.225886661537494" fill="darkblue" r="1"/>
<circle cx="179.3939393939394" cy="-22.10141631654026" fill="darkblue" r="1"/>
<circle cx="184.24242424242425" cy="-27.562199150751898" fill="darkblue" r="1"/>
<circle cx="189.09090909090912" cy="-34.52734415436365" fill="darkblue" r="1"/>
<circle cx="193.93939393939397" cy="-42.904478006434694" fill="darkblue" r="1"/>
<circle cx="198.7878787878788" cy="-52.59074353672982" fill="darkblue" r="1"/>
<circle cx="203.63636363636365" cy="-63.47379818755694" fill="darkblue" r="1"/>
<circle cx="208.4848484848485" cy="-75.43281247560482" fill="darkblue" r="1"/>
<circle cx="213.33333333333334" cy="-88.33946845378034" fill="darkblue" r="1"/>
<circle cx="218.1818181818182" cy="-102.05895817304632" fill="darkblue" r="1"/>
<circle cx="223.03030303030306" cy="-116.45098214425892" fill="darkblue" r="1"/>
<circle cx="227.8787878787879" cy="-131.37074780000532" fill="darkblue" r="1"/>
<circle cx="232.72727272727275" cy="-146.66996795644107" fill="darkblue" r="1"/>
<circle cx="237.5757575757576" cy="-162.19785927512817" fill="darkblue" r="1"/>
<circle cx="242.42424242424244" cy="-177.80214072487195" fill="darkblue" r="1"/>
<circle cx="247.27272727272725" cy="-193.33003204355893" fill="darkblue" r="1"/>
<circle cx="252.1212121212121" cy="-208.62925219999468" fill="darkblue" r="1"/>
<circle cx="256.96969696969694" cy="-223.54901785574108" fill="darkblue" r="1"/>
<circle cx="261.8181818181818" cy="-237.94104182695372" fill="darkblue" r="1"/>
<circle cx="266.6666666666667" cy="-251.66053154621966" fill="darkblue" r="1"/>
<circle cx="271.5151515151515" cy="-264.5671875243952" fill="darkblue" r="1"/>
<circle cx="276.3636363636363" cy="-276.52620181244305" fill="darkblue" r="1"/>
<circle cx="281.2121212121212" cy="-287.4092564632702" fill="darkblue" r="1"/>
<circle cx="286.06060606060606" cy="-297.09552199356534" fill="darkblue" r="1"/>
<circle cx="290.9090909090909" cy="-305.4726558456363" fill="darkblue" r="1"/>
<circle cx="295.75757575757575" cy="-312.4378008492481" fill="darkblue" r="1"/>
<circle cx="300.6060606060606" cy="-317.8985836834598" fill="darkblue" r="1"/>
<circle cx="305.45454545454544" cy="-321.7741133384625" fill="darkblue" r="1"/>
<circle cx="310.30303030303025" cy="-323.9959795774171" fill="darkblue" r="1"/>
<circle cx="315.1515151515151" cy="-324.5092513982913" fill="darkblue" r="1"/>
<circle cx="320" cy="-323.27347549569765" fill="darkblue" r="1"/>
<circle cx="324.8484848484848" cy="-320.2636747227309" fill="darkblue" r="1"/>
<circle cx="329.6969696969697" cy="-315.4713465528055" fill="darkblue" r="1"/>
<circle cx="334.54545454545456" cy="-308.9054615414933" fill="darkblue" r="1"/>
<circle cx="339.3939393939394" cy="-300.5934617883611" fill="darkblue" r="1"/>
<circle cx="344.24242424242425" cy="-290.58225939880816" fill="darkblue" r="1"/>
<circle cx="349.0909090909091" cy="-278.93923494590365" fill="darkblue" r="1"/>
<circle cx="353.93939393939394" cy="-265.7532359322246" fill="darkblue" r="1"/>
<circle cx="358.78787878787875" cy="-251.135575251693" fill="darkblue" r="1"/>
<circle cx="363.6363636363636" cy="-235.22102965141366" fill="darkblue" r="1"/>
<circle cx="368.48484848484844" cy="-218.1688381935118" fill="darkblue" r="1"/>
<circle cx="373.3333333333333" cy="-200.16370071697" fill="darkblue" r="1"/>
<circle cx="378.1818181818182" cy="-181.41677629946707" fill="darkblue" r="1"/>
<circle cx="383.03030303030306" cy="-162.16668171921407" fill="darkblue" r="1"/>
<circle cx="387.8787878787879" cy="-142.68048991679285" fill="darkblue" r="1"/>
<circle cx="392.7272727272727" cy="-123.25472845699362" fill="darkblue" r="1"/>
<circle cx="397.57575757575756" cy="-104.21637799065185" fill="darkblue" r="1"/>
<circle cx="402.4242424242424" cy="-85.92387071648663" fill="darkblue" r="1"/>
<circle cx="407.2727272727273" cy="-68.7680888429374" fill="darkblue" r="1"/>
<circle cx="412.1212121212121" cy="-53.1733630500026" fill="darkblue" r="1"/>
<circle cx="416.969696969697" cy="-39.59847095107584" fill="darkblue" r="1"/>
<circle cx="421.8181818181818" cy="-28.537635554784686" fill="darkblue" r="1"/>
<circle cx="426.66666666666663" cy="-20.52152372682783" fill="darkblue" r="1"/>
<circle cx="431.5151515151515" cy="-16.118244651812176" fill="darkblue" r="1"/>
<circle cx="436.3636363636364" cy="-15.934348295091159" fill="darkblue" r="1"/>
<circle cx="441.2121212121212" cy="-20.615823864601754" fill="darkblue" r="1"/>
<circle cx="446.06060606060606" cy="-30.84909827270238" fill="darkblue" r="1"/>
<circle cx="450.90909090909093" cy="-47.36203459801022" fill="darkblue" r="1"/>
<circle cx="455.75757575757575" cy="-70.92493054723889" fill="darkblue" r="1"/>
<circle cx="460.60606060606057" cy="-102.35151691703608" fill="darkblue" r="1"/>
<circle cx="465.4545454545455" cy="-142.4999560558208" fill="darkblue" r="1"/>
<circle cx="470.3030303030303" cy="-192.27384032562125" fill="darkblue" r="1"/>
<circle cx="475.1515151515151" cy="-252.6231905639128" fill="darkblue" r="1"/>
<circle cx="480" cy="-324.5454545454545" fill="darkblue" r="1"/>
</g>
</g>
<g>
<g>
<path d="M0,-324.54544 L0,-324.54544 L4.848485,-224.83434 L9.69697,-148.34166 L14.545455,-92.027885 L19.39394,-53.096935 L24.242424,-28.98479 L29.09091,-17.348381 L33.939392,-16.05468 L38.78788,-23.170063 L43.636364,-36.949886 L48.484848,-55.82834 L53.333332,-78.40849 L58.18182,-103.45265 L63.030304,-129.8729 L67.878784,-156.72186 L72.72727,-183.18384 L77.57576,-208.566 L82.42424,-232.28998 L87.27273,-253.88358 L92.121216,-272.97287 L96.969696,-289.27438 L101.818184,-302.58755 L106.666664,-312.78766 L111.51515,-319.8185 L116.36364,-323.68597 L121.21212,-324.45117 L126.06061,-322.2244 L130.90909,-317.15894 L135.75757,-309.44528 L140.60606,-299.30563 L145.45454,-286.9885 L150.30302,-272.76358 L155.15152,-256.91702 L160,-239.74686 L164.84848,-221.55843 L169.69698,-202.6605 L174.54546,-183.36128 L179.39394,-163.96483 L184.24243,-144.76758 L189.09091,-126.05535 L193.93939,-108.1003 L198.78787,-91.158325 L203.63637,-75.46663 L208.48485,-61.241558 L213.33333,-48.676636 L218.18182,-37.9409 L223.0303,-29.177418 L227.87878,-22.502113 L232.72728,-18.002764 L237.57576,-15.738298 L242.42424,-15.738298 L247.27272,-18.002764 L252.12122,-22.502113 L256.9697,-29.177418 L261.81818,-37.9409 L266.66666,-48.676636 L271.51514,-61.241558 L276.36365,-75.46663 L281.21213,-91.158325 L286.0606,-108.1003 L290.9091,-126.05535 L295.75757,-144.76758 L300.60605,-163.96483 L305.45456,-183.36128 L310.30304,-202.6605 L315.15152,-221.55843 L320,-239.74686 L324.84848,-256.91702 L329.69696,-272.76358 L334.54544,-286.9885 L339.39395,-299.30563 L344.24243,-309.44528 L349.0909,-317.15894 L353.9394,-322.2244 L358.78787,-324.45117 L363.63635,-323.68597 L368.48486,-319.8185 L373.33334,-312.78766 L378.18182,-302.58755 L383.0303,-289.27438 L387.87878,-272.97287 L392.72726,-253.88358 L397.57574,-232.28998 L402.42426,-208.566 L407.27274,-183.18384 L412.12122,-156.72186 L416.9697,-129.8729 L421.81818,-103.45265 L426.66666,-78.40849 L431.51514,-55.82834 L436.36365,-36.949886 L441.21213,-23.170063 L446.0606,-16.05468 L450.9091,-17.348381 L455.75757,-28.98479 L460.60605,-53.096935 L465.45456,-92.027885 L470.30304,-148.34166 L475.15152,-224.83434 L480,-324.54544" fill="none" stroke="mediumorchid" stroke-linejoin="round" stroke-width="2"/>
</g>
<g>
<circle cx="0" cy="-324.5454545454545" fill="mediumorchid" r="1"/>
<circle cx="4.848484848484853" cy="-224.83433727036598" fill="mediumorchid" r="1"/>
<circle cx="9.696969696969706" cy="-148.34166040092123" fill="mediumorchid" r="1"/>
<circle cx="14.545454545454533" cy="-92.02788825735954" fill="mediumorchid" r="1"/>
<circle cx="19.393939393939384" cy="-53.09693536960023" fill="mediumorchid" r="1"/>
<circle cx="24.24242424242424" cy="-28.984790063579528" fill="mediumorchid" r="1"/>
<circle cx="29.090909090909093" cy="-17.348380098940094" fill="mediumorchid" r="1"/>
<circle cx="33.939393939393945" cy="-16.054680358075654" fill="mediumorchid" r="1"/>
<circle cx="38.787878787878796" cy="-23.1700625865305" fill="mediumorchid" r="1"/>
<circle cx="43.636363636363654" cy="-36.94988718475354" fill="mediumorchid" r="1"/>
<circle cx="48.48484848484848" cy="-55.82833705120629" fill="mediumorchid" r="1"/>
<circle cx="53.33333333333333" cy="-78.40849347682656" fill="mediumorchid" r="1"/>
<circle cx="58.18181818181819" cy="-103.45265409084537" fill="mediumorchid" r="1"/>
<circle cx="63.03030303030304" cy="-129.87289285795958" fill="mediumorchid" r="1"/>
<circle cx="67.87878787878789" cy="-156.72186212685818" fill="mediumorchid" r="1"/>
<circle cx="72.72727272727272" cy="-183.18383673010354" fill="mediumorchid" r="1"/>
<circle cx="77.57575757575759" cy="-208.56600013536828" fill="mediumorchid" r="1"/>
<circle cx="82.42424242424242" cy="-232.28997264802354" fill="mediumorchid" r="1"/>
<circle cx="87.27272727272728" cy="-253.8835816650862" fill="mediumorchid" r="1"/>
<circle cx="92.12121212121212" cy="-272.97287398051674" fill="mediumorchid" r="1"/>
<circle cx="96.96969696969698" cy="-289.27437014187416" fill="mediumorchid" r="1"/>
<circle cx="101.81818181818184" cy="-302.5875608583241" fill="mediumorchid" r="1"/>
<circle cx="106.66666666666666" cy="-312.7876454600023" fill="mediumorchid" r="1"/>
<circle cx="111.51515151515154" cy="-319.81851240873254" fill="mediumorchid" r="1"/>
<circle cx="116.36363636363637" cy="-323.68596186009836" fill="mediumorchid" r="1"/>
<circle cx="121.21212121212122" cy="-324.45117027687047" fill="mediumorchid" r="1"/>
<circle cx="126.06060606060608" cy="-322.2243970937876" fill="mediumorchid" r="1"/>
<circle cx="130.90909090909093" cy="-317.1589334336934" fill="mediumorchid" r="1"/>
<circle cx="135.75757575757578" cy="-309.44529287502576" fill="mediumorchid" r="1"/>
<circle cx="140.6060606060606" cy="-299.305644270663" fill="mediumorchid" r="1"/>
<circle cx="145.45454545454547" cy="-286.988486618123" fill="mediumorchid" r="1"/>
<circle cx="150.3030303030303" cy="-272.7635659811172" fill="mediumorchid" r="1"/>
<circle cx="155.15151515151516" cy="-256.9170344624604" fill="mediumorchid" r="1"/>
<circle cx="160.00000000000003" cy="-239.74685122833264" fill="mediumorchid" r="1"/>
<circle cx="164.84848484848487" cy="-221.55842558389844" fill="mediumorchid" r="1"/>
<circle cx="169.69696969696972" cy="-202.6605021002783" fill="mediumorchid" r="1"/>
<circle cx="174.54545454545456" cy="-183.36128779287662" fill="mediumorchid" r="1"/>
<circle cx="179.3939393939394" cy="-163.96482135106223" fill="mediumorchid" r="1"/>
<circle cx="184.24242424242425" cy="-144.7675844192054" fill="mediumorchid" r="1"/>
<circle cx="189.09090909090912" cy="-126.05535492906839" fill="mediumorchid" r="1"/>
<circle cx="193.93939393939397" cy="-108.10030248355038" fill="mediumorchid" r="1"/>
<circle cx="198.7878787878788" cy="-91.15832579178756" fill="mediumorchid" r="1"/>
<circle cx="203.63636363636365" cy="-75.46663215560766" fill="mediumorchid" r="1"/>
<circle cx="208.4848484848485" cy="-61.24155900733837" fill="mediumorchid" r="1"/>
<circle cx="213.33333333333334" cy="-48.676637498971466" fill="mediumorchid" r="1"/>
<circle cx="218.1818181818182" cy="-37.94089814268061" fill="mediumorchid" r="1"/>
<circle cx="223.03030303030306" cy="-29.177418502693932" fill="mediumorchid" r="1"/>
<circle cx="227.8787878787879" cy="-22.502112938521332" fill="mediumorchid" r="1"/>
<circle cx="232.72727272727275" cy="-18.002764399536236" fill="mediumorchid" r="1"/>
<circle cx="237.5757575757576" cy="-15.738298270911708" fill="mediumorchid" r="1"/>
<circle cx="242.42424242424244" cy="-15.738298270911727" fill="mediumorchid" r="1"/>
<circle cx="247.27272727272725" cy="-18.002764399536236" fill="mediumorchid" r="1"/>
<circle cx="252.1212121212121" cy="-22.502112938521332" fill="mediumorchid" r="1"/>
<circle cx="256.96969696969694" cy="-29.177418502693932" fill="mediumorchid" r="1"/>
<circle cx="261.8181818181818" cy="-37.94089814268061" fill="mediumorchid" r="1"/>
<circle cx="266.6666666666667" cy="-48.676637498971466" fill="mediumorchid" r="1"/>
<circle cx="271.5151515151515" cy="-61.24155900733837" fill="mediumorchid" r="1"/>
<circle cx="276.3636363636363" cy="-75.46663215560766" fill="mediumorchid" r="1"/>
<circle cx="281.2121212121212" cy="-91.15832579178756" fill="mediumorchid" r="1"/>
<circle cx="286.06060606060606" cy="-108.10030248355038" fill="mediumorchid" r="1"/>
<circle cx="290.9090909090909" cy="-126.05535492906839" fill="mediumorchid" r="1"/>
<circle cx="295.75757575757575" cy="-144.7675844192054" fill="mediumorchid" r="1"/>
<circle cx="300.6060606060606" cy="-163.96482135106223" fill="mediumorchid" r="1"/>
<circle cx="305.45454545454544" cy="-183.36128779287662" fill="mediumorchid" r="1"/>
<circle cx="310.30303030303025" cy="-202.6605021002783" fill="mediumorchid" r="1"/>
<circle cx="315.1515151515151" cy="-221.55842558389844" fill="mediumorchid" r="1"/>
<circle cx="320" cy="-239.74685122833264" fill="mediumorchid" r="1"/>
<circle cx="324.8484848484848" cy="-256.9170344624604" fill="mediumorchid" r="1"/>
<circle cx="329.6969696969697" cy="-272.7635659811172" fill="mediumorchid" r="1"/>
<circle cx="334.54545454545456" cy="-286.988486618123" fill="mediumorchid" r="1"/>
<circle cx="339.3939393939394" cy="-299.305644270663" fill="mediumorchid" r="1"/>
<circle cx="344.24242424242425" cy="-309.44529287502576" fill="mediumorchid" r="1"/>
<circle cx="349.0909090909091" cy="-317.1589334336934" fill="mediumorchid" r="1"/>
<circle cx="353.93939393939394" cy="-322.2243970937876" fill="mediumorchid" r="1"/>
<circle cx="358.78787878787875" cy="-324.45117027687047" fill="mediumorchid" r="1"/>
<circle cx="363.6363636363636" cy="-323.68596186009836" fill="mediumorchid" r="1"/>
<circle cx="368.48484848484844" cy="-319.81851240873254" fill="mediumorchid" r="1"/>
<circle cx="373.3333333333333" cy="-312.7876454600023" fill="mediumorchid" r="1"/>
<circle cx="378.1818181818182" cy="-302.5875608583241" fill="mediumorchid" r="1"/>
<circle cx="383.03030303030306" cy="-289.27437014187416" fill="mediumorchid" r="1"/>
<circle cx="387.8787878787879" cy="-272.97287398051674" fill="mediumorchid" r="1"/>
<circle cx="392.7272727272727" cy="-253.8835816650862" fill="mediumorchid" r="1"/>
<circle cx="397.57575757575756" cy="-232.28997264802354" fill="mediumorchid" r="1"/>
<circle cx="402.4242424242424" cy="-208.56600013536828" fill="mediumorchid" r="1"/>
<circle cx="407.2727272727273" cy="-183.18383673010354" fill="mediumorchid" r="1"/>
<circle cx="412.1212121212121" cy="-156.72186212685818" fill="mediumorchid" r="1"/>
<circle cx="416.969696969697" cy="-129.87289285795958" fill="mediumorchid" r="1"/>
<circle cx="421.8181818181818" cy="-103.45265409084537" fill="mediumorchid" r="1"/>
<circle cx="426.66666666666663" cy="-78.40849347682656" fill="mediumorchid" r="1"/>
<circle cx="431.5151515151515" cy="-55.82833705120629" fill="mediumorchid" r="1"/>
<circle cx="436.3636363636364" cy="-36.94988718475354" fill="mediumorchid" r="1"/>
<circle cx="441.2121212121212" cy="-23.1700625865305" fill="mediumorchid" r="1"/>
<circle cx="446.06060606060606" cy="-16.054680358075654" fill="mediumorchid" r="1"/>
<circle cx="450.90909090909093" cy="-17.348380098940094" fill="mediumorchid" r="1"/>
<circle cx="455.75757575757575" cy="-28.984790063579528" fill="mediumorchid" r="1"/>
<circle cx="460.60606060606057" cy="-53.09693536960023" fill="mediumorchid" r="1"/>
<circle cx="465.4545454545455" cy="-92.02788825735954" fill="mediumorchid" r="1"/>
<circle cx="470.3030303030303" cy="-148.34166040092123" fill="mediumorchid" r="1"/>
<circle cx="475.1515151515151" cy="-224.83433727036598" fill="mediumorchid" r="1"/>
<circle cx="480" cy="-324.5454545454545" fill="mediumorchid" r="1"/>
</g>
</g>
<g>
<g>
<line stroke="black" stroke-width="1" x1="0" x2="0" y1="0" y2="10"/>
<line stroke="black" stroke-width="1" x1="120" x2="120" y1="0" y2="10"/>
<line stroke="black" stroke-width="1" x1="240" x2="240" y1="0" y2="10"/>
<line stroke="black" stroke-width="1" x1="360" x2="360" y1="0" y2="10"/>
<line stroke="black" stroke-width="1" x1="480" x2="480" y1="0" y2="10"/>
</g>
<line stroke="black" stroke-width="1" x1="0" x2="480" y1="0" y2="0"/>
<g>
<text font-size="12" text-anchor="middle" x="0" y="20">
-1
</text>
<text font-size="12" text-anchor="middle" x="120" y="20">
-0.5
</text>
<text font-size="12" text-anchor="middle" x="240" y="20">
0
</text>
<text font-size="12" text-anchor="middle" x="360" y="20">
0.5
</text>
<text font-size="12" text-anchor="middle" x="480" y="20">
1
</text>
</g>
<text font-size="12" text-anchor="middle" x="240" y="30">
x
</text>
</g>
<g>
<g>
<line stroke="black" stroke-width="1" x1="0" x2="-10" y1="-15.454545454545466" y2="-15.454545454545466"/>
<line stroke="black" stroke-width="1" x1="0" x2="-10" y1="-92.72727272727273" y2="-92.72727272727273"/>
<line stroke="black" stroke-width="1" x1="0" x2="-10" y1="-170" y2="-170"/>
<line stroke="black" stroke-width="1" x1="0" x2="-10" y1="-247.27272727272725" y2="-247.27272727272725"/>
<line stroke="black" stroke-width="1" x1="0" x2="-10" y1="-324.5454545454545" y2="-324.5454545454545"/>
</g>
<line stroke="black" stroke-width="1" x1="0" x2="0" y1="0" y2="-340"/>
<g>
<text dominant-baseline="middle" font-size="12" text-anchor="end" x="-15" y="-15.454545454545466">
-1
</text>
<text dominant-baseline="middle" font-size="12" text-anchor="end" x="-15" y="-92.72727272727273">
-0.5
</text>
<text dominant-baseline="middle" font-size="12" text-anchor="end" x="-15" y="-170">
0
</text>
<text dominant-baseline="middle" font-size="12" text-anchor="end" x="-15" y="-247.27272727272725">
0.5
</text>
<text dominant-baseline="middle" font-size="12" text-anchor="end" x="-15" y="-324.5454545454545">
1
</text>
</g>
<text font-size="12" text-anchor="middle" transform="rotate(-90 -48 -170)" x="-48" y="-182">
Chebyshev T
</text>
</g>
</g>
</svg>