<svg viewBox="0 0 600 400" xmlns="http://www.w3.org/2000/svg">
<g transform="translate(72, 364)">
<g>
<g>
<path d="M0,-226.66667 L0,-226.66667 L480,-226.66667" fill="none" stroke="lightgray" stroke-linejoin="round" stroke-width="2"/>
</g>
</g>
<g>
<g>
<path d="M0,-113.333336 L0,-113.333336 L480,-113.333336" fill="none" stroke="lightgray" stroke-linejoin="round" stroke-width="2"/>
</g>
</g>
<g>
<g>
<path d="M0,-170 L0,-170 L480,-170" fill="none" stroke="darkgray" stroke-linejoin="round" stroke-width="2"/>
</g>
</g>
<g>
<g>
<path d="M0,-226.66667 L0,-226.66667 L1.882353,-200.49234 L3.764706,-178.5776 L5.647059,-160.5209 L7.529412,-145.9456 L9.411765,-134.49902 L11.294118,-125.851326 L13.176471,-119.69457 L15.058824,-115.74172 L16.941177,-113.72571 L18.82353,-113.3985 L20.705883,-114.53024 L22.588236,-116.90839 L24.470589,-120.336845 L26.352942,-124.63519 L28.235294,-129.6379 L30.117647,-135.19354 L32,-141.1641 L33.882355,-147.42421 L35.764706,-153.86057 L37.64706,-160.37114 L39.52941,-166.86462 L41.411766,-173.25978 L43.294117,-179.4849 L45.17647,-185.47711 L47.058823,-191.18198 L48.941177,-196.55283 L50.82353,-201.55035 L52.705883,-206.14206 L54.588234,-210.30176 L56.47059,-214.00922 L58.35294,-217.2496 L60.235294,-220.01317 L62.117645,-222.29475 L64,-224.09352 L65.882355,-225.41246 L67.76471,-226.25809 L69.64706,-226.64018 L71.52941,-226.57135 L73.411766,-226.06677 L75.29412,-225.14394 L77.17647,-223.82231 L79.05882,-222.12315 L80.94118,-220.06918 L82.82353,-217.6844 L84.70588,-214.99382 L86.588234,-212.02333 L88.47059,-208.79942 L90.35294,-205.34904 L92.23529,-201.69942 L94.117645,-197.8779 L96,-193.91177 L97.882355,-189.82816 L99.76471,-185.65384 L101.64706,-181.4152 L103.52941,-177.13808 L105.411766,-172.84761 L107.29412,-168.56825 L109.17647,-164.32358 L111.05882,-160.13628 L112.94118,-156.02808 L114.82353,-152.01964 L116.70588,-148.13055 L118.588234,-144.37927 L120.47059,-140.78305 L122.35294,-137.35794 L124.23529,-134.11876 L126.117645,-131.07906 L128,-128.25111 L129.88235,-125.64589 L131.76471,-123.2731 L133.64706,-121.141136 L135.52942,-119.25712 L137.41176,-117.62687 L139.29411,-116.25497 L141.17647,-115.14472 L143.05882,-114.29824 L144.94118,-113.716415 L146.82353,-113.398964 L148.70589,-113.344475 L150.58824,-113.550415 L152.47058,-114.01318 L154.35294,-114.72816 L156.23529,-115.68972 L158.11765,-116.891304 L160,-118.325455 L161.88235,-119.983864 L163.76471,-121.8574 L165.64706,-123.9362 L167.52942,-126.2097 L169.41176,-128.66669 L171.29411,-131.29532 L173.17647,-134.08328 L175.05882,-137.0177 L176.94118,-140.08533 L178.82353,-143.2725 L180.70589,-146.56528 L182.58824,-149.94937 L184.47058,-153.41039 L186.35294,-156.93369 L188.23529,-160.50458 L190.11765,-164.10832 L192,-167.73015 L193.88235,-171.35536 L195.76471,-174.96938 L197.64706,-178.55777 L199.52942,-182.10631 L201.41176,-185.60101 L203.29411,-189.02821 L205.17647,-192.37459 L207.05882,-195.62717 L208.94118,-198.77345 L210.82353,-201.80138 L212.70589,-204.69939 L214.58824,-207.4565 L216.47058,-210.06227 L218.35294,-212.50688 L220.23529,-214.78114 L222.11765,-216.87654 L224,-218.78523 L225.88235,-220.5001 L227.76471,-222.0148 L229.64706,-223.32367 L231.52942,-224.42189 L233.41176,-225.30536 L235.29411,-225.97084 L237.17647,-226.41586 L239.05882,-226.63878 L240.94118,-226.63878 L242.82353,-226.41586 L244.70589,-225.97084 L246.58824,-225.30536 L248.47058,-224.42189 L250.35294,-223.32367 L252.23529,-222.0148 L254.11765,-220.5001 L256,-218.78523 L257.88235,-216.87654 L259.7647,-214.78114 L261.64706,-212.50688 L263.52942,-210.06227 L265.41177,-207.4565 L267.29413,-204.69939 L269.17648,-201.80138 L271.05884,-198.77345 L272.94116,-195.62717 L274.82352,-192.37459 L276.70587,-189.02821 L278.58823,-185.60101 L280.47058,-182.10631 L282.35294,-178.55777 L284.2353,-174.96938 L286.11765,-171.35536 L288,-167.73015 L289.88235,-164.10832 L291.7647,-160.50458 L293.64706,-156.93369 L295.52942,-153.41039 L297.41177,-149.94937 L299.29413,-146.56528 L301.17648,-143.2725 L303.05884,-140.08533 L304.94116,-137.0177 L306.82352,-134.08328 L308.70587,-131.29532 L310.58823,-128.66669 L312.47058,-126.2097 L314.35294,-123.9362 L316.2353,-121.8574 L318.11765,-119.983864 L320,-118.325455 L321.88235,-116.891304 L323.7647,-115.68972 L325.64706,-114.72816 L327.52942,-114.01318 L329.41177,-113.550415 L331.29413,-113.344475 L333.17648,-113.398964 L335.05884,-113.716415 L336.94116,-114.29824 L338.82352,-115.14472 L340.70587,-116.25497 L342.58823,-117.62687 L344.47058,-119.25712 L346.35294,-121.141136 L348.2353,-123.2731 L350.11765,-125.64589 L352,-128.25111 L353.88235,-131.07906 L355.7647,-134.11876 L357.64706,-137.35794 L359.52942,-140.78305 L361.41177,-144.37927 L363.29413,-148.13055 L365.17648,-152.01964 L367.05884,-156.02808 L368.94116,-160.13628 L370.82352,-164.32358 L372.70587,-168.56825 L374.58823,-172.84761 L376.47058,-177.13808 L378.35294,-181.4152 L380.2353,-185.65384 L382.11765,-189.82816 L384,-193.91177 L385.88235,-197.8779 L387.7647,-201.69942 L389.64706,-205.34904 L391.52942,-208.79942 L393.41177,-212.02333 L395.29413,-214.99382 L397.17648,-217.6844 L399.05884,-220.06918 L400.94116,-222.12315 L402.82352,-223.82231 L404.70587,-225.14394 L406.58823,-226.06677 L408.47058,-226.57135 L410.35294,-226.64018 L412.2353,-226.25809 L414.11765,-225.41246 L416,-224.09352 L417.88235,-222.29475 L419.7647,-220.01317 L421.64706,-217.2496 L423.52942,-214.00922 L425.41177,-210.30176 L427.29413,-206.14206 L429.17648,-201.55035 L431.05884,-196.55283 L432.94116,-191.18198 L434.82352,-185.47711 L436.70587,-179.4849 L438.58823,-173.25978 L440.47058,-166.86462 L442.35294,-160.37114 L444.2353,-153.86057 L446.11765,-147.42421 L448,-141.1641 L449.88235,-135.19354 L451.7647,-129.6379 L453.64706,-124.63519 L455.52942,-120.336845 L457.41177,-116.90839 L459.29413,-114.53024 L461.17648,-113.3985 L463.05884,-113.72571 L464.94116,-115.74172 L466.82352,-119.69457 L468.70587,-125.851326 L470.58823,-134.49902 L472.47058,-145.9456 L474.35294,-160.5209 L476.2353,-178.5776 L478.11765,-200.49234 L480,-226.66667" fill="none" stroke="black" stroke-linejoin="round" stroke-width="2"/>
</g>
</g>
<g>
<g>
<path d="M0,-680 L0,-680 L1.882353,-579.6044 L3.764706,-491.08682 L5.647059,-413.49338 L7.529412,-345.92447 L9.411765,-287.53253 L11.294118,-237.52008 L13.176471,-195.13747 L15.058824,-159.68097 L16.941177,-130.49077 L18.82353,-106.9491 L20.705883,-88.47837 L22.588236,-74.53939 L24.470589,-64.629616 L26.352942,-58.281456 L28.235294,-55.060688 L30.117647,-54.56481 L32,-56.421555 L33.882355,-60.287384 L35.764706,-65.846054 L37.64706,-72.80722 L39.52941,-80.90511 L41.411766,-89.897224 L43.294117,-99.563034 L45.17647,-109.70284 L47.058823,-120.136566 L48.941177,-130.7026 L50.82353,-141.2568 L52.705883,-151.67136 L54.588234,-161.83379 L56.47059,-171.64603 L58.35294,-181.02347 L60.235294,-189.89403 L62.117645,-198.19736 L64,-205.88394 L65.882355,-212.91434 L67.76471,-219.25844 L69.64706,-224.89468 L71.52941,-229.80946 L73.411766,-233.99634 L75.29412,-237.45547 L77.17647,-240.19305 L79.05882,-242.22063 L80.94118,-243.55463 L82.82353,-244.2158 L84.70588,-244.22878 L86.588234,-243.62152 L88.47059,-242.42491 L90.35294,-240.67238 L92.23529,-238.39943 L94.117645,-235.64331 L96,-232.44264 L97.882355,-228.83711 L99.76471,-224.86713 L101.64706,-220.57358 L103.52941,-215.99748 L105.411766,-211.17986 L107.29412,-206.16135 L109.17647,-200.98213 L111.05882,-195.68166 L112.94118,-190.29846 L114.82353,-184.87004 L116.70588,-179.43268 L118.588234,-174.02129 L120.47059,-168.66936 L122.35294,-163.40878 L124.23529,-158.26976 L126.117645,-153.28079 L128,-148.46852 L129.88235,-143.85776 L131.76471,-139.47134 L133.64706,-135.3302 L135.52942,-131.45325 L137.41176,-127.85743 L139.29411,-124.557655 L141.17647,-121.56684 L143.05882,-118.89593 L144.94118,-116.553856 L146.82353,-114.54762 L148.70589,-112.88231 L150.58824,-111.56111 L152.47058,-110.58539 L154.35294,-109.95473 L156.23529,-109.66695 L158.11765,-109.71823 L160,-110.103134 L161.88235,-110.814674 L163.76471,-111.844406 L165.64706,-113.18248 L167.52942,-114.81774 L169.41176,-116.73781 L171.29411,-118.92912 L173.17647,-121.37708 L175.05882,-124.0661 L176.94118,-126.97969 L178.82353,-130.10059 L180.70589,-133.41077 L182.58824,-136.89165 L184.47058,-140.52405 L186.35294,-144.28839 L188.23529,-148.16473 L190.11765,-152.13286 L192,-156.1724 L193.88235,-160.26286 L195.76471,-164.38382 L197.64706,-168.51485 L199.52942,-172.63574 L201.41176,-176.72655 L203.29411,-180.7676 L205.17647,-184.73964 L207.05882,-188.62393 L208.94118,-192.40224 L210.82353,-196.05698 L212.70589,-199.57118 L214.58824,-202.92871 L216.47058,-206.11418 L218.35294,-209.11307 L220.23529,-211.91177 L222.11765,-214.49763 L224,-216.85901 L225.88235,-218.9853 L227.76471,-220.86702 L229.64706,-222.49573 L231.52942,-223.8642 L233.41176,-224.96632 L235.29411,-225.79721 L237.17647,-226.3532 L239.05882,-226.6318 L240.94118,-226.6318 L242.82353,-226.3532 L244.70589,-225.79721 L246.58824,-224.96632 L248.47058,-223.8642 L250.35294,-222.49573 L252.23529,-220.86702 L254.11765,-218.9853 L256,-216.85901 L257.88235,-214.49763 L259.7647,-211.91177 L261.64706,-209.11307 L263.52942,-206.11418 L265.41177,-202.92871 L267.29413,-199.57118 L269.17648,-196.05698 L271.05884,-192.40224 L272.94116,-188.62393 L274.82352,-184.73964 L276.70587,-180.7676 L278.58823,-176.72655 L280.47058,-172.63574 L282.35294,-168.51485 L284.2353,-164.38382 L286.11765,-160.26286 L288,-156.1724 L289.88235,-152.13286 L291.7647,-148.16473 L293.64706,-144.28839 L295.52942,-140.52405 L297.41177,-136.89165 L299.29413,-133.41077 L301.17648,-130.10059 L303.05884,-126.97969 L304.94116,-124.0661 L306.82352,-121.37708 L308.70587,-118.92912 L310.58823,-116.73781 L312.47058,-114.81774 L314.35294,-113.18248 L316.2353,-111.844406 L318.11765,-110.814674 L320,-110.103134 L321.88235,-109.71823 L323.7647,-109.66695 L325.64706,-109.95473 L327.52942,-110.58539 L329.41177,-111.56111 L331.29413,-112.88231 L333.17648,-114.54762 L335.05884,-116.553856 L336.94116,-118.89593 L338.82352,-121.56684 L340.70587,-124.557655 L342.58823,-127.85743 L344.47058,-131.45325 L346.35294,-135.3302 L348.2353,-139.47134 L350.11765,-143.85776 L352,-148.46852 L353.88235,-153.28079 L355.7647,-158.26976 L357.64706,-163.40878 L359.52942,-168.66936 L361.41177,-174.02129 L363.29413,-179.43268 L365.17648,-184.87004 L367.05884,-190.29846 L368.94116,-195.68166 L370.82352,-200.98213 L372.70587,-206.16135 L374.58823,-211.17986 L376.47058,-215.99748 L378.35294,-220.57358 L380.2353,-224.86713 L382.11765,-228.83711 L384,-232.44264 L385.88235,-235.64331 L387.7647,-238.39943 L389.64706,-240.67238 L391.52942,-242.42491 L393.41177,-243.62152 L395.29413,-244.22878 L397.17648,-244.2158 L399.05884,-243.55463 L400.94116,-242.22063 L402.82352,-240.19305 L404.70587,-237.45547 L406.58823,-233.99634 L408.47058,-229.80946 L410.35294,-224.89468 L412.2353,-219.25844 L414.11765,-212.91434 L416,-205.88394 L417.88235,-198.19736 L419.7647,-189.89403 L421.64706,-181.02347 L423.52942,-171.64603 L425.41177,-161.83379 L427.29413,-151.67136 L429.17648,-141.2568 L431.05884,-130.7026 L432.94116,-120.136566 L434.82352,-109.70284 L436.70587,-99.563034 L438.58823,-89.897224 L440.47058,-80.90511 L442.35294,-72.80722 L444.2353,-65.846054 L446.11765,-60.287384 L448,-56.421555 L449.88235,-54.56481 L451.7647,-55.060688 L453.64706,-58.281456 L455.52942,-64.629616 L457.41177,-74.53939 L459.29413,-88.47837 L461.17648,-106.9491 L463.05884,-130.49077 L464.94116,-159.68097 L466.82352,-195.13747 L468.70587,-237.52008 L470.58823,-287.53253 L472.47058,-345.92447 L474.35294,-413.49338 L476.2353,-491.08682 L478.11765,-579.6044 L480,-680" fill="none" stroke="red" stroke-linejoin="round" stroke-width="2"/>
</g>
</g>
<g>
<g>
<path d="M0,-1133.3334 L0,-1133.3334 L1.882353,-961.7133 L3.764706,-808.57623 L5.647059,-672.5616 L7.529412,-552.3804 L9.411765,-446.81232 L11.294118,-354.70334 L13.176471,-274.96295 L15.058824,-206.56175 L16.941177,-148.52913 L18.82353,-99.95081 L20.705883,-59.96667 L22.588236,-27.768427 L24.470589,-2.5975432 L26.352942,16.25688 L28.235294,29.460154 L30.117647,37.63396 L32,41.358295 L33.882355,41.17331 L35.764706,37.581142 L37.64706,31.047655 L39.52941,22.004148 L41.411766,10.849 L43.294117,-2.050725 L45.17647,-16.357737 L47.058823,-31.763012 L48.941177,-47.98436 L50.82353,-64.76499 L52.705883,-81.87221 L54.588234,-99.09604 L56.47059,-116.24801 L58.35294,-133.15991 L60.235294,-149.68263 L62.117645,-165.685 L64,-181.0527 L65.882355,-195.68721 L67.76471,-209.5048 L69.64706,-222.43556 L71.52941,-234.42241 L73.411766,-245.42027 L75.29412,-255.39516 L77.17647,-264.32333 L79.05882,-272.19055 L80.94118,-278.99124 L82.82353,-284.72784 L84.70588,-289.41006 L86.588234,-293.05426 L88.47059,-295.68268 L90.35294,-297.32303 L92.23529,-298.00772 L94.117645,-297.7735 L96,-296.66077 L97.882355,-294.71317 L99.76471,-291.9771 L101.64706,-288.50134 L103.52941,-284.33643 L105.411766,-279.53452 L107.29412,-274.14886 L109.17647,-268.23343 L111.05882,-261.84274 L112.94118,-255.03142 L114.82353,-247.8539 L116.70588,-240.36429 L118.588234,-232.616 L120.47059,-224.66158 L122.35294,-216.55247 L124.23529,-208.3389 L126.117645,-200.06955 L128,-191.79155 L129.88235,-183.55028 L131.76471,-175.38918 L133.64706,-167.34976 L135.52942,-159.4714 L137.41176,-151.7913 L139.29411,-144.34444 L141.17647,-137.16342 L143.05882,-130.27855 L144.94118,-123.71768 L146.82353,-117.50627 L148.70589,-111.66733 L150.58824,-106.221405 L152.47058,-101.186615 L154.35294,-96.57862 L156.23529,-92.4107 L158.11765,-88.6937 L160,-85.436165 L161.88235,-82.64429 L163.76471,-80.322014 L165.64706,-78.47109 L167.52942,-77.091125 L169.41176,-76.17963 L171.29411,-75.7321 L173.17647,-75.74214 L175.05882,-76.20146 L176.94118,-77.10002 L178.82353,-78.4261 L180.70589,-80.16638 L182.58824,-82.30604 L184.47058,-84.828865 L186.35294,-87.717316 L188.23529,-90.95266 L190.11765,-94.51505 L192,-98.38364 L193.88235,-102.53664 L195.76471,-106.9515 L197.64706,-111.60496 L199.52942,-116.47313 L201.41176,-121.531654 L203.29411,-126.755775 L205.17647,-132.12044 L207.05882,-137.60036 L208.94118,-143.17023 L210.82353,-148.80464 L212.70589,-154.47838 L214.58824,-160.16632 L216.47058,-165.84369 L218.35294,-171.48604 L220.23529,-177.06937 L222.11765,-182.5702 L224,-187.96571 L225.88235,-193.23372 L227.76471,-198.35283 L229.64706,-203.30244 L231.52942,-208.0629 L233.41176,-212.61548 L235.29411,-216.94247 L237.17647,-221.02725 L239.05882,-224.85431 L240.94118,-228.40932 L242.82353,-231.67915 L244.70589,-234.65196 L246.58824,-237.31715 L248.47058,-239.66548 L250.35294,-241.68901 L252.23529,-243.38121 L254.11765,-244.73691 L256,-245.7523 L257.88235,-246.42506 L259.7647,-246.75418 L261.64706,-246.74011 L263.52942,-246.38467 L265.41177,-245.69112 L267.29413,-244.664 L269.17648,-243.3093 L271.05884,-241.63426 L272.94116,-239.6475 L274.82352,-237.35886 L276.70587,-234.7794 L278.58823,-231.92143 L280.47058,-228.79837 L282.35294,-225.42474 L284.2353,-221.81613 L286.11765,-217.98909 L288,-213.96115 L289.88235,-209.75066 L291.7647,-205.37679 L293.64706,-200.85947 L295.52942,-196.21922 L297.41177,-191.47725 L299.29413,-186.65517 L301.17648,-181.77507 L303.05884,-176.85936 L304.94116,-171.93074 L306.82352,-167.01202 L308.70587,-162.12614 L310.58823,-157.29599 L312.47058,-152.54436 L314.35294,-147.89386 L316.2353,-143.36679 L318.11765,-138.98506 L320,-134.77011 L321.88235,-130.74277 L323.7647,-126.9232 L325.64706,-123.330826 L327.52942,-119.98417 L329.41177,-116.90082 L331.29413,-114.09728 L333.17648,-111.58897 L335.05884,-109.39003 L336.94116,-107.513306 L338.82352,-105.97026 L340.70587,-104.77087 L342.58823,-103.923546 L344.47058,-103.435104 L346.35294,-103.31064 L348.2353,-103.553505 L350.11765,-104.16524 L352,-105.14549 L353.88235,-106.49203 L355.7647,-108.20062 L357.64706,-110.265076 L359.52942,-112.677155 L361.41177,-115.42659 L363.29413,-118.50106 L365.17648,-121.88618 L367.05884,-125.5655 L368.94116,-129.52054 L370.82352,-133.73082 L372.70587,-138.17383 L374.58823,-142.82516 L376.47058,-147.65854 L378.35294,-152.64581 L380.2353,-157.75714 L382.11765,-162.96106 L384,-168.22453 L385.88235,-173.51312 L387.7647,-178.79114 L389.64706,-184.02174 L391.52942,-189.16714 L393.41177,-194.18877 L395.29413,-199.04749 L397.17648,-203.70378 L399.05884,-208.11803 L400.94116,-212.25072 L402.82352,-216.06277 L404.70587,-219.5158 L406.58823,-222.57239 L408.47058,-225.1965 L410.35294,-227.35382 L412.2353,-229.01205 L414.11765,-230.14146 L416,-230.7152 L417.88235,-230.70973 L419.7647,-230.10544 L421.64706,-228.88701 L423.52942,-227.04404 L425.41177,-224.57152 L427.29413,-221.47049 L429.17648,-217.74863 L431.05884,-213.42087 L432.94116,-208.51012 L434.82352,-203.04796 L436.70587,-197.07535 L438.58823,-190.64345 L440.47058,-183.81438 L442.35294,-176.6621 L444.2353,-169.27324 L446.11765,-161.74808 L448,-154.2014 L449.88235,-146.76358 L451.7647,-139.58153 L453.64706,-132.8198 L455.52942,-126.66168 L457.41177,-121.31036 L459.29413,-116.990074 L461.17648,-113.94739 L463.05884,-112.45241 L464.94116,-112.800186 L466.82352,-115.312 L468.70587,-120.33682 L470.58823,-128.25276 L472.47058,-139.46857 L474.35294,-154.42519 L476.2353,-173.59738 L478.11765,-197.4954 L480,-226.66667" fill="none" stroke="blue" stroke-linejoin="round" stroke-width="2"/>
</g>
</g>
<g>
<g>
<path d="M0,-226.66667 L0,-226.66667 L1.882353,-197.4954 L3.764706,-173.59738 L5.647059,-154.42519 L7.529412,-139.46857 L9.411765,-128.25276 L11.294118,-120.33682 L13.176471,-115.312 L15.058824,-112.800186 L16.941177,-112.45241 L18.82353,-113.94739 L20.705883,-116.990074 L22.588236,-121.31036 L24.470589,-126.66168 L26.352942,-132.8198 L28.235294,-139.58153 L30.117647,-146.76358 L32,-154.2014 L33.882355,-161.74808 L35.764706,-169.27324 L37.64706,-176.6621 L39.52941,-183.81438 L41.411766,-190.64345 L43.294117,-197.07535 L45.17647,-203.04796 L47.058823,-208.51012 L48.941177,-213.42087 L50.82353,-217.74863 L52.705883,-221.47049 L54.588234,-224.57152 L56.47059,-227.04404 L58.35294,-228.88701 L60.235294,-230.10544 L62.117645,-230.70973 L64,-230.7152 L65.882355,-230.14146 L67.76471,-229.01205 L69.64706,-227.35382 L71.52941,-225.1965 L73.411766,-222.57239 L75.29412,-219.5158 L77.17647,-216.06277 L79.05882,-212.25072 L80.94118,-208.11803 L82.82353,-203.70378 L84.70588,-199.04749 L86.588234,-194.18877 L88.47059,-189.16714 L90.35294,-184.02174 L92.23529,-178.79114 L94.117645,-173.51312 L96,-168.22453 L97.882355,-162.96106 L99.76471,-157.75714 L101.64706,-152.64581 L103.52941,-147.65854 L105.411766,-142.82516 L107.29412,-138.17383 L109.17647,-133.73082 L111.05882,-129.52054 L112.94118,-125.5655 L114.82353,-121.88618 L116.70588,-118.50106 L118.588234,-115.42659 L120.47059,-112.677155 L122.35294,-110.265076 L124.23529,-108.20062 L126.117645,-106.49203 L128,-105.14549 L129.88235,-104.16524 L131.76471,-103.553505 L133.64706,-103.31064 L135.52942,-103.435104 L137.41176,-103.923546 L139.29411,-104.77087 L141.17647,-105.97026 L143.05882,-107.513306 L144.94118,-109.39003 L146.82353,-111.58897 L148.70589,-114.09728 L150.58824,-116.90082 L152.47058,-119.98417 L154.35294,-123.330826 L156.23529,-126.9232 L158.11765,-130.74277 L160,-134.77011 L161.88235,-138.98506 L163.76471,-143.36679 L165.64706,-147.89386 L167.52942,-152.54436 L169.41176,-157.29599 L171.29411,-162.12614 L173.17647,-167.01202 L175.05882,-171.93074 L176.94118,-176.85936 L178.82353,-181.77507 L180.70589,-186.65517 L182.58824,-191.47725 L184.47058,-196.21922 L186.35294,-200.85947 L188.23529,-205.37679 L190.11765,-209.75066 L192,-213.96115 L193.88235,-217.98909 L195.76471,-221.81613 L197.64706,-225.42474 L199.52942,-228.79837 L201.41176,-231.92143 L203.29411,-234.7794 L205.17647,-237.35886 L207.05882,-239.6475 L208.94118,-241.63426 L210.82353,-243.3093 L212.70589,-244.664 L214.58824,-245.69112 L216.47058,-246.38467 L218.35294,-246.74011 L220.23529,-246.75418 L222.11765,-246.42506 L224,-245.7523 L225.88235,-244.73691 L227.76471,-243.38121 L229.64706,-241.68901 L231.52942,-239.66548 L233.41176,-237.31715 L235.29411,-234.65196 L237.17647,-231.67915 L239.05882,-228.40932 L240.94118,-224.85431 L242.82353,-221.02725 L244.70589,-216.94247 L246.58824,-212.61548 L248.47058,-208.0629 L250.35294,-203.30244 L252.23529,-198.35283 L254.11765,-193.23372 L256,-187.96571 L257.88235,-182.5702 L259.7647,-177.06937 L261.64706,-171.48604 L263.52942,-165.84369 L265.41177,-160.16632 L267.29413,-154.47838 L269.17648,-148.80464 L271.05884,-143.17023 L272.94116,-137.60036 L274.82352,-132.12044 L276.70587,-126.755775 L278.58823,-121.531654 L280.47058,-116.47313 L282.35294,-111.60496 L284.2353,-106.9515 L286.11765,-102.53664 L288,-98.38364 L289.88235,-94.51505 L291.7647,-90.95266 L293.64706,-87.717316 L295.52942,-84.828865 L297.41177,-82.30604 L299.29413,-80.16638 L301.17648,-78.4261 L303.05884,-77.10002 L304.94116,-76.20146 L306.82352,-75.74214 L308.70587,-75.7321 L310.58823,-76.17963 L312.47058,-77.091125 L314.35294,-78.47109 L316.2353,-80.322014 L318.11765,-82.64429 L320,-85.436165 L321.88235,-88.6937 L323.7647,-92.4107 L325.64706,-96.57862 L327.52942,-101.186615 L329.41177,-106.221405 L331.29413,-111.66733 L333.17648,-117.50627 L335.05884,-123.71768 L336.94116,-130.27855 L338.82352,-137.16342 L340.70587,-144.34444 L342.58823,-151.7913 L344.47058,-159.4714 L346.35294,-167.34976 L348.2353,-175.38918 L350.11765,-183.55028 L352,-191.79155 L353.88235,-200.06955 L355.7647,-208.3389 L357.64706,-216.55247 L359.52942,-224.66158 L361.41177,-232.616 L363.29413,-240.36429 L365.17648,-247.8539 L367.05884,-255.03142 L368.94116,-261.84274 L370.82352,-268.23343 L372.70587,-274.14886 L374.58823,-279.53452 L376.47058,-284.33643 L378.35294,-288.50134 L380.2353,-291.9771 L382.11765,-294.71317 L384,-296.66077 L385.88235,-297.7735 L387.7647,-298.00772 L389.64706,-297.32303 L391.52942,-295.68268 L393.41177,-293.05426 L395.29413,-289.41006 L397.17648,-284.72784 L399.05884,-278.99124 L400.94116,-272.19055 L402.82352,-264.32333 L404.70587,-255.39516 L406.58823,-245.42027 L408.47058,-234.42241 L410.35294,-222.43556 L412.2353,-209.5048 L414.11765,-195.68721 L416,-181.0527 L417.88235,-165.685 L419.7647,-149.68263 L421.64706,-133.15991 L423.52942,-116.24801 L425.41177,-99.09604 L427.29413,-81.87221 L429.17648,-64.76499 L431.05884,-47.98436 L432.94116,-31.763012 L434.82352,-16.357737 L436.70587,-2.050725 L438.58823,10.849 L440.47058,22.004148 L442.35294,31.047655 L444.2353,37.581142 L446.11765,41.17331 L448,41.358295 L449.88235,37.63396 L451.7647,29.460154 L453.64706,16.25688 L455.52942,-2.5975432 L457.41177,-27.768427 L459.29413,-59.96667 L461.17648,-99.95081 L463.05884,-148.52913 L464.94116,-206.56175 L466.82352,-274.96295 L468.70587,-354.70334 L470.58823,-446.81232 L472.47058,-552.3804 L474.35294,-672.5616 L476.2353,-808.57623 L478.11765,-961.7133 L480,-1133.3334" fill="none" stroke="green" stroke-linejoin="round" stroke-width="2"/>
</g>
</g>
<g>
<g>
<line stroke="black" stroke-width="1" x1="0" x2="0" y1="0" y2="10"/>
<line stroke="black" stroke-width="1" x1="120" x2="120" y1="0" y2="10"/>
<line stroke="black" stroke-width="1" x1="240" x2="240" y1="0" y2="10"/>
<line stroke="black" stroke-width="1" x1="360" x2="360" y1="0" y2="10"/>
<line stroke="black" stroke-width="1" x1="480" x2="480" y1="0" y2="10"/>
</g>
<line stroke="black" stroke-width="1" x1="0" x2="480" y1="0" y2="0"/>
<g>
<text font-size="12" text-anchor="middle" x="0" y="20">
-1
</text>
<text font-size="12" text-anchor="middle" x="120" y="20">
-0.5
</text>
<text font-size="12" text-anchor="middle" x="240" y="20">
0
</text>
<text font-size="12" text-anchor="middle" x="360" y="20">
0.5
</text>
<text font-size="12" text-anchor="middle" x="480" y="20">
1
</text>
</g>
<text font-size="12" text-anchor="middle" x="240" y="30">
x
</text>
</g>
<g>
<g>
<line stroke="black" stroke-width="1" x1="0" x2="-10" y1="-56.666666666666664" y2="-56.666666666666664"/>
<line stroke="black" stroke-width="1" x1="0" x2="-10" y1="-170" y2="-170"/>
<line stroke="black" stroke-width="1" x1="0" x2="-10" y1="-283.3333333333333" y2="-283.3333333333333"/>
</g>
<line stroke="black" stroke-width="1" x1="0" x2="0" y1="0" y2="-340"/>
<g>
<text dominant-baseline="middle" font-size="12" text-anchor="end" x="-15" y="-56.666666666666664">
-2
</text>
<text dominant-baseline="middle" font-size="12" text-anchor="end" x="-15" y="-170">
0
</text>
<text dominant-baseline="middle" font-size="12" text-anchor="end" x="-15" y="-283.3333333333333">
2
</text>
</g>
<text font-size="12" text-anchor="middle" transform="rotate(-90 -24 -170)" x="-24" y="-182">
y
</text>
</g>
</g>
</svg>