<svg viewBox="0 0 600 400" xmlns="http://www.w3.org/2000/svg">
<g transform="translate(72, 364)">
<g>
<g>
<path d="M0,-170 L0,-170 L480,-170" fill="none" stroke="lightgray" stroke-linejoin="round" stroke-width="2"/>
</g>
</g>
<g>
<g>
<path d="M0,-170 L0,-170 L4.848485,-218.43073 L9.69697,-235.11813 L14.545455,-245.8252 L19.39394,-253.24321 L24.242424,-258.48502 L29.09091,-262.15656 L33.939392,-264.63803 L38.78788,-266.18948 L43.636364,-266.99954 L48.484848,-267.2108 L53.333332,-266.9341 L58.18182,-266.25803 L63.030304,-265.25415 L67.878784,-263.98145 L72.72727,-262.48892 L77.57576,-260.8176 L82.42424,-259.00214 L87.27273,-257.07193 L92.121216,-255.05202 L96.969696,-252.96382 L101.818184,-250.82568 L106.666664,-248.6533 L111.51515,-246.4602 L116.36364,-244.25798 L121.21212,-242.05655 L126.06061,-239.86443 L130.90909,-237.68886 L135.75757,-235.53606 L140.60606,-233.41122 L145.45454,-231.31882 L150.30302,-229.2625 L155.15152,-227.24532 L160,-225.2698 L164.84848,-223.33795 L169.69698,-221.45135 L174.54546,-219.61122 L179.39394,-217.81845 L184.24243,-216.07362 L189.09091,-214.37709 L193.93939,-212.72897 L198.78787,-211.12921 L203.63637,-209.57756 L208.48485,-208.07365 L213.33333,-206.61699 L218.18182,-205.20695 L223.0303,-203.84285 L227.87878,-202.52393 L232.72728,-201.24931 L237.57576,-200.01816 L242.42424,-198.82948 L247.27272,-197.68234 L252.12122,-196.57574 L256.9697,-195.50865 L261.81818,-194.48006 L266.66666,-193.4889 L271.51514,-192.53416 L276.36365,-191.61478 L281.21213,-190.72972 L286.0606,-189.87793 L290.9091,-189.05841 L295.75757,-188.27014 L300.60605,-187.51213 L305.45456,-186.78337 L310.30304,-186.08292 L315.15152,-185.40982 L320,-184.76314 L324.84848,-184.14198 L329.69696,-183.54544 L334.54544,-182.97266 L339.39395,-182.4228 L344.24243,-181.89503 L349.0909,-181.38855 L353.9394,-180.90259 L358.78787,-180.43639 L363.63635,-179.9892 L368.48486,-179.56033 L373.33334,-179.14908 L378.18182,-178.75478 L383.0303,-178.37679 L387.87878,-178.01447 L392.72726,-177.66722 L397.57574,-177.33447 L402.42426,-177.01563 L407.27274,-176.71016 L412.12122,-176.41754 L416.9697,-176.13727 L421.81818,-175.86882 L426.66666,-175.61176 L431.51514,-175.3656 L436.36365,-175.12991 L441.21213,-174.90428 L446.0606,-174.6883 L450.9091,-174.48155 L455.75757,-174.28368 L460.60605,-174.09431 L465.45456,-173.9131 L470.30304,-173.7397 L475.15152,-173.57379 L480,-173.41507" fill="none" stroke="black" stroke-linejoin="round" stroke-width="2"/>
</g>
<g>
<circle cx="0" cy="-170" fill="black" r="1"/>
<circle cx="4.848484848484849" cy="-218.4307280890948" fill="black" r="1"/>
<circle cx="9.696969696969697" cy="-235.11813161857103" fill="black" r="1"/>
<circle cx="14.545454545454547" cy="-245.8251880383516" fill="black" r="1"/>
<circle cx="19.393939393939394" cy="-253.24320627227544" fill="black" r="1"/>
<circle cx="24.242424242424242" cy="-258.485017539538" fill="black" r="1"/>
<circle cx="29.090909090909093" cy="-262.15656943438796" fill="black" r="1"/>
<circle cx="33.93939393939394" cy="-264.6380165532011" fill="black" r="1"/>
<circle cx="38.78787878787879" cy="-266.18947146498823" fill="black" r="1"/>
<circle cx="43.63636363636364" cy="-266.9995534393217" fill="black" r="1"/>
<circle cx="48.484848484848484" cy="-267.21077722285054" fill="black" r="1"/>
<circle cx="53.333333333333336" cy="-266.9341247491686" fill="black" r="1"/>
<circle cx="58.18181818181819" cy="-266.25801664187367" fill="black" r="1"/>
<circle cx="63.030303030303024" cy="-265.25414811448405" fill="black" r="1"/>
<circle cx="67.87878787878788" cy="-263.98145714432275" fill="black" r="1"/>
<circle cx="72.72727272727272" cy="-262.4889227808829" fill="black" r="1"/>
<circle cx="77.57575757575758" cy="-260.81759947939946" fill="black" r="1"/>
<circle cx="82.42424242424242" cy="-259.00213463380857" fill="black" r="1"/>
<circle cx="87.27272727272728" cy="-257.0719258066888" fill="black" r="1"/>
<circle cx="92.12121212121211" cy="-255.0520201143414" fill="black" r="1"/>
<circle cx="96.96969696969697" cy="-252.9638248267723" fill="black" r="1"/>
<circle cx="101.81818181818181" cy="-250.8256769361301" fill="black" r="1"/>
<circle cx="106.66666666666667" cy="-248.65330547063718" fill="black" r="1"/>
<circle cx="111.5151515151515" cy="-246.46021093293544" fill="black" r="1"/>
<circle cx="116.36363636363637" cy="-244.25797978088485" fill="black" r="1"/>
<circle cx="121.2121212121212" cy="-242.05654733788356" fill="black" r="1"/>
<circle cx="126.06060606060605" cy="-239.86441928445063" fill="black" r="1"/>
<circle cx="130.9090909090909" cy="-237.6888595344451" fill="black" r="1"/>
<circle cx="135.75757575757575" cy="-235.53605056897322" fill="black" r="1"/>
<circle cx="140.6060606060606" cy="-233.41123100845414" fill="black" r="1"/>
<circle cx="145.45454545454544" cy="-231.31881422540255" fill="black" r="1"/>
<circle cx="150.3030303030303" cy="-229.26249105193025" fill="black" r="1"/>
<circle cx="155.15151515151516" cy="-227.2453190567135" fill="black" r="1"/>
<circle cx="160" cy="-225.26980041338211" fill="black" r="1"/>
<circle cx="164.84848484848484" cy="-223.33795002500278" fill="black" r="1"/>
<circle cx="169.6969696969697" cy="-221.45135528492145" fill="black" r="1"/>
<circle cx="174.54545454545456" cy="-219.6112286259673" fill="black" r="1"/>
<circle cx="179.3939393939394" cy="-217.8184538254001" fill="black" r="1"/>
<circle cx="184.24242424242422" cy="-216.0736268825841" fill="black" r="1"/>
<circle cx="189.0909090909091" cy="-214.37709216301155" fill="black" r="1"/>
<circle cx="193.93939393939394" cy="-212.72897440047356" fill="black" r="1"/>
<circle cx="198.78787878787878" cy="-211.12920706461708" fill="black" r="1"/>
<circle cx="203.63636363636363" cy="-209.57755753051185" fill="black" r="1"/>
<circle cx="208.4848484848485" cy="-208.0736494275608" fill="black" r="1"/>
<circle cx="213.33333333333334" cy="-206.61698249506128" fill="black" r="1"/>
<circle cx="218.18181818181816" cy="-205.20695022930832" fill="black" r="1"/>
<circle cx="223.030303030303" cy="-203.84285557101202" fill="black" r="1"/>
<circle cx="227.8787878787879" cy="-202.52392485090854" fill="black" r="1"/>
<circle cx="232.72727272727275" cy="-201.24932018492288" fill="black" r="1"/>
<circle cx="237.5757575757576" cy="-200.01815048738067" fill="black" r="1"/>
<circle cx="242.4242424242424" cy="-198.8294812509964" fill="black" r="1"/>
<circle cx="247.27272727272725" cy="-197.68234322520763" fill="black" r="1"/>
<circle cx="252.1212121212121" cy="-196.5757401094893" fill="black" r="1"/>
<circle cx="256.969696969697" cy="-195.50865536523898" fill="black" r="1"/>
<circle cx="261.81818181818187" cy="-194.48005823840745" fill="black" r="1"/>
<circle cx="266.66666666666663" cy="-193.48890907502172" fill="black" r="1"/>
<circle cx="271.5151515151515" cy="-192.53416400292645" fill="black" r="1"/>
<circle cx="276.3636363636364" cy="-191.6147790452848" fill="black" r="1"/>
<circle cx="281.21212121212125" cy="-190.7297137244991" fill="black" r="1"/>
<circle cx="286.06060606060606" cy="-189.87793420911433" fill="black" r="1"/>
<circle cx="290.9090909090909" cy="-189.05841605085485" fill="black" r="1"/>
<circle cx="295.75757575757575" cy="-188.2701465541319" fill="black" r="1"/>
<circle cx="300.6060606060606" cy="-187.51212681607024" fill="black" r="1"/>
<circle cx="305.45454545454544" cy="-186.7833734712755" fill="black" r="1"/>
<circle cx="310.3030303030303" cy="-186.08292017214546" fill="black" r="1"/>
<circle cx="315.1515151515151" cy="-185.4098188324647" fill="black" r="1"/>
<circle cx="319.99999999999994" cy="-184.7631406592822" fill="black" r="1"/>
<circle cx="324.8484848484849" cy="-184.141976995607" fill="black" r="1"/>
<circle cx="329.6969696969697" cy="-183.5454399942487" fill="black" r="1"/>
<circle cx="334.54545454545456" cy="-182.97266314113855" fill="black" r="1"/>
<circle cx="339.3939393939394" cy="-182.42280164467806" fill="black" r="1"/>
<circle cx="344.2424242424242" cy="-181.89503270604862" fill="black" r="1"/>
<circle cx="349.0909090909091" cy="-181.38855568396102" fill="black" r="1"/>
<circle cx="353.93939393939394" cy="-180.9025921660091" fill="black" r="1"/>
<circle cx="358.7878787878788" cy="-180.43638595760953" fill="black" r="1"/>
<circle cx="363.6363636363636" cy="-179.98920299843226" fill="black" r="1"/>
<circle cx="368.48484848484844" cy="-179.56033121526264" fill="black" r="1"/>
<circle cx="373.33333333333337" cy="-179.1490803193536" fill="black" r="1"/>
<circle cx="378.1818181818182" cy="-178.75478155553688" fill="black" r="1"/>
<circle cx="383.030303030303" cy="-178.37678740963887" fill="black" r="1"/>
<circle cx="387.8787878787879" cy="-178.01447128009792" fill="black" r="1"/>
<circle cx="392.7272727272727" cy="-177.66722711908804" fill="black" r="1"/>
<circle cx="397.5757575757576" cy="-177.33446904791865" fill="black" r="1"/>
<circle cx="402.42424242424244" cy="-177.01563095099468" fill="black" r="1"/>
<circle cx="407.27272727272725" cy="-176.71016605218094" fill="black" r="1"/>
<circle cx="412.1212121212122" cy="-176.4175464770157" fill="black" r="1"/>
<circle cx="416.969696969697" cy="-176.13726280385572" fill="black" r="1"/>
<circle cx="421.8181818181818" cy="-175.86882360670708" fill="black" r="1"/>
<circle cx="426.6666666666667" cy="-175.61175499219783" fill="black" r="1"/>
<circle cx="431.5151515151515" cy="-175.365600132879" fill="black" r="1"/>
<circle cx="436.3636363636364" cy="-175.12991879879453" fill="black" r="1"/>
<circle cx="441.2121212121212" cy="-174.9042868890405" fill="black" r="1"/>
<circle cx="446.060606060606" cy="-174.68829596483056" fill="black" r="1"/>
<circle cx="450.9090909090909" cy="-174.48155278540517" fill="black" r="1"/>
<circle cx="455.7575757575758" cy="-174.28367884795477" fill="black" r="1"/>
<circle cx="460.6060606060606" cy="-174.0943099325796" fill="black" r="1"/>
<circle cx="465.4545454545455" cy="-173.91309565317295" fill="black" r="1"/>
<circle cx="470.3030303030303" cy="-173.73969901499382" fill="black" r="1"/>
<circle cx="475.1515151515152" cy="-173.57379597958345" fill="black" r="1"/>
<circle cx="480" cy="-173.4150750375824" fill="black" r="1"/>
</g>
</g>
<g>
<g>
<path d="M0,-170 L0,-170 L4.848485,-240.20009 L9.69697,-261.0996 L14.545455,-272.2491 L19.39394,-278.048 L24.242424,-280.3828 L29.09091,-280.30862 L33.939392,-278.49915 L38.78788,-275.41977 L43.636364,-271.40863 L48.484848,-266.71982 L53.333332,-261.5489 L58.18182,-256.04883 L63.030304,-250.34062 L67.878784,-244.52065 L72.72727,-238.66602 L77.57576,-232.83844 L82.42424,-227.08723 L87.27273,-221.4516 L92.121216,-215.96245 L96.969696,-210.64389 L101.818184,-205.51431 L106.666664,-200.5874 L111.51515,-195.8729 L116.36364,-191.3773 L121.21212,-187.10432 L126.06061,-183.05547 L130.90909,-179.2303 L135.75757,-175.62683 L140.60606,-172.2418 L145.45454,-169.07092 L150.30302,-166.10902 L155.15152,-163.3503 L160,-160.78836 L164.84848,-158.4165 L169.69698,-156.22766 L174.54546,-154.21461 L179.39394,-152.36996 L184.24243,-150.68631 L189.09091,-149.15622 L193.93939,-147.77231 L198.78787,-146.52727 L203.63637,-145.41394 L208.48485,-144.42528 L213.33333,-143.5544 L218.18182,-142.79463 L223.0303,-142.13947 L227.87878,-141.58263 L232.72728,-141.11806 L237.57576,-140.73988 L242.42424,-140.4425 L247.27272,-140.2205 L252.12122,-140.06874 L256.9697,-139.98224 L261.81818,-139.9563 L266.66666,-139.98639 L271.51514,-140.06825 L276.36365,-140.1978 L281.21213,-140.37117 L286.0606,-140.58467 L290.9091,-140.83485 L295.75757,-141.11841 L300.60605,-141.43224 L305.45456,-141.77342 L310.30304,-142.13919 L315.15152,-142.52693 L320,-142.93423 L324.84848,-143.3588 L329.69696,-143.79846 L334.54544,-144.25124 L339.39395,-144.71521 L344.24243,-145.18864 L349.0909,-145.6699 L353.9394,-146.15746 L358.78787,-146.6499 L363.63635,-147.14592 L368.48486,-147.64427 L373.33334,-148.14386 L378.18182,-148.64365 L383.0303,-149.14264 L387.87878,-149.64 L392.72726,-150.13492 L397.57574,-150.62663 L402.42426,-151.11449 L407.27274,-151.59789 L412.12122,-152.07625 L416.9697,-152.5491 L421.81818,-153.01598 L426.66666,-153.4765 L431.51514,-153.9303 L436.36365,-154.37706 L441.21213,-154.81653 L446.0606,-155.24844 L450.9091,-155.6726 L455.75757,-156.08887 L460.60605,-156.49706 L465.45456,-156.89706 L470.30304,-157.2888 L475.15152,-157.67221 L480,-158.04724" fill="none" stroke="red" stroke-linejoin="round" stroke-width="2"/>
</g>
<g>
<circle cx="0" cy="-170" fill="red" r="1"/>
<circle cx="4.848484848484849" cy="-240.20009576550612" fill="red" r="1"/>
<circle cx="9.696969696969697" cy="-261.0996083754756" fill="red" r="1"/>
<circle cx="14.545454545454547" cy="-272.2491172032317" fill="red" r="1"/>
<circle cx="19.393939393939394" cy="-278.0480000604787" fill="red" r="1"/>
<circle cx="24.242424242424242" cy="-280.3828249104338" fill="red" r="1"/>
<circle cx="29.090909090909093" cy="-280.3086209896462" fill="red" r="1"/>
<circle cx="33.93939393939394" cy="-278.4991401897811" fill="red" r="1"/>
<circle cx="38.78787878787879" cy="-275.41977428233554" fill="red" r="1"/>
<circle cx="43.63636363636364" cy="-271.4086240502" fill="red" r="1"/>
<circle cx="48.484848484848484" cy="-266.71981370152304" fill="red" r="1"/>
<circle cx="53.333333333333336" cy="-261.548895596437" fill="red" r="1"/>
<circle cx="58.18181818181819" cy="-256.0488330586446" fill="red" r="1"/>
<circle cx="63.030303030303024" cy="-250.34061987433756" fill="red" r="1"/>
<circle cx="67.87878787878788" cy="-244.52065036191252" fill="red" r="1"/>
<circle cx="72.72727272727272" cy="-238.66601842823124" fill="red" r="1"/>
<circle cx="77.57575757575758" cy="-232.83844004382692" fill="red" r="1"/>
<circle cx="82.42424242424242" cy="-227.08722777017013" fill="red" r="1"/>
<circle cx="87.27272727272728" cy="-221.4515925221343" fill="red" r="1"/>
<circle cx="92.12121212121211" cy="-215.9624553143158" fill="red" r="1"/>
<circle cx="96.96969696969697" cy="-210.64389398079246" fill="red" r="1"/>
<circle cx="101.81818181818181" cy="-205.51431259314805" fill="red" r="1"/>
<circle cx="106.66666666666667" cy="-200.58739657191447" fill="red" r="1"/>
<circle cx="111.5151515151515" cy="-195.87289965912464" fill="red" r="1"/>
<circle cx="116.36363636363637" cy="-191.37729720964867" fill="red" r="1"/>
<circle cx="121.2121212121212" cy="-187.10433194384106" fill="red" r="1"/>
<circle cx="126.06060606060605" cy="-183.05547229052866" fill="red" r="1"/>
<circle cx="130.9090909090909" cy="-179.2302990274243" fill="red" r="1"/>
<circle cx="135.75757575757575" cy="-175.62683262460882" fill="red" r="1"/>
<circle cx="140.6060606060606" cy="-172.2418111972686" fill="red" r="1"/>
<circle cx="145.45454545454544" cy="-169.07092705719086" fill="red" r="1"/>
<circle cx="150.3030303030303" cy="-166.10902836527734" fill="red" r="1"/>
<circle cx="155.15151515151516" cy="-163.3502912206848" fill="red" r="1"/>
<circle cx="160" cy="-160.78836659776965" fill="red" r="1"/>
<circle cx="164.84848484848484" cy="-158.4165058026509" fill="red" r="1"/>
<circle cx="169.6969696969697" cy="-156.22766752474323" fill="red" r="1"/>
<circle cx="174.54545454545456" cy="-154.21460907355586" fill="red" r="1"/>
<circle cx="179.3939393939394" cy="-152.3699639936656" fill="red" r="1"/>
<circle cx="184.24242424242422" cy="-150.68630792295716" fill="red" r="1"/>
<circle cx="189.0909090909091" cy="-149.15621428707033" fill="red" r="1"/>
<circle cx="193.93939393939394" cy="-147.77230119571325" fill="red" r="1"/>
<circle cx="198.78787878787878" cy="-146.52727071564783" fill="red" r="1"/>
<circle cx="203.63636363636363" cy="-145.41394153407597" fill="red" r="1"/>
<circle cx="208.4848484848485" cy="-144.42527588956773" fill="red" r="1"/>
<circle cx="213.33333333333334" cy="-143.55440153134464" fill="red" r="1"/>
<circle cx="218.18181818181816" cy="-142.79462936826175" fill="red" r="1"/>
<circle cx="223.030303030303" cy="-142.13946738345982" fill="red" r="1"/>
<circle cx="227.8787878787879" cy="-141.58263131713548" fill="red" r="1"/>
<circle cx="232.72727272727275" cy="-141.11805255635915" fill="red" r="1"/>
<circle cx="237.5757575757576" cy="-140.739883615836" fill="red" r="1"/>
<circle cx="242.4242424242424" cy="-140.44250154569565" fill="red" r="1"/>
<circle cx="247.27272727272725" cy="-140.22050956076146" fill="red" r="1"/>
<circle cx="252.1212121212121" cy="-140.06873714941355" fill="red" r="1"/>
<circle cx="256.969696969697" cy="-139.98223888838035" fill="red" r="1"/>
<circle cx="261.81818181818187" cy="-139.95629216195448" fill="red" r="1"/>
<circle cx="266.66666666666663" cy="-139.98639395969448" fill="red" r="1"/>
<circle cx="271.5151515151515" cy="-140.06825690520375" fill="red" r="1"/>
<circle cx="276.3636363636364" cy="-140.19780464968306" fill="red" r="1"/>
<circle cx="281.21212121212125" cy="-140.37116674730683" fill="red" r="1"/>
<circle cx="286.06060606060606" cy="-140.58467311479546" fill="red" r="1"/>
<circle cx="290.9090909090909" cy="-140.83484816460088" fill="red" r="1"/>
<circle cx="295.75757575757575" cy="-141.11840468968032" fill="red" r="1"/>
<circle cx="300.6060606060606" cy="-141.43223756772377" fill="red" r="1"/>
<circle cx="305.45454545454544" cy="-141.7734173437639" fill="red" r="1"/>
<circle cx="310.3030303030303" cy="-142.1391837421925" fill="red" r="1"/>
<circle cx="315.1515151515151" cy="-142.52693915222198" fill="red" r="1"/>
<circle cx="319.99999999999994" cy="-142.93424212464933" fill="red" r="1"/>
<circle cx="324.8484848484849" cy="-143.35880091231613" fill="red" r="1"/>
<circle cx="329.6969696969697" cy="-143.79846708183203" fill="red" r="1"/>
<circle cx="334.54545454545456" cy="-144.25122921986133" fill="red" r="1"/>
<circle cx="339.3939393939394" cy="-144.7152067535088" fill="red" r="1"/>
<circle cx="344.2424242424242" cy="-145.18864390101973" fill="red" r="1"/>
<circle cx="349.0909090909091" cy="-145.66990376608337" fill="red" r="1"/>
<circle cx="353.93939393939394" cy="-146.1574625864548" fill="red" r="1"/>
<circle cx="358.7878787878788" cy="-146.64990414534842" fill="red" r="1"/>
<circle cx="363.6363636363636" cy="-147.1459143520716" fill="red" r="1"/>
<circle cx="368.48484848484844" cy="-147.64427599663338" fill="red" r="1"/>
<circle cx="373.33333333333337" cy="-148.14386368154416" fill="red" r="1"/>
<circle cx="378.1818181818182" cy="-148.64363893270544" fill="red" r="1"/>
<circle cx="383.030303030303" cy="-149.14264549014158" fill="red" r="1"/>
<circle cx="387.8787878787879" cy="-149.6400047783371" fill="red" r="1"/>
<circle cx="392.7272727272727" cy="-150.1349115550901" fill="red" r="1"/>
<circle cx="397.5757575757576" cy="-150.62662973706338" fill="red" r="1"/>
<circle cx="402.42424242424244" cy="-151.1144883995952" fill="red" r="1"/>
<circle cx="407.27272727272725" cy="-151.59787794780684" fill="red" r="1"/>
<circle cx="412.1212121212122" cy="-152.07624645560765" fill="red" r="1"/>
<circle cx="416.969696969697" cy="-152.54909616883444" fill="red" r="1"/>
<circle cx="421.8181818181818" cy="-153.0159801684689" fill="red" r="1"/>
<circle cx="426.6666666666667" cy="-153.4764991896397" fill="red" r="1"/>
<circle cx="431.5151515151515" cy="-153.9302985919331" fill="red" r="1"/>
<circle cx="436.3636363636364" cy="-154.3770654763984" fill="red" r="1"/>
<circle cx="441.2121212121212" cy="-154.8165259445362" fill="red" r="1"/>
<circle cx="446.060606060606" cy="-155.24844249449777" fill="red" r="1"/>
<circle cx="450.9090909090909" cy="-155.6726115496895" fill="red" r="1"/>
<circle cx="455.7575757575758" cy="-156.08886111497506" fill="red" r="1"/>
<circle cx="460.6060606060606" cy="-156.49704855568444" fill="red" r="1"/>
<circle cx="465.4545454545455" cy="-156.89705849467842" fill="red" r="1"/>
<circle cx="470.3030303030303" cy="-157.28880082277354" fill="red" r="1"/>
<circle cx="475.1515151515152" cy="-157.67220881790158" fill="red" r="1"/>
<circle cx="480" cy="-158.04723736846165" fill="red" r="1"/>
</g>
</g>
<g>
<g>
<path d="M0,-170 L0,-170 L4.848485,-254.7544 L9.69697,-275.9847 L14.545455,-284.32092 L19.39394,-285.73767 L24.242424,-282.86896 L29.09091,-277.20923 L33.939392,-269.71585 L38.78788,-261.04556 L43.636364,-251.66801 L48.484848,-241.9274 L53.333332,-232.07973 L58.18182,-222.31654 L63.030304,-212.78102 L67.878784,-203.57936 L72.72727,-194.78899 L77.57576,-186.4648 L82.42424,-178.6439 L87.27273,-171.34926 L92.121216,-164.59259 L96.969696,-158.37672 L101.818184,-152.69745 L106.666664,-147.54497 L111.51515,-142.90523 L116.36364,-138.76085 L121.21212,-135.09198 L126.06061,-131.87698 L130.90909,-129.09299 L135.75757,-126.716354 L140.60606,-124.723015 L145.45454,-123.08885 L150.30302,-121.789894 L155.15152,-120.80252 L160,-120.10365 L164.84848,-119.670845 L169.69698,-119.482414 L174.54546,-119.5175 L179.39394,-119.7561 L184.24243,-120.17916 L189.09091,-120.768524 L193.93939,-121.50702 L198.78787,-122.378395 L203.63637,-123.367355 L208.48485,-124.459526 L213.33333,-125.641464 L218.18182,-126.90058 L223.0303,-128.22517 L227.87878,-129.60434 L232.72728,-131.02803 L237.57576,-132.48688 L242.42424,-133.97234 L247.27272,-135.4765 L252.12122,-136.99216 L256.9697,-138.51271 L261.81818,-140.03217 L266.66666,-141.54507 L271.51514,-143.04654 L276.36365,-144.53218 L281.21213,-145.99802 L286.0606,-147.4406 L290.9091,-148.8568 L295.75757,-150.24393 L300.60605,-151.59962 L305.45456,-152.92188 L310.30304,-154.20897 L315.15152,-155.45946 L320,-156.67216 L324.84848,-157.84618 L329.69696,-158.98077 L334.54544,-160.07544 L339.39395,-161.12985 L344.24243,-162.14386 L349.0909,-163.11745 L353.9394,-164.05077 L358.78787,-164.94406 L363.63635,-165.7977 L368.48486,-166.61215 L373.33334,-167.388 L378.18182,-168.12584 L383.0303,-168.8264 L387.87878,-169.49046 L392.72726,-170.1188 L397.57574,-170.71233 L402.42426,-171.2719 L407.27274,-171.79846 L412.12122,-172.29297 L416.9697,-172.7564 L421.81818,-173.18973 L426.66666,-173.59395 L431.51514,-173.97008 L436.36365,-174.31909 L441.21213,-174.64203 L446.0606,-174.93985 L450.9091,-175.21356 L455.75757,-175.46414 L460.60605,-175.69255 L465.45456,-175.89973 L470.30304,-176.08664 L475.15152,-176.2542 L480,-176.40326" fill="none" stroke="blue" stroke-linejoin="round" stroke-width="2"/>
</g>
<g>
<circle cx="0" cy="-170" fill="blue" r="1"/>
<circle cx="4.848484848484849" cy="-254.75439183176638" fill="blue" r="1"/>
<circle cx="9.696969696969697" cy="-275.9847256211603" fill="blue" r="1"/>
<circle cx="14.545454545454547" cy="-284.3209188342228" fill="blue" r="1"/>
<circle cx="19.393939393939394" cy="-285.7376560015828" fill="blue" r="1"/>
<circle cx="24.242424242424242" cy="-282.8689550711266" fill="blue" r="1"/>
<circle cx="29.090909090909093" cy="-277.20923223341623" fill="blue" r="1"/>
<circle cx="33.93939393939394" cy="-269.71584197457804" fill="blue" r="1"/>
<circle cx="38.78787878787879" cy="-261.0455772979045" fill="blue" r="1"/>
<circle cx="43.63636363636364" cy="-251.66801245149506" fill="blue" r="1"/>
<circle cx="48.484848484848484" cy="-241.92739568135485" fill="blue" r="1"/>
<circle cx="53.333333333333336" cy="-232.07972495510026" fill="blue" r="1"/>
<circle cx="58.18181818181819" cy="-222.3165414140578" fill="blue" r="1"/>
<circle cx="63.030303030303024" cy="-212.7810277758845" fill="blue" r="1"/>
<circle cx="67.87878787878788" cy="-203.57936080372156" fill="blue" r="1"/>
<circle cx="72.72727272727272" cy="-194.78898469850336" fill="blue" r="1"/>
<circle cx="77.57575757575758" cy="-186.46480176257094" fill="blue" r="1"/>
<circle cx="82.42424242424242" cy="-178.64390438777232" fill="blue" r="1"/>
<circle cx="87.27272727272728" cy="-171.34925504865737" fill="blue" r="1"/>
<circle cx="92.12121212121211" cy="-164.59258850793296" fill="blue" r="1"/>
<circle cx="96.96969696969697" cy="-158.3767266640892" fill="blue" r="1"/>
<circle cx="101.81818181818181" cy="-152.69744174863607" fill="blue" r="1"/>
<circle cx="106.66666666666667" cy="-147.54496680236437" fill="blue" r="1"/>
<circle cx="111.5151515151515" cy="-142.90522700781028" fill="blue" r="1"/>
<circle cx="116.36363636363637" cy="-138.76084757840417" fill="blue" r="1"/>
<circle cx="121.2121212121212" cy="-135.09198103982365" fill="blue" r="1"/>
<circle cx="126.06060606060605" cy="-131.87698730888147" fill="blue" r="1"/>
<circle cx="130.9090909090909" cy="-129.09299294664217" fill="blue" r="1"/>
<circle cx="135.75757575757575" cy="-126.71635064388484" fill="blue" r="1"/>
<circle cx="140.6060606060606" cy="-124.72301591663728" fill="blue" r="1"/>
<circle cx="145.45454545454544" cy="-123.08885481952387" fill="blue" r="1"/>
<circle cx="150.3030303030303" cy="-121.78989399363111" fill="blue" r="1"/>
<circle cx="155.15151515151516" cy="-120.80252238755435" fill="blue" r="1"/>
<circle cx="160" cy="-120.10365240458559" fill="blue" r="1"/>
<circle cx="164.84848484848484" cy="-119.6708469467423" fill="blue" r="1"/>
<circle cx="169.6969696969697" cy="-119.48241778122542" fill="blue" r="1"/>
<circle cx="174.54545454545456" cy="-119.51749979692376" fill="blue" r="1"/>
<circle cx="179.3939393939394" cy="-119.75610500962159" fill="blue" r="1"/>
<circle cx="184.24242424242422" cy="-120.17915958524775" fill="blue" r="1"/>
<circle cx="189.0909090909091" cy="-120.76852665799969" fill="blue" r="1"/>
<circle cx="193.93939393939394" cy="-121.5070173065741" fill="blue" r="1"/>
<circle cx="198.78787878787878" cy="-122.37839170287135" fill="blue" r="1"/>
<circle cx="203.63636363636363" cy="-123.36735215212303" fill="blue" r="1"/>
<circle cx="208.4848484848485" cy="-124.45952949235038" fill="blue" r="1"/>
<circle cx="213.33333333333334" cy="-125.64146410706313" fill="blue" r="1"/>
<circle cx="218.18181818181816" cy="-126.90058262217936" fill="blue" r="1"/>
<circle cx="223.030303030303" cy="-128.22517120140296" fill="blue" r="1"/>
<circle cx="227.8787878787879" cy="-129.60434621970046" fill="blue" r="1"/>
<circle cx="232.72727272727275" cy="-131.02802297874345" fill="blue" r="1"/>
<circle cx="237.5757575757576" cy="-132.48688302844104" fill="blue" r="1"/>
<circle cx="242.4242424242424" cy="-133.97234057265993" fill="blue" r="1"/>
<circle cx="247.27272727272725" cy="-135.4765083629613" fill="blue" r="1"/>
<circle cx="252.1212121212121" cy="-136.99216342002578" fill="blue" r="1"/>
<circle cx="256.969696969697" cy="-138.51271286699497" fill="blue" r="1"/>
<circle cx="261.81818181818187" cy="-140.03216011104047" fill="blue" r="1"/>
<circle cx="266.66666666666663" cy="-141.5450715680678" fill="blue" r="1"/>
<circle cx="271.5151515151515" cy="-143.0465440897044" fill="blue" r="1"/>
<circle cx="276.3636363636364" cy="-144.5321732208622" fill="blue" r="1"/>
<circle cx="281.21212121212125" cy="-145.9980223895693" fill="blue" r="1"/>
<circle cx="286.06060606060606" cy="-147.44059310787114" fill="blue" r="1"/>
<circle cx="290.9090909090909" cy="-148.85679624293937" fill="blue" r="1"/>
<circle cx="295.75757575757575" cy="-150.24392440067243" fill="blue" r="1"/>
<circle cx="300.6060606060606" cy="-151.59962544967416" fill="blue" r="1"/>
<circle cx="305.45454545454544" cy="-152.92187720123306" fill="blue" r="1"/>
<circle cx="310.3030303030303" cy="-154.2089632505278" fill="blue" r="1"/>
<circle cx="315.1515151515151" cy="-155.45944997551396" fill="blue" r="1"/>
<circle cx="319.99999999999994" cy="-156.67216468259247" fill="blue" r="1"/>
<circle cx="324.8484848484849" cy="-157.8461748820404" fill="blue" r="1"/>
<circle cx="329.6969696969697" cy="-158.98076867114128" fill="blue" r="1"/>
<circle cx="334.54545454545456" cy="-160.075436198842" fill="blue" r="1"/>
<circle cx="339.3939393939394" cy="-161.12985218246482" fill="blue" r="1"/>
<circle cx="344.2424242424242" cy="-162.14385944440963" fill="blue" r="1"/>
<circle cx="349.0909090909091" cy="-163.11745343479632" fill="blue" r="1"/>
<circle cx="353.93939393939394" cy="-164.05076770453653" fill="blue" r="1"/>
<circle cx="358.7878787878788" cy="-164.94406029231968" fill="blue" r="1"/>
<circle cx="363.6363636363636" cy="-165.7977009883776" fill="blue" r="1"/>
<circle cx="368.48484848484844" cy="-166.6121594376075" fill="blue" r="1"/>
<circle cx="373.33333333333337" cy="-167.38799404462898" fill="blue" r="1"/>
<circle cx="378.1818181818182" cy="-168.12584164358628" fill="blue" r="1"/>
<circle cx="383.030303030303" cy="-168.82640789594322" fill="blue" r="1"/>
<circle cx="387.8787878787879" cy="-169.49045838012333" fill="blue" r="1"/>
<circle cx="392.7272727272727" cy="-170.11881033758917" fill="blue" r="1"/>
<circle cx="397.5757575757576" cy="-170.7123250408109" fill="blue" r="1"/>
<circle cx="402.42424242424244" cy="-171.27190074952034" fill="blue" r="1"/>
<circle cx="407.27272727272725" cy="-171.79846622266325" fill="blue" r="1"/>
<circle cx="412.1212121212122" cy="-172.29297475453518" fill="blue" r="1"/>
<circle cx="416.969696969697" cy="-172.7563987046957" fill="blue" r="1"/>
<circle cx="421.8181818181818" cy="-173.18972449239644" fill="blue" r="1"/>
<circle cx="426.6666666666667" cy="-173.59394802741065" fill="blue" r="1"/>
<circle cx="431.5151515151515" cy="-173.9700705503134" fill="blue" r="1"/>
<circle cx="436.3636363636364" cy="-174.31909485642313" fill="blue" r="1"/>
<circle cx="441.2121212121212" cy="-174.64202187876415" fill="blue" r="1"/>
<circle cx="446.060606060606" cy="-174.93984760655133" fill="blue" r="1"/>
<circle cx="450.9090909090909" cy="-175.21356031681375" fill="blue" r="1"/>
<circle cx="455.7575757575758" cy="-175.4641380978752" fill="blue" r="1"/>
<circle cx="460.6060606060606" cy="-175.69254664447715" fill="blue" r="1"/>
<circle cx="465.4545454545455" cy="-175.89973730537497" fill="blue" r="1"/>
<circle cx="470.3030303030303" cy="-176.08664536524893" fill="blue" r="1"/>
<circle cx="475.1515151515152" cy="-176.25418854375246" fill="blue" r="1"/>
<circle cx="480" cy="-176.40326569546698" fill="blue" r="1"/>
</g>
</g>
<g>
<g>
<path d="M0,-170 L0,-170 L4.848485,-265.45612 L9.69697,-284.8205 L14.545455,-288.60696 L19.39394,-284.35193 L24.242424,-275.43997 L29.09091,-263.79718 L33.939392,-250.6454 L38.78788,-236.80505 L43.636364,-222.84357 L48.484848,-209.15805 L53.333332,-196.02583 L58.18182,-183.6373 L63.030304,-172.11852 L67.878784,-161.54729 L72.72727,-151.96495 L77.57576,-143.38515 L82.42424,-135.80063 L87.27273,-129.18845 L92.121216,-123.51401 L96.969696,-118.734314 L101.818184,-114.800446 L106.666664,-111.65962 L111.51515,-109.256744 L116.36364,-107.53568 L121.21212,-106.440285 L126.06061,-105.91509 L130.90909,-105.906 L135.75757,-106.36068 L140.60606,-107.22894 L145.45454,-108.46296 L150.30302,-110.01744 L155.15152,-111.84974 L160,-113.919914 L164.84848,-116.19073 L169.69698,-118.62763 L174.54546,-121.1987 L179.39394,-123.87459 L184.24243,-126.628456 L189.09091,-129.43582 L193.93939,-132.27449 L198.78787,-135.12447 L203.63637,-137.96777 L208.48485,-140.78842 L213.33333,-143.57219 L218.18182,-146.30661 L223.0303,-148.9808 L227.87878,-151.58533 L232.72728,-154.11217 L237.57576,-156.55455 L242.42424,-158.90685 L247.27272,-161.16455 L252.12122,-163.3241 L256.9697,-165.38283 L261.81818,-167.33887 L266.66666,-169.19113 L271.51514,-170.93912 L276.36365,-172.58298 L281.21213,-174.12334 L286.0606,-175.56136 L290.9091,-176.89853 L295.75757,-178.13675 L300.60605,-179.27823 L305.45456,-180.32542 L310.30304,-181.28102 L315.15152,-182.14792 L320,-182.92914 L324.84848,-183.62785 L329.69696,-184.2473 L334.54544,-184.7908 L339.39395,-185.26176 L344.24243,-185.66354 L349.0909,-185.99956 L353.9394,-186.27321 L358.78787,-186.48784 L363.63635,-186.64679 L368.48486,-186.75334 L373.33334,-186.8107 L378.18182,-186.82202 L383.0303,-186.79037 L387.87878,-186.71875 L392.72726,-186.61005 L397.57574,-186.46706 L402.42426,-186.29251 L407.27274,-186.089 L412.12122,-185.85905 L416.9697,-185.60507 L421.81818,-185.32936 L426.66666,-185.03412 L431.51514,-184.72145 L436.36365,-184.39337 L441.21213,-184.05176 L446.0606,-183.69841 L450.9091,-183.33504 L455.75757,-182.96326 L460.60605,-182.58455 L465.45456,-182.20038 L470.30304,-181.81204 L475.15152,-181.4208 L480,-181.02785" fill="none" stroke="green" stroke-linejoin="round" stroke-width="2"/>
</g>
<g>
<circle cx="0" cy="-170" fill="green" r="1"/>
<circle cx="4.848484848484849" cy="-265.45613027365397" fill="green" r="1"/>
<circle cx="9.696969696969697" cy="-284.8204807123905" fill="green" r="1"/>
<circle cx="14.545454545454547" cy="-288.6069697472091" fill="green" r="1"/>
<circle cx="19.393939393939394" cy="-284.3519210702415" fill="green" r="1"/>
<circle cx="24.242424242424242" cy="-275.4399764111714" fill="green" r="1"/>
<circle cx="29.090909090909093" cy="-263.79719289277847" fill="green" r="1"/>
<circle cx="33.93939393939394" cy="-250.6454016467228" fill="green" r="1"/>
<circle cx="38.78787878787879" cy="-236.80504919836628" fill="green" r="1"/>
<circle cx="43.63636363636364" cy="-222.84356150537803" fill="green" r="1"/>
<circle cx="48.484848484848484" cy="-209.15805815926947" fill="green" r="1"/>
<circle cx="53.333333333333336" cy="-196.0258373919307" fill="green" r="1"/>
<circle cx="58.18181818181819" cy="-183.6373001114359" fill="green" r="1"/>
<circle cx="63.030303030303024" cy="-172.11851649709794" fill="green" r="1"/>
<circle cx="67.87878787878788" cy="-161.54729204307256" fill="green" r="1"/>
<circle cx="72.72727272727272" cy="-151.96494530289598" fill="green" r="1"/>
<circle cx="77.57575757575758" cy="-143.3851397571281" fill="green" r="1"/>
<circle cx="82.42424242424242" cy="-135.80062354567096" fill="green" r="1"/>
<circle cx="87.27272727272728" cy="-129.18844198783347" fill="green" r="1"/>
<circle cx="92.12121212121211" cy="-123.51400957583404" fill="green" r="1"/>
<circle cx="96.96969696969697" cy="-118.73431394593102" fill="green" r="1"/>
<circle cx="101.81818181818181" cy="-114.80044876000471" fill="green" r="1"/>
<circle cx="106.66666666666667" cy="-111.65962095649326" fill="green" r="1"/>
<circle cx="111.5151515151515" cy="-109.25674186606456" fill="green" r="1"/>
<circle cx="116.36363636363637" cy="-107.53568598533506" fill="green" r="1"/>
<circle cx="121.2121212121212" cy="-106.44028245826723" fill="green" r="1"/>
<circle cx="126.06060606060605" cy="-105.91509039604557" fill="green" r="1"/>
<circle cx="130.9090909090909" cy="-105.90599866115299" fill="green" r="1"/>
<circle cx="135.75757575757575" cy="-106.3606826965008" fill="green" r="1"/>
<circle cx="140.6060606060606" cy="-107.22894473862834" fill="green" r="1"/>
<circle cx="145.45454545454544" cy="-108.46295885403175" fill="green" r="1"/>
<circle cx="150.3030303030303" cy="-110.01743835054947" fill="green" r="1"/>
<circle cx="155.15151515151516" cy="-111.84974000301402" fill="green" r="1"/>
<circle cx="160" cy="-113.9199170188291" fill="green" r="1"/>
<circle cx="164.84848484848484" cy="-116.1907306242387" fill="green" r="1"/>
<circle cx="169.6969696969697" cy="-118.62762847740349" fill="green" r="1"/>
<circle cx="174.54545454545456" cy="-121.19869673492808" fill="green" r="1"/>
<circle cx="179.3939393939394" cy="-123.87459145631892" fill="green" r="1"/>
<circle cx="184.24242424242422" cy="-126.62845408093749" fill="green" r="1"/>
<circle cx="189.0909090909091" cy="-129.43581491892587" fill="green" r="1"/>
<circle cx="193.93939393939394" cy="-132.27448793325166" fill="green" r="1"/>
<circle cx="198.78787878787878" cy="-135.12445953199324" fill="green" r="1"/>
<circle cx="203.63636363636363" cy="-137.96777362020657" fill="green" r="1"/>
<circle cx="208.4848484848485" cy="-140.7884147645166" fill="green" r="1"/>
<circle cx="213.33333333333334" cy="-143.57219098900399" fill="green" r="1"/>
<circle cx="218.18181818181816" cy="-146.30661743818692" fill="green" r="1"/>
<circle cx="223.030303030303" cy="-148.9808019038213" fill="green" r="1"/>
<circle cx="227.8787878787879" cy="-151.5853330101221" fill="green" r="1"/>
<circle cx="232.72727272727275" cy="-154.1121716812407" fill="green" r="1"/>
<circle cx="237.5757575757576" cy="-156.5545463707026" fill="green" r="1"/>
<circle cx="242.4242424242424" cy="-158.906852411073" fill="green" r="1"/>
<circle cx="247.27272727272725" cy="-161.16455574002973" fill="green" r="1"/>
<circle cx="252.1212121212121" cy="-163.32410117345955" fill="green" r="1"/>
<circle cx="256.969696969697" cy="-165.3828253247507" fill="green" r="1"/>
<circle cx="261.81818181818187" cy="-167.3388742100905" fill="green" r="1"/>
<circle cx="266.66666666666663" cy="-169.19112553053836" fill="green" r="1"/>
<circle cx="271.5151515151515" cy="-170.93911558144407" fill="green" r="1"/>
<circle cx="276.3636363636364" cy="-172.58297070712857" fill="green" r="1"/>
<circle cx="281.21212121212125" cy="-174.12334319254865" fill="green" r="1"/>
<circle cx="286.06060606060606" cy="-175.5613514629696" fill="green" r="1"/>
<circle cx="290.9090909090909" cy="-176.89852444666653" fill="green" r="1"/>
<circle cx="295.75757575757575" cy="-178.13674994365377" fill="green" r="1"/>
<circle cx="300.6060606060606" cy="-179.2782268348046" fill="green" r="1"/>
<circle cx="305.45454545454544" cy="-180.32542095993745" fill="green" r="1"/>
<circle cx="310.3030303030303" cy="-181.2810244900702" fill="green" r="1"/>
<circle cx="315.1515151515151" cy="-182.14791861767802" fill="green" r="1"/>
<circle cx="319.99999999999994" cy="-182.929139389109" fill="green" r="1"/>
<circle cx="324.8484848484849" cy="-183.62784650501422" fill="green" r="1"/>
<circle cx="329.6969696969697" cy="-184.24729491749147" fill="green" r="1"/>
<circle cx="334.54545454545456" cy="-184.79080905640842" fill="green" r="1"/>
<circle cx="339.3939393939394" cy="-185.26175952187194" fill="green" r="1"/>
<circle cx="344.2424242424242" cy="-185.66354208489307" fill="green" r="1"/>
<circle cx="349.0909090909091" cy="-185.99955884381916" fill="green" r="1"/>
<circle cx="353.93939393939394" cy="-186.27320138995535" fill="green" r="1"/>
<circle cx="358.7878787878788" cy="-186.48783584187223" fill="green" r="1"/>
<circle cx="363.6363636363636" cy="-186.64678961411542" fill="green" r="1"/>
<circle cx="368.48484848484844" cy="-186.7533397923221" fill="green" r="1"/>
<circle cx="373.33333333333337" cy="-186.81070299305097" fill="green" r="1"/>
<circle cx="378.1818181818182" cy="-186.82202659289388" fill="green" r="1"/>
<circle cx="383.030303030303" cy="-186.79038121762116" fill="green" r="1"/>
<circle cx="387.8787878787879" cy="-186.71875438817975" fill="green" r="1"/>
<circle cx="392.7272727272727" cy="-186.61004522629256" fill="green" r="1"/>
<circle cx="397.5757575757576" cy="-186.46706012816796" fill="green" r="1"/>
<circle cx="402.42424242424244" cy="-186.29250932041438" fill="green" r="1"/>
<circle cx="407.27272727272725" cy="-186.08900421764102" fill="green" r="1"/>
<circle cx="412.1212121212122" cy="-185.85905550641098" fill="green" r="1"/>
<circle cx="416.969696969697" cy="-185.60507188518898" fill="green" r="1"/>
<circle cx="421.8181818181818" cy="-185.32935939468473" fill="green" r="1"/>
<circle cx="426.6666666666667" cy="-185.03412127753734" fill="green" r="1"/>
<circle cx="431.5151515151515" cy="-184.72145831061528" fill="green" r="1"/>
<circle cx="436.3636363636364" cy="-184.39336955731778" fill="green" r="1"/>
<circle cx="441.2121212121212" cy="-184.05175349116726" fill="green" r="1"/>
<circle cx="446.060606060606" cy="-183.69840944567474" fill="green" r="1"/>
<circle cx="450.9090909090909" cy="-183.33503934895134" fill="green" r="1"/>
<circle cx="455.7575757575758" cy="-182.96324970483292" fill="green" r="1"/>
<circle cx="460.6060606060606" cy="-182.5845537853847" fill="green" r="1"/>
<circle cx="465.4545454545455" cy="-182.2003740025716" fill="green" r="1"/>
<circle cx="470.3030303030303" cy="-181.81204442961567" fill="green" r="1"/>
<circle cx="475.1515151515152" cy="-181.42081344513088" fill="green" r="1"/>
<circle cx="480" cy="-181.02784647552645" fill="green" r="1"/>
</g>
</g>
<g>
<g>
<path d="M0,-170 L0,-170 L4.848485,-273.6149 L9.69697,-289.65225 L14.545455,-287.86456 L19.39394,-277.36404 L24.242424,-262.28305 L29.09091,-244.95581 L33.939392,-226.83101 L38.78788,-208.8466 L43.636364,-191.61722 L48.484848,-175.5407 L53.333332,-160.86398 L58.18182,-147.7267 L63.030304,-136.19109 L67.878784,-126.2634 L72.72727,-117.90964 L77.57576,-111.06718 L82.42424,-105.65353 L87.27273,-101.57308 L92.121216,-98.7222 L96.969696,-96.99308 L101.818184,-96.276825 L106.666664,-96.46561 L111.51515,-97.45441 L116.36364,-99.14225 L121.21212,-101.43309 L126.06061,-104.236404 L130.90909,-107.467606 L135.75757,-111.048225 L140.60606,-114.90598 L145.45454,-118.974785 L150.30302,-123.194565 L155.15152,-127.51111 L160,-131.87585 L164.84848,-136.24557 L169.69698,-140.58212 L174.54546,-144.85216 L179.39394,-149.02675 L184.24243,-153.08116 L189.09091,-156.99448 L193.93939,-160.74931 L198.78787,-164.33153 L203.63637,-167.72993 L208.48485,-170.93602 L213.33333,-173.9437 L218.18182,-176.74905 L223.0303,-179.3501 L227.87878,-181.7466 L232.72728,-183.93979 L237.57576,-185.93228 L242.42424,-187.7278 L247.27272,-189.33109 L252.12122,-190.74771 L256.9697,-191.98395 L261.81818,-193.04665 L266.66666,-193.94315 L271.51514,-194.68109 L276.36365,-195.26846 L281.21213,-195.71338 L286.0606,-196.0241 L290.9091,-196.20888 L295.75757,-196.27603 L300.60605,-196.23375 L305.45456,-196.09012 L310.30304,-195.8531 L315.15152,-195.53044 L320,-195.12971 L324.84848,-194.6582 L329.69696,-194.12299 L334.54544,-193.53082 L339.39395,-192.88824 L344.24243,-192.20145 L349.0909,-191.47635 L353.9394,-190.71854 L358.78787,-189.93333 L363.63635,-189.12573 L368.48486,-188.30043 L373.33334,-187.46184 L378.18182,-186.61404 L383.0303,-185.76088 L387.87878,-184.90588 L392.72726,-184.05232 L397.57574,-183.20323 L402.42426,-182.36133 L407.27274,-181.52913 L412.12122,-180.70892 L416.9697,-179.90276 L421.81818,-179.11247 L426.66666,-178.33969 L431.51514,-177.58588 L436.36365,-176.85226 L441.21213,-176.13994 L446.0606,-175.44986 L450.9091,-174.78276 L455.75757,-174.1393 L460.60605,-173.51996 L465.45456,-172.9251 L470.30304,-172.355 L475.15152,-171.8098 L480,-171.28955" fill="none" stroke="purple" stroke-linejoin="round" stroke-width="2"/>
</g>
<g>
<circle cx="0" cy="-170" fill="purple" r="1"/>
<circle cx="4.848484848484849" cy="-273.61489724018367" fill="purple" r="1"/>
<circle cx="9.696969696969697" cy="-289.6522593285202" fill="purple" r="1"/>
<circle cx="14.545454545454547" cy="-287.8645760480718" fill="purple" r="1"/>
<circle cx="19.393939393939394" cy="-277.3640534563157" fill="purple" r="1"/>
<circle cx="24.242424242424242" cy="-262.28305591633864" fill="purple" r="1"/>
<circle cx="29.090909090909093" cy="-244.95581052329783" fill="purple" r="1"/>
<circle cx="33.93939393939394" cy="-226.8310162143058" fill="purple" r="1"/>
<circle cx="38.78787878787879" cy="-208.8466023437586" fill="purple" r="1"/>
<circle cx="43.63636363636364" cy="-191.61721675646004" fill="purple" r="1"/>
<circle cx="48.484848484848484" cy="-175.54068856491074" fill="purple" r="1"/>
<circle cx="53.333333333333336" cy="-160.86398613638917" fill="purple" r="1"/>
<circle cx="58.18181818181819" cy="-147.72670637899992" fill="purple" r="1"/>
<circle cx="63.030303030303024" cy="-136.1910828344441" fill="purple" r="1"/>
<circle cx="67.87878787878788" cy="-126.26339742544639" fill="purple" r="1"/>
<circle cx="72.72727272727272" cy="-117.90964088800918" fill="purple" r="1"/>
<circle cx="77.57575757575758" cy="-111.06717494537004" fill="purple" r="1"/>
<circle cx="82.42424242424242" cy="-105.6535280578675" fill="purple" r="1"/>
<circle cx="87.27272727272728" cy="-101.57308465328676" fill="purple" r="1"/>
<circle cx="92.12121212121211" cy="-98.722195157459" fill="purple" r="1"/>
<circle cx="96.96969696969697" cy="-96.9930831342267" fill="purple" r="1"/>
<circle cx="101.81818181818181" cy="-96.27682454192073" fill="purple" r="1"/>
<circle cx="106.66666666666667" cy="-96.46560418677456" fill="purple" r="1"/>
<circle cx="111.5151515151515" cy="-97.45440495643753" fill="purple" r="1"/>
<circle cx="116.36363636363637" cy="-99.14224959584352" fill="purple" r="1"/>
<circle cx="121.2121212121212" cy="-101.43308835273008" fill="purple" r="1"/>
<circle cx="126.06060606060605" cy="-104.23640597234966" fill="purple" r="1"/>
<circle cx="130.9090909090909" cy="-107.46760639050235" fill="purple" r="1"/>
<circle cx="135.75757575757575" cy="-111.0482217841809" fill="purple" r="1"/>
<circle cx="140.6060606060606" cy="-114.90598350054448" fill="purple" r="1"/>
<circle cx="145.45454545454544" cy="-118.97478516678989" fill="purple" r="1"/>
<circle cx="150.3030303030303" cy="-123.19456253069352" fill="purple" r="1"/>
<circle cx="155.15151515151516" cy="-127.51110996077797" fill="purple" r="1"/>
<circle cx="160" cy="-131.87584979844675" fill="purple" r="1"/>
<circle cx="164.84848484848484" cy="-136.24556771548092" fill="purple" r="1"/>
<circle cx="169.6969696969697" cy="-140.58212474679766" fill="purple" r="1"/>
<circle cx="174.54545454545456" cy="-144.85215463071455" fill="purple" r="1"/>
<circle cx="179.3939393939394" cy="-149.0267534117776" fill="purple" r="1"/>
<circle cx="184.24242424242422" cy="-153.0811668773475" fill="purple" r="1"/>
<circle cx="189.0909090909091" cy="-156.99448025534096" fill="purple" r="1"/>
<circle cx="193.93939393939394" cy="-160.7493136541947" fill="purple" r="1"/>
<circle cx="198.78787878787878" cy="-164.3315259429329" fill="purple" r="1"/>
<circle cx="203.63636363636363" cy="-167.72992912133677" fill="purple" r="1"/>
<circle cx="208.4848484848485" cy="-170.93601469490685" fill="purple" r="1"/>
<circle cx="213.33333333333334" cy="-173.94369312792227" fill="purple" r="1"/>
<circle cx="218.18181818181816" cy="-176.7490470850419" fill="purple" r="1"/>
<circle cx="223.030303030303" cy="-179.35009887480376" fill="purple" r="1"/>
<circle cx="227.8787878787879" cy="-181.7465922664413" fill="purple" r="1"/>
<circle cx="232.72727272727275" cy="-183.93978865577992" fill="purple" r="1"/>
<circle cx="237.5757575757576" cy="-185.932277399166" fill="purple" r="1"/>
<circle cx="242.4242424242424" cy="-187.72780001016864" fill="purple" r="1"/>
<circle cx="247.27272727272725" cy="-189.3310878169152" fill="purple" r="1"/>
<circle cx="252.1212121212121" cy="-190.74771260392754" fill="purple" r="1"/>
<circle cx="256.969696969697" cy="-191.9839497074614" fill="purple" r="1"/>
<circle cx="261.81818181818187" cy="-193.04665299442482" fill="purple" r="1"/>
<circle cx="266.66666666666663" cy="-193.94314112927069" fill="purple" r="1"/>
<circle cx="271.5151515151515" cy="-194.68109451852345" fill="purple" r="1"/>
<circle cx="276.3636363636364" cy="-195.26846231687514" fill="purple" r="1"/>
<circle cx="281.21212121212125" cy="-195.71337888041035" fill="purple" r="1"/>
<circle cx="286.06060606060606" cy="-196.0240890601049" fill="purple" r="1"/>
<circle cx="290.9090909090909" cy="-196.2088817410895" fill="purple" r="1"/>
<circle cx="295.75757575757575" cy="-196.27603104928164" fill="purple" r="1"/>
<circle cx="300.6060606060606" cy="-196.2337446660123" fill="purple" r="1"/>
<circle cx="305.45454545454544" cy="-196.0901187124899" fill="purple" r="1"/>
<circle cx="310.3030303030303" cy="-195.85309868875447" fill="purple" r="1"/>
<circle cx="315.1515151515151" cy="-195.53044597566915" fill="purple" r="1"/>
<circle cx="319.99999999999994" cy="-195.12970943305348" fill="purple" r="1"/>
<circle cx="324.8484848484849" cy="-194.6582016519351" fill="purple" r="1"/>
<circle cx="329.6969696969697" cy="-194.12297944378756" fill="purple" r="1"/>
<circle cx="334.54545454545456" cy="-193.530828174302" fill="purple" r="1"/>
<circle cx="339.3939393939394" cy="-192.88824957351184" fill="purple" r="1"/>
<circle cx="344.2424242424242" cy="-192.20145267779833" fill="purple" r="1"/>
<circle cx="349.0909090909091" cy="-191.47634758233312" fill="purple" r="1"/>
<circle cx="353.93939393939394" cy="-190.71854170476323" fill="purple" r="1"/>
<circle cx="358.7878787878788" cy="-189.93333828234506" fill="purple" r="1"/>
<circle cx="363.6363636363636" cy="-189.12573684523883" fill="purple" r="1"/>
<circle cx="368.48484848484844" cy="-188.3004354282469" fill="purple" r="1"/>
<circle cx="373.33333333333337" cy="-187.46183430189842" fill="purple" r="1"/>
<circle cx="378.1818181818182" cy="-186.6140410214456" fill="purple" r="1"/>
<circle cx="383.030303030303" cy="-185.76087660903792" fill="purple" r="1"/>
<circle cx="387.8787878787879" cy="-184.90588270009803" fill="purple" r="1"/>
<circle cx="392.7272727272727" cy="-184.05232949974518" fill="purple" r="1"/>
<circle cx="397.5757575757576" cy="-183.20322440902746" fill="purple" r="1"/>
<circle cx="402.42424242424244" cy="-182.36132119375486" fill="purple" r="1"/>
<circle cx="407.27272727272725" cy="-181.52912958090005" fill="purple" r="1"/>
<circle cx="412.1212121212122" cy="-180.7089251788865" fill="purple" r="1"/>
<circle cx="416.969696969697" cy="-179.90275962864777" fill="purple" r="1"/>
<circle cx="421.8181818181818" cy="-179.11247090214692" fill="purple" r="1"/>
<circle cx="426.6666666666667" cy="-178.3396936741345" fill="purple" r="1"/>
<circle cx="431.5151515151515" cy="-177.58586970132436" fill="purple" r="1"/>
<circle cx="436.3636363636364" cy="-176.85225815092133" fill="purple" r="1"/>
<circle cx="441.2121212121212" cy="-176.13994582757275" fill="purple" r="1"/>
<circle cx="446.060606060606" cy="-175.44985725437644" fill="purple" r="1"/>
<circle cx="450.9090909090909" cy="-174.78276456959097" fill="purple" r="1"/>
<circle cx="455.7575757575758" cy="-174.13929720619498" fill="purple" r="1"/>
<circle cx="460.6060606060606" cy="-173.51995132646232" fill="purple" r="1"/>
<circle cx="465.4545454545455" cy="-172.92509898828942" fill="purple" r="1"/>
<circle cx="470.3030303030303" cy="-172.35499702415984" fill="purple" r="1"/>
<circle cx="475.1515151515152" cy="-171.80979561738718" fill="purple" r="1"/>
<circle cx="480" cy="-171.28954656367046" fill="purple" r="1"/>
</g>
</g>
<g>
<g>
<path d="M0,-170 L0,-170 L4.848485,-279.91116 L9.69697,-291.58365 L14.545455,-283.62476 L19.39394,-266.73703 L24.242424,-245.78107 L29.09091,-223.4558 L33.939392,-201.37971 L38.78788,-180.54488 L43.636364,-161.54831 L48.484848,-144.72539 L53.333332,-130.23343 L58.18182,-118.106964 L63.030304,-108.295944 L67.878784,-100.69286 L72.72727,-95.15234 L77.57576,-91.5055 L82.42424,-89.57053 L87.27273,-89.16052 L92.121216,-90.08914 L96.969696,-92.17485 L101.818184,-95.24381 L106.666664,-99.131966 L111.51515,-103.686325 L116.36364,-108.76579 L121.21212,-114.24149 L126.06061,-119.99683 L130.90909,-125.927345 L135.75757,-131.94023 L140.60606,-137.95396 L145.45454,-143.89761 L150.30302,-149.71022 L155.15152,-155.34012 L160,-160.74423 L164.84848,-165.88736 L169.69698,-170.74142 L174.54546,-175.28494 L179.39394,-179.50218 L184.24243,-183.3827 L189.09091,-186.92067 L193.93939,-190.1143 L198.78787,-192.96544 L203.63637,-195.47893 L208.48485,-197.66231 L213.33333,-199.5253 L218.18182,-201.07948 L223.0303,-202.33798 L227.87878,-203.31506 L232.72728,-204.02596 L237.57576,-204.48656 L242.42424,-204.71321 L247.27272,-204.72253 L252.12122,-204.53117 L256.9697,-204.15578 L261.81818,-203.61275 L266.66666,-202.91821 L271.51514,-202.08784 L276.36365,-201.1369 L281.21213,-200.08 L286.0606,-198.93124 L290.9091,-197.70403 L295.75757,-196.4111 L300.60605,-195.0645 L305.45456,-193.67554 L310.30304,-192.25485 L315.15152,-190.8123 L320,-189.35709 L324.84848,-187.89764 L329.69696,-186.44177 L334.54544,-184.99657 L339.39395,-183.56848 L344.24243,-182.16331 L349.0909,-180.7863 L353.9394,-179.44203 L358.78787,-178.13463 L363.63635,-176.8676 L368.48486,-175.644 L373.33334,-174.46643 L378.18182,-173.337 L383.0303,-172.25746 L387.87878,-171.22914 L392.72726,-170.25302 L397.57574,-169.32977 L402.42426,-168.45972 L407.27274,-167.64294 L412.12122,-166.87927 L416.9697,-166.16827 L421.81818,-165.50934 L426.66666,-164.90164 L431.51514,-164.34422 L436.36365,-163.83594 L441.21213,-163.37553 L446.0606,-162.96164 L450.9091,-162.59282 L455.75757,-162.2675 L460.60605,-161.98409 L465.45456,-161.74089 L470.30304,-161.53624 L475.15152,-161.36836 L480,-161.23553" fill="none" stroke="darkblue" stroke-linejoin="round" stroke-width="2"/>
</g>
<g>
<circle cx="0" cy="-170" fill="darkblue" r="1"/>
<circle cx="4.848484848484849" cy="-279.91117238642227" fill="darkblue" r="1"/>
<circle cx="9.696969696969697" cy="-291.58364272286485" fill="darkblue" r="1"/>
<circle cx="14.545454545454547" cy="-283.62476789920964" fill="darkblue" r="1"/>
<circle cx="19.393939393939394" cy="-266.7370310499919" fill="darkblue" r="1"/>
<circle cx="24.242424242424242" cy="-245.7810670711741" fill="darkblue" r="1"/>
<circle cx="29.090909090909093" cy="-223.45578999541388" fill="darkblue" r="1"/>
<circle cx="33.93939393939394" cy="-201.37971464331096" fill="darkblue" r="1"/>
<circle cx="38.78787878787879" cy="-180.5448807932978" fill="darkblue" r="1"/>
<circle cx="43.63636363636364" cy="-161.54830495911924" fill="darkblue" r="1"/>
<circle cx="48.484848484848484" cy="-144.72539041838073" fill="darkblue" r="1"/>
<circle cx="53.333333333333336" cy="-130.2334326579141" fill="darkblue" r="1"/>
<circle cx="58.18181818181819" cy="-118.1069651859894" fill="darkblue" r="1"/>
<circle cx="63.030303030303024" cy="-108.29594731737109" fill="darkblue" r="1"/>
<circle cx="67.87878787878788" cy="-100.69286637103487" fill="darkblue" r="1"/>
<circle cx="72.72727272727272" cy="-95.15234556794303" fill="darkblue" r="1"/>
<circle cx="77.57575757575758" cy="-91.50550359331386" fill="darkblue" r="1"/>
<circle cx="82.42424242424242" cy="-89.57053629072577" fill="darkblue" r="1"/>
<circle cx="87.27272727272728" cy="-89.16052038796077" fill="darkblue" r="1"/>
<circle cx="92.12121212121211" cy="-90.08914088807579" fill="darkblue" r="1"/>
<circle cx="96.96969696969697" cy="-92.1748474977884" fill="darkblue" r="1"/>
<circle cx="101.81818181818181" cy="-95.2438120852377" fill="darkblue" r="1"/>
<circle cx="106.66666666666667" cy="-99.13196594141117" fill="darkblue" r="1"/>
<circle cx="111.5151515151515" cy="-103.68632886910586" fill="darkblue" r="1"/>
<circle cx="116.36363636363637" cy="-108.76579330691486" fill="darkblue" r="1"/>
<circle cx="121.2121212121212" cy="-114.24149033635018" fill="darkblue" r="1"/>
<circle cx="126.06060606060605" cy="-119.99683690737601" fill="darkblue" r="1"/>
<circle cx="130.9090909090909" cy="-125.9273425131434" fill="darkblue" r="1"/>
<circle cx="135.75757575757575" cy="-131.94023716554688" fill="darkblue" r="1"/>
<circle cx="140.6060606060606" cy="-137.95396968408932" fill="darkblue" r="1"/>
<circle cx="145.45454545454544" cy="-143.89761516136616" fill="darkblue" r="1"/>
<circle cx="150.3030303030303" cy="-149.71022238927264" fill="darkblue" r="1"/>
<circle cx="155.15151515151516" cy="-155.34012556170597" fill="darkblue" r="1"/>
<circle cx="160" cy="-160.744239367287" fill="darkblue" r="1"/>
<circle cx="164.84848484848484" cy="-165.88735238723174" fill="darkblue" r="1"/>
<circle cx="169.6969696969697" cy="-170.74143031715224" fill="darkblue" r="1"/>
<circle cx="174.54545454545456" cy="-175.28493778029892" fill="darkblue" r="1"/>
<circle cx="179.3939393939394" cy="-179.50218527031896" fill="darkblue" r="1"/>
<circle cx="184.24242424242422" cy="-183.38270595634674" fill="darkblue" r="1"/>
<circle cx="189.0909090909091" cy="-186.92066562419237" fill="darkblue" r="1"/>
<circle cx="193.93939393939394" cy="-190.11430785185368" fill="darkblue" r="1"/>
<circle cx="198.78787878787878" cy="-192.9654355747963" fill="darkblue" r="1"/>
<circle cx="203.63636363636363" cy="-195.4789294451202" fill="darkblue" r="1"/>
<circle cx="208.4848484848485" cy="-197.66230279507627" fill="darkblue" r="1"/>
<circle cx="213.33333333333334" cy="-199.52529255164993" fill="darkblue" r="1"/>
<circle cx="218.18181818181816" cy="-201.0794850921923" fill="darkblue" r="1"/>
<circle cx="223.030303030303" cy="-202.33797576241554" fill="darkblue" r="1"/>
<circle cx="227.8787878787879" cy="-203.31506058174736" fill="darkblue" r="1"/>
<circle cx="232.72727272727275" cy="-204.02595852400222" fill="darkblue" r="1"/>
<circle cx="237.5757575757576" cy="-204.4865626726706" fill="darkblue" r="1"/>
<circle cx="242.4242424242424" cy="-204.7132185007847" fill="darkblue" r="1"/>
<circle cx="247.27272727272725" cy="-204.72252750770122" fill="darkblue" r="1"/>
<circle cx="252.1212121212121" cy="-204.5311744529221" fill="darkblue" r="1"/>
<circle cx="256.969696969697" cy="-204.1557764549772" fill="darkblue" r="1"/>
<circle cx="261.81818181818187" cy="-203.6127522670031" fill="darkblue" r="1"/>
<circle cx="266.66666666666663" cy="-202.91821009631272" fill="darkblue" r="1"/>
<circle cx="271.5151515151515" cy="-202.0878523999019" fill="darkblue" r="1"/>
<circle cx="276.3636363636364" cy="-201.13689615896138" fill="darkblue" r="1"/>
<circle cx="281.21212121212125" cy="-200.08000721096266" fill="darkblue" r="1"/>
<circle cx="286.06060606060606" cy="-198.93124729605003" fill="darkblue" r="1"/>
<circle cx="290.9090909090909" cy="-197.70403255389473" fill="darkblue" r="1"/>
<circle cx="295.75757575757575" cy="-196.41110228670854" fill="darkblue" r="1"/>
<circle cx="300.6060606060606" cy="-195.06449688285923" fill="darkblue" r="1"/>
<circle cx="305.45454545454544" cy="-193.6755438727481" fill="darkblue" r="1"/>
<circle cx="310.3030303030303" cy="-192.25485116372906" fill="darkblue" r="1"/>
<circle cx="315.1515151515151" cy="-190.81230657343193" fill="darkblue" r="1"/>
<circle cx="319.99999999999994" cy="-189.35708285056785" fill="darkblue" r="1"/>
<circle cx="324.8484848484849" cy="-187.89764743891487" fill="darkblue" r="1"/>
<circle cx="329.6969696969697" cy="-186.4417763035393" fill="darkblue" r="1"/>
<circle cx="334.54545454545456" cy="-184.99657119831696" fill="darkblue" r="1"/>
<circle cx="339.3939393939394" cy="-183.56847981043393" fill="darkblue" r="1"/>
<circle cx="344.2424242424242" cy="-182.1633182707698" fill="darkblue" r="1"/>
<circle cx="349.0909090909091" cy="-180.7862955689352" fill="darkblue" r="1"/>
<circle cx="353.93939393939394" cy="-179.4420394583154" fill="darkblue" r="1"/>
<circle cx="358.7878787878788" cy="-178.134623479846" fill="darkblue" r="1"/>
<circle cx="363.6363636363636" cy="-176.8675947735235" fill="darkblue" r="1"/>
<circle cx="368.48484848484844" cy="-175.64400238394524" fill="darkblue" r="1"/>
<circle cx="373.33333333333337" cy="-174.4664258006068" fill="darkblue" r="1"/>
<circle cx="378.1818181818182" cy="-173.3370035053971" fill="darkblue" r="1"/>
<circle cx="383.030303030303" cy="-172.25746132884842" fill="darkblue" r="1"/>
<circle cx="387.8787878787879" cy="-171.22914044337153" fill="darkblue" r="1"/>
<circle cx="392.7272727272727" cy="-170.25302484606104" fill="darkblue" r="1"/>
<circle cx="397.5757575757576" cy="-169.32976820583886" fill="darkblue" r="1"/>
<circle cx="402.42424242424244" cy="-168.4597199698456" fill="darkblue" r="1"/>
<circle cx="407.27272727272725" cy="-167.64295064222097" fill="darkblue" r="1"/>
<circle cx="412.1212121212122" cy="-166.87927616486846" fill="darkblue" r="1"/>
<circle cx="416.969696969697" cy="-166.16828134459186" fill="darkblue" r="1"/>
<circle cx="421.8181818181818" cy="-165.50934228424893" fill="darkblue" r="1"/>
<circle cx="426.6666666666667" cy="-164.9016477873968" fill="darkblue" r="1"/>
<circle cx="431.5151515151515" cy="-164.34421971641842" fill="darkblue" r="1"/>
<circle cx="436.3636363636364" cy="-163.83593229341787" fill="darkblue" r="1"/>
<circle cx="441.2121212121212" cy="-163.37553034135667" fill="darkblue" r="1"/>
<circle cx="446.060606060606" cy="-162.9616464700602" fill="darkblue" r="1"/>
<circle cx="450.9090909090909" cy="-162.59281721794483" fill="darkblue" r="1"/>
<circle cx="455.7575757575758" cy="-162.26749816568014" fill="darkblue" r="1"/>
<circle cx="460.6060606060606" cy="-161.98407804258446" fill="darkblue" r="1"/>
<circle cx="465.4545454545455" cy="-161.74089185042752" fill="darkblue" r="1"/>
<circle cx="470.3030303030303" cy="-161.53623303254753" fill="darkblue" r="1"/>
<circle cx="475.1515151515152" cy="-161.36836471884266" fill="darkblue" r="1"/>
<circle cx="480" cy="-161.23553007932958" fill="darkblue" r="1"/>
</g>
</g>
<g>
<g>
<path d="M0,-170 L0,-170 L4.848485,-284.75757 L9.69697,-291.30722 L14.545455,-276.86896 L19.39394,-253.73845 L24.242424,-227.4648 L29.09091,-201.04765 L33.939392,-176.20038 L38.78788,-153.89154 L43.636364,-134.62541 L48.484848,-118.60553 L53.333332,-105.83752 L58.18182,-96.19726 L63.030304,-89.47753 L67.878784,-85.42072 L72.72727,-83.74195 L77.57576,-84.14562 L82.42424,-86.33706 L87.27273,-90.03074 L92.121216,-94.955864 L96.969696,-100.86001 L101.818184,-107.51136 L106.666664,-114.699844 L111.51515,-122.237434 L116.36364,-129.95792 L121.21212,-137.71622 L126.06061,-145.38734 L130.90909,-152.86528 L135.75757,-160.06157 L140.60606,-166.90398 L145.45454,-173.33505 L150.30302,-179.31071 L155.15152,-184.79884 L160,-189.77797 L164.84848,-194.23601 L169.69698,-198.16902 L174.54546,-201.58015 L179.39394,-204.47856 L184.24243,-206.87845 L189.09091,-208.79823 L193.93939,-210.25972 L198.78787,-211.2874 L203.63637,-211.9078 L208.48485,-212.14896 L213.33333,-212.0398 L218.18182,-211.60985 L223.0303,-210.88876 L227.87878,-209.90596 L232.72728,-208.69041 L237.57576,-207.2704 L242.42424,-205.67325 L247.27272,-203.92522 L252.12122,-202.05136 L256.9697,-200.07544 L261.81818,-198.01982 L266.66666,-195.90544 L271.51514,-193.7518 L276.36365,-191.57687 L281.21213,-189.39723 L286.0606,-187.22794 L290.9091,-185.08266 L295.75757,-182.97366 L300.60605,-180.9119 L305.45456,-178.90697 L310.30304,-176.96732 L315.15152,-175.10014 L320,-173.31157 L324.84848,-171.60667 L329.69696,-169.98956 L334.54544,-168.46338 L339.39395,-167.03046 L344.24243,-165.69237 L349.0909,-164.44994 L353.9394,-163.30331 L358.78787,-162.25212 L363.63635,-161.29536 L368.48486,-160.43163 L373.33334,-159.65906 L378.18182,-158.97542 L383.0303,-158.37816 L387.87878,-157.86443 L392.72726,-157.43115 L397.57574,-157.07506 L402.42426,-156.79271 L407.27274,-156.58055 L412.12122,-156.43494 L416.9697,-156.35214 L421.81818,-156.32841 L426.66666,-156.36 L431.51514,-156.44312 L436.36365,-156.57405 L441.21213,-156.74911 L446.0606,-156.96469 L450.9091,-157.21725 L455.75757,-157.50333 L460.60605,-157.81956 L465.45456,-158.16273 L470.30304,-158.52968 L475.15152,-158.91742 L480,-159.32307" fill="none" stroke="mediumorchid" stroke-linejoin="round" stroke-width="2"/>
</g>
<g>
<circle cx="0" cy="-170" fill="mediumorchid" r="1"/>
<circle cx="4.848484848484849" cy="-284.7575797184" fill="mediumorchid" r="1"/>
<circle cx="9.696969696969697" cy="-291.307214828912" fill="mediumorchid" r="1"/>
<circle cx="14.545454545454547" cy="-276.86896477539887" fill="mediumorchid" r="1"/>
<circle cx="19.393939393939394" cy="-253.73845475160283" fill="mediumorchid" r="1"/>
<circle cx="24.242424242424242" cy="-227.46480511330967" fill="mediumorchid" r="1"/>
<circle cx="29.090909090909093" cy="-201.04765047134788" fill="mediumorchid" r="1"/>
<circle cx="33.93939393939394" cy="-176.20038178485538" fill="mediumorchid" r="1"/>
<circle cx="38.78787878787879" cy="-153.89154305599513" fill="mediumorchid" r="1"/>
<circle cx="43.63636363636364" cy="-134.6254157388963" fill="mediumorchid" r="1"/>
<circle cx="48.484848484848484" cy="-118.60552617308673" fill="mediumorchid" r="1"/>
<circle cx="53.333333333333336" cy="-105.83751487135699" fill="mediumorchid" r="1"/>
<circle cx="58.18181818181819" cy="-96.19725644734694" fill="mediumorchid" r="1"/>
<circle cx="63.030303030303024" cy="-89.47753340377618" fill="mediumorchid" r="1"/>
<circle cx="67.87878787878788" cy="-85.42072023450369" fill="mediumorchid" r="1"/>
<circle cx="72.72727272727272" cy="-83.74195294273808" fill="mediumorchid" r="1"/>
<circle cx="77.57575757575758" cy="-84.14562086829753" fill="mediumorchid" r="1"/>
<circle cx="82.42424242424242" cy="-86.33706052991704" fill="mediumorchid" r="1"/>
<circle cx="87.27272727272728" cy="-90.0307424799027" fill="mediumorchid" r="1"/>
<circle cx="92.12121212121211" cy="-94.9558640630819" fill="mediumorchid" r="1"/>
<circle cx="96.96969696969697" cy="-100.86000902334486" fill="mediumorchid" r="1"/>
<circle cx="101.81818181818181" cy="-107.51136166164532" fill="mediumorchid" r="1"/>
<circle cx="106.66666666666667" cy="-114.69984089401116" fill="mediumorchid" r="1"/>
<circle cx="111.5151515151515" cy="-122.2374311426761" fill="mediumorchid" r="1"/>
<circle cx="116.36363636363637" cy="-129.95792184874742" fill="mediumorchid" r="1"/>
<circle cx="121.2121212121212" cy="-137.71621859903934" fill="mediumorchid" r="1"/>
<circle cx="126.06060606060605" cy="-145.3873517999062" fill="mediumorchid" r="1"/>
<circle cx="130.9090909090909" cy="-152.8652803574257" fill="mediumorchid" r="1"/>
<circle cx="135.75757575757575" cy="-160.0615657378991" fill="mediumorchid" r="1"/>
<circle cx="140.6060606060606" cy="-166.90397452036407" fill="mediumorchid" r="1"/>
<circle cx="145.45454545454544" cy="-173.33505397928175" fill="mediumorchid" r="1"/>
<circle cx="150.3030303030303" cy="-179.31071451496135" fill="mediumorchid" r="1"/>
<circle cx="155.15151515151516" cy="-184.7988442567099" fill="mediumorchid" r="1"/>
<circle cx="160" cy="-189.77797442558867" fill="mediumorchid" r="1"/>
<circle cx="164.84848484848484" cy="-194.2360086968932" fill="mediumorchid" r="1"/>
<circle cx="169.6969696969697" cy="-198.16902556556374" fill="mediumorchid" r="1"/>
<circle cx="174.54545454545456" cy="-201.5801593703576" fill="mediumorchid" r="1"/>
<circle cx="179.3939393939394" cy="-204.4785630009027" fill="mediumorchid" r="1"/>
<circle cx="184.24242424242422" cy="-206.87845325737237" fill="mediumorchid" r="1"/>
<circle cx="189.0909090909091" cy="-208.7982382447682" fill="mediumorchid" r="1"/>
<circle cx="193.93939393939394" cy="-210.25972497349437" fill="mediumorchid" r="1"/>
<circle cx="198.78787878787878" cy="-211.28740443290465" fill="mediumorchid" r="1"/>
<circle cx="203.63636363636363" cy="-211.9078107461721" fill="mediumorchid" r="1"/>
<circle cx="208.4848484848485" cy="-212.1489505553471" fill="mediumorchid" r="1"/>
<circle cx="213.33333333333334" cy="-212.03979848575216" fill="mediumorchid" r="1"/>
<circle cx="218.18181818181816" cy="-211.60985436685584" fill="mediumorchid" r="1"/>
<circle cx="223.030303030303" cy="-210.88875781620177" fill="mediumorchid" r="1"/>
<circle cx="227.8787878787879" cy="-209.90595580224146" fill="mediumorchid" r="1"/>
<circle cx="232.72727272727275" cy="-208.69041887330613" fill="mediumorchid" r="1"/>
<circle cx="237.5757575757576" cy="-207.27040185889777" fill="mediumorchid" r="1"/>
<circle cx="242.4242424242424" cy="-205.6732450040579" fill="mediumorchid" r="1"/>
<circle cx="247.27272727272725" cy="-203.92521167801968" fill="mediumorchid" r="1"/>
<circle cx="252.1212121212121" cy="-202.05135899672314" fill="mediumorchid" r="1"/>
<circle cx="256.969696969697" cy="-200.07543790860245" fill="mediumorchid" r="1"/>
<circle cx="261.81818181818187" cy="-198.01981950913785" fill="mediumorchid" r="1"/>
<circle cx="266.66666666666663" cy="-195.9054445678083" fill="mediumorchid" r="1"/>
<circle cx="271.5151515151515" cy="-193.75179346797935" fill="mediumorchid" r="1"/>
<circle cx="276.3636363636364" cy="-191.5768739732913" fill="mediumorchid" r="1"/>
<circle cx="281.21212121212125" cy="-189.39722444127673" fill="mediumorchid" r="1"/>
<circle cx="286.06060606060606" cy="-187.2279303046988" fill="mediumorchid" r="1"/>
<circle cx="290.9090909090909" cy="-185.0826518323527" fill="mediumorchid" r="1"/>
<circle cx="295.75757575757575" cy="-182.97366136302648" fill="mediumorchid" r="1"/>
<circle cx="300.6060606060606" cy="-180.9118883784599" fill="mediumorchid" r="1"/>
<circle cx="305.45454545454544" cy="-178.9069709431941" fill="mediumorchid" r="1"/>
<circle cx="310.3030303030303" cy="-176.9673121910529" fill="mediumorchid" r="1"/>
<circle cx="315.1515151515151" cy="-175.1001406796886" fill="mediumorchid" r="1"/>
<circle cx="319.99999999999994" cy="-173.3115735663072" fill="mediumorchid" r="1"/>
<circle cx="324.8484848484849" cy="-171.60668167961185" fill="mediumorchid" r="1"/>
<circle cx="329.6969696969697" cy="-169.98955567547785" fill="mediumorchid" r="1"/>
<circle cx="334.54545454545456" cy="-168.46337256726778" fill="mediumorchid" r="1"/>
<circle cx="339.3939393939394" cy="-167.03046201641405" fill="mediumorchid" r="1"/>
<circle cx="344.2424242424242" cy="-165.69237185536522" fill="mediumorchid" r="1"/>
<circle cx="349.0909090909091" cy="-164.44993239366278" fill="mediumorchid" r="1"/>
<circle cx="353.93939393939394" cy="-163.3033191292313" fill="mediumorchid" r="1"/>
<circle cx="358.7878787878788" cy="-162.25211355138848" fill="mediumorchid" r="1"/>
<circle cx="363.6363636363636" cy="-161.29536178005498" fill="mediumorchid" r="1"/>
<circle cx="368.48484848484844" cy="-160.43163083761283" fill="mediumorchid" r="1"/>
<circle cx="373.33333333333337" cy="-159.65906239625176" fill="mediumorchid" r="1"/>
<circle cx="378.1818181818182" cy="-158.9754238848697" fill="mediumorchid" r="1"/>
<circle cx="383.030303030303" cy="-158.3781568760567" fill="mediumorchid" r="1"/>
<circle cx="387.8787878787879" cy="-157.86442270576848" fill="mediumorchid" r="1"/>
<circle cx="392.7272727272727" cy="-157.4311453063544" fill="mediumorchid" r="1"/>
<circle cx="397.5757575757576" cy="-157.07505125797672" fill="mediumorchid" r="1"/>
<circle cx="402.42424242424244" cy="-156.79270708448442" fill="mediumorchid" r="1"/>
<circle cx="407.27272727272725" cy="-156.58055383777054" fill="mediumorchid" r="1"/>
<circle cx="412.1212121212122" cy="-156.4349390298484" fill="mediumorchid" r="1"/>
<circle cx="416.969696969697" cy="-156.35214598458694" fill="mediumorchid" r="1"/>
<circle cx="421.8181818181818" cy="-156.32842069149854" fill="mediumorchid" r="1"/>
<circle cx="426.6666666666667" cy="-156.35999625240814" fill="mediumorchid" r="1"/>
<circle cx="431.5151515151515" cy="-156.44311501845968" fill="mediumorchid" r="1"/>
<circle cx="436.3636363636364" cy="-156.57404851993525" fill="mediumorchid" r="1"/>
<circle cx="441.2121212121212" cy="-156.74911529495608" fill="mediumorchid" r="1"/>
<circle cx="446.060606060606" cy="-156.96469672546777" fill="mediumorchid" r="1"/>
<circle cx="450.9090909090909" cy="-157.21725099014068" fill="mediumorchid" r="1"/>
<circle cx="455.7575757575758" cy="-157.50332524408086" fill="mediumorchid" r="1"/>
<circle cx="460.6060606060606" cy="-157.81956613467352" fill="mediumorchid" r="1"/>
<circle cx="465.4545454545455" cy="-158.16272876158743" fill="mediumorchid" r="1"/>
<circle cx="470.3030303030303" cy="-158.5296841870619" fill="mediumorchid" r="1"/>
<circle cx="475.1515151515152" cy="-158.91742560017198" fill="mediumorchid" r="1"/>
<circle cx="480" cy="-159.32307323590913" fill="mediumorchid" r="1"/>
</g>
</g>
<g>
<g>
<line stroke="black" stroke-width="1" x1="0" x2="0" y1="0" y2="10"/>
<line stroke="black" stroke-width="1" x1="96" x2="96" y1="0" y2="10"/>
<line stroke="black" stroke-width="1" x1="192" x2="192" y1="0" y2="10"/>
<line stroke="black" stroke-width="1" x1="288" x2="288" y1="0" y2="10"/>
<line stroke="black" stroke-width="1" x1="384" x2="384" y1="0" y2="10"/>
<line stroke="black" stroke-width="1" x1="480" x2="480" y1="0" y2="10"/>
</g>
<line stroke="black" stroke-width="1" x1="0" x2="480" y1="0" y2="0"/>
<g>
<text font-size="12" text-anchor="middle" x="0" y="20">
0
</text>
<text font-size="12" text-anchor="middle" x="96" y="20">
1
</text>
<text font-size="12" text-anchor="middle" x="192" y="20">
2
</text>
<text font-size="12" text-anchor="middle" x="288" y="20">
3
</text>
<text font-size="12" text-anchor="middle" x="384" y="20">
4
</text>
<text font-size="12" text-anchor="middle" x="480" y="20">
5
</text>
</g>
<text font-size="12" text-anchor="middle" x="240" y="30">
x
</text>
</g>
<g>
<g>
<line stroke="black" stroke-width="1" x1="0" x2="-10" y1="-56.666666666666664" y2="-56.666666666666664"/>
<line stroke="black" stroke-width="1" x1="0" x2="-10" y1="-170" y2="-170"/>
<line stroke="black" stroke-width="1" x1="0" x2="-10" y1="-283.3333333333333" y2="-283.3333333333333"/>
</g>
<line stroke="black" stroke-width="1" x1="0" x2="0" y1="0" y2="-340"/>
<g>
<text dominant-baseline="middle" font-size="12" text-anchor="end" x="-15" y="-56.666666666666664">
-0.5
</text>
<text dominant-baseline="middle" font-size="12" text-anchor="end" x="-15" y="-170">
0
</text>
<text dominant-baseline="middle" font-size="12" text-anchor="end" x="-15" y="-283.3333333333333">
0.5
</text>
</g>
<text font-size="12" text-anchor="middle" transform="rotate(-90 -48 -170)" x="-48" y="-182">
Laguerre(0.5) (weighted)
</text>
</g>
</g>
</svg>