<svg viewBox="0 0 600 400" xmlns="http://www.w3.org/2000/svg">
<g transform="translate(72, 364)">
<g>
<g>
<path d="M0,-170 L0,-170 L480,-170" fill="none" stroke="lightgray" stroke-linejoin="round" stroke-width="2"/>
</g>
</g>
<g>
<g>
<path d="M0,-226.66667 L0,-226.66667 L4.848485,-226.66667 L9.69697,-226.66667 L14.545455,-226.66667 L19.39394,-226.66667 L24.242424,-226.66667 L29.09091,-226.66667 L33.939392,-226.66667 L38.78788,-226.66667 L43.636364,-226.66667 L48.484848,-226.66667 L53.333332,-226.66667 L58.18182,-226.66667 L63.030304,-226.66667 L67.878784,-226.66667 L72.72727,-226.66667 L77.57576,-226.66667 L82.42424,-226.66667 L87.27273,-226.66667 L92.121216,-226.66667 L96.969696,-226.66667 L101.818184,-226.66667 L106.666664,-226.66667 L111.51515,-226.66667 L116.36364,-226.66667 L121.21212,-226.66667 L126.06061,-226.66667 L130.90909,-226.66667 L135.75757,-226.66667 L140.60606,-226.66667 L145.45454,-226.66667 L150.30302,-226.66667 L155.15152,-226.66667 L160,-226.66667 L164.84848,-226.66667 L169.69698,-226.66667 L174.54546,-226.66667 L179.39394,-226.66667 L184.24243,-226.66667 L189.09091,-226.66667 L193.93939,-226.66667 L198.78787,-226.66667 L203.63637,-226.66667 L208.48485,-226.66667 L213.33333,-226.66667 L218.18182,-226.66667 L223.0303,-226.66667 L227.87878,-226.66667 L232.72728,-226.66667 L237.57576,-226.66667 L242.42424,-226.66667 L247.27272,-226.66667 L252.12122,-226.66667 L256.9697,-226.66667 L261.81818,-226.66667 L266.66666,-226.66667 L271.51514,-226.66667 L276.36365,-226.66667 L281.21213,-226.66667 L286.0606,-226.66667 L290.9091,-226.66667 L295.75757,-226.66667 L300.60605,-226.66667 L305.45456,-226.66667 L310.30304,-226.66667 L315.15152,-226.66667 L320,-226.66667 L324.84848,-226.66667 L329.69696,-226.66667 L334.54544,-226.66667 L339.39395,-226.66667 L344.24243,-226.66667 L349.0909,-226.66667 L353.9394,-226.66667 L358.78787,-226.66667 L363.63635,-226.66667 L368.48486,-226.66667 L373.33334,-226.66667 L378.18182,-226.66667 L383.0303,-226.66667 L387.87878,-226.66667 L392.72726,-226.66667 L397.57574,-226.66667 L402.42426,-226.66667 L407.27274,-226.66667 L412.12122,-226.66667 L416.9697,-226.66667 L421.81818,-226.66667 L426.66666,-226.66667 L431.51514,-226.66667 L436.36365,-226.66667 L441.21213,-226.66667 L446.0606,-226.66667 L450.9091,-226.66667 L455.75757,-226.66667 L460.60605,-226.66667 L465.45456,-226.66667 L470.30304,-226.66667 L475.15152,-226.66667 L480,-226.66667" fill="none" stroke="black" stroke-linejoin="round" stroke-width="2"/>
</g>
<g>
<circle cx="0" cy="-226.66666666666666" fill="black" r="1"/>
<circle cx="4.848484848484849" cy="-226.66666666666666" fill="black" r="1"/>
<circle cx="9.696969696969697" cy="-226.66666666666666" fill="black" r="1"/>
<circle cx="14.545454545454547" cy="-226.66666666666666" fill="black" r="1"/>
<circle cx="19.393939393939394" cy="-226.66666666666666" fill="black" r="1"/>
<circle cx="24.242424242424242" cy="-226.66666666666666" fill="black" r="1"/>
<circle cx="29.090909090909093" cy="-226.66666666666666" fill="black" r="1"/>
<circle cx="33.93939393939394" cy="-226.66666666666666" fill="black" r="1"/>
<circle cx="38.78787878787879" cy="-226.66666666666666" fill="black" r="1"/>
<circle cx="43.63636363636364" cy="-226.66666666666666" fill="black" r="1"/>
<circle cx="48.484848484848484" cy="-226.66666666666666" fill="black" r="1"/>
<circle cx="53.333333333333336" cy="-226.66666666666666" fill="black" r="1"/>
<circle cx="58.18181818181819" cy="-226.66666666666666" fill="black" r="1"/>
<circle cx="63.030303030303024" cy="-226.66666666666666" fill="black" r="1"/>
<circle cx="67.87878787878788" cy="-226.66666666666666" fill="black" r="1"/>
<circle cx="72.72727272727272" cy="-226.66666666666666" fill="black" r="1"/>
<circle cx="77.57575757575758" cy="-226.66666666666666" fill="black" r="1"/>
<circle cx="82.42424242424242" cy="-226.66666666666666" fill="black" r="1"/>
<circle cx="87.27272727272728" cy="-226.66666666666666" fill="black" r="1"/>
<circle cx="92.12121212121211" cy="-226.66666666666666" fill="black" r="1"/>
<circle cx="96.96969696969697" cy="-226.66666666666666" fill="black" r="1"/>
<circle cx="101.81818181818181" cy="-226.66666666666666" fill="black" r="1"/>
<circle cx="106.66666666666667" cy="-226.66666666666666" fill="black" r="1"/>
<circle cx="111.5151515151515" cy="-226.66666666666666" fill="black" r="1"/>
<circle cx="116.36363636363637" cy="-226.66666666666666" fill="black" r="1"/>
<circle cx="121.2121212121212" cy="-226.66666666666666" fill="black" r="1"/>
<circle cx="126.06060606060605" cy="-226.66666666666666" fill="black" r="1"/>
<circle cx="130.9090909090909" cy="-226.66666666666666" fill="black" r="1"/>
<circle cx="135.75757575757575" cy="-226.66666666666666" fill="black" r="1"/>
<circle cx="140.6060606060606" cy="-226.66666666666666" fill="black" r="1"/>
<circle cx="145.45454545454544" cy="-226.66666666666666" fill="black" r="1"/>
<circle cx="150.3030303030303" cy="-226.66666666666666" fill="black" r="1"/>
<circle cx="155.15151515151516" cy="-226.66666666666666" fill="black" r="1"/>
<circle cx="160" cy="-226.66666666666666" fill="black" r="1"/>
<circle cx="164.84848484848484" cy="-226.66666666666666" fill="black" r="1"/>
<circle cx="169.6969696969697" cy="-226.66666666666666" fill="black" r="1"/>
<circle cx="174.54545454545456" cy="-226.66666666666666" fill="black" r="1"/>
<circle cx="179.3939393939394" cy="-226.66666666666666" fill="black" r="1"/>
<circle cx="184.24242424242422" cy="-226.66666666666666" fill="black" r="1"/>
<circle cx="189.0909090909091" cy="-226.66666666666666" fill="black" r="1"/>
<circle cx="193.93939393939394" cy="-226.66666666666666" fill="black" r="1"/>
<circle cx="198.78787878787878" cy="-226.66666666666666" fill="black" r="1"/>
<circle cx="203.63636363636363" cy="-226.66666666666666" fill="black" r="1"/>
<circle cx="208.4848484848485" cy="-226.66666666666666" fill="black" r="1"/>
<circle cx="213.33333333333334" cy="-226.66666666666666" fill="black" r="1"/>
<circle cx="218.18181818181816" cy="-226.66666666666666" fill="black" r="1"/>
<circle cx="223.030303030303" cy="-226.66666666666666" fill="black" r="1"/>
<circle cx="227.8787878787879" cy="-226.66666666666666" fill="black" r="1"/>
<circle cx="232.72727272727275" cy="-226.66666666666666" fill="black" r="1"/>
<circle cx="237.5757575757576" cy="-226.66666666666666" fill="black" r="1"/>
<circle cx="242.4242424242424" cy="-226.66666666666666" fill="black" r="1"/>
<circle cx="247.27272727272725" cy="-226.66666666666666" fill="black" r="1"/>
<circle cx="252.1212121212121" cy="-226.66666666666666" fill="black" r="1"/>
<circle cx="256.969696969697" cy="-226.66666666666666" fill="black" r="1"/>
<circle cx="261.81818181818187" cy="-226.66666666666666" fill="black" r="1"/>
<circle cx="266.66666666666663" cy="-226.66666666666666" fill="black" r="1"/>
<circle cx="271.5151515151515" cy="-226.66666666666666" fill="black" r="1"/>
<circle cx="276.3636363636364" cy="-226.66666666666666" fill="black" r="1"/>
<circle cx="281.21212121212125" cy="-226.66666666666666" fill="black" r="1"/>
<circle cx="286.06060606060606" cy="-226.66666666666666" fill="black" r="1"/>
<circle cx="290.9090909090909" cy="-226.66666666666666" fill="black" r="1"/>
<circle cx="295.75757575757575" cy="-226.66666666666666" fill="black" r="1"/>
<circle cx="300.6060606060606" cy="-226.66666666666666" fill="black" r="1"/>
<circle cx="305.45454545454544" cy="-226.66666666666666" fill="black" r="1"/>
<circle cx="310.3030303030303" cy="-226.66666666666666" fill="black" r="1"/>
<circle cx="315.1515151515151" cy="-226.66666666666666" fill="black" r="1"/>
<circle cx="319.99999999999994" cy="-226.66666666666666" fill="black" r="1"/>
<circle cx="324.8484848484849" cy="-226.66666666666666" fill="black" r="1"/>
<circle cx="329.6969696969697" cy="-226.66666666666666" fill="black" r="1"/>
<circle cx="334.54545454545456" cy="-226.66666666666666" fill="black" r="1"/>
<circle cx="339.3939393939394" cy="-226.66666666666666" fill="black" r="1"/>
<circle cx="344.2424242424242" cy="-226.66666666666666" fill="black" r="1"/>
<circle cx="349.0909090909091" cy="-226.66666666666666" fill="black" r="1"/>
<circle cx="353.93939393939394" cy="-226.66666666666666" fill="black" r="1"/>
<circle cx="358.7878787878788" cy="-226.66666666666666" fill="black" r="1"/>
<circle cx="363.6363636363636" cy="-226.66666666666666" fill="black" r="1"/>
<circle cx="368.48484848484844" cy="-226.66666666666666" fill="black" r="1"/>
<circle cx="373.33333333333337" cy="-226.66666666666666" fill="black" r="1"/>
<circle cx="378.1818181818182" cy="-226.66666666666666" fill="black" r="1"/>
<circle cx="383.030303030303" cy="-226.66666666666666" fill="black" r="1"/>
<circle cx="387.8787878787879" cy="-226.66666666666666" fill="black" r="1"/>
<circle cx="392.7272727272727" cy="-226.66666666666666" fill="black" r="1"/>
<circle cx="397.5757575757576" cy="-226.66666666666666" fill="black" r="1"/>
<circle cx="402.42424242424244" cy="-226.66666666666666" fill="black" r="1"/>
<circle cx="407.27272727272725" cy="-226.66666666666666" fill="black" r="1"/>
<circle cx="412.1212121212122" cy="-226.66666666666666" fill="black" r="1"/>
<circle cx="416.969696969697" cy="-226.66666666666666" fill="black" r="1"/>
<circle cx="421.8181818181818" cy="-226.66666666666666" fill="black" r="1"/>
<circle cx="426.6666666666667" cy="-226.66666666666666" fill="black" r="1"/>
<circle cx="431.5151515151515" cy="-226.66666666666666" fill="black" r="1"/>
<circle cx="436.3636363636364" cy="-226.66666666666666" fill="black" r="1"/>
<circle cx="441.2121212121212" cy="-226.66666666666666" fill="black" r="1"/>
<circle cx="446.060606060606" cy="-226.66666666666666" fill="black" r="1"/>
<circle cx="450.9090909090909" cy="-226.66666666666666" fill="black" r="1"/>
<circle cx="455.7575757575758" cy="-226.66666666666666" fill="black" r="1"/>
<circle cx="460.6060606060606" cy="-226.66666666666666" fill="black" r="1"/>
<circle cx="465.4545454545455" cy="-226.66666666666666" fill="black" r="1"/>
<circle cx="470.3030303030303" cy="-226.66666666666666" fill="black" r="1"/>
<circle cx="475.1515151515152" cy="-226.66666666666666" fill="black" r="1"/>
<circle cx="480" cy="-226.66666666666666" fill="black" r="1"/>
</g>
</g>
<g>
<g>
<path d="M0,-255 L0,-255 L4.848485,-252.13805 L9.69697,-249.2761 L14.545455,-246.41414 L19.39394,-243.55219 L24.242424,-240.69023 L29.09091,-237.82828 L33.939392,-234.96632 L38.78788,-232.10437 L43.636364,-229.24243 L48.484848,-226.38048 L53.333332,-223.51852 L58.18182,-220.65657 L63.030304,-217.79462 L67.878784,-214.93266 L72.72727,-212.07071 L77.57576,-209.20876 L82.42424,-206.3468 L87.27273,-203.48485 L92.121216,-200.6229 L96.969696,-197.76094 L101.818184,-194.89899 L106.666664,-192.03703 L111.51515,-189.17508 L116.36364,-186.31313 L121.21212,-183.45117 L126.06061,-180.58922 L130.90909,-177.72728 L135.75757,-174.86533 L140.60606,-172.00337 L145.45454,-169.14142 L150.30302,-166.27946 L155.15152,-163.41751 L160,-160.55556 L164.84848,-157.6936 L169.69698,-154.83165 L174.54546,-151.9697 L179.39394,-149.10774 L184.24243,-146.24579 L189.09091,-143.38383 L193.93939,-140.52188 L198.78787,-137.65993 L203.63637,-134.79797 L208.48485,-131.93602 L213.33333,-129.07408 L218.18182,-126.21212 L223.0303,-123.35017 L227.87878,-120.48821 L232.72728,-117.62626 L237.57576,-114.76431 L242.42424,-111.90236 L247.27272,-109.040405 L252.12122,-106.17845 L256.9697,-103.3165 L261.81818,-100.454544 L266.66666,-97.59259 L271.51514,-94.73064 L276.36365,-91.86869 L281.21213,-89.00674 L286.0606,-86.14478 L290.9091,-83.28283 L295.75757,-80.420876 L300.60605,-77.55892 L305.45456,-74.69697 L310.30304,-71.835014 L315.15152,-68.97306 L320,-66.111115 L324.84848,-63.249157 L329.69696,-60.387207 L334.54544,-57.525253 L339.39395,-54.6633 L344.24243,-51.801346 L349.0909,-48.939392 L353.9394,-46.077442 L358.78787,-43.21549 L363.63635,-40.353535 L368.48486,-37.49158 L373.33334,-34.62963 L378.18182,-31.767677 L383.0303,-28.905724 L387.87878,-26.043772 L392.72726,-23.181818 L397.57574,-20.319866 L402.42426,-17.457912 L407.27274,-14.59596 L412.12122,-11.734007 L416.9697,-8.872054 L421.81818,-6.010101 L426.66666,-3.148148 L431.51514,-0.28619528 L436.36365,2.5757575 L441.21213,5.4377103 L446.0606,8.299664 L450.9091,11.161616 L455.75757,14.023569 L460.60605,16.88552 L465.45456,19.747475 L470.30304,22.609428 L475.15152,25.47138 L480,28.333334" fill="none" stroke="red" stroke-linejoin="round" stroke-width="2"/>
</g>
<g>
<circle cx="0" cy="-255" fill="red" r="1"/>
<circle cx="4.848484848484849" cy="-252.13804713804714" fill="red" r="1"/>
<circle cx="9.696969696969697" cy="-249.27609427609426" fill="red" r="1"/>
<circle cx="14.545454545454547" cy="-246.41414141414143" fill="red" r="1"/>
<circle cx="19.393939393939394" cy="-243.55218855218854" fill="red" r="1"/>
<circle cx="24.242424242424242" cy="-240.69023569023568" fill="red" r="1"/>
<circle cx="29.090909090909093" cy="-237.82828282828282" fill="red" r="1"/>
<circle cx="33.93939393939394" cy="-234.96632996632994" fill="red" r="1"/>
<circle cx="38.78787878787879" cy="-232.1043771043771" fill="red" r="1"/>
<circle cx="43.63636363636364" cy="-229.24242424242422" fill="red" r="1"/>
<circle cx="48.484848484848484" cy="-226.38047138047136" fill="red" r="1"/>
<circle cx="53.333333333333336" cy="-223.5185185185185" fill="red" r="1"/>
<circle cx="58.18181818181819" cy="-220.65656565656568" fill="red" r="1"/>
<circle cx="63.030303030303024" cy="-217.7946127946128" fill="red" r="1"/>
<circle cx="67.87878787878788" cy="-214.93265993265993" fill="red" r="1"/>
<circle cx="72.72727272727272" cy="-212.07070707070704" fill="red" r="1"/>
<circle cx="77.57575757575758" cy="-209.20875420875424" fill="red" r="1"/>
<circle cx="82.42424242424242" cy="-206.34680134680136" fill="red" r="1"/>
<circle cx="87.27272727272728" cy="-203.4848484848485" fill="red" r="1"/>
<circle cx="92.12121212121211" cy="-200.62289562289564" fill="red" r="1"/>
<circle cx="96.96969696969697" cy="-197.76094276094273" fill="red" r="1"/>
<circle cx="101.81818181818181" cy="-194.89898989898992" fill="red" r="1"/>
<circle cx="106.66666666666667" cy="-192.03703703703704" fill="red" r="1"/>
<circle cx="111.5151515151515" cy="-189.17508417508418" fill="red" r="1"/>
<circle cx="116.36363636363637" cy="-186.31313131313132" fill="red" r="1"/>
<circle cx="121.2121212121212" cy="-183.45117845117844" fill="red" r="1"/>
<circle cx="126.06060606060605" cy="-180.5892255892256" fill="red" r="1"/>
<circle cx="130.9090909090909" cy="-177.72727272727275" fill="red" r="1"/>
<circle cx="135.75757575757575" cy="-174.86531986531986" fill="red" r="1"/>
<circle cx="140.6060606060606" cy="-172.003367003367" fill="red" r="1"/>
<circle cx="145.45454545454544" cy="-169.14141414141415" fill="red" r="1"/>
<circle cx="150.3030303030303" cy="-166.2794612794613" fill="red" r="1"/>
<circle cx="155.15151515151516" cy="-163.41750841750843" fill="red" r="1"/>
<circle cx="160" cy="-160.55555555555554" fill="red" r="1"/>
<circle cx="164.84848484848484" cy="-157.69360269360268" fill="red" r="1"/>
<circle cx="169.6969696969697" cy="-154.83164983164983" fill="red" r="1"/>
<circle cx="174.54545454545456" cy="-151.96969696969697" fill="red" r="1"/>
<circle cx="179.3939393939394" cy="-149.1077441077441" fill="red" r="1"/>
<circle cx="184.24242424242422" cy="-146.24579124579125" fill="red" r="1"/>
<circle cx="189.0909090909091" cy="-143.38383838383837" fill="red" r="1"/>
<circle cx="193.93939393939394" cy="-140.5218855218855" fill="red" r="1"/>
<circle cx="198.78787878787878" cy="-137.65993265993268" fill="red" r="1"/>
<circle cx="203.63636363636363" cy="-134.79797979797982" fill="red" r="1"/>
<circle cx="208.4848484848485" cy="-131.93602693602693" fill="red" r="1"/>
<circle cx="213.33333333333334" cy="-129.07407407407408" fill="red" r="1"/>
<circle cx="218.18181818181816" cy="-126.21212121212123" fill="red" r="1"/>
<circle cx="223.030303030303" cy="-123.35016835016836" fill="red" r="1"/>
<circle cx="227.8787878787879" cy="-120.48821548821549" fill="red" r="1"/>
<circle cx="232.72727272727275" cy="-117.62626262626263" fill="red" r="1"/>
<circle cx="237.5757575757576" cy="-114.76430976430976" fill="red" r="1"/>
<circle cx="242.4242424242424" cy="-111.90235690235691" fill="red" r="1"/>
<circle cx="247.27272727272725" cy="-109.04040404040404" fill="red" r="1"/>
<circle cx="252.1212121212121" cy="-106.17845117845117" fill="red" r="1"/>
<circle cx="256.969696969697" cy="-103.31649831649831" fill="red" r="1"/>
<circle cx="261.81818181818187" cy="-100.45454545454544" fill="red" r="1"/>
<circle cx="266.66666666666663" cy="-97.5925925925926" fill="red" r="1"/>
<circle cx="271.5151515151515" cy="-94.73063973063972" fill="red" r="1"/>
<circle cx="276.3636363636364" cy="-91.86868686868685" fill="red" r="1"/>
<circle cx="281.21212121212125" cy="-89.00673400673399" fill="red" r="1"/>
<circle cx="286.06060606060606" cy="-86.14478114478116" fill="red" r="1"/>
<circle cx="290.9090909090909" cy="-83.28282828282828" fill="red" r="1"/>
<circle cx="295.75757575757575" cy="-80.42087542087542" fill="red" r="1"/>
<circle cx="300.6060606060606" cy="-77.55892255892255" fill="red" r="1"/>
<circle cx="305.45454545454544" cy="-74.6969696969697" fill="red" r="1"/>
<circle cx="310.3030303030303" cy="-71.83501683501684" fill="red" r="1"/>
<circle cx="315.1515151515151" cy="-68.97306397306397" fill="red" r="1"/>
<circle cx="319.99999999999994" cy="-66.11111111111113" fill="red" r="1"/>
<circle cx="324.8484848484849" cy="-63.249158249158235" fill="red" r="1"/>
<circle cx="329.6969696969697" cy="-60.38720538720539" fill="red" r="1"/>
<circle cx="334.54545454545456" cy="-57.52525252525252" fill="red" r="1"/>
<circle cx="339.3939393939394" cy="-54.663299663299654" fill="red" r="1"/>
<circle cx="344.2424242424242" cy="-51.80134680134682" fill="red" r="1"/>
<circle cx="349.0909090909091" cy="-48.939393939393916" fill="red" r="1"/>
<circle cx="353.93939393939394" cy="-46.07744107744108" fill="red" r="1"/>
<circle cx="358.7878787878788" cy="-43.215488215488215" fill="red" r="1"/>
<circle cx="363.6363636363636" cy="-40.35353535353534" fill="red" r="1"/>
<circle cx="368.48484848484844" cy="-37.4915824915825" fill="red" r="1"/>
<circle cx="373.33333333333337" cy="-34.62962962962963" fill="red" r="1"/>
<circle cx="378.1818181818182" cy="-31.767676767676765" fill="red" r="1"/>
<circle cx="383.030303030303" cy="-28.90572390572392" fill="red" r="1"/>
<circle cx="387.8787878787879" cy="-26.04377104377103" fill="red" r="1"/>
<circle cx="392.7272727272727" cy="-23.181818181818187" fill="red" r="1"/>
<circle cx="397.5757575757576" cy="-20.319865319865293" fill="red" r="1"/>
<circle cx="402.42424242424244" cy="-17.457912457912453" fill="red" r="1"/>
<circle cx="407.27272727272725" cy="-14.595959595959608" fill="red" r="1"/>
<circle cx="412.1212121212122" cy="-11.734006734006714" fill="red" r="1"/>
<circle cx="416.969696969697" cy="-8.872053872053874" fill="red" r="1"/>
<circle cx="421.8181818181818" cy="-6.010101010101029" fill="red" r="1"/>
<circle cx="426.6666666666667" cy="-3.148148148148137" fill="red" r="1"/>
<circle cx="431.5151515151515" cy="-0.28619528619529433" fill="red" r="1"/>
<circle cx="436.3636363636364" cy="2.575757575757599" fill="red" r="1"/>
<circle cx="441.2121212121212" cy="5.43771043771044" fill="red" r="1"/>
<circle cx="446.060606060606" cy="8.299663299663285" fill="red" r="1"/>
<circle cx="450.9090909090909" cy="11.161616161616175" fill="red" r="1"/>
<circle cx="455.7575757575758" cy="14.023569023569019" fill="red" r="1"/>
<circle cx="460.6060606060606" cy="16.885521885521865" fill="red" r="1"/>
<circle cx="465.4545454545455" cy="19.747474747474755" fill="red" r="1"/>
<circle cx="470.3030303030303" cy="22.6094276094276" fill="red" r="1"/>
<circle cx="475.1515151515152" cy="25.47138047138049" fill="red" r="1"/>
<circle cx="480" cy="28.333333333333332" fill="red" r="1"/>
</g>
</g>
<g>
<g>
<path d="M0,-276.25 L0,-276.25 L4.848485,-269.1674 L9.69697,-262.2293 L14.545455,-255.43579 L19.39394,-248.78682 L24.242424,-242.28238 L29.09091,-235.92249 L33.939392,-229.70712 L38.78788,-223.63632 L43.636364,-217.71005 L48.484848,-211.92833 L53.333332,-206.29115 L58.18182,-200.79852 L63.030304,-195.45042 L67.878784,-190.24687 L72.72727,-185.18787 L77.57576,-180.27339 L82.42424,-175.50348 L87.27273,-170.8781 L92.121216,-166.39726 L96.969696,-162.06097 L101.818184,-157.86922 L106.666664,-153.82202 L111.51515,-149.91936 L116.36364,-146.16124 L121.21212,-142.54765 L126.06061,-139.07863 L130.90909,-135.75414 L135.75757,-132.57419 L140.60606,-129.53877 L145.45454,-126.64792 L150.30302,-123.9016 L155.15152,-121.29983 L160,-118.84259 L164.84848,-116.5299 L169.69698,-114.361755 L174.54546,-112.33816 L179.39394,-110.45909 L184.24243,-108.72458 L189.09091,-107.134605 L193.93939,-105.68917 L198.78787,-104.38828 L203.63637,-103.23194 L208.48485,-102.22014 L213.33333,-101.35288 L218.18182,-100.630165 L223.0303,-100.051994 L227.87878,-99.61836 L232.72728,-99.32928 L237.57576,-99.18474 L242.42424,-99.18474 L247.27272,-99.32928 L252.12122,-99.61836 L256.9697,-100.051994 L261.81818,-100.630165 L266.66666,-101.35288 L271.51514,-102.22014 L276.36365,-103.23194 L281.21213,-104.38828 L286.0606,-105.68917 L290.9091,-107.134605 L295.75757,-108.72458 L300.60605,-110.45909 L305.45456,-112.33816 L310.30304,-114.361755 L315.15152,-116.5299 L320,-118.84259 L324.84848,-121.29983 L329.69696,-123.9016 L334.54544,-126.64792 L339.39395,-129.53877 L344.24243,-132.57419 L349.0909,-135.75414 L353.9394,-139.07863 L358.78787,-142.54765 L363.63635,-146.16124 L368.48486,-149.91936 L373.33334,-153.82202 L378.18182,-157.86922 L383.0303,-162.06097 L387.87878,-166.39726 L392.72726,-170.8781 L397.57574,-175.50348 L402.42426,-180.27339 L407.27274,-185.18787 L412.12122,-190.24687 L416.9697,-195.45042 L421.81818,-200.79852 L426.66666,-206.29115 L431.51514,-211.92833 L436.36365,-217.71005 L441.21213,-223.63632 L446.0606,-229.70712 L450.9091,-235.92249 L455.75757,-242.28238 L460.60605,-248.78682 L465.45456,-255.43579 L470.30304,-262.2293 L475.15152,-269.1674 L480,-276.25" fill="none" stroke="blue" stroke-linejoin="round" stroke-width="2"/>
</g>
<g>
<circle cx="0" cy="-276.25" fill="blue" r="1"/>
<circle cx="4.848484848484849" cy="-269.1673893820359" fill="blue" r="1"/>
<circle cx="9.696969696969697" cy="-262.22932183790766" fill="blue" r="1"/>
<circle cx="14.545454545454547" cy="-255.43579736761555" fill="blue" r="1"/>
<circle cx="19.393939393939394" cy="-248.78681597115943" fill="blue" r="1"/>
<circle cx="24.242424242424242" cy="-242.28237764853927" fill="blue" r="1"/>
<circle cx="29.090909090909093" cy="-235.92248239975513" fill="blue" r="1"/>
<circle cx="33.93939393939394" cy="-229.70713022480697" fill="blue" r="1"/>
<circle cx="38.78787878787879" cy="-223.63632112369487" fill="blue" r="1"/>
<circle cx="43.63636363636364" cy="-217.71005509641873" fill="blue" r="1"/>
<circle cx="48.484848484848484" cy="-211.92833214297858" fill="blue" r="1"/>
<circle cx="53.333333333333336" cy="-206.29115226337447" fill="blue" r="1"/>
<circle cx="58.18181818181819" cy="-200.79851545760638" fill="blue" r="1"/>
<circle cx="63.030303030303024" cy="-195.45042172567423" fill="blue" r="1"/>
<circle cx="67.87878787878788" cy="-190.24687106757813" fill="blue" r="1"/>
<circle cx="72.72727272727272" cy="-185.187863483318" fill="blue" r="1"/>
<circle cx="77.57575757575758" cy="-180.27339897289392" fill="blue" r="1"/>
<circle cx="82.42424242424242" cy="-175.5034775363058" fill="blue" r="1"/>
<circle cx="87.27272727272728" cy="-170.87809917355375" fill="blue" r="1"/>
<circle cx="92.12121212121211" cy="-166.39726388463762" fill="blue" r="1"/>
<circle cx="96.96969696969697" cy="-162.06097166955752" fill="blue" r="1"/>
<circle cx="101.81818181818181" cy="-157.86922252831343" fill="blue" r="1"/>
<circle cx="106.66666666666667" cy="-153.82201646090536" fill="blue" r="1"/>
<circle cx="111.5151515151515" cy="-149.91935346733325" fill="blue" r="1"/>
<circle cx="116.36363636363637" cy="-146.16123354759716" fill="blue" r="1"/>
<circle cx="121.2121212121212" cy="-142.54765670169712" fill="blue" r="1"/>
<circle cx="126.06060606060605" cy="-139.07862292963304" fill="blue" r="1"/>
<circle cx="130.9090909090909" cy="-135.75413223140498" fill="blue" r="1"/>
<circle cx="135.75757575757575" cy="-132.57418460701288" fill="blue" r="1"/>
<circle cx="140.6060606060606" cy="-129.53878005645683" fill="blue" r="1"/>
<circle cx="145.45454545454544" cy="-126.64791857973675" fill="blue" r="1"/>
<circle cx="150.3030303030303" cy="-123.9016001768527" fill="blue" r="1"/>
<circle cx="155.15151515151516" cy="-121.29982484780464" fill="blue" r="1"/>
<circle cx="160" cy="-118.8425925925926" fill="blue" r="1"/>
<circle cx="164.84848484848484" cy="-116.52990341121655" fill="blue" r="1"/>
<circle cx="169.6969696969697" cy="-114.3617573036765" fill="blue" r="1"/>
<circle cx="174.54545454545456" cy="-112.33815426997245" fill="blue" r="1"/>
<circle cx="179.3939393939394" cy="-110.45909431010442" fill="blue" r="1"/>
<circle cx="184.24242424242422" cy="-108.72457742407238" fill="blue" r="1"/>
<circle cx="189.0909090909091" cy="-107.13460361187634" fill="blue" r="1"/>
<circle cx="193.93939393939394" cy="-105.68917287351631" fill="blue" r="1"/>
<circle cx="198.78787878787878" cy="-104.38828520899229" fill="blue" r="1"/>
<circle cx="203.63636363636363" cy="-103.23194061830425" fill="blue" r="1"/>
<circle cx="208.4848484848485" cy="-102.22013910145223" fill="blue" r="1"/>
<circle cx="213.33333333333334" cy="-101.35288065843622" fill="blue" r="1"/>
<circle cx="218.18181818181816" cy="-100.6301652892562" fill="blue" r="1"/>
<circle cx="223.030303030303" cy="-100.05199299391218" fill="blue" r="1"/>
<circle cx="227.8787878787879" cy="-99.61836377240418" fill="blue" r="1"/>
<circle cx="232.72727272727275" cy="-99.32927762473217" fill="blue" r="1"/>
<circle cx="237.5757575757576" cy="-99.18473455089617" fill="blue" r="1"/>
<circle cx="242.4242424242424" cy="-99.18473455089617" fill="blue" r="1"/>
<circle cx="247.27272727272725" cy="-99.32927762473217" fill="blue" r="1"/>
<circle cx="252.1212121212121" cy="-99.61836377240418" fill="blue" r="1"/>
<circle cx="256.969696969697" cy="-100.05199299391218" fill="blue" r="1"/>
<circle cx="261.81818181818187" cy="-100.6301652892562" fill="blue" r="1"/>
<circle cx="266.66666666666663" cy="-101.35288065843622" fill="blue" r="1"/>
<circle cx="271.5151515151515" cy="-102.22013910145223" fill="blue" r="1"/>
<circle cx="276.3636363636364" cy="-103.23194061830425" fill="blue" r="1"/>
<circle cx="281.21212121212125" cy="-104.38828520899229" fill="blue" r="1"/>
<circle cx="286.06060606060606" cy="-105.68917287351631" fill="blue" r="1"/>
<circle cx="290.9090909090909" cy="-107.13460361187634" fill="blue" r="1"/>
<circle cx="295.75757575757575" cy="-108.72457742407238" fill="blue" r="1"/>
<circle cx="300.6060606060606" cy="-110.45909431010442" fill="blue" r="1"/>
<circle cx="305.45454545454544" cy="-112.33815426997245" fill="blue" r="1"/>
<circle cx="310.3030303030303" cy="-114.3617573036765" fill="blue" r="1"/>
<circle cx="315.1515151515151" cy="-116.52990341121655" fill="blue" r="1"/>
<circle cx="319.99999999999994" cy="-118.84259259259257" fill="blue" r="1"/>
<circle cx="324.8484848484849" cy="-121.29982484780466" fill="blue" r="1"/>
<circle cx="329.6969696969697" cy="-123.9016001768527" fill="blue" r="1"/>
<circle cx="334.54545454545456" cy="-126.64791857973675" fill="blue" r="1"/>
<circle cx="339.3939393939394" cy="-129.53878005645683" fill="blue" r="1"/>
<circle cx="344.2424242424242" cy="-132.57418460701288" fill="blue" r="1"/>
<circle cx="349.0909090909091" cy="-135.75413223140498" fill="blue" r="1"/>
<circle cx="353.93939393939394" cy="-139.07862292963304" fill="blue" r="1"/>
<circle cx="358.7878787878788" cy="-142.54765670169712" fill="blue" r="1"/>
<circle cx="363.6363636363636" cy="-146.1612335475972" fill="blue" r="1"/>
<circle cx="368.48484848484844" cy="-149.91935346733325" fill="blue" r="1"/>
<circle cx="373.33333333333337" cy="-153.82201646090536" fill="blue" r="1"/>
<circle cx="378.1818181818182" cy="-157.86922252831343" fill="blue" r="1"/>
<circle cx="383.030303030303" cy="-162.06097166955752" fill="blue" r="1"/>
<circle cx="387.8787878787879" cy="-166.39726388463762" fill="blue" r="1"/>
<circle cx="392.7272727272727" cy="-170.8780991735537" fill="blue" r="1"/>
<circle cx="397.5757575757576" cy="-175.5034775363059" fill="blue" r="1"/>
<circle cx="402.42424242424244" cy="-180.27339897289394" fill="blue" r="1"/>
<circle cx="407.27272727272725" cy="-185.18786348331798" fill="blue" r="1"/>
<circle cx="412.1212121212122" cy="-190.24687106757816" fill="blue" r="1"/>
<circle cx="416.969696969697" cy="-195.45042172567423" fill="blue" r="1"/>
<circle cx="421.8181818181818" cy="-200.7985154576063" fill="blue" r="1"/>
<circle cx="426.6666666666667" cy="-206.29115226337453" fill="blue" r="1"/>
<circle cx="431.5151515151515" cy="-211.92833214297858" fill="blue" r="1"/>
<circle cx="436.3636363636364" cy="-217.7100550964188" fill="blue" r="1"/>
<circle cx="441.2121212121212" cy="-223.63632112369487" fill="blue" r="1"/>
<circle cx="446.060606060606" cy="-229.70713022480697" fill="blue" r="1"/>
<circle cx="450.9090909090909" cy="-235.92248239975515" fill="blue" r="1"/>
<circle cx="455.7575757575758" cy="-242.28237764853927" fill="blue" r="1"/>
<circle cx="460.6060606060606" cy="-248.7868159711593" fill="blue" r="1"/>
<circle cx="465.4545454545455" cy="-255.43579736761555" fill="blue" r="1"/>
<circle cx="470.3030303030303" cy="-262.22932183790766" fill="blue" r="1"/>
<circle cx="475.1515151515152" cy="-269.1673893820359" fill="blue" r="1"/>
<circle cx="480" cy="-276.25" fill="blue" r="1"/>
</g>
</g>
<g>
<g>
<path d="M0,-293.95834 L0,-293.95834 L4.848485,-281.68903 L9.69697,-269.9183 L14.545455,-258.63892 L19.39394,-247.84349 L24.242424,-237.52478 L29.09091,-227.67548 L33.939392,-218.28827 L38.78788,-209.35587 L43.636364,-200.87096 L48.484848,-192.82625 L53.333332,-185.21443 L58.18182,-178.02821 L63.030304,-171.2603 L67.878784,-164.9034 L72.72727,-158.95018 L77.57576,-153.39336 L82.42424,-148.22563 L87.27273,-143.43971 L92.121216,-139.02829 L96.969696,-134.98407 L101.818184,-131.29974 L106.666664,-127.96801 L111.51515,-124.98158 L116.36364,-122.333145 L121.21212,-120.0154 L126.06061,-118.021065 L130.90909,-116.34282 L135.75757,-114.97337 L140.60606,-113.90542 L145.45454,-113.13166 L150.30302,-112.644806 L155.15152,-112.43754 L160,-112.50257 L164.84848,-112.8326 L169.69698,-113.42033 L174.54546,-114.25844 L179.39394,-115.33965 L184.24243,-116.65666 L189.09091,-118.20217 L193.93939,-119.968864 L198.78787,-121.94946 L203.63637,-124.13665 L208.48485,-126.523125 L213.33333,-129.10161 L218.18182,-131.86478 L223.0303,-134.80534 L227.87878,-137.916 L232.72728,-141.18944 L237.57576,-144.6184 L242.42424,-148.19553 L247.27272,-151.91356 L252.12122,-155.76518 L256.9697,-159.74309 L261.81818,-163.84 L266.66666,-168.0486 L271.51514,-172.36159 L276.36365,-176.77168 L281.21213,-181.27156 L286.0606,-185.85393 L290.9091,-190.51149 L295.75757,-195.23694 L300.60605,-200.02298 L305.45456,-204.8623 L310.30304,-209.74763 L315.15152,-214.67165 L320,-219.62706 L324.84848,-224.60655 L329.69696,-229.60284 L334.54544,-234.60861 L339.39395,-239.6166 L344.24243,-244.61945 L349.0909,-249.6099 L353.9394,-254.58063 L358.78787,-259.52435 L363.63635,-264.43378 L368.48486,-269.30157 L373.33334,-274.12045 L378.18182,-278.88315 L383.0303,-283.5823 L387.87878,-288.21066 L392.72726,-292.76093 L397.57574,-297.22577 L402.42426,-301.59787 L407.27274,-305.87 L412.12122,-310.0348 L416.9697,-314.085 L421.81818,-318.01324 L426.66666,-321.81232 L431.51514,-325.47485 L436.36365,-328.9936 L441.21213,-332.36124 L446.0606,-335.57043 L450.9091,-338.61392 L455.75757,-341.4844 L460.60605,-344.1746 L465.45456,-346.67712 L470.30304,-348.98477 L475.15152,-351.0902 L480,-352.9861" fill="none" stroke="green" stroke-linejoin="round" stroke-width="2"/>
</g>
<g>
<circle cx="0" cy="-293.9583333333333" fill="green" r="1"/>
<circle cx="4.848484848484849" cy="-281.68902324896186" fill="green" r="1"/>
<circle cx="9.696969696969697" cy="-269.9183137677722" fill="green" r="1"/>
<circle cx="14.545454545454547" cy="-258.63890473452" fill="green" r="1"/>
<circle cx="19.393939393939394" cy="-247.8434959939611" fill="green" r="1"/>
<circle cx="24.242424242424242" cy="-237.52478739085123" fill="green" r="1"/>
<circle cx="29.090909090909093" cy="-227.67547876994612" fill="green" r="1"/>
<circle cx="33.93939393939394" cy="-218.28826997600166" fill="green" r="1"/>
<circle cx="38.78787878787879" cy="-209.3558608537735" fill="green" r="1"/>
<circle cx="43.63636363636364" cy="-200.87095124801738" fill="green" r="1"/>
<circle cx="48.484848484848484" cy="-192.82624100348903" fill="green" r="1"/>
<circle cx="53.333333333333336" cy="-185.2144299649444" fill="green" r="1"/>
<circle cx="58.18181818181819" cy="-178.02821797713898" fill="green" r="1"/>
<circle cx="63.030303030303024" cy="-171.26030488482874" fill="green" r="1"/>
<circle cx="67.87878787878788" cy="-164.90339053276935" fill="green" r="1"/>
<circle cx="72.72727272727272" cy="-158.95017476571653" fill="green" r="1"/>
<circle cx="77.57575757575758" cy="-153.39335742842613" fill="green" r="1"/>
<circle cx="82.42424242424242" cy="-148.22563836565385" fill="green" r="1"/>
<circle cx="87.27272727272728" cy="-143.43971742215544" fill="green" r="1"/>
<circle cx="92.12121212121211" cy="-139.0282944426867" fill="green" r="1"/>
<circle cx="96.96969696969697" cy="-134.98406927200332" fill="green" r="1"/>
<circle cx="101.81818181818181" cy="-131.29974175486112" fill="green" r="1"/>
<circle cx="106.66666666666667" cy="-127.96801173601585" fill="green" r="1"/>
<circle cx="111.5151515151515" cy="-124.98157906022327" fill="green" r="1"/>
<circle cx="116.36363636363637" cy="-122.33314357223907" fill="green" r="1"/>
<circle cx="121.2121212121212" cy="-120.01540511681908" fill="green" r="1"/>
<circle cx="126.06060606060605" cy="-118.02106353871905" fill="green" r="1"/>
<circle cx="130.9090909090909" cy="-116.34281868269473" fill="green" r="1"/>
<circle cx="135.75757575757575" cy="-114.97337039350185" fill="green" r="1"/>
<circle cx="140.6060606060606" cy="-113.90541851589619" fill="green" r="1"/>
<circle cx="145.45454545454544" cy="-113.13166289463351" fill="green" r="1"/>
<circle cx="150.3030303030303" cy="-112.64480337446957" fill="green" r="1"/>
<circle cx="155.15151515151516" cy="-112.43753980016011" fill="green" r="1"/>
<circle cx="160" cy="-112.50257201646092" fill="green" r="1"/>
<circle cx="164.84848484848484" cy="-112.83259986812772" fill="green" r="1"/>
<circle cx="169.6969696969697" cy="-113.42032319991627" fill="green" r="1"/>
<circle cx="174.54545454545456" cy="-114.25844185658235" fill="green" r="1"/>
<circle cx="179.3939393939394" cy="-115.33965568288171" fill="green" r="1"/>
<circle cx="184.24242424242422" cy="-116.65666452357011" fill="green" r="1"/>
<circle cx="189.0909090909091" cy="-118.2021682234033" fill="green" r="1"/>
<circle cx="193.93939393939394" cy="-119.96886662713706" fill="green" r="1"/>
<circle cx="198.78787878787878" cy="-121.94945957952707" fill="green" r="1"/>
<circle cx="203.63636363636363" cy="-124.1366469253292" fill="green" r="1"/>
<circle cx="208.4848484848485" cy="-126.52312850929913" fill="green" r="1"/>
<circle cx="213.33333333333334" cy="-129.10160417619267" fill="green" r="1"/>
<circle cx="218.18181818181816" cy="-131.8647737707655" fill="green" r="1"/>
<circle cx="223.030303030303" cy="-134.80533713777342" fill="green" r="1"/>
<circle cx="227.8787878787879" cy="-137.91599412197226" fill="green" r="1"/>
<circle cx="232.72727272727275" cy="-141.18944456811766" fill="green" r="1"/>
<circle cx="237.5757575757576" cy="-144.61838832096544" fill="green" r="1"/>
<circle cx="242.4242424242424" cy="-148.19552522527133" fill="green" r="1"/>
<circle cx="247.27272727272725" cy="-151.91355512579113" fill="green" r="1"/>
<circle cx="252.1212121212121" cy="-155.76517786728056" fill="green" r="1"/>
<circle cx="256.969696969697" cy="-159.74309329449537" fill="green" r="1"/>
<circle cx="261.81818181818187" cy="-163.84000125219137" fill="green" r="1"/>
<circle cx="266.66666666666663" cy="-168.04860158512423" fill="green" r="1"/>
<circle cx="271.5151515151515" cy="-172.36159413804978" fill="green" r="1"/>
<circle cx="276.3636363636364" cy="-176.77167875572374" fill="green" r="1"/>
<circle cx="281.21212121212125" cy="-181.27155528290191" fill="green" r="1"/>
<circle cx="286.06060606060606" cy="-185.85392356434" fill="green" r="1"/>
<circle cx="290.9090909090909" cy="-190.51148344479384" fill="green" r="1"/>
<circle cx="295.75757575757575" cy="-195.2369347690191" fill="green" r="1"/>
<circle cx="300.6060606060606" cy="-200.02297738177154" fill="green" r="1"/>
<circle cx="305.45454545454544" cy="-204.86231112780698" fill="green" r="1"/>
<circle cx="310.3030303030303" cy="-209.74763585188114" fill="green" r="1"/>
<circle cx="315.1515151515151" cy="-214.67165139874984" fill="green" r="1"/>
<circle cx="319.99999999999994" cy="-219.62705761316866" fill="green" r="1"/>
<circle cx="324.8484848484849" cy="-224.60655433989368" fill="green" r="1"/>
<circle cx="329.6969696969697" cy="-229.6028414236803" fill="green" r="1"/>
<circle cx="334.54545454545456" cy="-234.60861870928446" fill="green" r="1"/>
<circle cx="339.3939393939394" cy="-239.61658604146194" fill="green" r="1"/>
<circle cx="344.2424242424242" cy="-244.61944326496837" fill="green" r="1"/>
<circle cx="349.0909090909091" cy="-249.60989022455968" fill="green" r="1"/>
<circle cx="353.93939393939394" cy="-254.58062676499148" fill="green" r="1"/>
<circle cx="358.7878787878788" cy="-259.5243527310196" fill="green" r="1"/>
<circle cx="363.6363636363636" cy="-264.4337679673998" fill="green" r="1"/>
<circle cx="368.48484848484844" cy="-269.3015723188877" fill="green" r="1"/>
<circle cx="373.33333333333337" cy="-274.12046563023927" fill="green" r="1"/>
<circle cx="378.1818181818182" cy="-278.8831477462102" fill="green" r="1"/>
<circle cx="383.030303030303" cy="-283.58231851155614" fill="green" r="1"/>
<circle cx="387.8787878787879" cy="-288.21067777103303" fill="green" r="1"/>
<circle cx="392.7272727272727" cy="-292.7609253693964" fill="green" r="1"/>
<circle cx="397.5757575757576" cy="-297.2257611514023" fill="green" r="1"/>
<circle cx="402.42424242424244" cy="-301.5978849618062" fill="green" r="1"/>
<circle cx="407.27272727272725" cy="-305.869996645364" fill="green" r="1"/>
<circle cx="412.1212121212122" cy="-310.03479604683145" fill="green" r="1"/>
<circle cx="416.969696969697" cy="-314.0849830109642" fill="green" r="1"/>
<circle cx="421.8181818181818" cy="-318.01325738251813" fill="green" r="1"/>
<circle cx="426.6666666666667" cy="-321.8123190062491" fill="green" r="1"/>
<circle cx="431.5151515151515" cy="-325.4748677269126" fill="green" r="1"/>
<circle cx="436.3636363636364" cy="-328.99360338926454" fill="green" r="1"/>
<circle cx="441.2121212121212" cy="-332.36122583806065" fill="green" r="1"/>
<circle cx="446.060606060606" cy="-335.57043491805683" fill="green" r="1"/>
<circle cx="450.9090909090909" cy="-338.61393047400855" fill="green" r="1"/>
<circle cx="455.7575757575758" cy="-341.4844123506717" fill="green" r="1"/>
<circle cx="460.6060606060606" cy="-344.17458039280217" fill="green" r="1"/>
<circle cx="465.4545454545455" cy="-346.67713444515556" fill="green" r="1"/>
<circle cx="470.3030303030303" cy="-348.9847743524877" fill="green" r="1"/>
<circle cx="475.1515151515152" cy="-351.09019995955424" fill="green" r="1"/>
<circle cx="480" cy="-352.9861111111111" fill="green" r="1"/>
</g>
</g>
<g>
<g>
<path d="M0,-309.45313 L0,-309.45313 L4.848485,-291.23523 L9.69697,-274.123 L14.545455,-258.08408 L19.39394,-243.08661 L24.242424,-229.09897 L29.09091,-216.09 L33.939392,-204.02887 L38.78788,-192.88512 L43.636364,-182.62868 L48.484848,-173.22981 L53.333332,-164.65918 L58.18182,-156.88782 L63.030304,-149.88708 L67.878784,-143.62875 L72.72727,-138.08496 L77.57576,-133.2282 L82.42424,-129.03133 L87.27273,-125.46756 L92.121216,-122.51053 L96.969696,-120.134186 L101.818184,-118.31288 L106.666664,-117.02131 L111.51515,-116.23456 L116.36364,-115.92807 L121.21212,-116.07765 L126.06061,-116.65949 L130.90909,-117.65014 L135.75757,-119.02652 L140.60606,-120.76591 L145.45454,-122.84598 L150.30302,-125.24474 L155.15152,-127.9406 L160,-130.91232 L164.84848,-134.13902 L169.69698,-137.60022 L174.54546,-141.27577 L179.39394,-145.14592 L184.24243,-149.19127 L189.09091,-153.39279 L193.93939,-157.73184 L198.78787,-162.19014 L203.63637,-166.74974 L208.48485,-171.39311 L213.33333,-176.10307 L218.18182,-180.8628 L223.0303,-185.65585 L227.87878,-190.46617 L232.72728,-195.27803 L237.57576,-200.07611 L242.42424,-204.84541 L247.27272,-209.57137 L252.12122,-214.23973 L256.9697,-218.83664 L261.81818,-223.3486 L266.66666,-227.7625 L271.51514,-232.06555 L276.36365,-236.24539 L281.21213,-240.29 L286.0606,-244.18771 L290.9091,-247.92725 L295.75757,-251.49771 L300.60605,-254.88853 L305.45456,-258.08957 L310.30304,-261.09097 L315.15152,-263.88333 L320,-266.45758 L324.84848,-268.805 L329.69696,-270.91727 L334.54544,-272.7864 L339.39395,-274.40485 L344.24243,-275.76535 L349.0909,-276.86105 L353.9394,-277.68546 L358.78787,-278.23248 L363.63635,-278.4963 L368.48486,-278.47162 L373.33334,-278.15338 L378.18182,-277.53693 L383.0303,-276.618 L387.87878,-275.3927 L392.72726,-273.85745 L397.57574,-272.00912 L402.42426,-269.84488 L407.27274,-267.36234 L412.12122,-264.55936 L416.9697,-261.4343 L421.81818,-257.98584 L426.66666,-254.21298 L431.51514,-250.11517 L436.36365,-245.69215 L441.21213,-240.9441 L446.0606,-235.87154 L450.9091,-230.47531 L455.75757,-224.75671 L460.60605,-218.71735 L465.45456,-212.3592 L470.30304,-205.68465 L475.15152,-198.6964 L480,-191.39757" fill="none" stroke="purple" stroke-linejoin="round" stroke-width="2"/>
</g>
<g>
<circle cx="0" cy="-309.453125" fill="purple" r="1"/>
<circle cx="4.848484848484849" cy="-291.23523794251" fill="purple" r="1"/>
<circle cx="9.696969696969697" cy="-274.12299196479313" fill="purple" r="1"/>
<circle cx="14.545454545454547" cy="-258.0840894103144" fill="purple" r="1"/>
<circle cx="19.393939393939394" cy="-243.08660131724787" fill="purple" r="1"/>
<circle cx="24.242424242424242" cy="-229.09896741847697" fill="purple" r="1"/>
<circle cx="29.090909090909093" cy="-216.08999614159464" fill="purple" r="1"/>
<circle cx="33.93939393939394" cy="-204.02886460890292" fill="purple" r="1"/>
<circle cx="38.78787878787879" cy="-192.88511863741314" fill="purple" r="1"/>
<circle cx="43.63636363636364" cy="-182.62867273884603" fill="purple" r="1"/>
<circle cx="48.484848484848484" cy="-173.22981011963154" fill="purple" r="1"/>
<circle cx="53.333333333333336" cy="-164.65918268090908" fill="purple" r="1"/>
<circle cx="58.18181818181819" cy="-156.88781101852717" fill="purple" r="1"/>
<circle cx="63.030303030303024" cy="-149.8870844230438" fill="purple" r="1"/>
<circle cx="67.87878787878788" cy="-143.62876087972617" fill="purple" r="1"/>
<circle cx="72.72727272727272" cy="-138.08496706855075" fill="purple" r="1"/>
<circle cx="77.57575757575758" cy="-133.22819836420345" fill="purple" r="1"/>
<circle cx="82.42424242424242" cy="-129.03131883607938" fill="purple" r="1"/>
<circle cx="87.27272727272728" cy="-125.46756124828299" fill="purple" r="1"/>
<circle cx="92.12121212121211" cy="-122.51052705962799" fill="purple" r="1"/>
<circle cx="96.96969696969697" cy="-120.1341864236375" fill="purple" r="1"/>
<circle cx="101.81818181818181" cy="-118.31287818854385" fill="purple" r="1"/>
<circle cx="106.66666666666667" cy="-117.0213098972887" fill="purple" r="1"/>
<circle cx="111.5151515151515" cy="-116.234557787523" fill="purple" r="1"/>
<circle cx="116.36363636363637" cy="-115.92806679160707" fill="purple" r="1"/>
<circle cx="121.2121212121212" cy="-116.07765053661045" fill="purple" r="1"/>
<circle cx="126.06060606060605" cy="-116.65949134431203" fill="purple" r="1"/>
<circle cx="130.9090909090909" cy="-117.65014023120006" fill="purple" r="1"/>
<circle cx="135.75757575757575" cy="-119.02651690847198" fill="purple" r="1"/>
<circle cx="140.6060606060606" cy="-120.76590978203456" fill="purple" r="1"/>
<circle cx="145.45454545454544" cy="-122.84597595250396" fill="purple" r="1"/>
<circle cx="150.3030303030303" cy="-125.24474121520558" fill="purple" r="1"/>
<circle cx="155.15151515151516" cy="-127.9406000601741" fill="purple" r="1"/>
<circle cx="160" cy="-130.91231567215365" fill="purple" r="1"/>
<circle cx="164.84848484848484" cy="-134.1390199305974" fill="purple" r="1"/>
<circle cx="169.6969696969697" cy="-137.6002134096681" fill="purple" r="1"/>
<circle cx="174.54545454545456" cy="-141.27576537823768" fill="purple" r="1"/>
<circle cx="179.3939393939394" cy="-145.14591379988732" fill="purple" r="1"/>
<circle cx="184.24242424242422" cy="-149.1912653329076" fill="purple" r="1"/>
<circle cx="189.0909090909091" cy="-153.39279533029838" fill="purple" r="1"/>
<circle cx="193.93939393939394" cy="-157.73184783976882" fill="purple" r="1"/>
<circle cx="198.78787878787878" cy="-162.1901356037373" fill="purple" r="1"/>
<circle cx="203.63636363636363" cy="-166.74974005933174" fill="purple" r="1"/>
<circle cx="208.4848484848485" cy="-171.3931113383891" fill="purple" r="1"/>
<circle cx="213.33333333333334" cy="-176.10306826745582" fill="purple" r="1"/>
<circle cx="218.18181818181816" cy="-180.86279836778758" fill="purple" r="1"/>
<circle cx="223.030303030303" cy="-185.65585785534927" fill="purple" r="1"/>
<circle cx="227.8787878787879" cy="-190.46617164081533" fill="purple" r="1"/>
<circle cx="232.72727272727275" cy="-195.2780333295693" fill="purple" r="1"/>
<circle cx="237.5757575757576" cy="-200.076105221704" fill="purple" r="1"/>
<circle cx="242.4242424242424" cy="-204.84541831202174" fill="purple" r="1"/>
<circle cx="247.27272727272725" cy="-209.57137229003402" fill="purple" r="1"/>
<circle cx="252.1212121212121" cy="-214.23973553996166" fill="purple" r="1"/>
<circle cx="256.969696969697" cy="-218.83664514073476" fill="purple" r="1"/>
<circle cx="261.81818181818187" cy="-223.3486068659928" fill="purple" r="1"/>
<circle cx="266.66666666666663" cy="-227.76249518408437" fill="purple" r="1"/>
<circle cx="271.5151515151515" cy="-232.06555325806775" fill="purple" r="1"/>
<circle cx="276.3636363636364" cy="-236.24539294571005" fill="purple" r="1"/>
<circle cx="281.21212121212125" cy="-240.28999479948814" fill="purple" r="1"/>
<circle cx="286.06060606060606" cy="-244.18770806658776" fill="purple" r="1"/>
<circle cx="290.9090909090909" cy="-247.92725068890434" fill="purple" r="1"/>
<circle cx="295.75757575757575" cy="-251.49770930304237" fill="purple" r="1"/>
<circle cx="300.6060606060606" cy="-254.8885392403157" fill="purple" r="1"/>
<circle cx="305.45454545454544" cy="-258.08956452674755" fill="purple" r="1"/>
<circle cx="310.3030303030303" cy="-261.09097788307037" fill="purple" r="1"/>
<circle cx="315.1515151515151" cy="-263.88334072472605" fill="purple" r="1"/>
<circle cx="319.99999999999994" cy="-266.45758316186556" fill="purple" r="1"/>
<circle cx="324.8484848484849" cy="-268.80500399934937" fill="purple" r="1"/>
<circle cx="329.6969696969697" cy="-270.91727073674707" fill="purple" r="1"/>
<circle cx="334.54545454545456" cy="-272.7864195683378" fill="purple" r="1"/>
<circle cx="339.3939393939394" cy="-274.40485538310986" fill="purple" r="1"/>
<circle cx="344.2424242424242" cy="-275.76535176476074" fill="purple" r="1"/>
<circle cx="349.0909090909091" cy="-276.8610509916976" fill="purple" r="1"/>
<circle cx="353.93939393939394" cy="-277.68546403703647" fill="purple" r="1"/>
<circle cx="358.7878787878788" cy="-278.2324705686029" fill="purple" r="1"/>
<circle cx="363.6363636363636" cy="-278.4963189489318" fill="purple" r="1"/>
<circle cx="368.48484848484844" cy="-278.4716262352672" fill="purple" r="1"/>
<circle cx="373.33333333333337" cy="-278.15337817956276" fill="purple" r="1"/>
<circle cx="378.1818181818182" cy="-277.53692922848103" fill="purple" r="1"/>
<circle cx="383.030303030303" cy="-276.6180025233942" fill="purple" r="1"/>
<circle cx="387.8787878787879" cy="-275.3926899003835" fill="purple" r="1"/>
<circle cx="392.7272727272727" cy="-273.8574518902397" fill="purple" r="1"/>
<circle cx="397.5757575757576" cy="-272.0091177184628" fill="purple" r="1"/>
<circle cx="402.42424242424244" cy="-269.84488530526204" fill="purple" r="1"/>
<circle cx="407.27272727272725" cy="-267.362321265556" fill="purple" r="1"/>
<circle cx="412.1212121212122" cy="-264.55936090897256" fill="purple" r="1"/>
<circle cx="416.969696969697" cy="-261.4343082398489" fill="purple" r="1"/>
<circle cx="421.8181818181818" cy="-257.98583595723164" fill="purple" r="1"/>
<circle cx="426.6666666666667" cy="-254.21298545487642" fill="purple" r="1"/>
<circle cx="431.5151515151515" cy="-250.11516682124852" fill="purple" r="1"/>
<circle cx="436.3636363636364" cy="-245.6921588395222" fill="purple" r="1"/>
<circle cx="441.2121212121212" cy="-240.94410898758125" fill="purple" r="1"/>
<circle cx="446.060606060606" cy="-235.87153343801876" fill="purple" r="1"/>
<circle cx="450.9090909090909" cy="-230.47531705813688" fill="purple" r="1"/>
<circle cx="455.7575757575758" cy="-224.75671340994745" fill="purple" r="1"/>
<circle cx="460.6060606060606" cy="-218.71734475017138" fill="purple" r="1"/>
<circle cx="465.4545454545455" cy="-212.35920203023872" fill="purple" r="1"/>
<circle cx="470.3030303030303" cy="-205.68464489628934" fill="purple" r="1"/>
<circle cx="475.1515151515152" cy="-198.69640168917172" fill="purple" r="1"/>
<circle cx="480" cy="-191.39756944444443" fill="purple" r="1"/>
</g>
</g>
<g>
<g>
<path d="M0,-323.39844 L0,-323.39844 L4.848485,-298.60223 L9.69697,-275.8037 L14.545455,-254.91554 L19.39394,-235.8524 L24.242424,-218.53093 L29.09091,-202.86974 L33.939392,-188.78932 L38.78788,-176.21214 L43.636364,-165.06256 L48.484848,-155.26678 L53.333332,-146.75288 L58.18182,-139.4508 L63.030304,-133.29228 L67.878784,-128.21086 L72.72727,-124.14189 L77.57576,-121.02248 L82.42424,-118.79146 L87.27273,-117.38943 L92.121216,-116.758675 L96.969696,-116.84319 L101.818184,-117.58864 L106.666664,-118.94232 L111.51515,-120.8532 L116.36364,-123.27184 L121.21212,-126.15043 L126.06061,-129.44269 L130.90909,-133.10396 L135.75757,-137.0911 L140.60606,-141.36246 L145.45454,-145.87796 L150.30302,-150.59895 L155.15152,-155.48831 L160,-160.51031 L164.84848,-165.63069 L169.69698,-170.81659 L174.54546,-176.03653 L179.39394,-181.26045 L184.24243,-186.4596 L189.09091,-191.6066 L193.93939,-196.67535 L198.78787,-201.64113 L203.63637,-206.48042 L208.48485,-211.171 L213.33333,-215.69191 L218.18182,-220.02339 L223.0303,-224.14688 L227.87878,-228.04507 L232.72728,-231.70175 L237.57576,-235.1019 L242.42424,-238.23163 L247.27272,-241.07816 L252.12122,-243.6298 L256.9697,-245.87598 L261.81818,-247.80711 L266.66666,-249.41472 L271.51514,-250.69133 L276.36365,-251.63045 L281.21213,-252.2266 L286.0606,-252.47523 L290.9091,-252.3728 L295.75757,-251.91664 L300.60605,-251.10503 L305.45456,-249.9371 L310.30304,-248.41289 L315.15152,-246.53328 L320,-244.3 L324.84848,-241.71558 L329.69696,-238.78334 L334.54544,-235.50742 L339.39395,-231.89268 L344.24243,-227.94475 L349.0909,-223.66997 L353.9394,-219.07538 L358.78787,-214.16873 L363.63635,-208.95844 L368.48486,-203.45352 L373.33334,-197.66371 L378.18182,-191.59927 L383.0303,-185.2711 L387.87878,-178.69069 L392.72726,-171.87004 L397.57574,-164.82173 L402.42426,-157.55885 L407.27274,-150.09496 L412.12122,-142.44414 L416.9697,-134.62091 L421.81818,-126.640274 L426.66666,-118.5176 L431.51514,-110.26871 L436.36365,-101.909805 L441.21213,-93.45745 L446.0606,-84.92857 L450.9091,-76.340416 L455.75757,-67.71056 L460.60605,-59.056866 L465.45456,-50.397472 L470.30304,-41.750786 L475.15152,-33.135445 L480,-24.570313" fill="none" stroke="darkblue" stroke-linejoin="round" stroke-width="2"/>
</g>
<g>
<circle cx="0" cy="-323.3984375" fill="darkblue" r="1"/>
<circle cx="4.848484848484849" cy="-298.6022328036477" fill="darkblue" r="1"/>
<circle cx="9.696969696969697" cy="-275.80370755494454" fill="darkblue" r="1"/>
<circle cx="14.545454545454547" cy="-254.91554078791378" fill="darkblue" r="1"/>
<circle cx="19.393939393939394" cy="-235.85240211558985" fill="darkblue" r="1"/>
<circle cx="24.242424242424242" cy="-218.5309331090737" fill="darkblue" r="1"/>
<circle cx="29.090909090909093" cy="-202.86972867658775" fill="darkblue" r="1"/>
<circle cx="33.93939393939394" cy="-188.78931844253103" fill="darkblue" r="1"/>
<circle cx="38.78787878787879" cy="-176.21214812653423" fill="darkblue" r="1"/>
<circle cx="43.63636363636364" cy="-165.0625609225149" fill="darkblue" r="1"/>
<circle cx="48.484848484848484" cy="-155.26677887773232" fill="darkblue" r="1"/>
<circle cx="53.333333333333336" cy="-146.75288427184296" fill="darkblue" r="1"/>
<circle cx="58.18181818181819" cy="-139.45080099595506" fill="darkblue" r="1"/>
<circle cx="63.030303030303024" cy="-133.29227593168412" fill="darkblue" r="1"/>
<circle cx="67.87878787878788" cy="-128.21086033020782" fill="darkblue" r="1"/>
<circle cx="72.72727272727272" cy="-124.14189119132108" fill="darkblue" r="1"/>
<circle cx="77.57575757575758" cy="-121.02247264249137" fill="darkblue" r="1"/>
<circle cx="82.42424242424242" cy="-118.79145731791338" fill="darkblue" r="1"/>
<circle cx="87.27272727272728" cy="-117.3894277375645" fill="darkblue" r="1"/>
<circle cx="92.12121212121211" cy="-116.75867768625972" fill="darkblue" r="1"/>
<circle cx="96.96969696969697" cy="-116.84319359270675" fill="darkblue" r="1"/>
<circle cx="101.81818181818181" cy="-117.5886359085611" fill="darkblue" r="1"/>
<circle cx="106.66666666666667" cy="-118.94232048748121" fill="darkblue" r="1"/>
<circle cx="111.5151515151515" cy="-120.85319996418342" fill="darkblue" r="1"/>
<circle cx="116.36363636363637" cy="-123.27184513349715" fill="darkblue" r="1"/>
<circle cx="121.2121212121212" cy="-126.15042632942004" fill="darkblue" r="1"/>
<circle cx="126.06060606060605" cy="-129.44269480417287" fill="darkblue" r="1"/>
<circle cx="130.9090909090909" cy="-133.10396410725482" fill="darkblue" r="1"/>
<circle cx="135.75757575757575" cy="-137.09109146449845" fill="darkblue" r="1"/>
<circle cx="140.6060606060606" cy="-141.3624591571247" fill="darkblue" r="1"/>
<circle cx="145.45454545454544" cy="-145.8779559007983" fill="darkblue" r="1"/>
<circle cx="150.3030303030303" cy="-150.5989582246824" fill="darkblue" r="1"/>
<circle cx="155.15151515151516" cy="-155.48831185049406" fill="darkblue" r="1"/>
<circle cx="160" cy="-160.51031307155924" fill="darkblue" r="1"/>
<circle cx="164.84848484848484" cy="-165.6306901318675" fill="darkblue" r="1"/>
<circle cx="169.6969696969697" cy="-170.8165846051278" fill="darkblue" r="1"/>
<circle cx="174.54545454545456" cy="-176.03653277382284" fill="darkblue" r="1"/>
<circle cx="179.3939393939394" cy="-181.26044700826478" fill="darkblue" r="1"/>
<circle cx="184.24242424242422" cy="-186.4595971456498" fill="darkblue" r="1"/>
<circle cx="189.0909090909091" cy="-191.60659186911366" fill="darkblue" r="1"/>
<circle cx="193.93939393939394" cy="-196.67536008678636" fill="darkblue" r="1"/>
<circle cx="198.78787878787878" cy="-201.64113231084744" fill="darkblue" r="1"/>
<circle cx="203.63636363636363" cy="-206.4804220365812" fill="darkblue" r="1"/>
<circle cx="208.4848484848485" cy="-211.17100712143136" fill="darkblue" r="1"/>
<circle cx="213.33333333333334" cy="-215.6919111640568" fill="darkblue" r="1"/>
<circle cx="218.18181818181816" cy="-220.02338488338577" fill="darkblue" r="1"/>
<circle cx="223.030303030303" cy="-224.14688749767194" fill="darkblue" r="1"/>
<circle cx="227.8787878787879" cy="-228.0450681035487" fill="darkblue" r="1"/>
<circle cx="232.72727272727275" cy="-231.70174705508455" fill="darkblue" r="1"/>
<circle cx="237.5757575757576" cy="-235.1018973428385" fill="darkblue" r="1"/>
<circle cx="242.4242424242424" cy="-238.23162597291446" fill="darkblue" r="1"/>
<circle cx="247.27272727272725" cy="-241.07815534601696" fill="darkblue" r="1"/>
<circle cx="252.1212121212121" cy="-243.62980463650592" fill="darkblue" r="1"/>
<circle cx="256.969696969697" cy="-245.87597117145185" fill="darkblue" r="1"/>
<circle cx="261.81818181818187" cy="-247.80711180969072" fill="darkblue" r="1"/>
<circle cx="266.66666666666663" cy="-249.41472432087946" fill="darkblue" r="1"/>
<circle cx="271.5151515151515" cy="-250.69132876455066" fill="darkblue" r="1"/>
<circle cx="276.3636363636364" cy="-251.63044886916774" fill="darkblue" r="1"/>
<circle cx="281.21212121212125" cy="-252.22659341118023" fill="darkblue" r="1"/>
<circle cx="286.06060606060606" cy="-252.47523759407864" fill="darkblue" r="1"/>
<circle cx="290.9090909090909" cy="-252.37280442744964" fill="darkblue" r="1"/>
<circle cx="295.75757575757575" cy="-251.91664610603115" fill="darkblue" r="1"/>
<circle cx="300.6060606060606" cy="-251.1050253887673" fill="darkblue" r="1"/>
<circle cx="305.45454545454544" cy="-249.93709697786383" fill="darkblue" r="1"/>
<circle cx="310.3030303030303" cy="-248.4128888978427" fill="darkblue" r="1"/>
<circle cx="315.1515151515151" cy="-246.53328387459763" fill="darkblue" r="1"/>
<circle cx="319.99999999999994" cy="-244.300000714449" fill="darkblue" r="1"/>
<circle cx="324.8484848484849" cy="-241.71557568319884" fill="darkblue" r="1"/>
<circle cx="329.6969696969697" cy="-238.78334388518599" fill="darkblue" r="1"/>
<circle cx="334.54545454545456" cy="-235.50742064234132" fill="darkblue" r="1"/>
<circle cx="339.3939393939394" cy="-231.89268287324262" fill="darkblue" r="1"/>
<circle cx="344.2424242424242" cy="-227.94475047216977" fill="darkblue" r="1"/>
<circle cx="349.0909090909091" cy="-223.6699676881598" fill="darkblue" r="1"/>
<circle cx="353.93939393939394" cy="-219.07538450406219" fill="darkblue" r="1"/>
<circle cx="358.7878787878788" cy="-214.1687380155934" fill="darkblue" r="1"/>
<circle cx="363.6363636363636" cy="-208.95843381039256" fill="darkblue" r="1"/>
<circle cx="368.48484848484844" cy="-203.45352734707637" fill="darkblue" r="1"/>
<circle cx="373.33333333333337" cy="-197.66370533429392" fill="darkblue" r="1"/>
<circle cx="378.1818181818182" cy="-191.59926710978212" fill="darkblue" r="1"/>
<circle cx="383.030303030303" cy="-185.27110601942073" fill="darkblue" r="1"/>
<circle cx="387.8787878787879" cy="-178.69069079628704" fill="darkblue" r="1"/>
<circle cx="392.7272727272727" cy="-171.87004693971167" fill="darkblue" r="1"/>
<circle cx="397.5757575757576" cy="-164.82173809433291" fill="darkblue" r="1"/>
<circle cx="402.42424242424244" cy="-157.55884742915262" fill="darkblue" r="1"/>
<circle cx="407.27272727272725" cy="-150.09495901659048" fill="darkblue" r="1"/>
<circle cx="412.1212121212122" cy="-142.44413921153932" fill="darkblue" r="1"/>
<circle cx="416.969696969697" cy="-134.62091803042085" fill="darkblue" r="1"/>
<circle cx="421.8181818181818" cy="-126.64027053023996" fill="darkblue" r="1"/>
<circle cx="426.6666666666667" cy="-118.5175981876398" fill="darkblue" r="1"/>
<circle cx="431.5151515151515" cy="-110.26871027795774" fill="darkblue" r="1"/>
<circle cx="436.3636363636364" cy="-101.9098052542793" fill="darkblue" r="1"/>
<circle cx="441.2121212121212" cy="-93.45745212649427" fill="darkblue" r="1"/>
<circle cx="446.060606060606" cy="-84.92857184035098" fill="darkblue" r="1"/>
<circle cx="450.9090909090909" cy="-76.34041865651166" fill="darkblue" r="1"/>
<circle cx="455.7575757575758" cy="-67.71056152960813" fill="darkblue" r="1"/>
<circle cx="460.6060606060606" cy="-59.056865487295795" fill="darkblue" r="1"/>
<circle cx="465.4545454545455" cy="-50.39747300930935" fill="darkblue" r="1"/>
<circle cx="470.3030303030303" cy="-41.75078540651824" fill="darkblue" r="1"/>
<circle cx="475.1515151515152" cy="-33.13544419998069" fill="darkblue" r="1"/>
<circle cx="480" cy="-24.5703125" fill="darkblue" r="1"/>
</g>
</g>
<g>
<g>
<path d="M0,-336.18164 L0,-336.18164 L4.848485,-304.2728 L9.69697,-275.56317 L14.545455,-249.8667 L19.39394,-227.0038 L24.242424,-206.80103 L29.09091,-189.09106 L33.939392,-173.71262 L38.78788,-160.51027 L43.636364,-149.33434 L48.484848,-140.04083 L53.333332,-132.49129 L58.18182,-126.55265 L63.030304,-122.097206 L67.878784,-119.00243 L72.72727,-117.1509 L77.57576,-116.43019 L82.42424,-116.73274 L87.27273,-117.95577 L92.121216,-120.001175 L96.969696,-122.775406 L101.818184,-126.189384 L106.666664,-130.15837 L111.51515,-134.60191 L116.36364,-139.44368 L121.21212,-144.6114 L126.06061,-150.0368 L130.90909,-155.65543 L135.75757,-161.40659 L140.60606,-167.23328 L145.45454,-173.08203 L150.30302,-178.90288 L155.15152,-184.64925 L160,-190.27783 L164.84848,-195.74854 L169.69698,-201.02435 L174.54546,-206.07132 L179.39394,-210.8584 L184.24243,-215.35738 L189.09091,-219.54283 L193.93939,-223.39198 L198.78787,-226.88463 L203.63637,-230.0031 L208.48485,-232.73212 L213.33333,-235.05875 L218.18182,-236.97234 L223.0303,-238.46437 L227.87878,-239.52843 L232.72728,-240.16016 L237.57576,-240.35709 L242.42424,-240.11864 L247.27272,-239.44603 L252.12122,-238.34216 L256.9697,-236.81163 L261.81818,-234.86053 L266.66666,-232.49652 L271.51514,-229.72864 L276.36365,-226.56729 L281.21213,-223.02419 L286.0606,-219.11221 L290.9091,-214.84547 L295.75757,-210.23909 L300.60605,-205.30927 L305.45456,-200.07312 L310.30304,-194.54868 L315.15152,-188.75479 L320,-182.7111 L324.84848,-176.43794 L329.69696,-169.95631 L334.54544,-163.28777 L339.39395,-156.45444 L344.24243,-149.47891 L349.0909,-142.38422 L353.9394,-135.19373 L358.78787,-127.93114 L363.63635,-120.6204 L368.48486,-113.28569 L373.33334,-105.951324 L378.18182,-98.64174 L383.0303,-91.381424 L387.87878,-84.19488 L392.72726,-77.10656 L397.57574,-70.14086 L402.42426,-63.32203 L407.27274,-56.67415 L412.12122,-50.22108 L416.9697,-43.98643 L421.81818,-37.993507 L426.66666,-32.265274 L431.51514,-26.824314 L436.36365,-21.692795 L441.21213,-16.892426 L446.0606,-12.444421 L450.9091,-8.369464 L455.75757,-4.6876764 L460.60605,-1.4185792 L465.45456,1.4189386 L470.30304,3.8066514 L475.15152,5.727029 L480,7.1632667" fill="none" stroke="mediumorchid" stroke-linejoin="round" stroke-width="2"/>
</g>
<g>
<circle cx="0" cy="-336.181640625" fill="mediumorchid" r="1"/>
<circle cx="4.848484848484849" cy="-304.2728010492221" fill="mediumorchid" r="1"/>
<circle cx="9.696969696969697" cy="-275.56315631468857" fill="mediumorchid" r="1"/>
<circle cx="14.545454545454547" cy="-249.8667060459679" fill="mediumorchid" r="1"/>
<circle cx="19.393939393939394" cy="-227.00380025091886" fill="mediumorchid" r="1"/>
<circle cx="24.242424242424242" cy="-206.80102063567813" fill="mediumorchid" r="1"/>
<circle cx="29.090909090909093" cy="-189.0910628600997" fill="mediumorchid" r="1"/>
<circle cx="33.93939393939394" cy="-173.71261973364537" fill="mediumorchid" r="1"/>
<circle cx="38.78787878787879" cy="-160.51026535172792" fill="mediumorchid" r="1"/>
<circle cx="43.63636363636364" cy="-149.3343401725057" fill="mediumorchid" r="1"/>
<circle cx="48.484848484848484" cy="-140.0408370341284" fill="mediumorchid" r="1"/>
<circle cx="53.333333333333336" cy="-132.4912881124358" fill="mediumorchid" r="1"/>
<circle cx="58.18181818181819" cy="-126.55265281910687" fill="mediumorchid" r="1"/>
<circle cx="63.030303030303024" cy="-122.0972066402619" fill="mediumorchid" r="1"/>
<circle cx="67.87878787878788" cy="-119.00243091551545" fill="mediumorchid" r="1"/>
<circle cx="72.72727272727272" cy="-117.15090355748168" fill="mediumorchid" r="1"/>
<circle cx="77.57575757575758" cy="-116.43019071173124" fill="mediumorchid" r="1"/>
<circle cx="82.42424242424242" cy="-116.73273935719952" fill="mediumorchid" r="1"/>
<circle cx="87.27272727272728" cy="-117.95577084704762" fill="mediumorchid" r="1"/>
<circle cx="92.12121212121211" cy="-120.001175389974" fill="mediumorchid" r="1"/>
<circle cx="96.96969696969697" cy="-122.77540747197871" fill="mediumorchid" r="1"/>
<circle cx="101.81818181818181" cy="-126.18938221857876" fill="mediumorchid" r="1"/>
<circle cx="106.66666666666667" cy="-130.15837269747595" fill="mediumorchid" r="1"/>
<circle cx="111.5151515151515" cy="-134.60190816167582" fill="mediumorchid" r="1"/>
<circle cx="116.36363636363637" cy="-139.4436732330586" fill="mediumorchid" r="1"/>
<circle cx="121.2121212121212" cy="-144.61140802640205" fill="mediumorchid" r="1"/>
<circle cx="126.06060606060605" cy="-150.036809213856" fill="mediumorchid" r="1"/>
<circle cx="130.9090909090909" cy="-155.65543202986834" fill="mediumorchid" r="1"/>
<circle cx="135.75757575757575" cy="-161.4065932165635" fill="mediumorchid" r="1"/>
<circle cx="140.6060606060606" cy="-167.2332749095717" fill="mediumorchid" r="1"/>
<circle cx="145.45454545454544" cy="-173.08202946431095" fill="mediumorchid" r="1"/>
<circle cx="150.3030303030303" cy="-178.90288522272007" fill="mediumorchid" r="1"/>
<circle cx="155.15151515151516" cy="-184.64925322044385" fill="mediumorchid" r="1"/>
<circle cx="160" cy="-190.27783483447013" fill="mediumorchid" r="1"/>
<circle cx="164.84848484848484" cy="-195.74853037121784" fill="mediumorchid" r="1"/>
<circle cx="169.6969696969697" cy="-201.02434859507798" fill="mediumorchid" r="1"/>
<circle cx="174.54545454545456" cy="-206.0713171974054" fill="mediumorchid" r="1"/>
<circle cx="179.3939393939394" cy="-210.85839420596267" fill="mediumorchid" r="1"/>
<circle cx="184.24242424242422" cy="-215.35738033481596" fill="mediumorchid" r="1"/>
<circle cx="189.0909090909091" cy="-219.5428322746823" fill="mediumorchid" r="1"/>
<circle cx="193.93939393939394" cy="-223.39197692372878" fill="mediumorchid" r="1"/>
<circle cx="198.78787878787878" cy="-226.88462655882338" fill="mediumorchid" r="1"/>
<circle cx="203.63636363636363" cy="-230.0030949472382" fill="mediumorchid" r="1"/>
<circle cx="208.4848484848485" cy="-232.73211439880308" fill="mediumorchid" r="1"/>
<circle cx="213.33333333333334" cy="-235.05875375851258" fill="mediumorchid" r="1"/>
<circle cx="218.18181818181816" cy="-236.9723373395835" fill="mediumorchid" r="1"/>
<circle cx="223.030303030303" cy="-238.46436479696504" fill="mediumorchid" r="1"/>
<circle cx="227.8787878787879" cy="-239.52843194130006" fill="mediumorchid" r="1"/>
<circle cx="232.72727272727275" cy="-240.16015249333842" fill="mediumorchid" r="1"/>
<circle cx="237.5757575757576" cy="-240.35708077880193" fill="mediumorchid" r="1"/>
<circle cx="242.4242424242424" cy="-240.11863536370137" fill="mediumorchid" r="1"/>
<circle cx="247.27272727272725" cy="-239.44602363010506" fill="mediumorchid" r="1"/>
<circle cx="252.1212121212121" cy="-238.34216729235914" fill="mediumorchid" r="1"/>
<circle cx="256.969696969697" cy="-236.81162885375934" fill="mediumorchid" r="1"/>
<circle cx="261.81818181818187" cy="-234.86053900367563" fill="mediumorchid" r="1"/>
<circle cx="266.66666666666663" cy="-232.496524955127" fill="mediumorchid" r="1"/>
<circle cx="271.5151515151515" cy="-229.72863972280948" fill="mediumorchid" r="1"/>
<circle cx="276.3636363636364" cy="-226.56729234157493" fill="mediumorchid" r="1"/>
<circle cx="281.21212121212125" cy="-223.02417902536217" fill="mediumorchid" r="1"/>
<circle cx="286.06060606060606" cy="-219.11221526657962" fill="mediumorchid" r="1"/>
<circle cx="290.9090909090909" cy="-214.84546887593956" fill="mediumorchid" r="1"/>
<circle cx="295.75757575757575" cy="-210.23909396274473" fill="mediumorchid" r="1"/>
<circle cx="300.6060606060606" cy="-205.30926585562597" fill="mediumorchid" r="1"/>
<circle cx="305.45454545454544" cy="-200.073116963732" fill="mediumorchid" r="1"/>
<circle cx="310.3030303030303" cy="-194.54867357837108" fill="mediumorchid" r="1"/>
<circle cx="315.1515151515151" cy="-188.7547936151041" fill="mediumorchid" r="1"/>
<circle cx="319.99999999999994" cy="-182.71110529628996" fill="mediumorchid" r="1"/>
<circle cx="324.8484848484849" cy="-176.43794677408167" fill="mediumorchid" r="1"/>
<circle cx="329.6969696969697" cy="-169.9563066938758" fill="mediumorchid" r="1"/>
<circle cx="334.54545454545456" cy="-163.28776569821196" fill="mediumorchid" r="1"/>
<circle cx="339.3939393939394" cy="-156.4544388711254" fill="mediumorchid" r="1"/>
<circle cx="344.2424242424242" cy="-149.47891912295083" fill="mediumorchid" r="1"/>
<circle cx="349.0909090909091" cy="-142.38422151557756" fill="mediumorchid" r="1"/>
<circle cx="353.93939393939394" cy="-135.19372852815783" fill="mediumorchid" r="1"/>
<circle cx="358.7878787878788" cy="-127.93113626326475" fill="mediumorchid" r="1"/>
<circle cx="363.6363636363636" cy="-120.62040159350401" fill="mediumorchid" r="1"/>
<circle cx="368.48484848484844" cy="-113.28569024857649" fill="mediumorchid" r="1"/>
<circle cx="373.33333333333337" cy="-105.95132584279219" fill="mediumorchid" r="1"/>
<circle cx="378.1818181818182" cy="-98.64173984303704" fill="mediumorchid" r="1"/>
<circle cx="383.030303030303" cy="-91.38142247719055" fill="mediumorchid" r="1"/>
<circle cx="387.8787878787879" cy="-84.19487458299518" fill="mediumorchid" r="1"/>
<circle cx="392.7272727272727" cy="-77.10656039737874" fill="mediumorchid" r="1"/>
<circle cx="397.5757575757576" cy="-70.14086128622647" fill="mediumorchid" r="1"/>
<circle cx="402.42424242424244" cy="-63.322030414607305" fill="mediumorchid" r="1"/>
<circle cx="407.27272727272725" cy="-56.67414835744949" fill="mediumorchid" r="1"/>
<circle cx="412.1212121212122" cy="-50.221079650669566" fill="mediumorchid" r="1"/>
<circle cx="416.969696969697" cy="-43.98643028275328" fill="mediumorchid" r="1"/>
<circle cx="421.8181818181818" cy="-37.99350612678646" fill="mediumorchid" r="1"/>
<circle cx="426.6666666666667" cy="-32.26527231293969" fill="mediumorchid" r="1"/>
<circle cx="431.5151515151515" cy="-26.824313541403843" fill="mediumorchid" r="1"/>
<circle cx="436.3636363636364" cy="-21.692795335776882" fill="mediumorchid" r="1"/>
<circle cx="441.2121212121212" cy="-16.892426236903784" fill="mediumorchid" r="1"/>
<circle cx="446.060606060606" cy="-12.444420937166505" fill="mediumorchid" r="1"/>
<circle cx="450.9090909090909" cy="-8.369464355227406" fill="mediumorchid" r="1"/>
<circle cx="455.7575757575758" cy="-4.68767665122331" fill="mediumorchid" r="1"/>
<circle cx="460.6060606060606" cy="-1.418579182411534" fill="mediumorchid" r="1"/>
<circle cx="465.4545454545455" cy="1.418938600731939" fill="mediumorchid" r="1"/>
<circle cx="470.3030303030303" cy="3.806651317962745" fill="mediumorchid" r="1"/>
<circle cx="475.1515151515152" cy="5.727028882266872" fill="mediumorchid" r="1"/>
<circle cx="480" cy="7.163266782407376" fill="mediumorchid" r="1"/>
</g>
</g>
<g>
<g>
<line stroke="black" stroke-width="1" x1="0" x2="0" y1="0" y2="10"/>
<line stroke="black" stroke-width="1" x1="96" x2="96" y1="0" y2="10"/>
<line stroke="black" stroke-width="1" x1="192" x2="192" y1="0" y2="10"/>
<line stroke="black" stroke-width="1" x1="288" x2="288" y1="0" y2="10"/>
<line stroke="black" stroke-width="1" x1="384" x2="384" y1="0" y2="10"/>
<line stroke="black" stroke-width="1" x1="480" x2="480" y1="0" y2="10"/>
</g>
<line stroke="black" stroke-width="1" x1="0" x2="480" y1="0" y2="0"/>
<g>
<text font-size="12" text-anchor="middle" x="0" y="20">
0
</text>
<text font-size="12" text-anchor="middle" x="96" y="20">
1
</text>
<text font-size="12" text-anchor="middle" x="192" y="20">
2
</text>
<text font-size="12" text-anchor="middle" x="288" y="20">
3
</text>
<text font-size="12" text-anchor="middle" x="384" y="20">
4
</text>
<text font-size="12" text-anchor="middle" x="480" y="20">
5
</text>
</g>
<text font-size="12" text-anchor="middle" x="240" y="30">
x
</text>
</g>
<g>
<g>
<line stroke="black" stroke-width="1" x1="0" x2="-10" y1="-56.666666666666664" y2="-56.666666666666664"/>
<line stroke="black" stroke-width="1" x1="0" x2="-10" y1="-170" y2="-170"/>
<line stroke="black" stroke-width="1" x1="0" x2="-10" y1="-283.3333333333333" y2="-283.3333333333333"/>
</g>
<line stroke="black" stroke-width="1" x1="0" x2="0" y1="0" y2="-340"/>
<g>
<text dominant-baseline="middle" font-size="12" text-anchor="end" x="-15" y="-56.666666666666664">
-2
</text>
<text dominant-baseline="middle" font-size="12" text-anchor="end" x="-15" y="-170">
0
</text>
<text dominant-baseline="middle" font-size="12" text-anchor="end" x="-15" y="-283.3333333333333">
2
</text>
</g>
<text font-size="12" text-anchor="middle" transform="rotate(-90 -24 -170)" x="-24" y="-182">
Laguerre(0.5)
</text>
</g>
</g>
</svg>