<svg viewBox="0 0 600 400" xmlns="http://www.w3.org/2000/svg">
<g transform="translate(72, 364)">
<g>
<g>
<path d="M0,-170 L0,-170 L480,-170" fill="none" stroke="lightgray" stroke-linejoin="round" stroke-width="2"/>
</g>
</g>
<g>
<g>
<path d="M0,-324.54544 L0,-324.54544 L4.848485,-324.54544 L9.69697,-324.54544 L14.545455,-324.54544 L19.39394,-324.54544 L24.242424,-324.54544 L29.09091,-324.54544 L33.939392,-324.54544 L38.78788,-324.54544 L43.636364,-324.54544 L48.484848,-324.54544 L53.333332,-324.54544 L58.18182,-324.54544 L63.030304,-324.54544 L67.878784,-324.54544 L72.72727,-324.54544 L77.57576,-324.54544 L82.42424,-324.54544 L87.27273,-324.54544 L92.121216,-324.54544 L96.969696,-324.54544 L101.818184,-324.54544 L106.666664,-324.54544 L111.51515,-324.54544 L116.36364,-324.54544 L121.21212,-324.54544 L126.06061,-324.54544 L130.90909,-324.54544 L135.75757,-324.54544 L140.60606,-324.54544 L145.45454,-324.54544 L150.30302,-324.54544 L155.15152,-324.54544 L160,-324.54544 L164.84848,-324.54544 L169.69698,-324.54544 L174.54546,-324.54544 L179.39394,-324.54544 L184.24243,-324.54544 L189.09091,-324.54544 L193.93939,-324.54544 L198.78787,-324.54544 L203.63637,-324.54544 L208.48485,-324.54544 L213.33333,-324.54544 L218.18182,-324.54544 L223.0303,-324.54544 L227.87878,-324.54544 L232.72728,-324.54544 L237.57576,-324.54544 L242.42424,-324.54544 L247.27272,-324.54544 L252.12122,-324.54544 L256.9697,-324.54544 L261.81818,-324.54544 L266.66666,-324.54544 L271.51514,-324.54544 L276.36365,-324.54544 L281.21213,-324.54544 L286.0606,-324.54544 L290.9091,-324.54544 L295.75757,-324.54544 L300.60605,-324.54544 L305.45456,-324.54544 L310.30304,-324.54544 L315.15152,-324.54544 L320,-324.54544 L324.84848,-324.54544 L329.69696,-324.54544 L334.54544,-324.54544 L339.39395,-324.54544 L344.24243,-324.54544 L349.0909,-324.54544 L353.9394,-324.54544 L358.78787,-324.54544 L363.63635,-324.54544 L368.48486,-324.54544 L373.33334,-324.54544 L378.18182,-324.54544 L383.0303,-324.54544 L387.87878,-324.54544 L392.72726,-324.54544 L397.57574,-324.54544 L402.42426,-324.54544 L407.27274,-324.54544 L412.12122,-324.54544 L416.9697,-324.54544 L421.81818,-324.54544 L426.66666,-324.54544 L431.51514,-324.54544 L436.36365,-324.54544 L441.21213,-324.54544 L446.0606,-324.54544 L450.9091,-324.54544 L455.75757,-324.54544 L460.60605,-324.54544 L465.45456,-324.54544 L470.30304,-324.54544 L475.15152,-324.54544 L480,-324.54544" fill="none" stroke="black" stroke-linejoin="round" stroke-width="2"/>
</g>
<g>
<circle cx="0" cy="-324.5454545454545" fill="black" r="1"/>
<circle cx="4.848484848484853" cy="-324.5454545454545" fill="black" r="1"/>
<circle cx="9.696969696969706" cy="-324.5454545454545" fill="black" r="1"/>
<circle cx="14.545454545454533" cy="-324.5454545454545" fill="black" r="1"/>
<circle cx="19.393939393939384" cy="-324.5454545454545" fill="black" r="1"/>
<circle cx="24.24242424242424" cy="-324.5454545454545" fill="black" r="1"/>
<circle cx="29.090909090909093" cy="-324.5454545454545" fill="black" r="1"/>
<circle cx="33.939393939393945" cy="-324.5454545454545" fill="black" r="1"/>
<circle cx="38.787878787878796" cy="-324.5454545454545" fill="black" r="1"/>
<circle cx="43.636363636363654" cy="-324.5454545454545" fill="black" r="1"/>
<circle cx="48.48484848484848" cy="-324.5454545454545" fill="black" r="1"/>
<circle cx="53.33333333333333" cy="-324.5454545454545" fill="black" r="1"/>
<circle cx="58.18181818181819" cy="-324.5454545454545" fill="black" r="1"/>
<circle cx="63.03030303030304" cy="-324.5454545454545" fill="black" r="1"/>
<circle cx="67.87878787878789" cy="-324.5454545454545" fill="black" r="1"/>
<circle cx="72.72727272727272" cy="-324.5454545454545" fill="black" r="1"/>
<circle cx="77.57575757575759" cy="-324.5454545454545" fill="black" r="1"/>
<circle cx="82.42424242424242" cy="-324.5454545454545" fill="black" r="1"/>
<circle cx="87.27272727272728" cy="-324.5454545454545" fill="black" r="1"/>
<circle cx="92.12121212121212" cy="-324.5454545454545" fill="black" r="1"/>
<circle cx="96.96969696969698" cy="-324.5454545454545" fill="black" r="1"/>
<circle cx="101.81818181818184" cy="-324.5454545454545" fill="black" r="1"/>
<circle cx="106.66666666666666" cy="-324.5454545454545" fill="black" r="1"/>
<circle cx="111.51515151515154" cy="-324.5454545454545" fill="black" r="1"/>
<circle cx="116.36363636363637" cy="-324.5454545454545" fill="black" r="1"/>
<circle cx="121.21212121212122" cy="-324.5454545454545" fill="black" r="1"/>
<circle cx="126.06060606060608" cy="-324.5454545454545" fill="black" r="1"/>
<circle cx="130.90909090909093" cy="-324.5454545454545" fill="black" r="1"/>
<circle cx="135.75757575757578" cy="-324.5454545454545" fill="black" r="1"/>
<circle cx="140.6060606060606" cy="-324.5454545454545" fill="black" r="1"/>
<circle cx="145.45454545454547" cy="-324.5454545454545" fill="black" r="1"/>
<circle cx="150.3030303030303" cy="-324.5454545454545" fill="black" r="1"/>
<circle cx="155.15151515151516" cy="-324.5454545454545" fill="black" r="1"/>
<circle cx="160.00000000000003" cy="-324.5454545454545" fill="black" r="1"/>
<circle cx="164.84848484848487" cy="-324.5454545454545" fill="black" r="1"/>
<circle cx="169.69696969696972" cy="-324.5454545454545" fill="black" r="1"/>
<circle cx="174.54545454545456" cy="-324.5454545454545" fill="black" r="1"/>
<circle cx="179.3939393939394" cy="-324.5454545454545" fill="black" r="1"/>
<circle cx="184.24242424242425" cy="-324.5454545454545" fill="black" r="1"/>
<circle cx="189.09090909090912" cy="-324.5454545454545" fill="black" r="1"/>
<circle cx="193.93939393939397" cy="-324.5454545454545" fill="black" r="1"/>
<circle cx="198.7878787878788" cy="-324.5454545454545" fill="black" r="1"/>
<circle cx="203.63636363636365" cy="-324.5454545454545" fill="black" r="1"/>
<circle cx="208.4848484848485" cy="-324.5454545454545" fill="black" r="1"/>
<circle cx="213.33333333333334" cy="-324.5454545454545" fill="black" r="1"/>
<circle cx="218.1818181818182" cy="-324.5454545454545" fill="black" r="1"/>
<circle cx="223.03030303030306" cy="-324.5454545454545" fill="black" r="1"/>
<circle cx="227.8787878787879" cy="-324.5454545454545" fill="black" r="1"/>
<circle cx="232.72727272727275" cy="-324.5454545454545" fill="black" r="1"/>
<circle cx="237.5757575757576" cy="-324.5454545454545" fill="black" r="1"/>
<circle cx="242.42424242424244" cy="-324.5454545454545" fill="black" r="1"/>
<circle cx="247.27272727272725" cy="-324.5454545454545" fill="black" r="1"/>
<circle cx="252.1212121212121" cy="-324.5454545454545" fill="black" r="1"/>
<circle cx="256.96969696969694" cy="-324.5454545454545" fill="black" r="1"/>
<circle cx="261.8181818181818" cy="-324.5454545454545" fill="black" r="1"/>
<circle cx="266.6666666666667" cy="-324.5454545454545" fill="black" r="1"/>
<circle cx="271.5151515151515" cy="-324.5454545454545" fill="black" r="1"/>
<circle cx="276.3636363636363" cy="-324.5454545454545" fill="black" r="1"/>
<circle cx="281.2121212121212" cy="-324.5454545454545" fill="black" r="1"/>
<circle cx="286.06060606060606" cy="-324.5454545454545" fill="black" r="1"/>
<circle cx="290.9090909090909" cy="-324.5454545454545" fill="black" r="1"/>
<circle cx="295.75757575757575" cy="-324.5454545454545" fill="black" r="1"/>
<circle cx="300.6060606060606" cy="-324.5454545454545" fill="black" r="1"/>
<circle cx="305.45454545454544" cy="-324.5454545454545" fill="black" r="1"/>
<circle cx="310.30303030303025" cy="-324.5454545454545" fill="black" r="1"/>
<circle cx="315.1515151515151" cy="-324.5454545454545" fill="black" r="1"/>
<circle cx="320" cy="-324.5454545454545" fill="black" r="1"/>
<circle cx="324.8484848484848" cy="-324.5454545454545" fill="black" r="1"/>
<circle cx="329.6969696969697" cy="-324.5454545454545" fill="black" r="1"/>
<circle cx="334.54545454545456" cy="-324.5454545454545" fill="black" r="1"/>
<circle cx="339.3939393939394" cy="-324.5454545454545" fill="black" r="1"/>
<circle cx="344.24242424242425" cy="-324.5454545454545" fill="black" r="1"/>
<circle cx="349.0909090909091" cy="-324.5454545454545" fill="black" r="1"/>
<circle cx="353.93939393939394" cy="-324.5454545454545" fill="black" r="1"/>
<circle cx="358.78787878787875" cy="-324.5454545454545" fill="black" r="1"/>
<circle cx="363.6363636363636" cy="-324.5454545454545" fill="black" r="1"/>
<circle cx="368.48484848484844" cy="-324.5454545454545" fill="black" r="1"/>
<circle cx="373.3333333333333" cy="-324.5454545454545" fill="black" r="1"/>
<circle cx="378.1818181818182" cy="-324.5454545454545" fill="black" r="1"/>
<circle cx="383.03030303030306" cy="-324.5454545454545" fill="black" r="1"/>
<circle cx="387.8787878787879" cy="-324.5454545454545" fill="black" r="1"/>
<circle cx="392.7272727272727" cy="-324.5454545454545" fill="black" r="1"/>
<circle cx="397.57575757575756" cy="-324.5454545454545" fill="black" r="1"/>
<circle cx="402.4242424242424" cy="-324.5454545454545" fill="black" r="1"/>
<circle cx="407.2727272727273" cy="-324.5454545454545" fill="black" r="1"/>
<circle cx="412.1212121212121" cy="-324.5454545454545" fill="black" r="1"/>
<circle cx="416.969696969697" cy="-324.5454545454545" fill="black" r="1"/>
<circle cx="421.8181818181818" cy="-324.5454545454545" fill="black" r="1"/>
<circle cx="426.66666666666663" cy="-324.5454545454545" fill="black" r="1"/>
<circle cx="431.5151515151515" cy="-324.5454545454545" fill="black" r="1"/>
<circle cx="436.3636363636364" cy="-324.5454545454545" fill="black" r="1"/>
<circle cx="441.2121212121212" cy="-324.5454545454545" fill="black" r="1"/>
<circle cx="446.06060606060606" cy="-324.5454545454545" fill="black" r="1"/>
<circle cx="450.90909090909093" cy="-324.5454545454545" fill="black" r="1"/>
<circle cx="455.75757575757575" cy="-324.5454545454545" fill="black" r="1"/>
<circle cx="460.60606060606057" cy="-324.5454545454545" fill="black" r="1"/>
<circle cx="465.4545454545455" cy="-324.5454545454545" fill="black" r="1"/>
<circle cx="470.3030303030303" cy="-324.5454545454545" fill="black" r="1"/>
<circle cx="475.1515151515151" cy="-324.5454545454545" fill="black" r="1"/>
<circle cx="480" cy="-324.5454545454545" fill="black" r="1"/>
</g>
</g>
<g>
<g>
<path d="M0,-15.454545 L0,-15.454545 L4.848485,-18.576675 L9.69697,-21.698807 L14.545455,-24.820936 L19.39394,-27.943068 L24.242424,-31.065197 L29.09091,-34.18733 L33.939392,-37.30946 L38.78788,-40.431587 L43.636364,-43.55372 L48.484848,-46.67585 L53.333332,-49.79798 L58.18182,-52.92011 L63.030304,-56.04224 L67.878784,-59.16437 L72.72727,-62.286503 L77.57576,-65.40863 L82.42424,-68.53076 L87.27273,-71.65289 L92.121216,-74.775024 L96.969696,-77.897156 L101.818184,-81.01929 L106.666664,-84.14141 L111.51515,-87.26354 L116.36364,-90.38567 L121.21212,-93.507805 L126.06061,-96.62994 L130.90909,-99.75207 L135.75757,-102.8742 L140.60606,-105.99633 L145.45454,-109.118454 L150.30302,-112.240585 L155.15152,-115.36272 L160,-118.48485 L164.84848,-121.60698 L169.69698,-124.72911 L174.54546,-127.85124 L179.39394,-130.97337 L184.24243,-134.0955 L189.09091,-137.21764 L193.93939,-140.33977 L198.78787,-143.4619 L203.63637,-146.58401 L208.48485,-149.70615 L213.33333,-152.82828 L218.18182,-155.95041 L223.0303,-159.07254 L227.87878,-162.19467 L232.72728,-165.3168 L237.57576,-168.43893 L242.42424,-171.56107 L247.27272,-174.6832 L252.12122,-177.80533 L256.9697,-180.92746 L261.81818,-184.04959 L266.66666,-187.17172 L271.51514,-190.29385 L276.36365,-193.41599 L281.21213,-196.5381 L286.0606,-199.66023 L290.9091,-202.78236 L295.75757,-205.9045 L300.60605,-209.02663 L305.45456,-212.14876 L310.30304,-215.27089 L315.15152,-218.39302 L320,-221.51515 L324.84848,-224.63728 L329.69696,-227.75941 L334.54544,-230.88155 L339.39395,-234.00368 L344.24243,-237.12581 L349.0909,-240.24794 L353.9394,-243.37007 L358.78787,-246.49219 L363.63635,-249.61432 L368.48486,-252.73645 L373.33334,-255.85858 L378.18182,-258.9807 L383.0303,-262.10284 L387.87878,-265.22498 L392.72726,-268.3471 L397.57574,-271.46924 L402.42426,-274.59137 L407.27274,-277.7135 L412.12122,-280.83563 L416.9697,-283.95776 L421.81818,-287.0799 L426.66666,-290.20203 L431.51514,-293.32416 L436.36365,-296.4463 L441.21213,-299.56842 L446.0606,-302.69055 L450.9091,-305.81268 L455.75757,-308.9348 L460.60605,-312.05695 L465.45456,-315.17908 L470.30304,-318.3012 L475.15152,-321.4233 L480,-324.54544" fill="none" stroke="red" stroke-linejoin="round" stroke-width="2"/>
</g>
<g>
<circle cx="0" cy="-15.454545454545466" fill="red" r="1"/>
<circle cx="4.848484848484853" cy="-18.576675849403138" fill="red" r="1"/>
<circle cx="9.696969696969706" cy="-21.69880624426081" fill="red" r="1"/>
<circle cx="14.545454545454533" cy="-24.82093663911846" fill="red" r="1"/>
<circle cx="19.393939393939384" cy="-27.94306703397613" fill="red" r="1"/>
<circle cx="24.24242424242424" cy="-31.0651974288338" fill="red" r="1"/>
<circle cx="29.090909090909093" cy="-34.187327823691476" fill="red" r="1"/>
<circle cx="33.939393939393945" cy="-37.30945821854914" fill="red" r="1"/>
<circle cx="38.787878787878796" cy="-40.43158861340681" fill="red" r="1"/>
<circle cx="43.636363636363654" cy="-43.55371900826448" fill="red" r="1"/>
<circle cx="48.48484848484848" cy="-46.675849403122136" fill="red" r="1"/>
<circle cx="53.33333333333333" cy="-49.79797979797981" fill="red" r="1"/>
<circle cx="58.18181818181819" cy="-52.92011019283747" fill="red" r="1"/>
<circle cx="63.03030303030304" cy="-56.04224058769515" fill="red" r="1"/>
<circle cx="67.87878787878789" cy="-59.16437098255281" fill="red" r="1"/>
<circle cx="72.72727272727272" cy="-62.28650137741047" fill="red" r="1"/>
<circle cx="77.57575757575759" cy="-65.40863177226815" fill="red" r="1"/>
<circle cx="82.42424242424242" cy="-68.53076216712581" fill="red" r="1"/>
<circle cx="87.27272727272728" cy="-71.65289256198349" fill="red" r="1"/>
<circle cx="92.12121212121212" cy="-74.77502295684116" fill="red" r="1"/>
<circle cx="96.96969696969698" cy="-77.89715335169882" fill="red" r="1"/>
<circle cx="101.81818181818184" cy="-81.0192837465565" fill="red" r="1"/>
<circle cx="106.66666666666666" cy="-84.14141414141415" fill="red" r="1"/>
<circle cx="111.51515151515154" cy="-87.26354453627182" fill="red" r="1"/>
<circle cx="116.36363636363637" cy="-90.38567493112949" fill="red" r="1"/>
<circle cx="121.21212121212122" cy="-93.50780532598716" fill="red" r="1"/>
<circle cx="126.06060606060608" cy="-96.62993572084483" fill="red" r="1"/>
<circle cx="130.90909090909093" cy="-99.75206611570249" fill="red" r="1"/>
<circle cx="135.75757575757578" cy="-102.87419651056017" fill="red" r="1"/>
<circle cx="140.6060606060606" cy="-105.99632690541782" fill="red" r="1"/>
<circle cx="145.45454545454547" cy="-109.11845730027548" fill="red" r="1"/>
<circle cx="150.3030303030303" cy="-112.24058769513317" fill="red" r="1"/>
<circle cx="155.15151515151516" cy="-115.36271808999084" fill="red" r="1"/>
<circle cx="160.00000000000003" cy="-118.48484848484851" fill="red" r="1"/>
<circle cx="164.84848484848487" cy="-121.60697887970616" fill="red" r="1"/>
<circle cx="169.69696969696972" cy="-124.72910927456384" fill="red" r="1"/>
<circle cx="174.54545454545456" cy="-127.85123966942149" fill="red" r="1"/>
<circle cx="179.3939393939394" cy="-130.97337006427918" fill="red" r="1"/>
<circle cx="184.24242424242425" cy="-134.09550045913682" fill="red" r="1"/>
<circle cx="189.09090909090912" cy="-137.2176308539945" fill="red" r="1"/>
<circle cx="193.93939393939397" cy="-140.33976124885217" fill="red" r="1"/>
<circle cx="198.7878787878788" cy="-143.46189164370983" fill="red" r="1"/>
<circle cx="203.63636363636365" cy="-146.5840220385675" fill="red" r="1"/>
<circle cx="208.4848484848485" cy="-149.70615243342516" fill="red" r="1"/>
<circle cx="213.33333333333334" cy="-152.82828282828285" fill="red" r="1"/>
<circle cx="218.1818181818182" cy="-155.9504132231405" fill="red" r="1"/>
<circle cx="223.03030303030306" cy="-159.0725436179982" fill="red" r="1"/>
<circle cx="227.8787878787879" cy="-162.19467401285584" fill="red" r="1"/>
<circle cx="232.72727272727275" cy="-165.3168044077135" fill="red" r="1"/>
<circle cx="237.5757575757576" cy="-168.4389348025712" fill="red" r="1"/>
<circle cx="242.42424242424244" cy="-171.56106519742883" fill="red" r="1"/>
<circle cx="247.27272727272725" cy="-174.6831955922865" fill="red" r="1"/>
<circle cx="252.1212121212121" cy="-177.80532598714413" fill="red" r="1"/>
<circle cx="256.96969696969694" cy="-180.9274563820018" fill="red" r="1"/>
<circle cx="261.8181818181818" cy="-184.0495867768595" fill="red" r="1"/>
<circle cx="266.6666666666667" cy="-187.17171717171718" fill="red" r="1"/>
<circle cx="271.5151515151515" cy="-190.29384756657484" fill="red" r="1"/>
<circle cx="276.3636363636363" cy="-193.41597796143247" fill="red" r="1"/>
<circle cx="281.2121212121212" cy="-196.53810835629017" fill="red" r="1"/>
<circle cx="286.06060606060606" cy="-199.66023875114783" fill="red" r="1"/>
<circle cx="290.9090909090909" cy="-202.78236914600546" fill="red" r="1"/>
<circle cx="295.75757575757575" cy="-205.90449954086318" fill="red" r="1"/>
<circle cx="300.6060606060606" cy="-209.02662993572085" fill="red" r="1"/>
<circle cx="305.45454545454544" cy="-212.1487603305785" fill="red" r="1"/>
<circle cx="310.30303030303025" cy="-215.27089072543615" fill="red" r="1"/>
<circle cx="315.1515151515151" cy="-218.39302112029384" fill="red" r="1"/>
<circle cx="320" cy="-221.5151515151515" fill="red" r="1"/>
<circle cx="324.8484848484848" cy="-224.63728191000914" fill="red" r="1"/>
<circle cx="329.6969696969697" cy="-227.75941230486686" fill="red" r="1"/>
<circle cx="334.54545454545456" cy="-230.88154269972452" fill="red" r="1"/>
<circle cx="339.3939393939394" cy="-234.00367309458218" fill="red" r="1"/>
<circle cx="344.24242424242425" cy="-237.12580348943982" fill="red" r="1"/>
<circle cx="349.0909090909091" cy="-240.24793388429754" fill="red" r="1"/>
<circle cx="353.93939393939394" cy="-243.37006427915517" fill="red" r="1"/>
<circle cx="358.78787878787875" cy="-246.49219467401284" fill="red" r="1"/>
<circle cx="363.6363636363636" cy="-249.6143250688705" fill="red" r="1"/>
<circle cx="368.48484848484844" cy="-252.73645546372813" fill="red" r="1"/>
<circle cx="373.3333333333333" cy="-255.85858585858585" fill="red" r="1"/>
<circle cx="378.1818181818182" cy="-258.9807162534435" fill="red" r="1"/>
<circle cx="383.03030303030306" cy="-262.1028466483012" fill="red" r="1"/>
<circle cx="387.8787878787879" cy="-265.22497704315884" fill="red" r="1"/>
<circle cx="392.7272727272727" cy="-268.3471074380165" fill="red" r="1"/>
<circle cx="397.57575757575756" cy="-271.46923783287417" fill="red" r="1"/>
<circle cx="402.4242424242424" cy="-274.59136822773183" fill="red" r="1"/>
<circle cx="407.2727272727273" cy="-277.7134986225895" fill="red" r="1"/>
<circle cx="412.1212121212121" cy="-280.83562901744716" fill="red" r="1"/>
<circle cx="416.969696969697" cy="-283.9577594123049" fill="red" r="1"/>
<circle cx="421.8181818181818" cy="-287.07988980716254" fill="red" r="1"/>
<circle cx="426.66666666666663" cy="-290.2020202020202" fill="red" r="1"/>
<circle cx="431.5151515151515" cy="-293.32415059687787" fill="red" r="1"/>
<circle cx="436.3636363636364" cy="-296.44628099173553" fill="red" r="1"/>
<circle cx="441.2121212121212" cy="-299.5684113865932" fill="red" r="1"/>
<circle cx="446.06060606060606" cy="-302.69054178145086" fill="red" r="1"/>
<circle cx="450.90909090909093" cy="-305.8126721763085" fill="red" r="1"/>
<circle cx="455.75757575757575" cy="-308.9348025711662" fill="red" r="1"/>
<circle cx="460.60606060606057" cy="-312.05693296602385" fill="red" r="1"/>
<circle cx="465.4545454545455" cy="-315.17906336088157" fill="red" r="1"/>
<circle cx="470.3030303030303" cy="-318.30119375573923" fill="red" r="1"/>
<circle cx="475.1515151515151" cy="-321.42332415059684" fill="red" r="1"/>
<circle cx="480" cy="-324.5454545454545" fill="red" r="1"/>
</g>
</g>
<g>
<g>
<path d="M0,-324.54544 L0,-324.54544 L4.848485,-315.27368 L9.69697,-306.1911 L14.545455,-297.29776 L19.39394,-288.59366 L24.242424,-280.07874 L29.09091,-271.75308 L33.939392,-263.6166 L38.78788,-255.66937 L43.636364,-247.91135 L48.484848,-240.34254 L53.333332,-232.96297 L58.18182,-225.7726 L63.030304,-218.77145 L67.878784,-211.95953 L72.72727,-205.33684 L77.57576,-198.90337 L82.42424,-192.6591 L87.27273,-186.60405 L92.121216,-180.73824 L96.969696,-175.06163 L101.818184,-169.57425 L106.666664,-164.2761 L111.51515,-159.16716 L116.36364,-154.24744 L121.21212,-149.51694 L126.06061,-144.97565 L130.90909,-140.6236 L135.75757,-136.46075 L140.60606,-132.48714 L145.45454,-128.70273 L150.30302,-125.10755 L155.15152,-121.70159 L160,-118.48485 L164.84848,-115.45733 L169.69698,-112.619026 L174.54546,-109.96995 L179.39394,-107.510086 L184.24243,-105.23945 L189.09091,-103.15803 L193.93939,-101.26582 L198.78787,-99.56284 L203.63637,-98.04909 L208.48485,-96.72455 L213.33333,-95.589226 L218.18182,-94.64313 L223.0303,-93.886246 L227.87878,-93.31859 L232.72728,-92.94015 L237.57576,-92.75092 L242.42424,-92.75092 L247.27272,-92.94015 L252.12122,-93.31859 L256.9697,-93.886246 L261.81818,-94.64313 L266.66666,-95.589226 L271.51514,-96.72455 L276.36365,-98.04909 L281.21213,-99.56284 L286.0606,-101.26582 L290.9091,-103.15803 L295.75757,-105.23945 L300.60605,-107.510086 L305.45456,-109.96995 L310.30304,-112.619026 L315.15152,-115.45733 L320,-118.48485 L324.84848,-121.70159 L329.69696,-125.10755 L334.54544,-128.70273 L339.39395,-132.48714 L344.24243,-136.46075 L349.0909,-140.6236 L353.9394,-144.97565 L358.78787,-149.51694 L363.63635,-154.24744 L368.48486,-159.16716 L373.33334,-164.2761 L378.18182,-169.57425 L383.0303,-175.06163 L387.87878,-180.73824 L392.72726,-186.60405 L397.57574,-192.6591 L402.42426,-198.90337 L407.27274,-205.33684 L412.12122,-211.95953 L416.9697,-218.77145 L421.81818,-225.7726 L426.66666,-232.96297 L431.51514,-240.34254 L436.36365,-247.91135 L441.21213,-255.66937 L446.0606,-263.6166 L450.9091,-271.75308 L455.75757,-280.07874 L460.60605,-288.59366 L465.45456,-297.29776 L470.30304,-306.1911 L475.15152,-315.27368 L480,-324.54544" fill="none" stroke="blue" stroke-linejoin="round" stroke-width="2"/>
</g>
<g>
<circle cx="0" cy="-324.5454545454545" fill="blue" r="1"/>
<circle cx="4.848484848484853" cy="-315.2736733728469" fill="blue" r="1"/>
<circle cx="9.696969696969706" cy="-306.19111222417007" fill="blue" r="1"/>
<circle cx="14.545454545454533" cy="-297.297771099424" fill="blue" r="1"/>
<circle cx="19.393939393939384" cy="-288.5936499986087" fill="blue" r="1"/>
<circle cx="24.24242424242424" cy="-280.0787489217241" fill="blue" r="1"/>
<circle cx="29.090909090909093" cy="-271.7530678687703" fill="blue" r="1"/>
<circle cx="33.939393939393945" cy="-263.61660683974725" fill="blue" r="1"/>
<circle cx="38.787878787878796" cy="-255.66936583465508" fill="blue" r="1"/>
<circle cx="43.636363636363654" cy="-247.9113448534936" fill="blue" r="1"/>
<circle cx="48.48484848484848" cy="-240.3425438962629" fill="blue" r="1"/>
<circle cx="53.33333333333333" cy="-232.962962962963" fill="blue" r="1"/>
<circle cx="58.18181818181819" cy="-225.77260205359377" fill="blue" r="1"/>
<circle cx="63.03030303030304" cy="-218.77146116815538" fill="blue" r="1"/>
<circle cx="67.87878787878789" cy="-211.95954030664774" fill="blue" r="1"/>
<circle cx="72.72727272727272" cy="-205.3368394690709" fill="blue" r="1"/>
<circle cx="77.57575757575759" cy="-198.90335865542474" fill="blue" r="1"/>
<circle cx="82.42424242424242" cy="-192.6590978657094" fill="blue" r="1"/>
<circle cx="87.27272727272728" cy="-186.60405709992486" fill="blue" r="1"/>
<circle cx="92.12121212121212" cy="-180.73823635807105" fill="blue" r="1"/>
<circle cx="96.96969696969698" cy="-175.06163564014798" fill="blue" r="1"/>
<circle cx="101.81818181818184" cy="-169.57425494615575" fill="blue" r="1"/>
<circle cx="106.66666666666666" cy="-164.27609427609428" fill="blue" r="1"/>
<circle cx="111.51515151515154" cy="-159.16715362996354" fill="blue" r="1"/>
<circle cx="116.36363636363637" cy="-154.24743300776356" fill="blue" r="1"/>
<circle cx="121.21212121212122" cy="-149.5169324094944" fill="blue" r="1"/>
<circle cx="126.06060606060608" cy="-144.97565183515596" fill="blue" r="1"/>
<circle cx="130.90909090909093" cy="-140.6235912847483" fill="blue" r="1"/>
<circle cx="135.75757575757578" cy="-136.4607507582714" fill="blue" r="1"/>
<circle cx="140.6060606060606" cy="-132.4871302557253" fill="blue" r="1"/>
<circle cx="145.45454545454547" cy="-128.70272977710994" fill="blue" r="1"/>
<circle cx="150.3030303030303" cy="-125.10754932242534" fill="blue" r="1"/>
<circle cx="155.15151515151516" cy="-121.70158889167152" fill="blue" r="1"/>
<circle cx="160.00000000000003" cy="-118.48484848484848" fill="blue" r="1"/>
<circle cx="164.84848484848487" cy="-115.4573281019562" fill="blue" r="1"/>
<circle cx="169.69696969696972" cy="-112.61902774299467" fill="blue" r="1"/>
<circle cx="174.54545454545456" cy="-109.96994740796393" fill="blue" r="1"/>
<circle cx="179.3939393939394" cy="-107.51008709686396" fill="blue" r="1"/>
<circle cx="184.24242424242425" cy="-105.23944680969474" fill="blue" r="1"/>
<circle cx="189.09090909090912" cy="-103.1580265464563" fill="blue" r="1"/>
<circle cx="193.93939393939397" cy="-101.26582630714863" fill="blue" r="1"/>
<circle cx="198.7878787878788" cy="-99.56284609177172" fill="blue" r="1"/>
<circle cx="203.63636363636365" cy="-98.04908590032557" fill="blue" r="1"/>
<circle cx="208.4848484848485" cy="-96.7245457328102" fill="blue" r="1"/>
<circle cx="213.33333333333334" cy="-95.58922558922559" fill="blue" r="1"/>
<circle cx="218.1818181818182" cy="-94.64312546957174" fill="blue" r="1"/>
<circle cx="223.03030303030306" cy="-93.88624537384868" fill="blue" r="1"/>
<circle cx="227.8787878787879" cy="-93.31858530205638" fill="blue" r="1"/>
<circle cx="232.72727272727275" cy="-92.94014525419483" fill="blue" r="1"/>
<circle cx="237.5757575757576" cy="-92.75092523026409" fill="blue" r="1"/>
<circle cx="242.42424242424244" cy="-92.75092523026409" fill="blue" r="1"/>
<circle cx="247.27272727272725" cy="-92.94014525419483" fill="blue" r="1"/>
<circle cx="252.1212121212121" cy="-93.31858530205638" fill="blue" r="1"/>
<circle cx="256.96969696969694" cy="-93.88624537384868" fill="blue" r="1"/>
<circle cx="261.8181818181818" cy="-94.64312546957174" fill="blue" r="1"/>
<circle cx="266.6666666666667" cy="-95.58922558922559" fill="blue" r="1"/>
<circle cx="271.5151515151515" cy="-96.7245457328102" fill="blue" r="1"/>
<circle cx="276.3636363636363" cy="-98.04908590032557" fill="blue" r="1"/>
<circle cx="281.2121212121212" cy="-99.56284609177172" fill="blue" r="1"/>
<circle cx="286.06060606060606" cy="-101.26582630714863" fill="blue" r="1"/>
<circle cx="290.9090909090909" cy="-103.1580265464563" fill="blue" r="1"/>
<circle cx="295.75757575757575" cy="-105.23944680969474" fill="blue" r="1"/>
<circle cx="300.6060606060606" cy="-107.51008709686396" fill="blue" r="1"/>
<circle cx="305.45454545454544" cy="-109.96994740796393" fill="blue" r="1"/>
<circle cx="310.30303030303025" cy="-112.61902774299467" fill="blue" r="1"/>
<circle cx="315.1515151515151" cy="-115.4573281019562" fill="blue" r="1"/>
<circle cx="320" cy="-118.48484848484848" fill="blue" r="1"/>
<circle cx="324.8484848484848" cy="-121.70158889167152" fill="blue" r="1"/>
<circle cx="329.6969696969697" cy="-125.10754932242534" fill="blue" r="1"/>
<circle cx="334.54545454545456" cy="-128.70272977710994" fill="blue" r="1"/>
<circle cx="339.3939393939394" cy="-132.4871302557253" fill="blue" r="1"/>
<circle cx="344.24242424242425" cy="-136.4607507582714" fill="blue" r="1"/>
<circle cx="349.0909090909091" cy="-140.6235912847483" fill="blue" r="1"/>
<circle cx="353.93939393939394" cy="-144.97565183515596" fill="blue" r="1"/>
<circle cx="358.78787878787875" cy="-149.5169324094944" fill="blue" r="1"/>
<circle cx="363.6363636363636" cy="-154.24743300776356" fill="blue" r="1"/>
<circle cx="368.48484848484844" cy="-159.16715362996354" fill="blue" r="1"/>
<circle cx="373.3333333333333" cy="-164.27609427609428" fill="blue" r="1"/>
<circle cx="378.1818181818182" cy="-169.57425494615575" fill="blue" r="1"/>
<circle cx="383.03030303030306" cy="-175.06163564014798" fill="blue" r="1"/>
<circle cx="387.8787878787879" cy="-180.73823635807105" fill="blue" r="1"/>
<circle cx="392.7272727272727" cy="-186.60405709992486" fill="blue" r="1"/>
<circle cx="397.57575757575756" cy="-192.6590978657094" fill="blue" r="1"/>
<circle cx="402.4242424242424" cy="-198.90335865542474" fill="blue" r="1"/>
<circle cx="407.2727272727273" cy="-205.3368394690709" fill="blue" r="1"/>
<circle cx="412.1212121212121" cy="-211.95954030664774" fill="blue" r="1"/>
<circle cx="416.969696969697" cy="-218.77146116815538" fill="blue" r="1"/>
<circle cx="421.8181818181818" cy="-225.77260205359377" fill="blue" r="1"/>
<circle cx="426.66666666666663" cy="-232.962962962963" fill="blue" r="1"/>
<circle cx="431.5151515151515" cy="-240.3425438962629" fill="blue" r="1"/>
<circle cx="436.3636363636364" cy="-247.9113448534936" fill="blue" r="1"/>
<circle cx="441.2121212121212" cy="-255.66936583465508" fill="blue" r="1"/>
<circle cx="446.06060606060606" cy="-263.61660683974725" fill="blue" r="1"/>
<circle cx="450.90909090909093" cy="-271.7530678687703" fill="blue" r="1"/>
<circle cx="455.75757575757575" cy="-280.0787489217241" fill="blue" r="1"/>
<circle cx="460.60606060606057" cy="-288.5936499986087" fill="blue" r="1"/>
<circle cx="465.4545454545455" cy="-297.297771099424" fill="blue" r="1"/>
<circle cx="470.3030303030303" cy="-306.19111222417007" fill="blue" r="1"/>
<circle cx="475.1515151515151" cy="-315.2736733728469" fill="blue" r="1"/>
<circle cx="480" cy="-324.5454545454545" fill="blue" r="1"/>
</g>
</g>
<g>
<g>
<path d="M0,-15.454545 L0,-15.454545 L4.848485,-33.717464 L9.69697,-51.053394 L14.545455,-67.48145 L19.39394,-83.020744 L24.242424,-97.6904 L29.09091,-111.509514 L33.939392,-124.4972 L38.78788,-136.67259 L43.636364,-148.05478 L48.484848,-158.66289 L53.333332,-168.51602 L58.18182,-177.6333 L63.030304,-186.03384 L67.878784,-193.73676 L72.72727,-200.76115 L77.57576,-207.12614 L82.42424,-212.85085 L87.27273,-217.95438 L92.121216,-222.45584 L96.969696,-226.37434 L101.818184,-229.72902 L106.666664,-232.53897 L111.51515,-234.8233 L116.36364,-236.60115 L121.21212,-237.8916 L126.06061,-238.71379 L130.90909,-239.0868 L135.75757,-239.02979 L140.60606,-238.56184 L145.45454,-237.70206 L150.30302,-236.46959 L155.15152,-234.88351 L160,-232.96297 L164.84848,-230.72705 L169.69698,-228.19487 L174.54546,-225.38556 L179.39394,-222.31822 L184.24243,-219.01196 L189.09091,-215.48592 L193.93939,-211.75917 L198.78787,-207.85086 L203.63637,-203.78008 L208.48485,-199.56595 L213.33333,-195.22758 L218.18182,-190.7841 L223.0303,-186.25461 L227.87878,-181.65822 L232.72728,-177.01404 L237.57576,-172.3412 L242.42424,-167.6588 L247.27272,-162.98596 L252.12122,-158.34178 L256.9697,-153.74539 L261.81818,-149.2159 L266.66666,-144.77242 L271.51514,-140.43405 L276.36365,-136.21992 L281.21213,-132.14914 L286.0606,-128.24083 L290.9091,-124.514084 L295.75757,-120.98803 L300.60605,-117.68178 L305.45456,-114.61444 L310.30304,-111.80513 L315.15152,-109.27296 L320,-107.03704 L324.84848,-105.116486 L329.69696,-103.53041 L334.54544,-102.297935 L339.39395,-101.43816 L344.24243,-100.97021 L349.0909,-100.91319 L353.9394,-101.28622 L358.78787,-102.1084 L363.63635,-103.39885 L368.48486,-105.17669 L373.33334,-107.46103 L378.18182,-110.27098 L383.0303,-113.625656 L387.87878,-117.54417 L392.72726,-122.04562 L397.57574,-127.14915 L402.42426,-132.87386 L407.27274,-139.23885 L412.12122,-146.26324 L416.9697,-153.96616 L421.81818,-162.3667 L426.66666,-171.48398 L431.51514,-181.33711 L436.36365,-191.94522 L441.21213,-203.32741 L446.0606,-215.50279 L450.9091,-228.4905 L455.75757,-242.3096 L460.60605,-256.97925 L465.45456,-272.51855 L470.30304,-288.9466 L475.15152,-306.28253 L480,-324.54544" fill="none" stroke="green" stroke-linejoin="round" stroke-width="2"/>
</g>
<g>
<circle cx="0" cy="-15.454545454545466" fill="green" r="1"/>
<circle cx="4.848484848484853" cy="-33.71746328615292" fill="green" r="1"/>
<circle cx="9.696969696969706" cy="-51.05339413183701" fill="green" r="1"/>
<circle cx="14.545454545454533" cy="-67.48145112532792" fill="green" r="1"/>
<circle cx="19.393939393939384" cy="-83.0207474003561" fill="green" r="1"/>
<circle cx="24.24242424242424" cy="-97.69039609065206" fill="green" r="1"/>
<circle cx="29.090909090909093" cy="-111.50951032994614" fill="green" r="1"/>
<circle cx="33.939393939393945" cy="-124.4972032519686" fill="green" r="1"/>
<circle cx="38.787878787878796" cy="-136.67258799044984" fill="green" r="1"/>
<circle cx="43.636363636363654" cy="-148.05477767912032" fill="green" r="1"/>
<circle cx="48.48484848484848" cy="-158.66288545171037" fill="green" r="1"/>
<circle cx="53.33333333333333" cy="-168.51602444195035" fill="green" r="1"/>
<circle cx="58.18181818181819" cy="-177.63330778357073" fill="green" r="1"/>
<circle cx="63.03030303030304" cy="-186.03384861030185" fill="green" r="1"/>
<circle cx="67.87878787878789" cy="-193.73676005587407" fill="green" r="1"/>
<circle cx="72.72727272727272" cy="-200.76115525401772" fill="green" r="1"/>
<circle cx="77.57575757575759" cy="-207.12614733846337" fill="green" r="1"/>
<circle cx="82.42424242424242" cy="-212.85084944294115" fill="green" r="1"/>
<circle cx="87.27272727272728" cy="-217.9543747011816" fill="green" r="1"/>
<circle cx="92.12121212121212" cy="-222.45583624691506" fill="green" r="1"/>
<circle cx="96.96969696969698" cy="-226.37434721387194" fill="green" r="1"/>
<circle cx="101.81818181818184" cy="-229.7290207357826" fill="green" r="1"/>
<circle cx="106.66666666666666" cy="-232.53896994637734" fill="green" r="1"/>
<circle cx="111.51515151515154" cy="-234.8233079793867" fill="green" r="1"/>
<circle cx="116.36363636363637" cy="-236.60114796854086" fill="green" r="1"/>
<circle cx="121.21212121212122" cy="-237.89160304757044" fill="green" r="1"/>
<circle cx="126.06060606060608" cy="-238.7137863502056" fill="green" r="1"/>
<circle cx="130.90909090909093" cy="-239.0868110101769" fill="green" r="1"/>
<circle cx="135.75757575757578" cy="-239.02979016121458" fill="green" r="1"/>
<circle cx="140.6060606060606" cy="-238.5618369370491" fill="green" r="1"/>
<circle cx="145.45454545454547" cy="-237.70206447141084" fill="green" r="1"/>
<circle cx="150.3030303030303" cy="-236.46958589803012" fill="green" r="1"/>
<circle cx="155.15151515151516" cy="-234.88351435063737" fill="green" r="1"/>
<circle cx="160.00000000000003" cy="-232.962962962963" fill="green" r="1"/>
<circle cx="164.84848484848487" cy="-230.72704486873727" fill="green" r="1"/>
<circle cx="169.69696969696972" cy="-228.19487320169068" fill="green" r="1"/>
<circle cx="174.54545454545456" cy="-225.38556109555356" fill="green" r="1"/>
<circle cx="179.3939393939394" cy="-222.31822168405634" fill="green" r="1"/>
<circle cx="184.24242424242425" cy="-219.01196810092932" fill="green" r="1"/>
<circle cx="189.09090909090912" cy="-215.48591347990293" fill="green" r="1"/>
<circle cx="193.93939393939397" cy="-211.7591709547076" fill="green" r="1"/>
<circle cx="198.7878787878788" cy="-207.85085365907358" fill="green" r="1"/>
<circle cx="203.63636363636365" cy="-203.78007472673139" fill="green" r="1"/>
<circle cx="208.4848484848485" cy="-199.56594729141128" fill="green" r="1"/>
<circle cx="213.33333333333334" cy="-195.22758448684374" fill="green" r="1"/>
<circle cx="218.1818181818182" cy="-190.7840994467591" fill="green" r="1"/>
<circle cx="223.03030303030306" cy="-186.25460530488775" fill="green" r="1"/>
<circle cx="227.8787878787879" cy="-181.65821519496004" fill="green" r="1"/>
<circle cx="232.72727272727275" cy="-177.01404225070638" fill="green" r="1"/>
<circle cx="237.5757575757576" cy="-172.34119960585718" fill="green" r="1"/>
<circle cx="242.42424242424244" cy="-167.65880039414276" fill="green" r="1"/>
<circle cx="247.27272727272725" cy="-162.98595774929362" fill="green" r="1"/>
<circle cx="252.1212121212121" cy="-158.34178480503996" fill="green" r="1"/>
<circle cx="256.96969696969694" cy="-153.74539469511228" fill="green" r="1"/>
<circle cx="261.8181818181818" cy="-149.21590055324089" fill="green" r="1"/>
<circle cx="266.6666666666667" cy="-144.77241551315626" fill="green" r="1"/>
<circle cx="271.5151515151515" cy="-140.43405270858872" fill="green" r="1"/>
<circle cx="276.3636363636363" cy="-136.21992527326864" fill="green" r="1"/>
<circle cx="281.2121212121212" cy="-132.14914634092642" fill="green" r="1"/>
<circle cx="286.06060606060606" cy="-128.24082904529243" fill="green" r="1"/>
<circle cx="290.9090909090909" cy="-124.51408652009707" fill="green" r="1"/>
<circle cx="295.75757575757575" cy="-120.98803189907068" fill="green" r="1"/>
<circle cx="300.6060606060606" cy="-117.68177831594367" fill="green" r="1"/>
<circle cx="305.45454545454544" cy="-114.61443890444643" fill="green" r="1"/>
<circle cx="310.30303030303025" cy="-111.80512679830932" fill="green" r="1"/>
<circle cx="315.1515151515151" cy="-109.27295513126276" fill="green" r="1"/>
<circle cx="320" cy="-107.03703703703704" fill="green" r="1"/>
<circle cx="324.8484848484848" cy="-105.11648564936266" fill="green" r="1"/>
<circle cx="329.6969696969697" cy="-103.53041410196991" fill="green" r="1"/>
<circle cx="334.54545454545456" cy="-102.29793552858916" fill="green" r="1"/>
<circle cx="339.3939393939394" cy="-101.43816306295089" fill="green" r="1"/>
<circle cx="344.24242424242425" cy="-100.97020983878541" fill="green" r="1"/>
<circle cx="349.0909090909091" cy="-100.9131889898231" fill="green" r="1"/>
<circle cx="353.93939393939394" cy="-101.28621364979436" fill="green" r="1"/>
<circle cx="358.78787878787875" cy="-102.10839695242957" fill="green" r="1"/>
<circle cx="363.6363636363636" cy="-103.39885203145911" fill="green" r="1"/>
<circle cx="368.48484848484844" cy="-105.17669202061333" fill="green" r="1"/>
<circle cx="373.3333333333333" cy="-107.46103005362266" fill="green" r="1"/>
<circle cx="378.1818181818182" cy="-110.27097926421743" fill="green" r="1"/>
<circle cx="383.03030303030306" cy="-113.62565278612804" fill="green" r="1"/>
<circle cx="387.8787878787879" cy="-117.54416375308493" fill="green" r="1"/>
<circle cx="392.7272727272727" cy="-122.04562529881841" fill="green" r="1"/>
<circle cx="397.57575757575756" cy="-127.14915055705883" fill="green" r="1"/>
<circle cx="402.4242424242424" cy="-132.87385266153663" fill="green" r="1"/>
<circle cx="407.2727272727273" cy="-139.23884474598228" fill="green" r="1"/>
<circle cx="412.1212121212121" cy="-146.26323994412593" fill="green" r="1"/>
<circle cx="416.969696969697" cy="-153.96615138969818" fill="green" r="1"/>
<circle cx="421.8181818181818" cy="-162.36669221642927" fill="green" r="1"/>
<circle cx="426.66666666666663" cy="-171.48397555804965" fill="green" r="1"/>
<circle cx="431.5151515151515" cy="-181.33711454828963" fill="green" r="1"/>
<circle cx="436.3636363636364" cy="-191.94522232087968" fill="green" r="1"/>
<circle cx="441.2121212121212" cy="-203.32741200955013" fill="green" r="1"/>
<circle cx="446.06060606060606" cy="-215.5027967480314" fill="green" r="1"/>
<circle cx="450.90909090909093" cy="-228.49048967005385" fill="green" r="1"/>
<circle cx="455.75757575757575" cy="-242.30960390934794" fill="green" r="1"/>
<circle cx="460.60606060606057" cy="-256.9792525996439" fill="green" r="1"/>
<circle cx="465.4545454545455" cy="-272.5185488746721" fill="green" r="1"/>
<circle cx="470.3030303030303" cy="-288.94660586816303" fill="green" r="1"/>
<circle cx="475.1515151515151" cy="-306.28253671384704" fill="green" r="1"/>
<circle cx="480" cy="-324.5454545454545" fill="green" r="1"/>
</g>
</g>
<g>
<g>
<path d="M0,-324.54544 L0,-324.54544 L4.848485,-294.7211 L9.69697,-267.60287 L14.545455,-243.06096 L19.39394,-220.96835 L24.242424,-201.20074 L29.09091,-183.63649 L33.939392,-168.15665 L38.78788,-154.64502 L43.636364,-142.98805 L48.484848,-133.07497 L53.333332,-124.79763 L58.18182,-118.05064 L63.030304,-112.73126 L67.878784,-108.73951 L72.72727,-105.97808 L77.57576,-104.35237 L82.42424,-103.770485 L87.27273,-104.14322 L92.121216,-105.384094 L96.969696,-107.40932 L101.818184,-110.137794 L106.666664,-113.49115 L111.51515,-117.39371 L116.36364,-121.772484 L121.21212,-126.5572 L126.06061,-131.6803 L130.90909,-137.07689 L135.75757,-142.68483 L140.60606,-148.44464 L145.45454,-154.29956 L150.30302,-160.19554 L155.15152,-166.08122 L160,-171.90797 L164.84848,-177.6298 L169.69698,-183.2035 L174.54546,-188.58852 L179.39394,-193.74701 L184.24243,-198.64383 L189.09091,-203.24655 L193.93939,-207.52545 L198.78787,-211.45349 L203.63637,-215.00635 L208.48485,-218.1624 L213.33333,-220.90271 L218.18182,-223.21109 L223.0303,-225.07402 L227.87878,-226.48067 L232.72728,-227.42293 L237.57576,-227.89542 L242.42424,-227.89542 L247.27272,-227.42293 L252.12122,-226.48067 L256.9697,-225.07402 L261.81818,-223.21109 L266.66666,-220.90271 L271.51514,-218.1624 L276.36365,-215.00635 L281.21213,-211.45349 L286.0606,-207.52545 L290.9091,-203.24655 L295.75757,-198.64383 L300.60605,-193.74701 L305.45456,-188.58852 L310.30304,-183.2035 L315.15152,-177.6298 L320,-171.90797 L324.84848,-166.08122 L329.69696,-160.19554 L334.54544,-154.29956 L339.39395,-148.44464 L344.24243,-142.68483 L349.0909,-137.07689 L353.9394,-131.6803 L358.78787,-126.5572 L363.63635,-121.772484 L368.48486,-117.39371 L373.33334,-113.49115 L378.18182,-110.137794 L383.0303,-107.40932 L387.87878,-105.384094 L392.72726,-104.14322 L397.57574,-103.770485 L402.42426,-104.35237 L407.27274,-105.97808 L412.12122,-108.73951 L416.9697,-112.73126 L421.81818,-118.05064 L426.66666,-124.79763 L431.51514,-133.07497 L436.36365,-142.98805 L441.21213,-154.64502 L446.0606,-168.15665 L450.9091,-183.63649 L455.75757,-201.20074 L460.60605,-220.96835 L465.45456,-243.06096 L470.30304,-267.60287 L475.15152,-294.7211 L480,-324.54544" fill="none" stroke="purple" stroke-linejoin="round" stroke-width="2"/>
</g>
<g>
<circle cx="0" cy="-324.5454545454545" fill="purple" r="1"/>
<circle cx="4.848484848484853" cy="-294.72111473981477" fill="purple" r="1"/>
<circle cx="9.696969696969706" cy="-267.60286002967143" fill="purple" r="1"/>
<circle cx="14.545454545454533" cy="-243.06095278000657" fill="purple" r="1"/>
<circle cx="19.393939393939384" cy="-220.96835822319798" fill="purple" r="1"/>
<circle cx="24.24242424242424" cy="-201.20074445901943" fill="purple" r="1"/>
<circle cx="29.090909090909093" cy="-183.63648245464148" fill="purple" r="1"/>
<circle cx="33.939393939393945" cy="-168.15664604463063" fill="purple" r="1"/>
<circle cx="38.787878787878796" cy="-154.64501193094972" fill="purple" r="1"/>
<circle cx="43.636363636363654" cy="-142.98805968295753" fill="purple" r="1"/>
<circle cx="48.48484848484848" cy="-133.07497173740933" fill="purple" r="1"/>
<circle cx="53.33333333333333" cy="-124.79763339845645" fill="purple" r="1"/>
<circle cx="58.18181818181819" cy="-118.05063283764649" fill="purple" r="1"/>
<circle cx="63.03030303030304" cy="-112.73126109392327" fill="purple" r="1"/>
<circle cx="67.87878787878789" cy="-108.73951207362681" fill="purple" r="1"/>
<circle cx="72.72727272727272" cy="-105.97808255049337" fill="purple" r="1"/>
<circle cx="77.57575757575759" cy="-104.35237216565538" fill="purple" r="1"/>
<circle cx="82.42424242424242" cy="-103.7704834276416" fill="purple" r="1"/>
<circle cx="87.27272727272728" cy="-104.14322171237683" fill="purple" r="1"/>
<circle cx="92.12121212121212" cy="-105.3840952631822" fill="purple" r="1"/>
<circle cx="96.96969696969698" cy="-107.40931519077506" fill="purple" r="1"/>
<circle cx="101.81818181818184" cy="-110.13779547326891" fill="purple" r="1"/>
<circle cx="106.66666666666666" cy="-113.49115295617352" fill="purple" r="1"/>
<circle cx="111.51515151515154" cy="-117.3937073523949" fill="purple" r="1"/>
<circle cx="116.36363636363637" cy="-121.77248124223513" fill="purple" r="1"/>
<circle cx="121.21212121212122" cy="-126.55720007339269" fill="purple" r="1"/>
<circle cx="126.06060606060608" cy="-131.68029216096218" fill="purple" r="1"/>
<circle cx="130.90909090909093" cy="-137.07688868743443" fill="purple" r="1"/>
<circle cx="135.75757575757578" cy="-142.68482370269646" fill="purple" r="1"/>
<circle cx="140.6060606060606" cy="-148.44463412403155" fill="purple" r="1"/>
<circle cx="145.45454545454547" cy="-154.29955973611916" fill="purple" r="1"/>
<circle cx="150.3030303030303" cy="-160.19554319103503" fill="purple" r="1"/>
<circle cx="155.15151515151516" cy="-166.08123000825103" fill="purple" r="1"/>
<circle cx="160.00000000000003" cy="-171.90796857463525" fill="purple" r="1"/>
<circle cx="164.84848484848487" cy="-177.6298101444521" fill="purple" r="1"/>
<circle cx="169.69696969696972" cy="-183.2035088393621" fill="purple" r="1"/>
<circle cx="174.54545454545456" cy="-188.58852164842196" fill="purple" r="1"/>
<circle cx="179.3939393939394" cy="-193.7470084280847" fill="purple" r="1"/>
<circle cx="184.24242424242425" cy="-198.6438319021996" fill="purple" r="1"/>
<circle cx="189.09090909090912" cy="-203.246557662012" fill="purple" r="1"/>
<circle cx="193.93939393939397" cy="-207.52545416616354" fill="purple" r="1"/>
<circle cx="198.7878787878788" cy="-211.45349274069204" fill="purple" r="1"/>
<circle cx="203.63636363636365" cy="-215.00634757903157" fill="purple" r="1"/>
<circle cx="208.4848484848485" cy="-218.1623957420125" fill="purple" r="1"/>
<circle cx="213.33333333333334" cy="-220.9027171578612" fill="purple" r="1"/>
<circle cx="218.1818181818182" cy="-223.21109462220045" fill="purple" r="1"/>
<circle cx="223.03030303030306" cy="-225.07401379804912" fill="purple" r="1"/>
<circle cx="227.8787878787879" cy="-226.48066321582235" fill="purple" r="1"/>
<circle cx="232.72727272727275" cy="-227.42293427333152" fill="purple" r="1"/>
<circle cx="237.5757575757576" cy="-227.89542123578426" fill="purple" r="1"/>
<circle cx="242.42424242424244" cy="-227.89542123578426" fill="purple" r="1"/>
<circle cx="247.27272727272725" cy="-227.42293427333152" fill="purple" r="1"/>
<circle cx="252.1212121212121" cy="-226.48066321582235" fill="purple" r="1"/>
<circle cx="256.96969696969694" cy="-225.07401379804912" fill="purple" r="1"/>
<circle cx="261.8181818181818" cy="-223.21109462220045" fill="purple" r="1"/>
<circle cx="266.6666666666667" cy="-220.9027171578612" fill="purple" r="1"/>
<circle cx="271.5151515151515" cy="-218.1623957420125" fill="purple" r="1"/>
<circle cx="276.3636363636363" cy="-215.00634757903157" fill="purple" r="1"/>
<circle cx="281.2121212121212" cy="-211.45349274069204" fill="purple" r="1"/>
<circle cx="286.06060606060606" cy="-207.52545416616354" fill="purple" r="1"/>
<circle cx="290.9090909090909" cy="-203.246557662012" fill="purple" r="1"/>
<circle cx="295.75757575757575" cy="-198.6438319021996" fill="purple" r="1"/>
<circle cx="300.6060606060606" cy="-193.7470084280847" fill="purple" r="1"/>
<circle cx="305.45454545454544" cy="-188.58852164842196" fill="purple" r="1"/>
<circle cx="310.30303030303025" cy="-183.2035088393621" fill="purple" r="1"/>
<circle cx="315.1515151515151" cy="-177.6298101444521" fill="purple" r="1"/>
<circle cx="320" cy="-171.90796857463525" fill="purple" r="1"/>
<circle cx="324.8484848484848" cy="-166.08123000825103" fill="purple" r="1"/>
<circle cx="329.6969696969697" cy="-160.19554319103503" fill="purple" r="1"/>
<circle cx="334.54545454545456" cy="-154.29955973611916" fill="purple" r="1"/>
<circle cx="339.3939393939394" cy="-148.44463412403155" fill="purple" r="1"/>
<circle cx="344.24242424242425" cy="-142.68482370269646" fill="purple" r="1"/>
<circle cx="349.0909090909091" cy="-137.07688868743443" fill="purple" r="1"/>
<circle cx="353.93939393939394" cy="-131.68029216096218" fill="purple" r="1"/>
<circle cx="358.78787878787875" cy="-126.55720007339269" fill="purple" r="1"/>
<circle cx="363.6363636363636" cy="-121.77248124223513" fill="purple" r="1"/>
<circle cx="368.48484848484844" cy="-117.3937073523949" fill="purple" r="1"/>
<circle cx="373.3333333333333" cy="-113.49115295617352" fill="purple" r="1"/>
<circle cx="378.1818181818182" cy="-110.13779547326891" fill="purple" r="1"/>
<circle cx="383.03030303030306" cy="-107.40931519077506" fill="purple" r="1"/>
<circle cx="387.8787878787879" cy="-105.3840952631822" fill="purple" r="1"/>
<circle cx="392.7272727272727" cy="-104.14322171237683" fill="purple" r="1"/>
<circle cx="397.57575757575756" cy="-103.7704834276416" fill="purple" r="1"/>
<circle cx="402.4242424242424" cy="-104.35237216565538" fill="purple" r="1"/>
<circle cx="407.2727272727273" cy="-105.97808255049337" fill="purple" r="1"/>
<circle cx="412.1212121212121" cy="-108.73951207362681" fill="purple" r="1"/>
<circle cx="416.969696969697" cy="-112.73126109392327" fill="purple" r="1"/>
<circle cx="421.8181818181818" cy="-118.05063283764649" fill="purple" r="1"/>
<circle cx="426.66666666666663" cy="-124.79763339845645" fill="purple" r="1"/>
<circle cx="431.5151515151515" cy="-133.07497173740933" fill="purple" r="1"/>
<circle cx="436.3636363636364" cy="-142.98805968295753" fill="purple" r="1"/>
<circle cx="441.2121212121212" cy="-154.64501193094972" fill="purple" r="1"/>
<circle cx="446.06060606060606" cy="-168.15664604463063" fill="purple" r="1"/>
<circle cx="450.90909090909093" cy="-183.63648245464148" fill="purple" r="1"/>
<circle cx="455.75757575757575" cy="-201.20074445901943" fill="purple" r="1"/>
<circle cx="460.60606060606057" cy="-220.96835822319798" fill="purple" r="1"/>
<circle cx="465.4545454545455" cy="-243.06095278000657" fill="purple" r="1"/>
<circle cx="470.3030303030303" cy="-267.60286002967143" fill="purple" r="1"/>
<circle cx="475.1515151515151" cy="-294.72111473981477" fill="purple" r="1"/>
<circle cx="480" cy="-324.5454545454545" fill="purple" r="1"/>
</g>
</g>
<g>
<g>
<path d="M0,-15.454545 L0,-15.454545 L4.848485,-59.063335 L9.69697,-96.570526 L14.545455,-128.4754 L19.39394,-155.25394 L24.242424,-177.3592 L29.09091,-195.22195 L33.939392,-209.25105 L38.78788,-219.834 L43.636364,-227.3374 L48.484848,-232.10745 L53.333332,-234.47049 L58.18182,-234.7334 L63.030304,-233.18416 L67.878784,-230.09232 L72.72727,-225.70949 L77.57576,-220.26982 L82.42424,-213.99057 L87.27273,-207.07245 L92.121216,-199.70024 L96.969696,-192.04326 L101.818184,-184.2558 L106.666664,-176.47768 L111.51515,-168.83469 L116.36364,-161.43915 L121.21212,-154.3903 L126.06061,-147.7749 L130.90909,-141.66765 L135.75757,-136.13167 L140.60606,-131.21907 L145.45454,-126.97139 L150.30302,-123.42006 L155.15152,-120.58695 L160,-118.48485 L164.84848,-117.11793 L169.69698,-116.482254 L174.54546,-116.56628 L179.39394,-117.351326 L184.24243,-118.812096 L189.09091,-120.91713 L193.93939,-123.629326 L198.78787,-126.90642 L203.63637,-130.70148 L208.48485,-134.96341 L213.33333,-139.63739 L218.18182,-144.66545 L223.0303,-149.9869 L227.87878,-155.53882 L232.72728,-161.2566 L237.57576,-167.0744 L242.42424,-172.9256 L247.27272,-178.7434 L252.12122,-184.46118 L256.9697,-190.0131 L261.81818,-195.33455 L266.66666,-200.36261 L271.51514,-205.03659 L276.36365,-209.29852 L281.21213,-213.09358 L286.0606,-216.37068 L290.9091,-219.08287 L295.75757,-221.1879 L300.60605,-222.64867 L305.45456,-223.43372 L310.30304,-223.51775 L315.15152,-222.88208 L320,-221.51515 L324.84848,-219.41306 L329.69696,-216.57994 L334.54544,-213.02861 L339.39395,-208.78093 L344.24243,-203.86833 L349.0909,-198.33235 L353.9394,-192.2251 L358.78787,-185.6097 L363.63635,-178.56085 L368.48486,-171.16531 L373.33334,-163.52232 L378.18182,-155.7442 L383.0303,-147.95674 L387.87878,-140.29976 L392.72726,-132.92755 L397.57574,-126.00943 L402.42426,-119.73017 L407.27274,-114.29052 L412.12122,-109.907684 L416.9697,-106.81584 L421.81818,-105.2666 L426.66666,-105.5295 L431.51514,-107.89254 L436.36365,-112.6626 L441.21213,-120.166 L446.0606,-130.74895 L450.9091,-144.77805 L455.75757,-162.6408 L460.60605,-184.74606 L465.45456,-211.5246 L470.30304,-243.42947 L475.15152,-280.93668 L480,-324.54544" fill="none" stroke="darkblue" stroke-linejoin="round" stroke-width="2"/>
</g>
<g>
<circle cx="0" cy="-15.454545454545466" fill="darkblue" r="1"/>
<circle cx="4.848484848484853" cy="-59.06333610267712" fill="darkblue" r="1"/>
<circle cx="9.696969696969706" cy="-96.57052646146157" fill="darkblue" r="1"/>
<circle cx="14.545454545454533" cy="-128.4754098535447" fill="darkblue" r="1"/>
<circle cx="19.393939393939384" cy="-155.2539366558785" fill="darkblue" r="1"/>
<circle cx="24.24242424242424" cy="-177.35920573015596" fill="darkblue" r="1"/>
<circle cx="29.090909090909093" cy="-195.22195585324658" fill="darkblue" r="1"/>
<circle cx="33.939393939393945" cy="-209.25105714763234" fill="darkblue" r="1"/>
<circle cx="38.787878787878796" cy="-219.83400251184327" fill="darkblue" r="1"/>
<circle cx="43.636363636363654" cy="-227.33739905089354" fill="darkblue" r="1"/>
<circle cx="48.48484848484848" cy="-232.10745950671648" fill="darkblue" r="1"/>
<circle cx="53.33333333333333" cy="-234.47049368860067" fill="darkblue" r="1"/>
<circle cx="58.18181818181819" cy="-234.7333999036255" fill="darkblue" r="1"/>
<circle cx="63.03030303030304" cy="-233.18415638709675" fill="darkblue" r="1"/>
<circle cx="67.87878787878789" cy="-230.09231273298252" fill="darkblue" r="1"/>
<circle cx="72.72727272727272" cy="-225.70948132434867" fill="darkblue" r="1"/>
<circle cx="77.57575757575759" cy="-220.26982876379455" fill="darkblue" r="1"/>
<circle cx="82.42424242424242" cy="-213.9905673038888" fill="darkblue" r="1"/>
<circle cx="87.27272727272728" cy="-207.07244627760488" fill="darkblue" r="1"/>
<circle cx="92.12121212121212" cy="-199.70024352875677" fill="darkblue" r="1"/>
<circle cx="96.96969696969698" cy="-192.04325684243463" fill="darkblue" r="1"/>
<circle cx="101.81818181818184" cy="-184.2557953754407" fill="darkblue" r="1"/>
<circle cx="106.66666666666666" cy="-176.4776710867246" fill="darkblue" r="1"/>
<circle cx="111.51515151515154" cy="-168.8346901678192" fill="darkblue" r="1"/>
<circle cx="116.36363636363637" cy="-161.4391444732765" fill="darkblue" r="1"/>
<circle cx="121.21212121212122" cy="-154.39030295110288" fill="darkblue" r="1"/>
<circle cx="126.06060606060608" cy="-147.77490307319508" fill="darkblue" r="1"/>
<circle cx="130.90909090909093" cy="-141.66764226577575" fill="darkblue" r="1"/>
<circle cx="135.75757575757578" cy="-136.13166933982924" fill="darkblue" r="1"/>
<circle cx="140.6060606060606" cy="-131.2190759215372" fill="darkblue" r="1"/>
<circle cx="145.45454545454547" cy="-126.97138788271411" fill="darkblue" r="1"/>
<circle cx="150.3030303030303" cy="-123.42005677124324" fill="darkblue" r="1"/>
<circle cx="155.15151515151516" cy="-120.5869512415122" fill="darkblue" r="1"/>
<circle cx="160.00000000000003" cy="-118.48484848484848" fill="darkblue" r="1"/>
<circle cx="164.84848484848487" cy="-117.11792565995538" fill="darkblue" r="1"/>
<circle cx="169.69696969696972" cy="-116.48225132334748" fill="darkblue" r="1"/>
<circle cx="174.54545454545456" cy="-116.56627685978636" fill="darkblue" r="1"/>
<circle cx="179.3939393939394" cy="-117.35132791271643" fill="darkblue" r="1"/>
<circle cx="184.24242424242425" cy="-118.81209581470034" fill="darkblue" r="1"/>
<circle cx="189.09090909090912" cy="-120.91712901785489" fill="darkblue" r="1"/>
<circle cx="193.93939393939397" cy="-123.62932452428656" fill="darkblue" r="1"/>
<circle cx="198.7878787878788" cy="-126.90641931652725" fill="darkblue" r="1"/>
<circle cx="203.63636363636365" cy="-130.70148178796993" fill="darkblue" r="1"/>
<circle cx="208.4848484848485" cy="-134.96340317330439" fill="darkblue" r="1"/>
<circle cx="213.33333333333334" cy="-139.63738897895277" fill="darkblue" r="1"/>
<circle cx="218.1818181818182" cy="-144.66545041350543" fill="darkblue" r="1"/>
<circle cx="223.03030303030306" cy="-149.98689581815628" fill="darkblue" r="1"/>
<circle cx="227.8787878787879" cy="-155.53882209713905" fill="darkblue" r="1"/>
<circle cx="232.72727272727275" cy="-161.25660614816226" fill="darkblue" r="1"/>
<circle cx="237.5757575757576" cy="-167.07439629284545" fill="darkblue" r="1"/>
<circle cx="242.42424242424244" cy="-172.92560370715458" fill="darkblue" r="1"/>
<circle cx="247.27272727272725" cy="-178.74339385183774" fill="darkblue" r="1"/>
<circle cx="252.1212121212121" cy="-184.46117790286095" fill="darkblue" r="1"/>
<circle cx="256.96969696969694" cy="-190.01310418184372" fill="darkblue" r="1"/>
<circle cx="261.8181818181818" cy="-195.33454958649457" fill="darkblue" r="1"/>
<circle cx="266.6666666666667" cy="-200.36261102104723" fill="darkblue" r="1"/>
<circle cx="271.5151515151515" cy="-205.03659682669561" fill="darkblue" r="1"/>
<circle cx="276.3636363636363" cy="-209.29851821203007" fill="darkblue" r="1"/>
<circle cx="281.2121212121212" cy="-213.09358068347274" fill="darkblue" r="1"/>
<circle cx="286.06060606060606" cy="-216.37067547571345" fill="darkblue" r="1"/>
<circle cx="290.9090909090909" cy="-219.0828709821451" fill="darkblue" r="1"/>
<circle cx="295.75757575757575" cy="-221.18790418529966" fill="darkblue" r="1"/>
<circle cx="300.6060606060606" cy="-222.64867208728356" fill="darkblue" r="1"/>
<circle cx="305.45454545454544" cy="-223.4337231402136" fill="darkblue" r="1"/>
<circle cx="310.30303030303025" cy="-223.5177486766525" fill="darkblue" r="1"/>
<circle cx="315.1515151515151" cy="-222.88207434004462" fill="darkblue" r="1"/>
<circle cx="320" cy="-221.51515151515153" fill="darkblue" r="1"/>
<circle cx="324.8484848484848" cy="-219.4130487584878" fill="darkblue" r="1"/>
<circle cx="329.6969696969697" cy="-216.57994322875675" fill="darkblue" r="1"/>
<circle cx="334.54545454545456" cy="-213.02861211728592" fill="darkblue" r="1"/>
<circle cx="339.3939393939394" cy="-208.7809240784628" fill="darkblue" r="1"/>
<circle cx="344.24242424242425" cy="-203.86833066017073" fill="darkblue" r="1"/>
<circle cx="349.0909090909091" cy="-198.33235773422425" fill="darkblue" r="1"/>
<circle cx="353.93939393939394" cy="-192.22509692680495" fill="darkblue" r="1"/>
<circle cx="358.78787878787875" cy="-185.60969704889712" fill="darkblue" r="1"/>
<circle cx="363.6363636363636" cy="-178.5608555267235" fill="darkblue" r="1"/>
<circle cx="368.48484848484844" cy="-171.1653098321808" fill="darkblue" r="1"/>
<circle cx="373.3333333333333" cy="-163.5223289132754" fill="darkblue" r="1"/>
<circle cx="378.1818181818182" cy="-155.7442046245593" fill="darkblue" r="1"/>
<circle cx="383.03030303030306" cy="-147.95674315756537" fill="darkblue" r="1"/>
<circle cx="387.8787878787879" cy="-140.29975647124326" fill="darkblue" r="1"/>
<circle cx="392.7272727272727" cy="-132.92755372239512" fill="darkblue" r="1"/>
<circle cx="397.57575757575756" cy="-126.00943269611118" fill="darkblue" r="1"/>
<circle cx="402.4242424242424" cy="-119.73017123620546" fill="darkblue" r="1"/>
<circle cx="407.2727272727273" cy="-114.29051867565133" fill="darkblue" r="1"/>
<circle cx="412.1212121212121" cy="-109.90768726701748" fill="darkblue" r="1"/>
<circle cx="416.969696969697" cy="-106.81584361290327" fill="darkblue" r="1"/>
<circle cx="421.8181818181818" cy="-105.26660009637452" fill="darkblue" r="1"/>
<circle cx="426.66666666666663" cy="-105.52950631139933" fill="darkblue" r="1"/>
<circle cx="431.5151515151515" cy="-107.8925404932835" fill="darkblue" r="1"/>
<circle cx="436.3636363636364" cy="-112.66260094910646" fill="darkblue" r="1"/>
<circle cx="441.2121212121212" cy="-120.1659974881567" fill="darkblue" r="1"/>
<circle cx="446.06060606060606" cy="-130.7489428523677" fill="darkblue" r="1"/>
<circle cx="450.90909090909093" cy="-144.7780441467534" fill="darkblue" r="1"/>
<circle cx="455.75757575757575" cy="-162.64079426984406" fill="darkblue" r="1"/>
<circle cx="460.60606060606057" cy="-184.7460633441215" fill="darkblue" r="1"/>
<circle cx="465.4545454545455" cy="-211.5245901464553" fill="darkblue" r="1"/>
<circle cx="470.3030303030303" cy="-243.42947353853842" fill="darkblue" r="1"/>
<circle cx="475.1515151515151" cy="-280.93666389732283" fill="darkblue" r="1"/>
<circle cx="480" cy="-324.5454545454545" fill="darkblue" r="1"/>
</g>
</g>
<g>
<g>
<path d="M0,-324.54544 L0,-324.54544 L4.848485,-265.34085 L9.69697,-217.84576 L14.545455,-180.63045 L19.39394,-152.37622 L24.242424,-131.87032 L29.09091,-118.00089 L33.939392,-109.75206 L38.78788,-106.19912 L43.636364,-106.50385 L48.484848,-109.90994 L53.333332,-115.73849 L58.18182,-123.38364 L63.030304,-132.30833 L67.878784,-142.04015 L72.72727,-152.16727 L77.57576,-162.33453 L82.42424,-172.23965 L87.27273,-181.62946 L92.121216,-190.29631 L96.969696,-198.0746 L101.818184,-204.83739 L106.666664,-210.49307 L111.51515,-214.9823 L116.36364,-218.27486 L121.21212,-220.36668 L126.06061,-221.27716 L130.90909,-221.04622 L135.75757,-219.73187 L140.60606,-217.40758 L145.45454,-214.15993 L150.30302,-210.08627 L155.15152,-205.29262 L160,-199.89151 L164.84848,-194.00005 L169.69698,-187.73808 L174.54546,-181.22643 L179.39394,-174.5852 L184.24243,-167.93239 L189.09091,-161.38232 L193.93939,-155.0444 L198.78787,-149.02193 L203.63637,-143.41096 L208.48485,-138.29941 L213.33333,-133.76605 L218.18182,-129.87985 L223.0303,-126.69928 L227.87878,-124.27178 L232.72728,-122.6333 L237.57576,-121.80799 L242.42424,-121.80799 L247.27272,-122.6333 L252.12122,-124.27178 L256.9697,-126.69928 L261.81818,-129.87985 L266.66666,-133.76605 L271.51514,-138.29941 L276.36365,-143.41096 L281.21213,-149.02193 L286.0606,-155.0444 L290.9091,-161.38232 L295.75757,-167.93239 L300.60605,-174.5852 L305.45456,-181.22643 L310.30304,-187.73808 L315.15152,-194.00005 L320,-199.89151 L324.84848,-205.29262 L329.69696,-210.08627 L334.54544,-214.15993 L339.39395,-217.40758 L344.24243,-219.73187 L349.0909,-221.04622 L353.9394,-221.27716 L358.78787,-220.36668 L363.63635,-218.27486 L368.48486,-214.9823 L373.33334,-210.49307 L378.18182,-204.83739 L383.0303,-198.0746 L387.87878,-190.29631 L392.72726,-181.62946 L397.57574,-172.23965 L402.42426,-162.33453 L407.27274,-152.16727 L412.12122,-142.04015 L416.9697,-132.30833 L421.81818,-123.38364 L426.66666,-115.73849 L431.51514,-109.90994 L436.36365,-106.50385 L441.21213,-106.19912 L446.0606,-109.75206 L450.9091,-118.00089 L455.75757,-131.87032 L460.60605,-152.37622 L465.45456,-180.63045 L470.30304,-217.84576 L475.15152,-265.34085 L480,-324.54544" fill="none" stroke="mediumorchid" stroke-linejoin="round" stroke-width="2"/>
</g>
<g>
<circle cx="0" cy="-324.5454545454545" fill="mediumorchid" r="1"/>
<circle cx="4.848484848484853" cy="-265.34085619904914" fill="mediumorchid" r="1"/>
<circle cx="9.696969696969706" cy="-217.84576453381362" fill="mediumorchid" r="1"/>
<circle cx="14.545454545454533" cy="-180.63044460222312" fill="mediumorchid" r="1"/>
<circle cx="19.393939393939384" cy="-152.3762156346509" fill="mediumorchid" r="1"/>
<circle cx="24.24242424242424" cy="-131.870318321486" fill="mediumorchid" r="1"/>
<circle cx="29.090909090909093" cy="-118.00089130201259" fill="mediumorchid" r="1"/>
<circle cx="33.939393939393945" cy="-109.75205686005322" fill="mediumorchid" r="1"/>
<circle cx="38.787878787878796" cy="-106.19911582637538" fill="mediumorchid" r="1"/>
<circle cx="43.636363636363654" cy="-106.50385168786174" fill="mediumorchid" r="1"/>
<circle cx="48.48484848484848" cy="-109.909943903444" fill="mediumorchid" r="1"/>
<circle cx="53.33333333333333" cy="-115.73849042680015" fill="mediumorchid" r="1"/>
<circle cx="58.18181818181819" cy="-123.3836394358148" fill="mediumorchid" r="1"/>
<circle cx="63.03030303030304" cy="-132.30833026880353" fill="mediumorchid" r="1"/>
<circle cx="67.87878787878789" cy="-142.04014356750068" fill="mediumorchid" r="1"/>
<circle cx="72.72727272727272" cy="-152.16726062681002" fill="mediumorchid" r="1"/>
<circle cx="77.57575757575759" cy="-162.33453195131986" fill="mediumorchid" r="1"/>
<circle cx="82.42424242424242" cy="-172.2396550185806" fill="mediumorchid" r="1"/>
<circle cx="87.27272727272728" cy="-181.62946124914694" fill="mediumorchid" r="1"/>
<circle cx="92.12121212121212" cy="-190.2963121833822" fill="mediumorchid" r="1"/>
<circle cx="96.96969696969698" cy="-198.07460486502742" fill="mediumorchid" r="1"/>
<circle cx="101.81818181818184" cy="-204.83738643153293" fill="mediumorchid" r="1"/>
<circle cx="106.66666666666666" cy="-210.49307791115442" fill="mediumorchid" r="1"/>
<circle cx="111.51515151515154" cy="-214.98230722681134" fill="mediumorchid" r="1"/>
<circle cx="116.36363636363637" cy="-218.2748514067096" fill="mediumorchid" r="1"/>
<circle cx="121.21212121212122" cy="-220.36668800172754" fill="mediumorchid" r="1"/>
<circle cx="126.06060606060608" cy="-221.27715570956545" fill="mediumorchid" r="1"/>
<circle cx="130.90909090909093" cy="-221.04622420565815" fill="mediumorchid" r="1"/>
<circle cx="135.75757575757578" cy="-219.73187318085186" fill="mediumorchid" r="1"/>
<circle cx="140.6060606060606" cy="-217.4075805858436" fill="mediumorchid" r="1"/>
<circle cx="145.45454545454547" cy="-214.15992008238496" fill="mediumorchid" r="1"/>
<circle cx="150.3030303030303" cy="-210.08626770124857" fill="mediumorchid" r="1"/>
<circle cx="155.15151515151516" cy="-205.29261770695882" fill="mediumorchid" r="1"/>
<circle cx="160.00000000000003" cy="-199.89150766928543" fill="mediumorchid" r="1"/>
<circle cx="164.84848484848487" cy="-194.00005274150072" fill="mediumorchid" r="1"/>
<circle cx="169.69696969696972" cy="-187.73808914540055" fill="mediumorchid" r="1"/>
<circle cx="174.54545454545456" cy="-181.22642686308853" fill="mediumorchid" r="1"/>
<circle cx="179.3939393939394" cy="-174.58521153552365" fill="mediumorchid" r="1"/>
<circle cx="184.24242424242425" cy="-167.93239556783166" fill="mediumorchid" r="1"/>
<circle cx="189.09090909090912" cy="-161.38231844137977" fill="mediumorchid" r="1"/>
<circle cx="193.93939393939397" cy="-155.04439623261473" fill="mediumorchid" r="1"/>
<circle cx="198.7878787878788" cy="-149.0219203386647" fill="mediumorchid" r="1"/>
<circle cx="203.63636363636365" cy="-143.41096540970426" fill="mediumorchid" r="1"/>
<circle cx="208.4848484848485" cy="-138.29940648808298" fill="mediumorchid" r="1"/>
<circle cx="213.33333333333334" cy="-133.76604535421788" fill="mediumorchid" r="1"/>
<circle cx="218.1818181818182" cy="-129.87984607924875" fill="mediumorchid" r="1"/>
<circle cx="223.03030303030306" cy="-126.69927978445733" fill="mediumorchid" r="1"/>
<circle cx="227.8787878787879" cy="-124.27177860744997" fill="mediumorchid" r="1"/>
<circle cx="232.72727272727275" cy="-122.63329887510358" fill="mediumorchid" r="1"/>
<circle cx="237.5757575757576" cy="-121.80799348327521" fill="mediumorchid" r="1"/>
<circle cx="242.42424242424244" cy="-121.80799348327524" fill="mediumorchid" r="1"/>
<circle cx="247.27272727272725" cy="-122.63329887510358" fill="mediumorchid" r="1"/>
<circle cx="252.1212121212121" cy="-124.27177860744997" fill="mediumorchid" r="1"/>
<circle cx="256.96969696969694" cy="-126.69927978445733" fill="mediumorchid" r="1"/>
<circle cx="261.8181818181818" cy="-129.87984607924875" fill="mediumorchid" r="1"/>
<circle cx="266.6666666666667" cy="-133.76604535421788" fill="mediumorchid" r="1"/>
<circle cx="271.5151515151515" cy="-138.29940648808298" fill="mediumorchid" r="1"/>
<circle cx="276.3636363636363" cy="-143.41096540970426" fill="mediumorchid" r="1"/>
<circle cx="281.2121212121212" cy="-149.0219203386647" fill="mediumorchid" r="1"/>
<circle cx="286.06060606060606" cy="-155.04439623261473" fill="mediumorchid" r="1"/>
<circle cx="290.9090909090909" cy="-161.38231844137977" fill="mediumorchid" r="1"/>
<circle cx="295.75757575757575" cy="-167.93239556783166" fill="mediumorchid" r="1"/>
<circle cx="300.6060606060606" cy="-174.58521153552365" fill="mediumorchid" r="1"/>
<circle cx="305.45454545454544" cy="-181.22642686308853" fill="mediumorchid" r="1"/>
<circle cx="310.30303030303025" cy="-187.73808914540055" fill="mediumorchid" r="1"/>
<circle cx="315.1515151515151" cy="-194.00005274150072" fill="mediumorchid" r="1"/>
<circle cx="320" cy="-199.89150766928543" fill="mediumorchid" r="1"/>
<circle cx="324.8484848484848" cy="-205.29261770695882" fill="mediumorchid" r="1"/>
<circle cx="329.6969696969697" cy="-210.08626770124857" fill="mediumorchid" r="1"/>
<circle cx="334.54545454545456" cy="-214.15992008238496" fill="mediumorchid" r="1"/>
<circle cx="339.3939393939394" cy="-217.4075805858436" fill="mediumorchid" r="1"/>
<circle cx="344.24242424242425" cy="-219.73187318085186" fill="mediumorchid" r="1"/>
<circle cx="349.0909090909091" cy="-221.04622420565815" fill="mediumorchid" r="1"/>
<circle cx="353.93939393939394" cy="-221.27715570956545" fill="mediumorchid" r="1"/>
<circle cx="358.78787878787875" cy="-220.36668800172754" fill="mediumorchid" r="1"/>
<circle cx="363.6363636363636" cy="-218.2748514067096" fill="mediumorchid" r="1"/>
<circle cx="368.48484848484844" cy="-214.98230722681134" fill="mediumorchid" r="1"/>
<circle cx="373.3333333333333" cy="-210.49307791115442" fill="mediumorchid" r="1"/>
<circle cx="378.1818181818182" cy="-204.83738643153293" fill="mediumorchid" r="1"/>
<circle cx="383.03030303030306" cy="-198.07460486502742" fill="mediumorchid" r="1"/>
<circle cx="387.8787878787879" cy="-190.2963121833822" fill="mediumorchid" r="1"/>
<circle cx="392.7272727272727" cy="-181.62946124914694" fill="mediumorchid" r="1"/>
<circle cx="397.57575757575756" cy="-172.2396550185806" fill="mediumorchid" r="1"/>
<circle cx="402.4242424242424" cy="-162.33453195131986" fill="mediumorchid" r="1"/>
<circle cx="407.2727272727273" cy="-152.16726062681002" fill="mediumorchid" r="1"/>
<circle cx="412.1212121212121" cy="-142.04014356750068" fill="mediumorchid" r="1"/>
<circle cx="416.969696969697" cy="-132.30833026880353" fill="mediumorchid" r="1"/>
<circle cx="421.8181818181818" cy="-123.3836394358148" fill="mediumorchid" r="1"/>
<circle cx="426.66666666666663" cy="-115.73849042680015" fill="mediumorchid" r="1"/>
<circle cx="431.5151515151515" cy="-109.909943903444" fill="mediumorchid" r="1"/>
<circle cx="436.3636363636364" cy="-106.50385168786174" fill="mediumorchid" r="1"/>
<circle cx="441.2121212121212" cy="-106.19911582637538" fill="mediumorchid" r="1"/>
<circle cx="446.06060606060606" cy="-109.75205686005322" fill="mediumorchid" r="1"/>
<circle cx="450.90909090909093" cy="-118.00089130201259" fill="mediumorchid" r="1"/>
<circle cx="455.75757575757575" cy="-131.870318321486" fill="mediumorchid" r="1"/>
<circle cx="460.60606060606057" cy="-152.3762156346509" fill="mediumorchid" r="1"/>
<circle cx="465.4545454545455" cy="-180.63044460222312" fill="mediumorchid" r="1"/>
<circle cx="470.3030303030303" cy="-217.84576453381362" fill="mediumorchid" r="1"/>
<circle cx="475.1515151515151" cy="-265.34085619904914" fill="mediumorchid" r="1"/>
<circle cx="480" cy="-324.5454545454545" fill="mediumorchid" r="1"/>
</g>
</g>
<g>
<g>
<line stroke="black" stroke-width="1" x1="0" x2="0" y1="0" y2="10"/>
<line stroke="black" stroke-width="1" x1="120" x2="120" y1="0" y2="10"/>
<line stroke="black" stroke-width="1" x1="240" x2="240" y1="0" y2="10"/>
<line stroke="black" stroke-width="1" x1="360" x2="360" y1="0" y2="10"/>
<line stroke="black" stroke-width="1" x1="480" x2="480" y1="0" y2="10"/>
</g>
<line stroke="black" stroke-width="1" x1="0" x2="480" y1="0" y2="0"/>
<g>
<text font-size="12" text-anchor="middle" x="0" y="20">
-1
</text>
<text font-size="12" text-anchor="middle" x="120" y="20">
-0.5
</text>
<text font-size="12" text-anchor="middle" x="240" y="20">
0
</text>
<text font-size="12" text-anchor="middle" x="360" y="20">
0.5
</text>
<text font-size="12" text-anchor="middle" x="480" y="20">
1
</text>
</g>
<text font-size="12" text-anchor="middle" x="240" y="30">
x
</text>
</g>
<g>
<g>
<line stroke="black" stroke-width="1" x1="0" x2="-10" y1="-15.454545454545466" y2="-15.454545454545466"/>
<line stroke="black" stroke-width="1" x1="0" x2="-10" y1="-92.72727272727273" y2="-92.72727272727273"/>
<line stroke="black" stroke-width="1" x1="0" x2="-10" y1="-170" y2="-170"/>
<line stroke="black" stroke-width="1" x1="0" x2="-10" y1="-247.27272727272725" y2="-247.27272727272725"/>
<line stroke="black" stroke-width="1" x1="0" x2="-10" y1="-324.5454545454545" y2="-324.5454545454545"/>
</g>
<line stroke="black" stroke-width="1" x1="0" x2="0" y1="0" y2="-340"/>
<g>
<text dominant-baseline="middle" font-size="12" text-anchor="end" x="-15" y="-15.454545454545466">
-1
</text>
<text dominant-baseline="middle" font-size="12" text-anchor="end" x="-15" y="-92.72727272727273">
-0.5
</text>
<text dominant-baseline="middle" font-size="12" text-anchor="end" x="-15" y="-170">
0
</text>
<text dominant-baseline="middle" font-size="12" text-anchor="end" x="-15" y="-247.27272727272725">
0.5
</text>
<text dominant-baseline="middle" font-size="12" text-anchor="end" x="-15" y="-324.5454545454545">
1
</text>
</g>
<text font-size="12" text-anchor="middle" transform="rotate(-90 -48 -170)" x="-48" y="-182">
Legendre
</text>
</g>
</g>
</svg>